<svg xmlns="http://www.w3.org/2000/svg" xmlns:xlink="http://www.w3.org/1999/xlink" width="130.371" height="52.115" viewBox="0 0 130.371 52.115">
  <defs>
    <linearGradient id="linear-gradient" y1="0.5" x2="1" y2="0.5" gradientUnits="objectBoundingBox">
      <stop offset="0" stop-color="#f9b233"/>
      <stop offset="1" stop-color="#f39200"/>
    </linearGradient>
    <linearGradient id="linear-gradient-2" x1="0" y1="0.5" y2="0.5" xlink:href="#linear-gradient"/>
    <linearGradient id="linear-gradient-3" x1="0" y1="0.5" y2="0.5" xlink:href="#linear-gradient"/>
    <linearGradient id="linear-gradient-4" x1="0" y1="0.5" y2="0.5" xlink:href="#linear-gradient"/>
    <linearGradient id="linear-gradient-5" x1="0.5" y1="-0.271" x2="0.5" y2="1.112" gradientUnits="objectBoundingBox">
      <stop offset="0" stop-color="#9d9d9c"/>
      <stop offset="1" stop-color="#3c3c3b"/>
    </linearGradient>
    <linearGradient id="linear-gradient-6" x1="0.5" y1="-0.271" x2="0.5" y2="1.111" xlink:href="#linear-gradient-5"/>
    <linearGradient id="linear-gradient-7" x1="0.5" y1="-0.271" x2="0.5" y2="1.111" xlink:href="#linear-gradient-5"/>
    <linearGradient id="linear-gradient-8" x1="0.504" y1="-5.963" x2="0.504" y2="1.012" xlink:href="#linear-gradient-5"/>
    <linearGradient id="linear-gradient-9" x1="0.496" y1="-5.852" x2="0.496" y2="1.006" xlink:href="#linear-gradient-5"/>
    <linearGradient id="linear-gradient-10" x1="0.498" y1="-5.896" x2="0.498" y2="1.005" xlink:href="#linear-gradient-5"/>
    <linearGradient id="linear-gradient-11" x1="0.501" y1="-5.958" x2="0.501" y2="1.011" xlink:href="#linear-gradient-5"/>
    <linearGradient id="linear-gradient-12" x1="0.501" y1="-5.964" x2="0.501" y2="1.012" xlink:href="#linear-gradient-5"/>
    <linearGradient id="linear-gradient-14" x1="0.5" y1="-5.964" x2="0.5" y2="1.012" xlink:href="#linear-gradient-5"/>
    <linearGradient id="linear-gradient-17" x1="0.501" y1="-5.833" x2="0.501" y2="0.999" xlink:href="#linear-gradient-5"/>
    <linearGradient id="linear-gradient-18" x1="0.496" y1="-5.964" x2="0.496" y2="1.012" xlink:href="#linear-gradient-5"/>
    <linearGradient id="linear-gradient-19" x1="0.502" y1="-5.848" x2="0.502" y2="1.003" xlink:href="#linear-gradient-5"/>
    <linearGradient id="linear-gradient-20" x1="0.499" y1="-5.964" x2="0.499" y2="1.012" xlink:href="#linear-gradient-5"/>
    <linearGradient id="linear-gradient-21" x1="0.503" y1="-5.964" x2="0.503" y2="1.012" xlink:href="#linear-gradient-5"/>
    <linearGradient id="linear-gradient-24" x1="0.502" y1="-5.842" x2="0.502" y2="1.003" xlink:href="#linear-gradient-5"/>
  </defs>
  <g id="logo_svg" transform="translate(-1.83 -6.77)">
    <g id="Lag_2" data-name="Lag 2" transform="translate(1.83 6.77)">
      <g id="Lag_1" data-name="Lag 1" transform="translate(0 0)">
        <path id="Path_5495" data-name="Path 5495" d="M209.306,12.218a3.239,3.239,0,0,1-3.3,3.237,2.985,2.985,0,0,1-2.281-1.146c-.407-.424-.6-.612-1.027-.612-.98,0-1.971.664-3.023,2.024-4.28,5.465-7.044,15.829-9.07,23.65a46.533,46.533,0,0,0-1.661-6.39c1.55-5.565,4.009-13.6,8.121-19.121,2.24-3.012,5.227-4.74,8.193-4.74C207.606,9.12,209.306,10.421,209.306,12.218Z" transform="translate(-137.135 -8.469)" fill="url(#linear-gradient)"/>
        <path id="Path_5496" data-name="Path 5496" d="M156.433,37.671h0c-.061.221-.116.443-.174.662-.277,1.088-.554,2.118-.8,3.068a93.451,93.451,0,0,1-3,9.347l-.219.554h-2.472v-.872c0-6.645-2.11-12.121-4.153-17.429a55.134,55.134,0,0,1-2.985-9.339,51.881,51.881,0,0,1-.936-6.545c.083-.183.166-.368.249-.554,2.337-5.089,5.468-8.417,7-9.414l.59-.379,1.37,1.384-.094.454a29.091,29.091,0,0,0-.446,4.948c0,4.455,1.537,8.946,2.891,12.9.573,1.661,1.127,3.292,1.534,4.82a46.528,46.528,0,0,1,1.65,6.39Z" transform="translate(-102.967 -6.77)" fill="url(#linear-gradient-2)"/>
        <path id="Path_5497" data-name="Path 5497" d="M40.555,44.14a51.883,51.883,0,0,0,.936,6.545c-1.124,3.115-1.938,6.072-2.769,8.959-1.52,5.5-2.971,10.671-6.235,16.3-4.064,6.98-9.115,9.967-16.889,9.967a13.96,13.96,0,0,1-9.762-3.7,14.169,14.169,0,0,1,.678-20.4,13.727,13.727,0,0,1,8.611-3.569c4.458,0,7.691,2.071,7.691,4.923a2.874,2.874,0,0,1-2.9,3.1c-1.827-.008-3.093-1.575-3.093-3.8,0-.554,0-1.091-1.969-1.091A9.477,9.477,0,0,0,9,63.7,9.767,9.767,0,0,0,5.681,71.45c0,5.922,5.036,7.165,9.258,7.165,12.166,0,18.016-15.114,22.72-27.26C38.648,48.739,39.606,46.266,40.555,44.14Z" transform="translate(-1.83 -33.793)" fill="url(#linear-gradient-3)"/>
      </g>
    </g>
    <g id="Lag_4" data-name="Lag 4" transform="translate(59.518 27.923)">
      <path id="Path_5498" data-name="Path 5498" d="M242.038,94.732h-4l-.778,2.974H234.15l4.543-14.536h2.686l4.571,14.536h-3.134Zm-3.364-2.448h2.713l-1.357-5.18Z" transform="translate(-227.516 -83.17)" fill="url(#linear-gradient-4)"/>
      <path id="Path_5499" data-name="Path 5499" d="M307.561,89.7l2.184-6.529h3.2l-3.9,9.264v5.26h-2.974v-5.26l-3.9-9.264h3.192Z" transform="translate(-276.704 -83.17)" fill="url(#linear-gradient-5)"/>
      <path id="Path_5500" data-name="Path 5500" d="M382.916,91.429h-4.574V95.28h5.41v2.436H375.41V83.17h8.325v2.445h-5.393v3.433h4.571Z" transform="translate(-329.666 -83.17)" fill="url(#linear-gradient-6)"/>
      <path id="Path_5501" data-name="Path 5501" d="M448.7,91.429h-4.571V95.28h5.41v2.436H441.19V83.17h8.325v2.445h-5.391v3.433H448.7Z" transform="translate(-377.233 -83.17)" fill="url(#linear-gradient-7)"/>
      <path id="Path_5502" data-name="Path 5502" d="M212.427,158.761a.711.711,0,0,1-.066.307.72.72,0,0,1-.183.235.83.83,0,0,1-.277.152,1.035,1.035,0,0,1-.327.053H210.19v-2.9h1.44a.553.553,0,0,1,.277.066.657.657,0,0,1,.208.169.745.745,0,0,1,.133.238.8.8,0,0,1,.047.277.786.786,0,0,1-.108.4.653.653,0,0,1-.307.277.742.742,0,0,1,.393.277A.77.77,0,0,1,212.427,158.761Zm-1.855-1.833v.969h.922a.437.437,0,0,0,.18-.039.471.471,0,0,0,.138-.105.455.455,0,0,0,.094-.152.471.471,0,0,0,.036-.186.554.554,0,0,0-.033-.194.5.5,0,0,0-.089-.155.366.366,0,0,0-.133-.1.4.4,0,0,0-.169-.039Zm1.484,1.766a.554.554,0,0,0-.033-.188.57.57,0,0,0-.094-.161.457.457,0,0,0-.141-.111.39.39,0,0,0-.18-.042h-1.035v1h1.008a.434.434,0,0,0,.188-.042.572.572,0,0,0,.15-.108A.493.493,0,0,0,212.056,158.694Z" transform="translate(-210.19 -136.276)" fill="url(#linear-gradient-8)"/>
      <path id="Path_5503" data-name="Path 5503" d="M225.249,159.448a1.246,1.246,0,0,1-.554-.125,1.4,1.4,0,0,1-.429-.329,1.52,1.52,0,0,1-.277-.471,1.549,1.549,0,0,1,.293-1.578,1.331,1.331,0,0,1,.435-.327,1.237,1.237,0,0,1,.554-.119,1.191,1.191,0,0,1,.554.127,1.423,1.423,0,0,1,.429.338,1.575,1.575,0,0,1,.277.471,1.509,1.509,0,0,1,.1.537,1.489,1.489,0,0,1-.1.554,1.536,1.536,0,0,1-.277.468,1.365,1.365,0,0,1-.435.324A1.235,1.235,0,0,1,225.249,159.448Zm-.994-1.467a1.312,1.312,0,0,0,.072.426,1.19,1.19,0,0,0,.2.363,1,1,0,0,0,.316.255.9.9,0,0,0,.407.094.853.853,0,0,0,.415-.1.991.991,0,0,0,.313-.263,1.107,1.107,0,0,0,.2-.365,1.309,1.309,0,0,0,.066-.41,1.221,1.221,0,0,0-.072-.426,1.108,1.108,0,0,0-.2-.365,1.024,1.024,0,0,0-.316-.249.83.83,0,0,0-.4-.094.883.883,0,0,0-.415.1,1.047,1.047,0,0,0-.313.257,1.107,1.107,0,0,0-.2.363,1.266,1.266,0,0,0-.072.418Z" transform="translate(-220.097 -136.197)" fill="url(#linear-gradient-9)"/>
      <path id="Path_5504" data-name="Path 5504" d="M240.7,159.5a1.235,1.235,0,0,1-.554-.125,1.4,1.4,0,0,1-.429-.329,1.526,1.526,0,0,1-.277-.471,1.6,1.6,0,0,1-.1-.554,1.462,1.462,0,0,1,.105-.554,1.516,1.516,0,0,1,.277-.468,1.384,1.384,0,0,1,.437-.31,1.246,1.246,0,0,1,.554-.119,1.194,1.194,0,0,1,.554.127,1.412,1.412,0,0,1,.426.338,1.527,1.527,0,0,1,.277.471,1.574,1.574,0,0,1,.1.537,1.553,1.553,0,0,1-.39,1.022,1.384,1.384,0,0,1-.432.324A1.238,1.238,0,0,1,240.7,159.5Zm-.991-1.467a1.312,1.312,0,0,0,.072.426,1.135,1.135,0,0,0,.2.363.961.961,0,0,0,.313.255.92.92,0,0,0,.41.094.853.853,0,0,0,.415-.1,1.024,1.024,0,0,0,.313-.263,1.16,1.16,0,0,0,.2-.365,1.309,1.309,0,0,0,.066-.41,1.287,1.287,0,0,0-.072-.426,1.124,1.124,0,0,0-.2-.365,1.014,1.014,0,0,0-.313-.249.85.85,0,0,0-.4-.094.9.9,0,0,0-.418.1,1.036,1.036,0,0,0-.31.257,1.183,1.183,0,0,0-.2.363A1.263,1.263,0,0,0,239.705,158.031Z" transform="translate(-231.269 -136.247)" fill="url(#linear-gradient-10)"/>
      <path id="Path_5505" data-name="Path 5505" d="M255.44,159.509v-2.893h.368v1.6l1.492-1.606h.4l-1.163,1.279,1.229,1.62h-.4l-1.055-1.406-.5.523v.886Z" transform="translate(-242.912 -136.277)" fill="url(#linear-gradient-11)"/>
      <path id="Path_5506" data-name="Path 5506" d="M278.367,156.937h-1v2.572H277v-2.572h-1v-.327h2.367Z" transform="translate(-257.779 -136.277)" fill="url(#linear-gradient-12)"/>
      <path id="Path_5507" data-name="Path 5507" d="M292.808,156.61v2.9h-.365v-1.318h-1.6v1.318h-.366v-2.9h.366v1.254h1.6V156.61Z" transform="translate(-268.25 -136.277)" fill="url(#linear-gradient-12)"/>
      <path id="Path_5508" data-name="Path 5508" d="M307.786,159.182v.327H305.82v-2.9h1.938v.327H306.2v.939h1.357v.307H306.2v1Z" transform="translate(-279.343 -136.277)" fill="url(#linear-gradient-14)"/>
      <path id="Path_5509" data-name="Path 5509" d="M329.5,158.761a.711.711,0,0,1-.066.307.72.72,0,0,1-.183.235.83.83,0,0,1-.277.152,1.049,1.049,0,0,1-.327.053H327.26v-2.9h1.44a.554.554,0,0,1,.277.066.722.722,0,0,1,.208.169.744.744,0,0,1,.133.238.8.8,0,0,1,.047.277.786.786,0,0,1-.108.4.654.654,0,0,1-.307.277.742.742,0,0,1,.393.277A.77.77,0,0,1,329.5,158.761Zm-1.855-1.833v.969h.93a.415.415,0,0,0,.177-.039.449.449,0,0,0,.141-.105.454.454,0,0,0,.094-.152.471.471,0,0,0,.036-.186.555.555,0,0,0-.033-.194.5.5,0,0,0-.089-.155.365.365,0,0,0-.133-.1.4.4,0,0,0-.172-.039Zm1.484,1.766a.552.552,0,0,0-.033-.188.569.569,0,0,0-.094-.161.489.489,0,0,0-.141-.111.4.4,0,0,0-.18-.042h-1.035v1h1.008a.415.415,0,0,0,.186-.042.554.554,0,0,0,.152-.108A.492.492,0,0,0,329.126,158.694Z" transform="translate(-294.847 -136.276)" fill="url(#linear-gradient-8)"/>
      <path id="Path_5510" data-name="Path 5510" d="M343.586,159.182v.327H341.62v-2.9h1.938v.327H342v.939h1.357v.307H342v1Z" transform="translate(-305.231 -136.277)" fill="url(#linear-gradient-14)"/>
      <path id="Path_5511" data-name="Path 5511" d="M356.038,157.161a.535.535,0,0,0-.13-.111,1.126,1.126,0,0,0-.183-.1,1.6,1.6,0,0,0-.221-.069,1.255,1.255,0,0,0-.252-.025.775.775,0,0,0-.5.127.46.46,0,0,0-.113.554.382.382,0,0,0,.141.13,1.013,1.013,0,0,0,.238.1c.1.028.21.055.341.086a3.1,3.1,0,0,1,.4.114,1.157,1.157,0,0,1,.31.155.623.623,0,0,1,.2.23.733.733,0,0,1,.069.329.754.754,0,0,1-.083.363.72.72,0,0,1-.221.252.954.954,0,0,1-.332.147,1.823,1.823,0,0,1-.418.047,1.858,1.858,0,0,1-.634-.105,1.786,1.786,0,0,1-.554-.3l.177-.31a1.025,1.025,0,0,0,.169.138,1.44,1.44,0,0,0,.235.125,1.747,1.747,0,0,0,.277.089,1.319,1.319,0,0,0,.318.036.9.9,0,0,0,.482-.111.368.368,0,0,0,.172-.329.373.373,0,0,0-.055-.208.454.454,0,0,0-.161-.144,1.178,1.178,0,0,0-.263-.108c-.105-.033-.224-.064-.357-.1a3.51,3.51,0,0,1-.388-.114,1.148,1.148,0,0,1-.277-.147.578.578,0,0,1-.169-.208.689.689,0,0,1-.058-.3.805.805,0,0,1,.078-.365.761.761,0,0,1,.216-.277.914.914,0,0,1,.332-.166,1.487,1.487,0,0,1,1.365.277Z" transform="translate(-314.256 -136.219)" fill="url(#linear-gradient-17)"/>
      <path id="Path_5512" data-name="Path 5512" d="M369.746,156.937h-1v2.572h-.357v-2.572h-1v-.327h2.367Z" transform="translate(-323.866 -136.277)" fill="url(#linear-gradient-18)"/>
      <path id="Path_5513" data-name="Path 5513" d="M390.618,157.153a.593.593,0,0,0-.13-.111,1.419,1.419,0,0,0-.183-.1,1.636,1.636,0,0,0-.224-.069,1.226,1.226,0,0,0-.249-.025.77.77,0,0,0-.5.127.418.418,0,0,0-.158.346.39.39,0,0,0,.044.2.381.381,0,0,0,.141.13,1.011,1.011,0,0,0,.238.1c.1.028.208.055.338.086a3.283,3.283,0,0,1,.407.114,1.2,1.2,0,0,1,.31.155.623.623,0,0,1,.2.23.737.737,0,0,1,.066.329.786.786,0,0,1-.08.363.728.728,0,0,1-.224.252.933.933,0,0,1-.332.147,1.782,1.782,0,0,1-.415.047,1.846,1.846,0,0,1-.634-.105,1.785,1.785,0,0,1-.554-.3l.174-.31a1.059,1.059,0,0,0,.172.138,1.444,1.444,0,0,0,.235.125,1.715,1.715,0,0,0,.277.089,1.359,1.359,0,0,0,.338.039.9.9,0,0,0,.482-.111.368.368,0,0,0,.172-.329.374.374,0,0,0-.055-.208.454.454,0,0,0-.161-.144,1.236,1.236,0,0,0-.263-.108c-.105-.033-.224-.064-.357-.1a3.346,3.346,0,0,1-.388-.114,1.108,1.108,0,0,1-.277-.147.587.587,0,0,1-.172-.208.734.734,0,0,1-.055-.3.805.805,0,0,1,.077-.365.731.731,0,0,1,.216-.277.9.9,0,0,1,.329-.166,1.542,1.542,0,0,1,.418-.055,1.451,1.451,0,0,1,.95.329Z" transform="translate(-339.262 -136.211)" fill="url(#linear-gradient-19)"/>
      <path id="Path_5514" data-name="Path 5514" d="M404.3,156.937h-1v2.572h-.368v-2.572h-1v-.327H404.3Z" transform="translate(-348.843 -136.277)" fill="url(#linear-gradient-20)"/>
      <path id="Path_5515" data-name="Path 5515" d="M415.708,156.61l.878,1.512.886-1.512h.4l-1.107,1.841v1.058H416.4v-1.066l-1.107-1.833Z" transform="translate(-358.504 -136.277)" fill="url(#linear-gradient-21)"/>
      <path id="Path_5516" data-name="Path 5516" d="M430.48,159.509v-2.9h.368v2.572h1.614v.327Z" transform="translate(-369.489 -136.277)" fill="url(#linear-gradient-14)"/>
      <path id="Path_5517" data-name="Path 5517" d="M443.51,159.509v-2.9h.365v2.9Z" transform="translate(-378.911 -136.277)" fill="url(#linear-gradient-14)"/>
      <path id="Path_5518" data-name="Path 5518" d="M452.841,157.147a.664.664,0,0,0-.13-.111,1.289,1.289,0,0,0-.185-.1,1.493,1.493,0,0,0-.221-.069,1.237,1.237,0,0,0-.252-.025.781.781,0,0,0-.5.127.418.418,0,0,0-.158.346.391.391,0,0,0,.047.2.36.36,0,0,0,.141.13.968.968,0,0,0,.238.1c.094.028.208.055.338.086a3.282,3.282,0,0,1,.407.114,1.2,1.2,0,0,1,.31.155.65.65,0,0,1,.2.23.736.736,0,0,1,.066.329.753.753,0,0,1-.083.363.692.692,0,0,1-.222.252.955.955,0,0,1-.332.147,1.783,1.783,0,0,1-.415.047,1.874,1.874,0,0,1-.637-.105,1.772,1.772,0,0,1-.554-.3l.174-.31a1.164,1.164,0,0,0,.169.138,1.474,1.474,0,0,0,.238.125,1.717,1.717,0,0,0,.277.089,1.343,1.343,0,0,0,.321.036.894.894,0,0,0,.479-.111.363.363,0,0,0,.172-.329.352.352,0,0,0-.055-.208.432.432,0,0,0-.161-.144,1.123,1.123,0,0,0-.263-.108c-.105-.033-.224-.064-.357-.1a3.517,3.517,0,0,1-.388-.114,1.149,1.149,0,0,1-.277-.147.579.579,0,0,1-.169-.208.689.689,0,0,1-.058-.3.844.844,0,0,1,.078-.365.74.74,0,0,1,.219-.277.9.9,0,0,1,.329-.166,1.614,1.614,0,0,1,.947.033,1.571,1.571,0,0,1,.421.241Z" transform="translate(-384.255 -136.204)" fill="url(#linear-gradient-24)"/>
      <path id="Path_5519" data-name="Path 5519" d="M466.527,156.937h-1v2.572h-.365v-2.572h-1v-.327h2.367Z" transform="translate(-393.844 -136.277)" fill="url(#linear-gradient-20)"/>
    </g>
  </g>
</svg>
