<svg xmlns="http://www.w3.org/2000/svg" xmlns:xlink="http://www.w3.org/1999/xlink" width="389.292" height="347.891" viewBox="0 0 389.292 347.891">
  <defs>
    <clipPath id="clip-path">
      <path id="Path_203043" data-name="Path 203043" d="M-14825.73-19449.357s-21.469-5.971-14.223-36.2,13.768-85.092,75.613-98.668c41.316-9.072,81.689-3.215,81.689-3.215s29.162,1.6,29.162,18.98v68.264h-124.279l-4.613,13.531Z" transform="translate(14841.447 19589.301)" fill="#1e1d23" stroke="#09090f" stroke-width="1"/>
    </clipPath>
    <linearGradient id="linear-gradient" x1="-0.001" y1="0.539" x2="1.001" y2="0.457" gradientUnits="objectBoundingBox">
      <stop offset="0" stop-color="#cacaca"/>
      <stop offset="1" stop-color="#eee"/>
    </linearGradient>
  </defs>
  <g id="Group_67002" data-name="Group 67002" transform="translate(-806.122 -1771.178)">
    <ellipse id="Ellipse_1991" data-name="Ellipse 1991" cx="134.5" cy="16" rx="134.5" ry="16" transform="translate(853.685 2039.507)" fill="#0f0e12" opacity="0.495"/>
    <g id="Group_66968" data-name="Group 66968" transform="translate(682.959 1200.177)">
      <g id="Group_66421" data-name="Group 66421" transform="translate(145.627 571)">
        <path id="Path_203045" data-name="Path 203045" d="M-12732.262-8772.212l19.488-24.142,82.146-11.534,25.01,14.541v11.248h16.283v38.2l14.135,51.869-11.738,7.408-2.123-4.85-10.7-.835h-39.945l-27.881-1.724-20.584-2.521-81.816-38.572Z" transform="translate(12804.515 8934.861)" fill="#dd2928"/>
        <path id="Path_203013" data-name="Path 203013" d="M-141.328-4.859c-6.014,1.611-47.32,25.885-1.7,71.5C-96.089,113.584-7.905,99.956-1.981,99.956,1.854,85.642,2.275,68.131,2.262,60.7c-.009-5.045-3.194-3.27-3.194-3.27" transform="translate(164.225 183.733)" fill="#dd2928"/>
        <path id="Path_203016" data-name="Path 203016" d="M-39.492-75.9S19.132-93.341,40.97-87.275C52.3-84.127,71.153-75.87,64.675-52.735,60.289-37.072,52.117-24.519,37.549-13.8,19.905-.816-12.006,4.791-12.006,4.791" transform="translate(233.915 267.961)" fill="#dc2928"/>
        <path id="Path_203017" data-name="Path 203017" d="M-9.753,0s-2.221,14.331-1.205,21.343,5.268,6.7,5.268,6.7" transform="translate(153.884 170.649)" fill="none" stroke="#202020" stroke-linecap="round" stroke-width="3"/>
        <path id="Path_203018" data-name="Path 203018" d="M-13876.025-18760.5l-.637,33.209" transform="translate(14025.491 18931.152)" fill="none" stroke="#202020" stroke-linecap="round" stroke-width="3"/>
        <path id="Path_203019" data-name="Path 203019" d="M0,0S.993,5.973,4.6,8.561s9.82,1.793,9.82,1.793" transform="translate(192.84 173.29)" fill="none" stroke="#202020" stroke-linecap="round" stroke-width="3"/>
        <path id="Path_203020" data-name="Path 203020" d="M-14326.8-18772.3h119.082l2.729,21.729" transform="translate(14416.633 18941.404)" fill="none" stroke="#202020" stroke-linecap="round" stroke-width="3"/>
        <ellipse id="Ellipse_1914" data-name="Ellipse 1914" cx="2.178" cy="3.593" rx="2.178" ry="3.593" transform="translate(148.907 155.259) rotate(41)" fill="#202020"/>
        <path id="Path_203021" data-name="Path 203021" d="M-14314.758-18908.57l-4.158,17.754" transform="translate(14408.047 19059.762)" fill="none" stroke="#202020" stroke-linecap="round" stroke-width="3"/>
        <path id="Path_203023" data-name="Path 203023" d="M-1.574-.934S42.325-2.322,48.14.624a15.89,15.89,0,0,1,9.132,14.048c.523,9.745-5.4,15.056-12.1,16.85-8.3,2.223-26.575,4.239-50.361,4.239" transform="translate(168.053 245.499)" fill="#fff"/>
        <path id="Path_203024" data-name="Path 203024" d="M-42.529,30.416c.069.04-8.461-5.508-7.631-14.987C-49.133,3.688-40.889,0-40.889,0A16.022,16.022,0,0,1-32,16.373C-33.116,26.966-38.064,29.219-42.529,30.416Z" transform="translate(257.366 246.14)" fill="#0eb974"/>
        <path id="Path_203025" data-name="Path 203025" d="M-13493.032-18116.324a12.128,12.128,0,0,0-.295,11.551" transform="translate(13693.587 18371.115)" fill="none" stroke="#202020" stroke-linecap="round" stroke-width="3"/>
        <path id="Path_203026" data-name="Path 203026" d="M-13493.032-18116.324a12.128,12.128,0,0,0-.295,11.551" transform="translate(13686.642 18371.115)" fill="none" stroke="#202020" stroke-linecap="round" stroke-width="3"/>
        <path id="Path_203027" data-name="Path 203027" d="M-13492.907-18116.324a13.035,13.035,0,0,0-.32,12.418" transform="translate(13679.696 18370.719)" fill="none" stroke="#202020" stroke-linecap="round" stroke-width="3"/>
        <path id="Path_203028" data-name="Path 203028" d="M-13492.907-18116.324a13.035,13.035,0,0,0-.32,12.418" transform="translate(13672.618 18370.719)" fill="none" stroke="#202020" stroke-linecap="round" stroke-width="3"/>
        <path id="Path_203029" data-name="Path 203029" d="M-13733.145-18157.6s-8.541-7.252-3.037-10.426c5.254-3.021,6.221,6.311,3.844,10.426-.111-.027,4.137,13.295-1.367,13.295-3.18,0-8.062-2.471.561-13.295Z" transform="translate(13905.028 18416.842)" fill="none" stroke="#202020" stroke-width="3"/>
        <path id="Path_203032" data-name="Path 203032" d="M-14097.525-20005.934a131.583,131.583,0,0,1,6.014-21.74,114.587,114.587,0,0,1,9.967-19.2,7.253,7.253,0,0,1-4.172-8.936c1.787-6.633,11.455-8.818,15.664-4.5s.459,10.326.459,10.326,14.162-.359,15.941,13.77c.967,7.656-4.672,14.24-4.672,14.24l-.549,13.3a2.426,2.426,0,0,1-2.623,2.133C-14063.924-20006.561-14097.525-20005.934-14097.525-20005.934Z" transform="translate(14217.407 20062.541)" fill="#0eb974"/>
        <path id="Path_203033" data-name="Path 203033" d="M-14019.273-19880.873l23.744-.129a14.436,14.436,0,0,1-2.7,15.486c-6.248,7.145-20.2,3.129-23.135-3.621-.1-.234-.25-.361-.945,0s-4.479.084-5.459-2.895c-.879-2.674,1.355-4.607,4.84-4.625,1.395,0,2.367.234,2.789-1.342S-14019.273-19880.873-14019.273-19880.873Z" transform="translate(14156.96 19904.793)" fill="#fff"/>
        <path id="Path_203034" data-name="Path 203034" d="M2.359,0S4.568,5.443,3.978,8.129,0,10.747,0,10.747" transform="translate(149.766 27.267)" fill="none" stroke="#202020" stroke-linecap="round" stroke-width="2"/>
        <path id="Path_203035" data-name="Path 203035" d="M0,0A5.5,5.5,0,0,0,1.583,2.661a3.9,3.9,0,0,0,2.742.354" transform="translate(142.398 36.986)" fill="none" stroke="#202020" stroke-linecap="round" stroke-width="2"/>
        <path id="Path_203036" data-name="Path 203036" d="M-11.841,0a2.11,2.11,0,0,0-1.47,2.5,2.194,2.194,0,0,0,2.384,1.844" transform="translate(144.084 29.757)" fill="none" stroke="#202020" stroke-linecap="round" stroke-width="2"/>
        <ellipse id="Ellipse_1915" data-name="Ellipse 1915" cx="1.242" cy="1.835" rx="1.242" ry="1.835" transform="matrix(0.985, 0.174, -0.174, 0.985, 146.113, 27.275)" fill="#202020"/>
        <ellipse id="Ellipse_1916" data-name="Ellipse 1916" cx="1.242" cy="1.835" rx="1.242" ry="1.835" transform="matrix(0.985, 0.174, -0.174, 0.985, 155.942, 25.965)" fill="#202020"/>
        <g id="Group_66420" data-name="Group 66420" transform="translate(22.38 62.025)">
          <path id="Path_203037" data-name="Path 203037" d="M-14825.73-19449.357s-21.469-5.971-14.223-36.2,13.768-85.092,75.613-98.668c41.316-9.072,81.689-3.215,81.689-3.215s29.162,1.6,29.162,18.98v68.264l-109.947-2.215s-28.7,37.35-40.984,47.436S-14825.73-19449.357-14825.73-19449.357Z" transform="translate(14841.447 19589.301)" fill="#0eb974"/>
          <g id="Mask_Group_151" data-name="Mask Group 151" transform="translate(0)" clip-path="url(#clip-path)">
            <g id="Group_66419" data-name="Group 66419" transform="translate(-8.994 -7.007)">
              <path id="Path_203038" data-name="Path 203038" d="M67.593,0S63.637,28.044,44.815,49.17C26.7,69.5,0,75.863,0,75.863" transform="translate(7.843 8.271)" fill="none" stroke="#09090f" stroke-width="20"/>
              <path id="Path_203039" data-name="Path 203039" d="M102.245,0s6.138,37.352-19.782,67C47.85,106.581,0,116.932,0,116.932" transform="translate(0 2.852)" fill="none" stroke="#09090f" stroke-width="20"/>
              <path id="Path_203040" data-name="Path 203040" d="M125.774,0S118.41,49.863,86.966,88.437,0,154.294,0,154.294" transform="translate(25.953)" fill="none" stroke="#09090f" stroke-width="20"/>
              <path id="Path_203041" data-name="Path 203041" d="M121.781,0S116.307,51.574,91.4,85.615C42.908,151.873,0,166.415,0,166.415" transform="translate(66.024 6.132)" fill="none" stroke="#09090f" stroke-width="20"/>
              <path id="Path_203042" data-name="Path 203042" d="M121.781,0S116.307,51.574,91.4,85.615C42.908,151.873,0,166.415,0,166.415" transform="translate(100.357 6.132)" fill="none" stroke="#09090f" stroke-width="20"/>
            </g>
          </g>
        </g>
        <path id="Path_203044" data-name="Path 203044" d="M0,0S25.035,22.886,51.665,3.538" transform="matrix(0.914, -0.407, 0.407, 0.914, 234.678, 162.213)" fill="none" stroke="#fff" stroke-linecap="round" stroke-width="3"/>
        <g id="Group_66493" data-name="Group 66493" transform="translate(166.488 55.168) rotate(-14)">
          <g id="Group_66467" data-name="Group 66467" transform="translate(0 0)">
            <g id="Group_66462" data-name="Group 66462" transform="translate(5.247 0.001)">
              <g id="Group_66460" data-name="Group 66460" transform="translate(0 0)">
                <path id="Path_203114" data-name="Path 203114" d="M0,116.745S10.153,74.705,11.138,69.5C12.381,62.915.713,2.681,4.338.238c5.872-3.961,48.782,42.706,55.771,51.916,5.332,7.026,19.655,56.2,19.655,56.2Z" fill="#fde061"/>
              </g>
            </g>
            <g id="Group_66463" data-name="Group 66463" transform="translate(8.397 0)">
              <path id="Path_203116" data-name="Path 203116" d="M0,116.552S10.155,74.512,11.138,69.3C12.382,62.722-2.437,2.682,1.188.239,7.06-3.722,53.12,42.75,60.109,51.96c5.334,7.028,19.655,56.2,19.655,56.2Z" transform="translate(0 0)" fill="#fea"/>
            </g>
            <g id="Group_66464" data-name="Group 66464" transform="translate(9.783 11.2)">
              <path id="Path_203117" data-name="Path 203117" d="M4.841.021A8.581,8.581,0,0,0,3.333.048a22.888,22.888,0,0,1,.124,5.174C3.118,7.01,1.7,13.109,0,20.373a10.576,10.576,0,0,0,3.68.866A10.625,10.625,0,0,0,4.841.021Z" transform="translate(6.292 52.87)" fill="#ff2a2a"/>
              <path id="Path_203118" data-name="Path 203118" d="M.016,10.045A10.626,10.626,0,1,1,10.045,21.236,10.627,10.627,0,0,1,.016,10.045Z" transform="translate(26.288 81.534)" fill="#ff2a2a"/>
              <path id="Path_203119" data-name="Path 203119" d="M16.032,1.49l-.012-.016A10.432,10.432,0,0,0,11.2.017a10.625,10.625,0,1,0,9.334,14.4C19.027,9.863,17.485,5.4,16.032,1.49Z" transform="translate(48.216 51.601)" fill="#b12600"/>
              <ellipse id="Ellipse_1918" data-name="Ellipse 1918" cx="10.626" cy="10.626" rx="10.626" ry="10.626" transform="translate(32.777 46.55) rotate(-131.55)" fill="#ff2a2a"/>
              <path id="Path_203120" data-name="Path 203120" d="M1.172.013C.774,0,.387,0,0,0,.819,5.761,2.184,13.18,3.654,20.789A10.589,10.589,0,0,0,11.2,11.218,10.641,10.641,0,0,0,1.172.013Z" transform="translate(0 0)" fill="#ff2a2a"/>
            </g>
            <g id="Group_66465" data-name="Group 66465" transform="translate(0 92.443)">
              <path id="Path_203121" data-name="Path 203121" d="M52.307,28.559c-18.6,2.739-33.266,2.362-41.584.147C1.6,26.275-.391,21.851.059,17.492c.412-3.981,3.476-7.417,10.8-7.814,9.573-.518,23.891-.414,35.621-2.031C58.856,5.945,70.5,2.324,79.357.739,87.788-.769,93.217-.28,95.264,5.161c1.979,5.265.4,10.141-7.036,13.86C79.73,23.273,64.164,26.814,52.307,28.559Z" transform="translate(0 0)" fill="#fde061"/>
            </g>
            <g id="Group_66466" data-name="Group 66466" transform="translate(8.233 16.483)">
              <path id="Path_203123" data-name="Path 203123" d="M.164,3.076A2.237,2.237,0,1,1,3.076,4.313,2.237,2.237,0,0,1,.164,3.076Z" transform="translate(75.991 85.195)" fill="#e0872b"/>
              <path id="Path_203124" data-name="Path 203124" d="M.164,3.076A2.237,2.237,0,1,1,3.076,4.313,2.236,2.236,0,0,1,.164,3.076Z" transform="translate(0 96.993)" fill="#e0872b"/>
              <path id="Path_203125" data-name="Path 203125" d="M.184,1.112a1.935,1.935,0,1,1,.927,2.574A1.935,1.935,0,0,1,.184,1.112Z" transform="translate(75.891 79.328)" fill="#e0872b"/>
              <path id="Path_203126" data-name="Path 203126" d="M.184,1.111a1.935,1.935,0,1,1,.927,2.574A1.937,1.937,0,0,1,.184,1.111Z" transform="translate(26.106 5.764)" fill="#e0872b"/>
              <path id="Path_203127" data-name="Path 203127" d="M.157.943A1.641,1.641,0,1,1,.943,3.126,1.639,1.639,0,0,1,.157.943Z" transform="translate(81.3 82.407)" fill="#e0872b"/>
              <path id="Path_203128" data-name="Path 203128" d="M.156.943A1.642,1.642,0,1,1,.943,3.126,1.64,1.64,0,0,1,.156.943Z" transform="translate(21.601 0)" fill="#e0872b"/>
              <path id="Path_203129" data-name="Path 203129" d="M.157.943A1.641,1.641,0,1,1,.943,3.126,1.639,1.639,0,0,1,.157.943Z" transform="translate(28.709 56.619)" fill="#e0872b"/>
              <path id="Path_203130" data-name="Path 203130" d="M.078.471A.82.82,0,1,1,.471,1.562.822.822,0,0,1,.078.471Z" transform="translate(8.049 79.256)" fill="#e0872b"/>
              <path id="Path_203131" data-name="Path 203131" d="M.079.471A.82.82,0,1,1,.472,1.563.82.82,0,0,1,.079.471Z" transform="translate(63.215 70.006)" fill="#e0872b"/>
              <path id="Path_203132" data-name="Path 203132" d="M.078.471A.821.821,0,1,1,.473,1.563.822.822,0,0,1,.078.471Z" transform="translate(14.675 5.136)" fill="#e0872b"/>
            </g>
          </g>
        </g>
        <path id="Path_203015" data-name="Path 203015" d="M-13777.795-18508.125a563.326,563.326,0,0,1,91.752-27.43" transform="translate(13939.581 18735.689)" fill="none" stroke="#202020" stroke-linecap="round" stroke-width="3"/>
        <path id="Path_203143" data-name="Path 203143" d="M-13686.037-18508.125a563.44,563.44,0,0,0-91.758-27.43" transform="translate(13839.883 18735.689)" fill="none" stroke="#202020" stroke-linecap="round" stroke-width="3"/>
        <path id="Path_203030" data-name="Path 203030" d="M39.309-.532s5.308-.705,7.931-4.639c2.424-3.635.558-10.687.558-10.687A11.535,11.535,0,0,0,54.686-25.6c.506-5.256-5.755-10.772-5.755-10.772A13.937,13.937,0,0,0,56-48.127c.084-5.351-6.684-9.024-6.684-9.024s5.949-5.865.591-11.223c-8.3-8.3-22.368-14.517-40.479-12.284-37.447,4.617-25.594,24.029-21.09,22.505,27.03-9.146,46.244-3.012,45.113-1.939-19.2-7.09-44.689.836-49.636,6.228s-4.673,10.992,2.864,13.325c3.6,1.113,23.3-9.193,47.527.691a69.666,69.666,0,0,0-18.525-4.175c-8.53-.759-18.313.147-25.29,4.175-2.708,1.563-5.118,4.363-4.846,8.07a7.561,7.561,0,0,0,5.932,6.76c6.241.813,17.742-7,41.224,1.885,3.152-.5-18.889-5.95-28.617-3.9-8.577,1.809-11.425,9.214-9.156,12.2,2.035,2.683,6.929,3.482,11.738,3.69,10.821.469,15.386,1.51,33.323,10.6" transform="translate(243.908 143.754)" fill="#1d1c21" stroke="#fff" stroke-width="3"/>
        <g id="Group_66495" data-name="Group 66495" transform="translate(91.874 104.35)">
          <path id="Path_203138" data-name="Path 203138" d="M353.214,222.476s7.714-9.637,13.334-13.447c7.526-5.1,16.123-6.406,19.759-6.735,7.589-.688,26.415,2.9,26.328,8.5-.078,5.072-22.757-.534-19.137.436s20.212,1.521,19,7.609-27.317-1.7-23.034-.552,20.731,2.028,18.483,8.109c-1.7,4.595-26.643-1.6-21.8-.307s17.807,1.867,16.264,6.667c-1.706,5.306-20.543,1.945-20.543,1.945-5.978,11.543-14.4,10.789-20.039,12.318C360.46,247.388,353.214,222.476,353.214,222.476Z" transform="translate(-353.214 -202.209)" fill="#09090f" stroke="#fff" stroke-width="3"/>
        </g>
      </g>
      <g id="Group_64782" data-name="Group 64782" transform="translate(350.198 820.531)">
        <g id="Group_64781" data-name="Group 64781" transform="translate(0)">
          <g id="Group_64748" data-name="Group 64748">
            <path id="Path_199782" data-name="Path 199782" d="M344.224,268.444l72.8-20.246,61.1,22.34-80.441,21.706Z" transform="translate(-344.224 -239.933)" fill="url(#linear-gradient)"/>
            <g id="Group_64747" data-name="Group 64747" transform="translate(0.151)">
              <path id="Path_199783" data-name="Path 199783" d="M344.474,257.9l72.436-16.938.217,8.651-72.5,18.491Z" transform="translate(-344.474 -237.07)" fill="#e4cdad"/>
              <path id="Path_199784" data-name="Path 199784" d="M464.363,240.963,525.69,259.91l-.011,10.011-61.152-21.1Z" transform="translate(-391.927 -237.07)" fill="#e4cdad"/>
              <path id="Path_199785" data-name="Path 199785" d="M464.232,241.024l60.8,18.876.52,10.045L464.035,249.5Z" transform="translate(-391.797 -237.094)" fill="#c09761"/>
              <path id="Path_199786" data-name="Path 199786" d="M344.827,258.034l72.18-17.009.218,8.615-72.5,18.491Z" transform="translate(-344.573 -237.094)" fill="#cda065"/>
              <path id="Path_199787" data-name="Path 199787" d="M464.527,241.03l31.684,1.335L554.1,257.679l-28.344,2.257Z" transform="translate(-391.992 -237.096)" fill="#dcc9a3"/>
              <path id="Path_199788" data-name="Path 199788" d="M518.8,234.593l54.215,14.34a2.4,2.4,0,0,1,1.837,2.056V255.1l-57.887-15.314v-4.11C516.967,234.809,517.786,234.325,518.8,234.593Z" transform="translate(-412.748 -234.519)" fill="#dcc9a3"/>
              <path id="Path_199789" data-name="Path 199789" d="M572.783,249.065a2.465,2.465,0,0,1,1.836,2.055l.031,4.062-57.683-15.332v-4.11c0-.869.721-1.191,1.67-1.017C536.73,239.495,554.694,244.281,572.783,249.065Z" transform="translate(-412.748 -234.582)" fill="#c09761"/>
            </g>
          </g>
          <g id="Group_64779" data-name="Group 64779" transform="translate(17.814 12.663)">
            <path id="Path_199790" data-name="Path 199790" d="M466.657,277.56c0,1.079-1.007,2.591-2.972,4.592a15.625,15.625,0,0,1-6.879,4.75,92.809,92.809,0,0,1-18.892,4.576c-5.938.7-12.646,1.39-19.048,1.742a127.328,127.328,0,0,1-31.534-2.352c-8.5-1.619-13.623-5.974-13.623-7.952,0-1.433,2.381-5.167,7.278-6.571,8.4-2.408,23.244-2.28,39.133-3.153C445.267,271.81,466.657,273.666,466.657,277.56Z" transform="translate(-373.708 -262.309)" fill="#afa898"/>
            <path id="Path_199791" data-name="Path 199791" d="M466.716,267.454a7.972,7.972,0,0,1-1.065,4.524c-1.9,2.777-5.993,5.254-11.045,7.137a94.9,94.9,0,0,1-16.634,4.767c-5.938,1.046-12.4,1.287-18.8,1.639-12.37.68-21.637-1.157-30.154-2.987a40.175,40.175,0,0,1-11.965-4.708c-3.132-1.862-2.827-3.321-3.138-4.934-.469-2.43,1.771-5.628,7-8.369a63.525,63.525,0,0,1,12.747-4.937c2.966-.814,6.841-1.074,10.2-1.7a130.131,130.131,0,0,1,16.54-1.984c7.919-.435,15.292-.709,21.884.05a77.152,77.152,0,0,1,12.563,2.858C462.2,260.917,466.716,263.945,466.716,267.454Z" transform="translate(-373.767 -255.477)" fill="#b85e25"/>
            <path id="Path_199792" data-name="Path 199792" d="M466.812,267.621c0,.675-1.158,1.369-1.1,2.175.2,2.55-4.718,5.945-10.59,8.532-1.755.773-2.591-.664-2.428-.083.215.765-.877,1.227-1.454,1.364-1.543.366-3.34.2-4.945.614-3.5.894-6.6,2.394-10.66,3.06a152.038,152.038,0,0,1-15.6,1.257c-12.17.668-21.287-1.009-29.666-2.683-5.518-1.1-10.173-2.944-12.774-5.076a6.3,6.3,0,0,1-1.53-2.6c-.214-.463-.7-.618-.7-1.089,0-2.6,2.589-5.3,7.407-7.617,2.237-1.077,3.938-2.544,6.971-3.46a76.731,76.731,0,0,1,8.308-1.945,190.662,190.662,0,0,1,22.974-2.482C445.769,256.233,466.812,260.568,466.812,267.621Z" transform="translate(-374.366 -256.216)" fill="#e0872b"/>
            <path id="Path_199793" data-name="Path 199793" d="M466.384,266.313c0,1.558-.814,2.883-3.043,4.276-2.988,1.868-7.616,3.59-12.921,5.177A108.781,108.781,0,0,1,428.25,280.5c-2.249.216-4.553.391-6.9.52-7.269.4-13.67-.652-19.8-1.349a93.591,93.591,0,0,1-15.437-2.716c-5.984-1.762-9.3-3.112-9.3-5.963,0-1.551,1.62-2.91,3.9-4.229a37.051,37.051,0,0,1,4.458-2.538c8.222-3.663,20.663-7.057,36.169-7.909a140.094,140.094,0,0,1,19.7-.07,65.647,65.647,0,0,1,18.268,4.5C463.561,262.384,466.384,263.95,466.384,266.313Z" transform="translate(-374.941 -255.652)" fill="#e99b2f"/>
            <path id="Path_199794" data-name="Path 199794" d="M466.206,266.528c0,1.512-.061,2.758-2.29,4.114-2.988,1.817-7.616,3.5-12.921,5.044a111.8,111.8,0,0,1-22.171,4.628c-2.249.213-4.553.387-6.9.515-7.269.4-13.043-1.117-19.17-1.783-6.208-.675-11.872-.914-16.064-2.1-5.984-1.7-8.418-3.052-8.418-5.82,0-1.506,1.244-2.806,3.527-4.09,1.567-.881,1.875-1.539,3.956-2.443a78.849,78.849,0,0,1,14.487-4.272q1.568-.34,3.235-.676a129.951,129.951,0,0,1,18.321-2.148c12.628-.694,4.534.672,17.121-.024a49.428,49.428,0,0,1,20.47,3.647C463.635,262.706,466.206,264.235,466.206,266.528Z" transform="translate(-375.516 -256.195)" fill="#fde061"/>
            <path id="Path_199795" data-name="Path 199795" d="M436.3,259.328c-.529.029-14.422-.087-20.161,1.327s-16.754.347-12.912,3.2c2.115,1.57-2.416.5-6.645,1.464s-14.951,1.481-9.137,4.019-3.851,3.435,1.208,4.329-2.266,2.4,8.155,3,27.033,6.647,26.277,3.025-.755-5.306,10.043-4.141,19.028.713,16.537-.616,16.688-3.774,14.045-4.654-6.041-1.939-2.567-3.083,7.1-1.049,2.567-2.339-12.61-.919-20.916-.463,8-2.051,9.741-2.513S441.137,258.7,436.3,259.328Z" transform="translate(-378.478 -256.964)" fill="#fea"/>
            <path id="Path_199796" data-name="Path 199796" d="M400.575,271.659c.072.238-.357.593-.931.8a9.2,9.2,0,0,1-2.612.485c-2.76.092-1.031-.376-1.665-.5s-1.72-.093-1.72-.365c0-.2.411-.443.776-.618a7.363,7.363,0,0,1,2.684-.556c1.845-.114-.045.72.579.631C399.167,271.321,400.494,271.391,400.575,271.659Z" transform="translate(-381.6 -261.577)" fill="#e0872b"/>
            <path id="Path_199797" data-name="Path 199797" d="M422.155,263.642s-1.388,1.009,1.175,1.075a20.394,20.394,0,0,0,5.766-1.042c1.388-.283,2.563-1.8.961-1.607s-4.165,1.161-5.553,1.341S422.155,263.642,422.155,263.642Z" transform="translate(-392.735 -258.08)" fill="#e0872b"/>
            <path id="Path_199798" data-name="Path 199798" d="M419.63,269.716c0,.63-2.286,1.266-5.107,1.421s-4.97-.252-5.107-.86c-.039-.173-.1-.3.089-.445.929-.7,4.308-1.053,5.134-1.076,2.753-.076,4.354.137,4.9.518C419.721,269.4,419.63,269.557,419.63,269.716Z" transform="translate(-387.826 -260.727)" fill="#a40"/>
            <path id="Path_199799" data-name="Path 199799" d="M419.6,269.525c0,.1-.207.35-.561.474-.417.146-.921.107-.719.2.134.063-.307.085-.475.125-.426.1-1.037.127-1.406.194a14.716,14.716,0,0,1-1.811.251c-.411.022-.888-.146-1.271-.14a23.253,23.253,0,0,1-2.383-.109c-1.3-.1-.465-.366-.754-.288-.756.2-.776-.1-.776-.207,0-.465,2.287-.967,5.107-1.122S419.6,269.061,419.6,269.525Z" transform="translate(-387.852 -260.776)" fill="#d45500"/>
            <path id="Path_199800" data-name="Path 199800" d="M415.986,269.467c0,.02-.049.043-.138.063a2.317,2.317,0,0,1-.335.046c-.262.019-.475,0-.476-.04s.211-.091.473-.111a2.241,2.241,0,0,1,.336,0C415.935,269.431,415.986,269.447,415.986,269.467Z" transform="translate(-390.066 -260.995)" fill="#fca"/>
            <path id="Path_199801" data-name="Path 199801" d="M421.079,269.569c0,.112-.571.225-1.275.253a6.1,6.1,0,0,1-.9-.024c-.239-.029-.374-.075-.374-.129s.134-.111.373-.158a6.92,6.92,0,0,1,1.8-.071C420.944,269.469,421.079,269.514,421.079,269.569Z" transform="translate(-391.448 -260.992)" fill="#fca"/>
            <path id="Path_199802" data-name="Path 199802" d="M415.445,270.476c.009.106-.529.256-1.2.335s-1.226.056-1.235-.05c0-.051.12-.115.345-.178a5.922,5.922,0,0,1,.857-.157,5.792,5.792,0,0,1,.866-.044C415.308,270.391,415.441,270.425,415.445,270.476Z" transform="translate(-389.264 -261.376)" fill="#fca"/>
            <path id="Path_199803" data-name="Path 199803" d="M420.421,270.738c0,.058-.295.127-.661.154s-.664,0-.665-.056c0-.028.068-.06.193-.088a3.253,3.253,0,0,1,.468-.066,3.159,3.159,0,0,1,.47,0C420.351,270.689,420.421,270.71,420.421,270.738Z" transform="translate(-391.673 -261.491)" fill="#fca"/>
            <path id="Path_199804" data-name="Path 199804" d="M399.153,279.962c.3-.017,1.359.585,3.247.994s.151.358,3.474.1a38.234,38.234,0,0,0,6.116-1s-.755-.618.378-1.193a7.056,7.056,0,0,1,2.492-1.089c.982-.127-1.133-.3-2.718,0a26.13,26.13,0,0,1-4.531.4c-2.718.15-4.153.448-6.116.629a4.486,4.486,0,0,0-2.718.955Z" transform="translate(-383.63 -264.239)" fill="#fde061"/>
            <g id="Group_64752" data-name="Group 64752" transform="translate(15.758 11.57)">
              <path id="Path_199805" data-name="Path 199805" d="M399.818,277.319c0,1.178,2.953,1.97,6.595,1.77s6.418-1.333,6.595-2.494c.05-.33.128-.584-.115-.816-1.2-1.148-5.563-1.22-6.629-1.12-3.555.335-5.623,1.011-6.325,1.817C399.7,276.747,399.818,277.022,399.818,277.319Z" transform="translate(-399.79 -274.626)" fill="#c81b25"/>
              <path id="Path_199806" data-name="Path 199806" d="M399.96,276.969a1.117,1.117,0,0,0,.724.79c.538.2,1.189.039.929.25-.173.141.4.105.614.151.55.117,1.339.058,1.816.119a12.853,12.853,0,0,0,2.339.154c.531-.029,1.147-.427,1.641-.483a21.851,21.851,0,0,0,3.078-.618c4.881-1.455-1.419-2.647-4.619-2.4C402.838,275.134,399.96,276.1,399.96,276.969Z" transform="translate(-399.857 -274.735)" fill="#ff2a2a"/>
              <path id="Path_199807" data-name="Path 199807" d="M400.774,277.106c-.005.746,2.616,1.175,5.854.959s5.869-1,5.874-1.742c0-.358-.612-.66-1.71-.841a19.266,19.266,0,0,0-4.144-.119,20.075,20.075,0,0,0-4.15.672C401.4,276.363,400.777,276.748,400.774,277.106Z" transform="translate(-400.179 -274.896)" fill="maroon"/>
              <g id="Group_64751" data-name="Group 64751" transform="translate(0.957 0.58)">
                <path id="Path_199808" data-name="Path 199808" d="M401.993,276.5c-1.412.616-.328,1.215,2.421,1.338a21.378,21.378,0,0,0,7.535-.9c.678-.3.8-.6.35-.854a7.493,7.493,0,0,0-2.771-.484,27.435,27.435,0,0,0-4.269.17A12.847,12.847,0,0,0,401.993,276.5Z" transform="translate(-401.374 -275.586)" fill="maroon"/>
                <g id="Group_64749" data-name="Group 64749" transform="translate(2.877 0.208)">
                  <path id="Path_199809" data-name="Path 199809" d="M414.019,276.34c-.467.136-.81.256-.586.293a6.7,6.7,0,0,0,1.4-.162c.78-.13.809-.256.585-.292A4.194,4.194,0,0,0,414.019,276.34Z" transform="translate(-408.997 -276.024)" fill="#ed683b"/>
                  <path id="Path_199810" data-name="Path 199810" d="M412.019,276.174c-.222.149-.346.275-.047.288a3.864,3.864,0,0,0,1.128-.242c.556-.167.346-.275.048-.288A2.417,2.417,0,0,0,412.019,276.174Z" transform="translate(-408.376 -275.931)" fill="#ed683b"/>
                  <path id="Path_199811" data-name="Path 199811" d="M409.43,276.229c.07.14.2.253.527.239a1.03,1.03,0,0,0,.674-.289c.235-.182-.2-.253-.528-.239S409.351,276.072,409.43,276.229Z" transform="translate(-407.436 -275.934)" fill="#ed683b"/>
                  <path id="Path_199812" data-name="Path 199812" d="M406.391,276.551a2.882,2.882,0,0,0,1.062.141c.308-.041.184-.154.053-.288a1.746,1.746,0,0,0-1.062-.141C406.135,276.3,405.966,276.434,406.391,276.551Z" transform="translate(-406.136 -276.055)" fill="#ed683b"/>
                  <path id="Path_199813" data-name="Path 199813" d="M415.571,276.759c-.665.1-1.2.19-1.1.247a7.063,7.063,0,0,0,1.456-.042c.9-.063,1.2-.19,1.1-.246A4.3,4.3,0,0,0,415.571,276.759Z" transform="translate(-409.43 -276.226)" fill="#ed683b"/>
                </g>
                <path id="Path_199814" data-name="Path 199814" d="M412.519,276.823s-.037.158-1.411.268a3.945,3.945,0,0,1-1.993-.088,6.981,6.981,0,0,0-3.139-.2c-1.9.18-2.227-.14-2.376-.271-.03-.027-2.319.385-1.824,1a6.346,6.346,0,0,1,3.052-.359,9.41,9.41,0,0,0,3.51.178c2.043.024,1.545.521,1.545.521S412.648,277.358,412.519,276.823Z" transform="translate(-401.506 -275.96)" fill="#ed683b"/>
                <g id="Group_64750" data-name="Group 64750" transform="translate(0.675 1.266)">
                  <path id="Path_199815" data-name="Path 199815" d="M409.544,278.481a1.163,1.163,0,0,1,.733-.286c.33-.011.385.108.464.246.1.17-.4.275-.734.286S409.337,278.649,409.544,278.481Z" transform="translate(-405.258 -277.884)" fill="#ed683b"/>
                  <path id="Path_199816" data-name="Path 199816" d="M407.011,278.423a3.755,3.755,0,0,1,1.151-.238c.295.015.115.14-.083.289a2.31,2.31,0,0,1-1.15.237C406.634,278.7,406.522,278.579,407.011,278.423Z" transform="translate(-404.148 -277.88)" fill="#ed683b"/>
                  <path id="Path_199817" data-name="Path 199817" d="M404.889,278.179a6.385,6.385,0,0,1,1.414-.15c.212.039-.187.153-.647.29a3.908,3.908,0,0,1-1.414.15C404.03,278.431,404.176,278.3,404.889,278.179Z" transform="translate(-403.149 -277.815)" fill="#ed683b"/>
                  <path id="Path_199818" data-name="Path 199818" d="M403.65,277.739a6.257,6.257,0,0,1,1.445-.027c.082.059-.485.14-1.148.238a3.641,3.641,0,0,1-1.445.027C402.42,277.919,402.823,277.8,403.65,277.739Z" transform="translate(-402.492 -277.681)" fill="#ed683b"/>
                  <path id="Path_199819" data-name="Path 199819" d="M412.508,278.333c-.137-.134-.187-.253.127-.291a2.722,2.722,0,0,1,1.009.154c.468.126.187.253-.126.291A1.681,1.681,0,0,1,412.508,278.333Z" transform="translate(-406.414 -277.82)" fill="#ed683b"/>
                </g>
              </g>
              <path id="Path_199820" data-name="Path 199820" d="M415.913,279.282l-.015-.6s-3.265.84-3.422.869-.413.543-.6.313-1,.355-1.768.137l.014.64s1.469-.181,2.124-.217A14.7,14.7,0,0,0,415.913,279.282Z" transform="translate(-403.874 -276.232)" fill="#ff2a2a"/>
              <path id="Path_199821" data-name="Path 199821" d="M403.23,280.169l-.014.7a2.541,2.541,0,0,1-1.112-.38c-.028-.619.028-.622.028-.622l.228-.012.071.517.028-.262Z" transform="translate(-400.702 -276.697)" fill="#ff2a2a"/>
              <path id="Path_199822" data-name="Path 199822" d="M418.561,276.71s-.043-.338.186-.17.313.7-.485,1.008a19.271,19.271,0,0,1-2.4.592C416.621,277.978,418.446,277.578,418.561,276.71Z" transform="translate(-406.094 -275.365)" fill="#ffd8a0"/>
              <path id="Path_199823" data-name="Path 199823" d="M401.006,277s-.969.413-.8.865a1.682,1.682,0,0,0,1.34.848,8.292,8.292,0,0,0,1.526.256c1.212.054,1.611-.009.827-.085s-1.982-.271-2.524-.362C400.75,278.411,399.851,277.719,401.006,277Z" transform="translate(-399.947 -275.564)" fill="#ffd8a0"/>
            </g>
            <path id="Path_199824" data-name="Path 199824" d="M414.643,276.3s-1.106-.938-3.891-.785-4.158.339-2.937.532,2.441-.208,3.471-.117S413.536,276.542,414.643,276.3Z" transform="translate(-387.031 -263.4)" fill="#ffd8a0"/>
            <path id="Path_199825" data-name="Path 199825" d="M490.375,280.557a5.027,5.027,0,0,1-2.563,2.628c-2.135,1.153-1.922,1.763-8.863,3.595s-8.009,1.683-13.455,3.226-12.174,1.808-15.911,2.117-8.65-.768-5.553-.938,7.475-.307,10.465-.471,9.184-1.851,15.911-2.635,6.193-2,10.252-3.257S489.307,279.995,490.375,280.557Z" transform="translate(-401.154 -265.38)" fill="#efbf8e"/>
            <g id="Group_64756" data-name="Group 64756" transform="translate(53.528 13.527)">
              <path id="Path_199826" data-name="Path 199826" d="M479.979,280.478c0,1.571-3.941,3.062-8.8,3.329s-8.567-.839-8.8-2.362c-.067-.434-.171-.761.154-1.106,1.6-1.708,7.426-2.445,8.848-2.467,4.745-.073,7.5.526,8.443,1.5C480.134,279.7,479.979,280.082,479.979,280.478Z" transform="translate(-462.303 -277.866)" fill="#c81b25"/>
              <path id="Path_199827" data-name="Path 199827" d="M480.087,280.009a1.731,1.731,0,0,1-.966,1.16c-.719.346-1.587.227-1.24.471.232.163-.529.2-.819.292-.735.237-1.788.273-2.423.425a17.932,17.932,0,0,1-3.122.548c-.709.039-1.53-.4-2.191-.4a27.907,27.907,0,0,1-4.108-.374c-6.515-1.226,1.895-3.741,6.166-3.879C476.246,277.981,480.087,278.85,480.087,280.009Z" transform="translate(-462.511 -277.998)" fill="#ff2a2a"/>
              <path id="Path_199828" data-name="Path 199828" d="M480.051,280.28c.008.994-3.491,1.952-7.814,2.139s-7.834-.47-7.841-1.464c0-.478.818-.972,2.283-1.373a26.406,26.406,0,0,1,5.531-.766,25.887,25.887,0,0,1,5.539.289C479.219,279.38,480.048,279.8,480.051,280.28Z" transform="translate(-463.132 -278.23)" fill="maroon"/>
              <g id="Group_64755" data-name="Group 64755" transform="translate(1.494 0.753)">
                <path id="Path_199829" data-name="Path 199829" d="M478.891,279.6c1.885.616.439,1.574-3.231,2.141s-8.173.526-10.059-.09c-.905-.3-1.073-.687-.467-1.089a10.8,10.8,0,0,1,3.7-1.052,36.7,36.7,0,0,1,5.7-.4A16.239,16.239,0,0,1,478.891,279.6Z" transform="translate(-464.776 -279.113)" fill="maroon"/>
                <g id="Group_64753" data-name="Group 64753" transform="translate(0.938 0.197)">
                  <path id="Path_199830" data-name="Path 199830" d="M470.729,280.767c.622.114,1.08.224.782.3a8.759,8.759,0,0,1-1.862-.011c-1.041-.059-1.08-.223-.782-.3A5.519,5.519,0,0,1,470.729,280.767Z" transform="translate(-467.27 -279.932)" fill="#ed683b"/>
                  <path id="Path_199831" data-name="Path 199831" d="M473.853,280.2c.3.166.462.317.063.377a4.907,4.907,0,0,1-1.506-.157c-.743-.142-.462-.316-.063-.377A3.071,3.071,0,0,1,473.853,280.2Z" transform="translate(-468.552 -279.669)" fill="#ed683b"/>
                  <path id="Path_199832" data-name="Path 199832" d="M477.637,279.85a.724.724,0,0,1-.7.4,1.236,1.236,0,0,1-.9-.287c-.314-.208.262-.365.7-.4S477.742,279.629,477.637,279.85Z" transform="translate(-470.134 -279.486)" fill="#ed683b"/>
                  <path id="Path_199833" data-name="Path 199833" d="M481.491,279.816a4.073,4.073,0,0,1-1.417.344c-.411-.009-.246-.178-.07-.376a2.473,2.473,0,0,1,1.417-.344C481.832,279.448,482.059,279.6,481.491,279.816Z" transform="translate(-471.667 -279.439)" fill="#ed683b"/>
                  <path id="Path_199834" data-name="Path 199834" d="M468.3,281.57c.888.033,1.6.078,1.468.168a9.48,9.48,0,0,1-1.944.158c-1.2.047-1.6-.078-1.468-.168A5.79,5.79,0,0,1,468.3,281.57Z" transform="translate(-466.328 -280.28)" fill="#ed683b"/>
                </g>
                <path id="Path_199835" data-name="Path 199835" d="M465.172,281.212s.05.206,1.883.15a5.474,5.474,0,0,0,2.66-.409,9.738,9.738,0,0,1,4.19-.729c2.54-.039,2.973-.513,3.171-.71.041-.04,3.1.175,2.435,1.07.234-.222-3.2-.453-4.074-.031a13.035,13.035,0,0,1-4.686.752c-2.727.332-2.063.921-2.063.921S465,281.945,465.172,281.212Z" transform="translate(-464.931 -279.27)" fill="#ed683b"/>
                <g id="Group_64754" data-name="Group 64754" transform="translate(4.058 1.201)">
                  <path id="Path_199836" data-name="Path 199836" d="M477.489,282.883a1.408,1.408,0,0,0-.979-.274.609.609,0,0,0-.619.4c-.129.24.538.307.979.274S477.765,283.077,477.489,282.883Z" transform="translate(-473.227 -281.695)" fill="#ed683b"/>
                  <path id="Path_199837" data-name="Path 199837" d="M480.546,282.49a4.783,4.783,0,0,0-1.536-.149c-.393.063-.153.2.111.374a2.925,2.925,0,0,0,1.536.148C481.05,282.8,481.2,282.627,480.546,282.49Z" transform="translate(-474.386 -281.583)" fill="#ed683b"/>
                  <path id="Path_199838" data-name="Path 199838" d="M482.884,281.9a8.38,8.38,0,0,0-1.888.007c-.283.083.25.177.863.292a5.137,5.137,0,0,0,1.888-.007C484.03,282.113,483.835,281.96,482.884,281.9Z" transform="translate(-475.224 -281.4)" fill="#ed683b"/>
                  <path id="Path_199839" data-name="Path 199839" d="M484.185,281.11a8.463,8.463,0,0,0-1.929.176c-.11.09.647.115,1.532.149a4.973,4.973,0,0,0,1.929-.176C485.827,281.169,485.289,281.068,484.185,281.11Z" transform="translate(-475.749 -281.1)" fill="#ed683b"/>
                  <path id="Path_199840" data-name="Path 199840" d="M473.341,283.076c.182-.2.25-.366-.169-.37a3.85,3.85,0,0,0-1.347.354c-.625.236-.25.365.169.37A2.393,2.393,0,0,0,473.341,283.076Z" transform="translate(-471.493 -281.736)" fill="#ed683b"/>
                </g>
              </g>
              <path id="Path_199841" data-name="Path 199841" d="M465.025,285.368l.019-.8s4.359.643,4.568.658.552.665.8.331,1.332.327,2.36-.076l-.019.856s-1.961-.026-2.836.022A18.135,18.135,0,0,1,465.025,285.368Z" transform="translate(-463.38 -280.518)" fill="#ff2a2a"/>
              <path id="Path_199842" data-name="Path 199842" d="M486.037,284.151l.019.934a3.774,3.774,0,0,0,1.485-.669c.038-.831-.038-.827-.038-.827l-.3.017-.1.7-.038-.346Z" transform="translate(-471.697 -280.131)" fill="#ff2a2a"/>
              <path id="Path_199843" data-name="Path 199843" d="M463.78,282.048s.057-.457-.247-.2-.419.986.647,1.274a24.382,24.382,0,0,0,3.2.439C466.369,283.456,463.932,283.189,463.78,282.048Z" transform="translate(-462.707 -279.411)" fill="#ffd8a0"/>
              <path id="Path_199844" data-name="Path 199844" d="M486.4,279.652s1.294.41,1.066,1.037a2.59,2.59,0,0,1-1.789,1.328,11.915,11.915,0,0,1-2.037.566c-1.618.25-2.151.225-1.1.007s2.646-.652,3.369-.853C486.74,281.5,487.938,280.449,486.4,279.652Z" transform="translate(-470.097 -278.573)" fill="#ffd8a0"/>
            </g>
            <path id="Path_199845" data-name="Path 199845" d="M465.434,280.905s1.477-1.415,5.193-1.619,5.55-.156,3.921.279-3.259.08-4.634.354S466.911,281.071,465.434,280.905Z" transform="translate(-410.014 -264.855)" fill="#ffd8a0"/>
            <path id="Path_199846" data-name="Path 199846" d="M481.683,271.1c0,.636-2.306,1.277-5.151,1.433s-5.013-.254-5.151-.867c-.039-.175-.1-.306.09-.449.937-.707,4.345-1.062,5.177-1.085,2.776-.077,4.391.138,4.94.522C481.774,270.784,481.683,270.941,481.683,271.1Z" transform="translate(-412.352 -261.272)" fill="#a40"/>
            <path id="Path_199847" data-name="Path 199847" d="M481.652,270.908c0,.1-.208.353-.566.479-.421.147-.929.108-.725.2.135.064-.31.085-.48.126-.43.1-1.046.128-1.417.2a14.993,14.993,0,0,1-1.827.253c-.415.022-.9-.148-1.282-.142a23.235,23.235,0,0,1-2.4-.11c-1.308-.1-.469-.368-.761-.29-.763.205-.783-.1-.783-.209,0-.468,2.306-.975,5.151-1.132S481.652,270.44,481.652,270.908Z" transform="translate(-412.379 -261.321)" fill="#d45500"/>
            <path id="Path_199848" data-name="Path 199848" d="M478.007,270.849c0,.02-.05.043-.14.064a2.41,2.41,0,0,1-.338.047c-.265.019-.48,0-.481-.041,0-.02.05-.044.14-.064a2.238,2.238,0,0,1,.338-.047C477.791,270.789,478.006,270.807,478.007,270.849Z" transform="translate(-414.612 -261.542)" fill="#fca"/>
            <path id="Path_199849" data-name="Path 199849" d="M483.144,270.952c0,.113-.576.227-1.286.255s-1.288-.041-1.288-.154.575-.227,1.286-.255a6.113,6.113,0,0,1,.91.024C483.008,270.851,483.144,270.9,483.144,270.952Z" transform="translate(-416.005 -261.539)" fill="#fca"/>
            <path id="Path_199850" data-name="Path 199850" d="M477.462,271.868c.009.107-.534.258-1.212.338s-1.236.057-1.245-.051.533-.259,1.211-.338a5.914,5.914,0,0,1,.874-.045C477.323,271.782,477.457,271.816,477.462,271.868Z" transform="translate(-413.802 -261.926)" fill="#fca"/>
            <path id="Path_199851" data-name="Path 199851" d="M482.48,272.132c0,.059-.3.128-.667.155s-.67,0-.671-.056c0-.028.069-.06.195-.089a3.59,3.59,0,0,1,.946-.07C482.408,272.082,482.48,272.1,482.48,272.132Z" transform="translate(-416.232 -262.042)" fill="#fca"/>
            <path id="Path_199852" data-name="Path 199852" d="M420.53,284.384s1.057,1.626,5.286,1.028,7.778.085,8.985-.567-.076-1.607,3.927-1.754,4.38-.387,5.21-.359.528-.249-1.661-.055-5.135-.158-6.267.124a42.478,42.478,0,0,1-4.38.387C430.346,283.331,418.793,283.161,420.53,284.384Z" transform="translate(-392.17 -266.215)" fill="#fde061"/>
            <path id="Path_199853" data-name="Path 199853" d="M437.413,281.853c0,.923-3.351,1.855-7.486,2.083s-7.285-.369-7.485-1.26c-.057-.254-.145-.445.131-.652,1.362-1.027,6.315-1.544,7.524-1.577,4.035-.112,6.381.2,7.18.758C437.545,281.393,437.413,281.621,437.413,281.853Z" transform="translate(-392.974 -265.351)" fill="#a40"/>
            <path id="Path_199854" data-name="Path 199854" d="M437.368,281.574c0,.149-.3.514-.822.7-.611.214-1.35.156-1.054.294.2.092-.451.124-.7.184-.624.15-1.52.186-2.06.285a21.645,21.645,0,0,1-2.655.367c-.6.033-1.3-.215-1.863-.205a33.966,33.966,0,0,1-3.493-.161c-1.9-.147-.682-.535-1.105-.421-1.109.3-1.137-.145-1.137-.3,0-.681,3.351-1.417,7.485-1.645S437.368,280.892,437.368,281.574Z" transform="translate(-393.013 -265.423)" fill="#d45500"/>
            <path id="Path_199855" data-name="Path 199855" d="M432.071,281.487c0,.03-.072.063-.2.093a3.37,3.37,0,0,1-.492.069c-.384.028-.7,0-.7-.059,0-.03.072-.063.2-.093a3.457,3.457,0,0,1,.492-.069,3.392,3.392,0,0,1,.492,0C432,281.436,432.071,281.458,432.071,281.487Z" transform="translate(-396.258 -265.745)" fill="#fca"/>
            <path id="Path_199856" data-name="Path 199856" d="M439.536,281.637c0,.164-.836.33-1.869.371a8.871,8.871,0,0,1-1.323-.036c-.351-.042-.548-.11-.549-.189s.2-.163.547-.232a9,9,0,0,1,1.323-.139,8.789,8.789,0,0,1,1.323.035C439.339,281.49,439.536,281.558,439.536,281.637Z" transform="translate(-398.283 -265.739)" fill="#fca"/>
            <path id="Path_199857" data-name="Path 199857" d="M431.279,282.968c.013.156-.775.376-1.761.491s-1.8.082-1.809-.074c-.007-.075.175-.169.506-.261a8.783,8.783,0,0,1,1.256-.23,8.635,8.635,0,0,1,1.269-.065C431.078,282.843,431.272,282.893,431.279,282.968Z" transform="translate(-395.082 -266.302)" fill="#fca"/>
            <path id="Path_199858" data-name="Path 199858" d="M438.572,283.352c0,.04-.1.088-.283.13a4.788,4.788,0,0,1-.686.1c-.537.039-.973,0-.975-.082,0-.041.1-.088.282-.13a4.7,4.7,0,0,1,.687-.1,4.642,4.642,0,0,1,.688-.006C438.469,283.279,438.571,283.311,438.572,283.352Z" transform="translate(-398.612 -266.471)" fill="#fca"/>
            <path id="Path_199859" data-name="Path 199859" d="M378.745,286.888a40.8,40.8,0,0,0,6.407,2.549c3.524,1.049,9.611,1.752,12.6,2.519s4.379,2.039,1.709,1.875-11-1.364-14.416-2.731A22.071,22.071,0,0,1,378.745,286.888Z" transform="translate(-375.702 -267.91)" fill="#efbf8e"/>
            <path id="Path_199860" data-name="Path 199860" d="M495.749,264.03c1.068.045,7.689.2,11,.743s-2.563-2.345-5.019-2.107-3.417-1.159-3.951-.508A20.676,20.676,0,0,1,495.749,264.03Z" transform="translate(-422.013 -258.052)" fill="#fea"/>
            <path id="Path_199861" data-name="Path 199861" d="M465.585,271.175c.3-.016,1.283-.51,2.869-.963s.755-.921,2.718-.809,3.171.852,4.153.8,2.869-.158,3.549-.122.906-.929-.982-1.411a11.011,11.011,0,0,0-5.436-.288c-2.19.413-3.4-.472-4.984.567s-5.134,1.161-4.38,1.486-5.663.75-3.4.919A44.922,44.922,0,0,0,465.585,271.175Z" transform="translate(-407.55 -260.498)" fill="#fde061"/>
            <path id="Path_199862" data-name="Path 199862" d="M464.013,270.49c.6.04,2.718.583,4.228.06s2.719-1.395,4.833-1.364,3.7.383,4.908.39,2.039-.7.151-.814a30.285,30.285,0,0,0-4.455-.268c-1.888.1-2.567-.372-4.229.013A51.066,51.066,0,0,0,464.013,270.49Z" transform="translate(-409.452 -260.574)" fill="#fea"/>
            <path id="Path_199863" data-name="Path 199863" d="M451.569,263.2c0,.484-1.757.973-3.924,1.092s-3.818-.193-3.923-.661c-.03-.133-.076-.233.068-.342.714-.538,3.31-.809,3.944-.827,2.115-.059,3.345.105,3.763.4C451.638,262.962,451.569,263.082,451.569,263.2Z" transform="translate(-401.408 -258.239)" fill="#a40"/>
            <path id="Path_199864" data-name="Path 199864" d="M451.546,263.057c0,.078-.159.269-.431.364-.32.112-.707.082-.552.154.1.048-.236.065-.366.1-.328.079-.8.1-1.08.149a11.452,11.452,0,0,1-1.392.192c-.315.017-.682-.112-.976-.108a17.872,17.872,0,0,1-1.831-.084c-1-.077-.358-.281-.579-.221-.581.157-.6-.075-.6-.158,0-.357,1.756-.743,3.923-.862S451.546,262.7,451.546,263.057Z" transform="translate(-401.429 -258.277)" fill="#d45500"/>
            <path id="Path_199865" data-name="Path 199865" d="M448.769,263.012c0,.016-.038.033-.106.049a1.8,1.8,0,0,1-.257.036,1.783,1.783,0,0,1-.259,0c-.069-.005-.108-.018-.108-.033s.038-.033.106-.049a1.826,1.826,0,0,1,.258-.036,1.684,1.684,0,0,1,.258,0C448.731,262.985,448.769,263,448.769,263.012Z" transform="translate(-403.129 -258.445)" fill="#fca"/>
            <path id="Path_199866" data-name="Path 199866" d="M452.682,263.091c0,.086-.438.173-.98.194a4.706,4.706,0,0,1-.694-.018c-.184-.022-.288-.058-.288-.1,0-.086.439-.173.98-.195a4.608,4.608,0,0,1,.694.019C452.578,263.014,452.682,263.049,452.682,263.091Z" transform="translate(-404.191 -258.442)" fill="#fca"/>
            <path id="Path_199867" data-name="Path 199867" d="M448.354,263.788c.007.082-.407.2-.923.257s-.941.043-.949-.039c0-.039.092-.088.265-.136a5.112,5.112,0,0,1,1.323-.155C448.249,263.723,448.35,263.749,448.354,263.788Z" transform="translate(-402.513 -258.737)" fill="#fca"/>
            <path id="Path_199868" data-name="Path 199868" d="M452.176,263.989c0,.021-.053.046-.148.068a2.588,2.588,0,0,1-.36.05c-.281.021-.51,0-.511-.043,0-.022.053-.046.149-.068a2.4,2.4,0,0,1,.359-.05C451.947,263.925,452.176,263.945,452.176,263.989Z" transform="translate(-404.363 -258.826)" fill="#fca"/>
            <g id="Group_64760" data-name="Group 64760" transform="translate(34.893 7.761)">
              <path id="Path_199869" data-name="Path 199869" d="M431.478,270.01c0,.738,1.851,1.234,4.133,1.109s4.023-.836,4.133-1.563c.032-.207.08-.366-.072-.511-.752-.72-3.487-.765-4.155-.7-2.228.21-3.524.634-3.964,1.14C431.405,269.652,431.478,269.824,431.478,270.01Z" transform="translate(-431.46 -268.323)" fill="#c81b25"/>
              <path id="Path_199870" data-name="Path 199870" d="M431.567,269.791a.7.7,0,0,0,.454.5c.338.126.746.024.582.157-.109.088.248.065.384.094.345.074.84.036,1.138.075a8.071,8.071,0,0,0,1.466.1c.333-.019.719-.268,1.029-.3a13.671,13.671,0,0,0,1.929-.388c3.059-.912-.889-1.659-2.9-1.5C433.371,268.641,431.567,269.247,431.567,269.791Z" transform="translate(-431.503 -268.391)" fill="#ff2a2a"/>
              <path id="Path_199871" data-name="Path 199871" d="M432.078,269.877c0,.468,1.639.737,3.669.6s3.678-.624,3.682-1.092c0-.225-.384-.414-1.072-.527a12.03,12.03,0,0,0-2.6-.074,12.557,12.557,0,0,0-2.6.421C432.468,269.411,432.079,269.652,432.078,269.877Z" transform="translate(-431.705 -268.492)" fill="maroon"/>
              <g id="Group_64759" data-name="Group 64759" transform="translate(0.6 0.364)">
                <path id="Path_199872" data-name="Path 199872" d="M432.842,269.5c-.885.387-.206.762,1.518.839a13.41,13.41,0,0,0,4.723-.561c.425-.185.5-.378.219-.535a4.69,4.69,0,0,0-1.737-.3,17.148,17.148,0,0,0-2.676.107A8.061,8.061,0,0,0,432.842,269.5Z" transform="translate(-432.453 -268.925)" fill="maroon"/>
                <g id="Group_64757" data-name="Group 64757" transform="translate(1.803 0.131)">
                  <path id="Path_199873" data-name="Path 199873" d="M440.379,269.4c-.292.085-.507.161-.367.183a4.16,4.16,0,0,0,.874-.1c.489-.082.507-.161.367-.184A2.635,2.635,0,0,0,440.379,269.4Z" transform="translate(-437.231 -269.199)" fill="#ed683b"/>
                  <path id="Path_199874" data-name="Path 199874" d="M439.125,269.293c-.139.094-.217.173-.03.181a2.436,2.436,0,0,0,.708-.152c.349-.105.217-.172.03-.18A1.522,1.522,0,0,0,439.125,269.293Z" transform="translate(-436.842 -269.141)" fill="#ed683b"/>
                  <path id="Path_199875" data-name="Path 199875" d="M437.5,269.327c.044.088.122.158.331.15a.645.645,0,0,0,.422-.181c.147-.114-.123-.158-.33-.149S437.453,269.229,437.5,269.327Z" transform="translate(-436.253 -269.143)" fill="#ed683b"/>
                  <path id="Path_199876" data-name="Path 199876" d="M435.6,269.529a1.809,1.809,0,0,0,.665.088c.193-.025.115-.1.033-.181a1.1,1.1,0,0,0-.666-.088C435.438,269.374,435.331,269.456,435.6,269.529Z" transform="translate(-435.438 -269.218)" fill="#ed683b"/>
                  <path id="Path_199877" data-name="Path 199877" d="M441.352,269.66c-.417.061-.751.119-.689.155a4.395,4.395,0,0,0,.913-.027c.564-.039.751-.119.689-.154A2.679,2.679,0,0,0,441.352,269.66Z" transform="translate(-437.503 -269.325)" fill="#ed683b"/>
                </g>
                <path id="Path_199878" data-name="Path 199878" d="M439.439,269.7s-.023.1-.884.167a2.466,2.466,0,0,1-1.249-.054,4.369,4.369,0,0,0-1.967-.126c-1.193.113-1.4-.088-1.489-.17-.019-.017-1.453.242-1.143.628a3.982,3.982,0,0,1,1.913-.225,5.886,5.886,0,0,0,2.2.112c1.28.015.969.326.969.326S439.52,270.034,439.439,269.7Z" transform="translate(-432.536 -269.159)" fill="#ed683b"/>
                <g id="Group_64758" data-name="Group 64758" transform="translate(0.423 0.793)">
                  <path id="Path_199879" data-name="Path 199879" d="M437.574,270.739a.724.724,0,0,1,.459-.179c.207-.007.242.068.291.155.06.106-.253.172-.46.179S437.444,270.844,437.574,270.739Z" transform="translate(-434.888 -270.365)" fill="#ed683b"/>
                  <path id="Path_199880" data-name="Path 199880" d="M435.987,270.7a2.357,2.357,0,0,1,.721-.149c.184.009.072.088-.052.181a1.442,1.442,0,0,1-.721.149C435.75,270.874,435.68,270.8,435.987,270.7Z" transform="translate(-434.192 -270.362)" fill="#ed683b"/>
                  <path id="Path_199881" data-name="Path 199881" d="M434.657,270.55a3.956,3.956,0,0,1,.886-.094c.133.024-.118.1-.405.181a2.44,2.44,0,0,1-.887.094C434.118,270.707,434.21,270.626,434.657,270.55Z" transform="translate(-433.566 -270.321)" fill="#ed683b"/>
                  <path id="Path_199882" data-name="Path 199882" d="M433.88,270.273a3.965,3.965,0,0,1,.906-.017c.051.037-.3.088-.72.149a2.279,2.279,0,0,1-.906.017C433.109,270.386,433.362,270.311,433.88,270.273Z" transform="translate(-433.154 -270.237)" fill="#ed683b"/>
                  <path id="Path_199883" data-name="Path 199883" d="M439.432,270.646c-.086-.084-.117-.159.079-.182a1.7,1.7,0,0,1,.633.1c.294.079.118.158-.079.182A1.049,1.049,0,0,1,439.432,270.646Z" transform="translate(-435.613 -270.325)" fill="#ed683b"/>
                </g>
              </g>
              <path id="Path_199884" data-name="Path 199884" d="M441.566,271.241l-.009-.376s-2.046.526-2.145.544-.259.341-.375.2-.626.222-1.108.086l.008.4s.921-.113,1.332-.136A9.184,9.184,0,0,0,441.566,271.241Z" transform="translate(-434.021 -269.329)" fill="#ff2a2a"/>
              <path id="Path_199885" data-name="Path 199885" d="M433.617,271.8l-.009.44a1.6,1.6,0,0,1-.7-.238c-.018-.388.018-.39.018-.39l.143-.008.045.324.018-.164Z" transform="translate(-432.033 -269.62)" fill="#ff2a2a"/>
              <path id="Path_199886" data-name="Path 199886" d="M443.226,269.629s-.027-.212.116-.107.2.441-.3.632a12.321,12.321,0,0,1-1.5.371C442.01,270.423,443.154,270.173,443.226,269.629Z" transform="translate(-435.412 -268.786)" fill="#ffd8a0"/>
              <path id="Path_199887" data-name="Path 199887" d="M432.223,269.807s-.608.259-.5.542a1.053,1.053,0,0,0,.84.531,5.148,5.148,0,0,0,.956.161c.76.034,1.01,0,.518-.053s-1.242-.17-1.582-.227C432.062,270.695,431.5,270.261,432.223,269.807Z" transform="translate(-431.559 -268.91)" fill="#ffd8a0"/>
            </g>
            <path id="Path_199888" data-name="Path 199888" d="M440.77,269.37a3.61,3.61,0,0,0-2.438-.492c-1.745.1-2.606.213-1.841.333s1.531-.13,2.176-.073A6.973,6.973,0,0,0,440.77,269.37Z" transform="translate(-398.447 -260.777)" fill="#ffd8a0"/>
            <path id="Path_199889" data-name="Path 199889" d="M458.285,272.157c0,.674-2.449,1.356-5.469,1.522s-5.323-.27-5.469-.921c-.042-.185-.106-.324.1-.476,1-.75,4.614-1.128,5.5-1.153,2.948-.082,4.663.147,5.246.555C458.381,271.82,458.285,271.987,458.285,272.157Z" transform="translate(-402.837 -261.665)" fill="#a40"/>
            <path id="Path_199890" data-name="Path 199890" d="M458.252,271.952c0,.109-.221.375-.6.508-.446.156-.986.114-.77.215.144.067-.329.091-.509.134-.456.11-1.111.136-1.506.208a15.848,15.848,0,0,1-1.939.268c-.441.024-.951-.156-1.361-.15a24.723,24.723,0,0,1-2.553-.117c-1.388-.108-.5-.391-.807-.308-.81.218-.831-.106-.831-.221,0-.5,2.449-1.036,5.469-1.2S458.252,271.455,458.252,271.952Z" transform="translate(-402.866 -261.718)" fill="#d45500"/>
            <path id="Path_199891" data-name="Path 199891" d="M454.382,271.89c0,.045-.226.1-.506.118s-.509,0-.511-.044c0-.021.053-.045.148-.068a2.776,2.776,0,0,1,.719-.053C454.328,271.851,454.382,271.868,454.382,271.89Z" transform="translate(-405.237 -261.953)" fill="#fca"/>
            <path id="Path_199892" data-name="Path 199892" d="M459.836,272c0,.12-.612.242-1.366.271s-1.367-.043-1.367-.164c0-.058.144-.118.4-.17a6.641,6.641,0,0,1,.966-.1,6.515,6.515,0,0,1,.966.026C459.692,271.892,459.836,271.941,459.836,272Z" transform="translate(-406.717 -261.949)" fill="#fca"/>
            <path id="Path_199893" data-name="Path 199893" d="M453.8,272.971c.01.114-.566.274-1.287.359s-1.312.06-1.322-.054c0-.055.128-.123.37-.19a7.1,7.1,0,0,1,1.845-.216C453.656,272.88,453.8,272.917,453.8,272.971Z" transform="translate(-404.378 -262.36)" fill="#fca"/>
            <path id="Path_199894" data-name="Path 199894" d="M459.132,273.251c0,.062-.315.136-.708.165s-.711,0-.712-.06c0-.03.074-.064.207-.095a3.454,3.454,0,0,1,.5-.07,3.355,3.355,0,0,1,.5,0C459.055,273.2,459.131,273.222,459.132,273.251Z" transform="translate(-406.957 -262.484)" fill="#fca"/>
            <path id="Path_199895" data-name="Path 199895" d="M457.041,281.448s1.442,1.682,2.136.815a2.7,2.7,0,0,1,1.228-1s.267-.17.961.362.908.934,1.335.341.854-.358,1.068-.369a5.3,5.3,0,0,0,2.136-.688c1.014-.573,5.232-.546,3.844-1.35s-.374-.549,1.388-.957,1.6-1.02,1.6-1.02,2.19.087,2.456,1.057-1.655,2.111,1.549,1.779,10.839-.8,8.917-1.37-2.936-.253-5.98-.708-2.083-1.8-5.873-1.749-5.66-1.243-10.092-.43a79.843,79.843,0,0,0-8.329,1.8c-.213.167-7.048,3.185-4.538,3.358S457.041,281.448,457.041,281.448Z" transform="translate(-404.022 -263.557)" fill="#fea"/>
            <path id="Path_199896" data-name="Path 199896" d="M466.928,283.871s1.015-.47.427-.645a10.585,10.585,0,0,0-2.216-.526c-1.228-.166-1.656-.116-2.4-.749s-.094-2.142-.37-1.46a2.266,2.266,0,0,0,.036,2.4c.694,1.244.816,1,.949.965s.827-.926,1.121-1.02a2.031,2.031,0,0,1,1.255.164C466.1,283.191,466.634,283.887,466.928,283.871Z" transform="translate(-408.676 -265.309)" fill="#fde061"/>
            <path id="Path_199897" data-name="Path 199897" d="M481.216,277.422a22.035,22.035,0,0,0-6.909-.353l-4.795.373a8.134,8.134,0,0,1,3.435-.994,27.62,27.62,0,0,1,3.965-.181c1.661.019,3.624-.676,3.247-.142s3.964.662,3.473.981,5.437.581,4.04,1.06-3.171,1.31-3.171,1.31-.675.53-.869-.209C483.482,278.69,483.9,277.971,481.216,277.422Z" transform="translate(-411.628 -263.57)" fill="#fde061"/>
            <path id="Path_199898" data-name="Path 199898" d="M469.061,279.023s6.781-.631,7.9-.486-2.883.987-1.976,1.2A21.714,21.714,0,0,0,469.061,279.023Z" transform="translate(-411.45 -264.596)" fill="#e9a550"/>
            <path id="Path_199899" data-name="Path 199899" d="M472.331,269.586a6.064,6.064,0,0,1,2.829-.674c1.816-.048,4.378.07,3.1-.118s-1.121-.56-2.456-.486A5.736,5.736,0,0,0,472.331,269.586Z" transform="translate(-412.744 -260.552)" fill="#e0872b"/>
            <path id="Path_199900" data-name="Path 199900" d="M418.777,282.774l2.643.088s-.08-.851,1.068-.965,3.391-.911,2.8-.205-1.255,1.105.08.85,2.3-1.447,3.5-1.539-1.415,1.451-.214,1.566a3.489,3.489,0,0,0,1.2-.17c3.311-.648.908-1.345,2.029-1.2s2.75-1.161.4-1.188S423.529,279.587,418.777,282.774Z" transform="translate(-391.547 -265.177)" fill="#fea"/>
            <path id="Path_199901" data-name="Path 199901" d="M422.9,282.514s-.32-.993,1.682-1.31c-2.963.526-2.083,1.8-2.083,1.8S422.951,283.055,422.9,282.514Z" transform="translate(-392.971 -265.66)" fill="#fde061"/>
            <path id="Path_199902" data-name="Path 199902" d="M435.194,280.22s-3.043-1.257-10.011.447c-.507.08-2.3,1.137-.027.623a34.013,34.013,0,0,1,4.485-.79C431.243,280.308,434.339,280.863,435.194,280.22Z" transform="translate(-393.627 -265.094)" fill="#e0872b"/>
            <path id="Path_199903" data-name="Path 199903" d="M455.923,290.832a10.317,10.317,0,0,0,6.3.172c2.456-.549,6.835-.79,3.844-1.144s-3.737-.831-6.3-.9S453.894,290.736,455.923,290.832Z" transform="translate(-406.001 -268.73)" fill="#e0872b"/>
            <path id="Path_199904" data-name="Path 199904" d="M517.04,271.536c-.906.269-3.776.134-2.794,1.326s1.964,2.09.755,3.182,1.359.292,2.567-1.46S515.152,272.812,517.04,271.536Z" transform="translate(-429.255 -261.833)" fill="#e0872b"/>
            <path id="Path_199905" data-name="Path 199905" d="M449.559,266.866c1.359.071,2.945-.309,4.908-.123S448.351,267.444,449.559,266.866Z" transform="translate(-403.682 -259.915)" fill="#e0872b"/>
            <path id="Path_199906" data-name="Path 199906" d="M428.019,274.833c.453-.025,1.435.068,3.927.224s.6.919-1.283,1.1-1.813-.34-1.813-.34S429.53,275.264,428.019,274.833Z" transform="translate(-395.205 -263.137)" fill="#e0872b"/>
            <path id="Path_199907" data-name="Path 199907" d="M483.391,261.646a28.29,28.29,0,0,0,5.059.528c1.284.076-.3-1.082-2.19-1.2s-5.134-.89-4.229-.207A7.719,7.719,0,0,0,483.391,261.646Z" transform="translate(-416.522 -257.461)" fill="#e0872b"/>
            <path id="Path_199908" data-name="Path 199908" d="M464.939,260.063c-.906.269-4.606-.113-3.549.415s3.021.786,2.492.449S464.939,260.063,464.939,260.063Z" transform="translate(-408.339 -257.292)" fill="#e0872b"/>
            <path id="Path_199909" data-name="Path 199909" d="M409.352,287.09a41.521,41.521,0,0,1,4.455.341c1.284.149-.076.81-1.888.837a7.173,7.173,0,0,1-3.625-.607C407.615,287.259,409.352,287.09,409.352,287.09Z" transform="translate(-387.335 -267.988)" fill="#e0872b"/>
            <path id="Path_199910" data-name="Path 199910" d="M476.261,273.546s4.4.118,6.946-.895a14.526,14.526,0,0,1,4.078-1.1,58.825,58.825,0,0,0-5.89.982A33.022,33.022,0,0,1,476.261,273.546Z" transform="translate(-414.3 -261.838)" fill="#fde061"/>
            <path id="Path_199911" data-name="Path 199911" d="M414.952,271.234a3.74,3.74,0,0,0,.679-.257l-.076-.472s-.038-.474-1.7-.713-.755-.581.227-.562a26.543,26.543,0,0,0,3.058.235c1.321-.073-.453-1,.415-1.012a27.92,27.92,0,0,1,3.663.312c.755.142,2.756.618.378,1.628S414.952,271.234,414.952,271.234Z" transform="translate(-389.235 -260.613)" fill="#fea"/>
            <path id="Path_199912" data-name="Path 199912" d="M417.885,270.746a5.586,5.586,0,0,1,1.321-.219,2.492,2.492,0,0,0,1.359-.4c.529-.248,1.095-.133,1.321-.292s-.3-.716-.3-.716,1.019.091,1.019.494.567.482.906.427.453.121-.34.422-2.794.483-2.19.486-.227.525-1.246.581a3.139,3.139,0,0,1-1.473-.175S417.772,271.192,417.885,270.746Z" transform="translate(-391.187 -260.875)" fill="#fde061"/>
            <path id="Path_199913" data-name="Path 199913" d="M429.712,267.331s1.764-1.008,2.287-.76c.478.244-.347.764-.347.764Z" transform="translate(-395.875 -259.853)" fill="#659332"/>
            <path id="Path_199914" data-name="Path 199914" d="M431.9,267.093s.456-.466-.13-.473a6.661,6.661,0,0,0-1.974.765A5.014,5.014,0,0,1,431.9,267.093Z" transform="translate(-395.909 -259.888)" fill="#96cc3f"/>
            <path id="Path_199915" data-name="Path 199915" d="M426.22,265.588a5.425,5.425,0,0,1,2.037,1.368,4.618,4.618,0,0,1,2.225-.3,3.786,3.786,0,0,1-2.941,1.155c-.888-.172-1.3-.414-1.537-.865S426.22,265.588,426.22,265.588Z" transform="translate(-394.38 -259.479)" fill="#659332"/>
            <path id="Path_199916" data-name="Path 199916" d="M426.325,265.711s-.478.909-.159,1.333,2.071-.014,2.071-.014A5.219,5.219,0,0,0,426.325,265.711Z" transform="translate(-394.428 -259.528)" fill="#96cc3f"/>
            <path id="Path_199917" data-name="Path 199917" d="M430.482,267.438s-2.436,2.044-4.188.407C427.8,268.314,428.869,267.331,430.482,267.438Z" transform="translate(-394.522 -260.208)" fill="#77ac3b"/>
            <path id="Path_199918" data-name="Path 199918" d="M427.613,267.174a3.387,3.387,0,0,1-1.15-1.516,3.258,3.258,0,0,0,1.309,1.5C427.63,267.19,427.613,267.174,427.613,267.174Z" transform="translate(-394.589 -259.507)" fill="#659332"/>
            <path id="Path_199919" data-name="Path 199919" d="M427.707,266.4a2.82,2.82,0,0,1-.028.653l.1.115A4.347,4.347,0,0,0,427.707,266.4Z" transform="translate(-395.07 -259.801)" fill="#659332"/>
            <path id="Path_199920" data-name="Path 199920" d="M430.225,268.3a4.369,4.369,0,0,1-1.929.089,3.49,3.49,0,0,0,1.52.132,10.4,10.4,0,0,1-1.042.317,2.242,2.242,0,0,1-1.331-.418c.068.272.763.438.763.438A2.864,2.864,0,0,0,430.225,268.3Z" transform="translate(-394.977 -260.554)" fill="#659332"/>
            <path id="Path_199921" data-name="Path 199921" d="M427.449,267.7a1.339,1.339,0,0,1-1.184-.443,1.293,1.293,0,0,0,1.076.349C427.46,267.7,427.449,267.7,427.449,267.7Z" transform="translate(-394.511 -260.141)" fill="#659332"/>
            <path id="Path_199922" data-name="Path 199922" d="M453.66,279.506s-2.261-1.044-2.933-.653c-.613.381.445.931.445.931Z" transform="translate(-404.117 -264.695)" fill="#659332"/>
            <path id="Path_199923" data-name="Path 199923" d="M450.988,279.5s-.584-.534.168-.625a7.719,7.719,0,0,1,2.532.7A6.225,6.225,0,0,0,450.988,279.5Z" transform="translate(-404.211 -264.735)" fill="#96cc3f"/>
            <path id="Path_199924" data-name="Path 199924" d="M456.365,276.618a8.121,8.121,0,0,0-2.612,2.04,5.774,5.774,0,0,0-2.853-.069,4.389,4.389,0,0,0,3.773,1.067c1.138-.346,1.663-.714,1.97-1.326S456.365,276.618,456.365,276.618Z" transform="translate(-404.261 -263.845)" fill="#659332"/>
            <path id="Path_199925" data-name="Path 199925" d="M458.219,276.788s.613,1.1.2,1.688-2.656.273-2.656.273A7.836,7.836,0,0,1,458.219,276.788Z" transform="translate(-406.188 -263.912)" fill="#96cc3f"/>
            <path id="Path_199926" data-name="Path 199926" d="M451.2,279.907s3.123,2.278,5.37-.068C454.639,280.654,453.27,279.543,451.2,279.907Z" transform="translate(-404.381 -265.117)" fill="#77ac3b"/>
            <path id="Path_199927" data-name="Path 199927" d="M457.3,278.821a5.078,5.078,0,0,0,1.474-2.106,4.884,4.884,0,0,1-1.678,2.11C457.277,278.844,457.3,278.821,457.3,278.821Z" transform="translate(-406.714 -263.883)" fill="#659332"/>
            <path id="Path_199928" data-name="Path 199928" d="M458.193,277.847a3.55,3.55,0,0,0,.036.833l-.131.163A5.717,5.717,0,0,1,458.193,277.847Z" transform="translate(-407.111 -264.331)" fill="#659332"/>
            <path id="Path_199929" data-name="Path 199929" d="M452.711,280.737a5.568,5.568,0,0,0,2.474-.157,4.632,4.632,0,0,1-1.948.383,12.45,12.45,0,0,0,1.335.26,3.17,3.17,0,0,0,1.707-.724c-.088.358-.978.669-.978.669A3.482,3.482,0,0,1,452.711,280.737Z" transform="translate(-404.978 -265.381)" fill="#659332"/>
            <path id="Path_199930" data-name="Path 199930" d="M457.615,279.475a1.893,1.893,0,0,0,1.518-.735,1.852,1.852,0,0,1-1.379.6C457.6,279.469,457.615,279.475,457.615,279.475Z" transform="translate(-406.919 -264.685)" fill="#659332"/>
            <path id="Path_199931" data-name="Path 199931" d="M386.733,275.959c1.394.028,1.911.6,3.571.814a4.287,4.287,0,0,1,2.5,1.141,5.559,5.559,0,0,0-1.41.257,10.274,10.274,0,0,1-5.167.015c-1.819-.565-.488-2.007-.488-2.007A2.8,2.8,0,0,1,386.733,275.959Z" transform="translate(-378.286 -263.584)" fill="#659332"/>
            <path id="Path_199932" data-name="Path 199932" d="M390.073,277.407a13.335,13.335,0,0,1,2.794.652,3.517,3.517,0,0,0-1.4.153,10.438,10.438,0,0,1-5.034.047,1.113,1.113,0,0,1-.633-1.935C386.659,277.051,388.682,277.215,390.073,277.407Z" transform="translate(-378.345 -263.728)" fill="#96cc3f"/>
            <path id="Path_199933" data-name="Path 199933" d="M386.448,276.256a4.62,4.62,0,0,0,1.5.614c.894.195,2.786.443,3.476.559a11.952,11.952,0,0,1,1.826.569,4.909,4.909,0,0,0-2.237-1.071c-.932-.076-2.274-.1-1.947-.21s-.215-.259-.764-.4A4.819,4.819,0,0,0,386.448,276.256Z" transform="translate(-378.751 -263.677)" fill="#77ac3b"/>
            <path id="Path_199934" data-name="Path 199934" d="M386.681,276.666a2.324,2.324,0,0,0-.013,1.561,2.676,2.676,0,0,1,.132-1.49l-.039-.036Z" transform="translate(-378.788 -263.864)" fill="#659332"/>
            <path id="Path_199935" data-name="Path 199935" d="M388.385,277.306a2.218,2.218,0,0,0,.541,1.44,2.553,2.553,0,0,1-.4-1.415l-.05-.02Z" transform="translate(-379.517 -264.117)" fill="#659332"/>
            <path id="Path_199936" data-name="Path 199936" d="M390.66,277.671a2.2,2.2,0,0,0,.8,1.311,2.522,2.522,0,0,1-.655-1.31l-.054-.011Z" transform="translate(-380.418 -264.258)" fill="#659332"/>
            <path id="Path_199937" data-name="Path 199937" d="M392.73,278.031a2.239,2.239,0,0,0,1.25.913,2.56,2.56,0,0,1-1.114-.962l-.055.009Z" transform="translate(-381.237 -264.384)" fill="#659332"/>
            <path id="Path_199938" data-name="Path 199938" d="M387.338,276.781a2.06,2.06,0,0,1,.965-.451,2.228,2.228,0,0,0-.84.451l-.049,0Z" transform="translate(-379.103 -263.731)" fill="#659332"/>
            <path id="Path_199939" data-name="Path 199939" d="M388.769,277.1a4,4,0,0,1,1.266-.317,4.452,4.452,0,0,0-1.156.334l-.047,0Z" transform="translate(-379.669 -263.912)" fill="#659332"/>
            <path id="Path_199940" data-name="Path 199940" d="M391.311,277.607a4.863,4.863,0,0,1,1.36-.234,5.477,5.477,0,0,0-1.263.259l-.044-.007Z" transform="translate(-380.676 -264.144)" fill="#659332"/>
            <path id="Path_199941" data-name="Path 199941" d="M393.679,278.085a5.568,5.568,0,0,1,1.419-.039,6.452,6.452,0,0,0-1.358.077l-.032-.013Z" transform="translate(-381.613 -264.399)" fill="#659332"/>
            <path id="Path_199942" data-name="Path 199942" d="M462.246,263.036a6.288,6.288,0,0,0-2.373-.325c-.5.221.36.515.36.515Z" transform="translate(-407.752 -258.319)" fill="#659332"/>
            <path id="Path_199943" data-name="Path 199943" d="M460.085,263.07s-.473-.291.136-.352a8.378,8.378,0,0,1,2.048.359A7.207,7.207,0,0,0,460.085,263.07Z" transform="translate(-407.828 -258.341)" fill="#96cc3f"/>
            <path id="Path_199944" data-name="Path 199944" d="M464.435,261.339a6.989,6.989,0,0,0-2.114,1.178,6.686,6.686,0,0,0-2.309,0,4.584,4.584,0,0,0,3.052.546c.921-.209,1.346-.423,1.595-.769S464.435,261.339,464.435,261.339Z" transform="translate(-407.869 -257.797)" fill="#659332"/>
            <path id="Path_199945" data-name="Path 199945" d="M465.935,261.437s.5.607.165.941-2.149.19-2.149.19A6.55,6.55,0,0,1,465.935,261.437Z" transform="translate(-409.427 -257.836)" fill="#96cc3f"/>
            <path id="Path_199946" data-name="Path 199946" d="M460.257,263.255s2.527,1.232,4.346-.112C463.039,263.626,461.931,263.023,460.257,263.255Z" transform="translate(-407.965 -258.511)" fill="#77ac3b"/>
            <path id="Path_199947" data-name="Path 199947" d="M461.479,263.712a6.482,6.482,0,0,0,2-.121,5.317,5.317,0,0,1-1.576.241s.962.141,1.08.127a3.339,3.339,0,0,0,1.382-.428c-.071.2-.792.388-.792.388A3.933,3.933,0,0,1,461.479,263.712Z" transform="translate(-408.449 -258.665)" fill="#659332"/>
            <path id="Path_199948" data-name="Path 199948" d="M443.675,286.639c-2.022.292-2.771,1.377-5.179,2.043a6.969,6.969,0,0,0-3.631,2.426,6.546,6.546,0,0,1,2.045.2,12.691,12.691,0,0,0,7.492-.879c2.637-1.3.707-3.579.707-3.579A3.257,3.257,0,0,0,443.675,286.639Z" transform="translate(-397.915 -267.804)" fill="#659332"/>
            <path id="Path_199949" data-name="Path 199949" d="M438.916,289.633a18.8,18.8,0,0,0-4.051,1.625s.344-.2,2.026.022a12.871,12.871,0,0,0,7.3-.8,2.17,2.17,0,0,0,.917-3.479C443.868,288.416,440.934,289.056,438.916,289.633Z" transform="translate(-397.915 -267.954)" fill="#96cc3f"/>
            <path id="Path_199950" data-name="Path 199950" d="M444.781,287.011a7.241,7.241,0,0,1-2.176,1.332c-1.3.5-4.041,1.261-5.041,1.584a17.59,17.59,0,0,0-2.649,1.31,8.075,8.075,0,0,1,3.243-2.256c1.351-.295,3.3-.575,2.825-.706s.311-.489,1.108-.833A6.071,6.071,0,0,1,444.781,287.011Z" transform="translate(-397.935 -267.953)" fill="#77ac3b"/>
            <path id="Path_199951" data-name="Path 199951" d="M450.663,287.72a4.728,4.728,0,0,1,.019,2.715,5.4,5.4,0,0,0-.191-2.572l.057-.07Z" transform="translate(-404.1 -268.239)" fill="#659332"/>
            <path id="Path_199952" data-name="Path 199952" d="M447.922,289.119a4.8,4.8,0,0,1-.785,2.6,5.527,5.527,0,0,0,.584-2.533l.074-.044Z" transform="translate(-402.772 -268.793)" fill="#659332"/>
            <path id="Path_199953" data-name="Path 199953" d="M444.38,290.164a4.66,4.66,0,0,1-1.156,2.422,5.388,5.388,0,0,0,.95-2.4l.078-.028Z" transform="translate(-401.223 -269.205)" fill="#659332"/>
            <path id="Path_199954" data-name="Path 199954" d="M440.948,291.158a4.1,4.1,0,0,1-1.812,1.808,4.77,4.77,0,0,0,1.616-1.871l.08.006Z" transform="translate(-399.605 -269.575)" fill="#659332"/>
            <path id="Path_199955" data-name="Path 199955" d="M449.038,288.13a2.468,2.468,0,0,0-1.4-.615,2.669,2.669,0,0,1,1.219.639l.072,0Z" transform="translate(-402.97 -268.158)" fill="#659332"/>
            <path id="Path_199956" data-name="Path 199956" d="M446.676,288.978a4.642,4.642,0,0,0-1.836-.329,5.182,5.182,0,0,1,1.677.379l.068-.014Z" transform="translate(-401.863 -268.607)" fill="#659332"/>
            <path id="Path_199957" data-name="Path 199957" d="M442.9,290.3a5.69,5.69,0,0,0-1.973-.169,6.4,6.4,0,0,1,1.832.23l.063-.019Z" transform="translate(-400.314 -269.188)" fill="#659332"/>
            <path id="Path_199958" data-name="Path 199958" d="M439.411,291.468a6.737,6.737,0,0,0-2.059.182,7.783,7.783,0,0,1,1.97-.1l.047-.028Z" transform="translate(-398.899 -269.716)" fill="#659332"/>
            <path id="Path_199959" data-name="Path 199959" d="M503.55,275.769c.056.187-.28.465-.73.625a7.219,7.219,0,0,1-2.049.38c-2.165.073-.808-.295-1.307-.394s-1.349-.073-1.349-.286c0-.155.323-.348.608-.486a5.784,5.784,0,0,1,2.106-.436c1.448-.089-.036.564.455.5C502.445,275.5,503.486,275.559,503.55,275.769Z" transform="translate(-422.95 -263.269)" fill="#e0872b"/>
            <path id="Path_199960" data-name="Path 199960" d="M508.726,269.616c0,.1-.163.2-.453.284a5.119,5.119,0,0,1-1.095.167,4.905,4.905,0,0,1-1.094-.047c-.291-.053-.454-.137-.454-.234,0-.2.693-.4,1.548-.451S508.726,269.414,508.726,269.616Z" transform="translate(-425.924 -260.958)" fill="#e0872b"/>
            <path id="Path_199961" data-name="Path 199961" d="M506.656,271.608c0,.039-.065.08-.181.114a2.045,2.045,0,0,1-.438.067,1.981,1.981,0,0,1-.437-.019c-.116-.021-.181-.055-.181-.094s.065-.08.181-.114a2.056,2.056,0,0,1,.438-.067,2.021,2.021,0,0,1,.438.019C506.591,271.535,506.656,271.569,506.656,271.608Z" transform="translate(-425.84 -261.816)" fill="#e0872b"/>
            <path id="Path_199962" data-name="Path 199962" d="M462.3,267.861c0,.1.163.182.453.234a4.988,4.988,0,0,0,1.095.047,5.107,5.107,0,0,0,1.094-.167c.291-.085.454-.187.454-.284,0-.2-.693-.328-1.548-.282S462.3,267.659,462.3,267.861Z" transform="translate(-408.774 -260.196)" fill="#e0872b"/>
            <path id="Path_199963" data-name="Path 199963" d="M465.587,269.56c0,.039.065.073.182.094a1.973,1.973,0,0,0,.437.019,2.056,2.056,0,0,0,.438-.067c.116-.034.181-.075.181-.114s-.065-.073-.181-.094a1.981,1.981,0,0,0-.438-.019,2.014,2.014,0,0,0-.437.067C465.652,269.48,465.587,269.521,465.587,269.56Z" transform="translate(-410.075 -260.978)" fill="#e0872b"/>
            <path id="Path_199964" data-name="Path 199964" d="M440.071,262.237c0,.06.1.112.281.145a3.084,3.084,0,0,0,.677.029,3.2,3.2,0,0,0,.678-.1c.179-.053.28-.116.28-.176,0-.125-.429-.2-.958-.174S440.071,262.112,440.071,262.237Z" transform="translate(-399.975 -258.04)" fill="#e0872b"/>
            <path id="Path_199965" data-name="Path 199965" d="M442.106,263.288c0,.05.172.081.384.069s.383-.062.383-.112c0-.024-.04-.045-.112-.058a1.261,1.261,0,0,0-.271-.011,1.239,1.239,0,0,0-.271.042C442.146,263.239,442.106,263.264,442.106,263.288Z" transform="translate(-400.781 -258.524)" fill="#e0872b"/>
            <ellipse id="Ellipse_1693" data-name="Ellipse 1693" cx="1.196" cy="0.282" rx="1.196" ry="0.282" transform="translate(41.288 13.454) rotate(-3.33)" fill="#e0872b"/>
            <path id="Path_199966" data-name="Path 199966" d="M444.606,276.663c0-.063.214-.125.477-.14s.478.025.478.087c0,.03-.05.062-.14.088a1.572,1.572,0,0,1-.338.051,1.505,1.505,0,0,1-.337-.014C444.656,276.718,444.606,276.692,444.606,276.663Z" transform="translate(-401.77 -263.806)" fill="#e0872b"/>
            <ellipse id="Ellipse_1694" data-name="Ellipse 1694" cx="1.934" cy="0.456" rx="1.934" ry="0.456" transform="matrix(0.998, -0.058, 0.058, 0.998, 12.546, 17.91)" fill="#e0872b"/>
            <path id="Path_199967" data-name="Path 199967" d="M398.618,283.369c0-.1.346-.2.772-.225a2.517,2.517,0,0,1,.546.024c.145.027.226.068.226.117s-.081.1-.226.141a2.527,2.527,0,0,1-.546.083,2.445,2.445,0,0,1-.546-.024C398.7,283.46,398.618,283.418,398.618,283.369Z" transform="translate(-383.568 -266.426)" fill="#e0872b"/>
            <path id="Path_199968" data-name="Path 199968" d="M401.8,284.218c0-.143.49-.286,1.094-.319s1.094.056,1.094.2c0,.069-.115.141-.32.2a3.643,3.643,0,0,1-.773.118,3.5,3.5,0,0,1-.773-.034C401.919,284.347,401.8,284.287,401.8,284.218Z" transform="translate(-384.829 -266.724)" fill="#e0872b"/>
            <path id="Path_199969" data-name="Path 199969" d="M470.575,290.07c.213-.115,9.4-1.086,12.013-2.37s-.908-.52-2.829-.155a40.725,40.725,0,0,1-6.888.741c-3.364.133-9.932-1.527-7.8-.556s8.6,1.185,6.995,1.74S470.575,290.07,470.575,290.07Z" transform="translate(-409.706 -267.949)" fill="#fea"/>
            <path id="Path_199970" data-name="Path 199970" d="M485.422,265.382c-.879-.03-1.2-.466-2.251-.64a2.616,2.616,0,0,1-1.579-.881,2.963,2.963,0,0,0,.889-.184,5.424,5.424,0,0,1,3.257.024c1.146.44.308,1.522.308,1.522A1.522,1.522,0,0,1,485.422,265.382Z" transform="translate(-416.41 -258.627)" fill="#659332"/>
            <path id="Path_199971" data-name="Path 199971" d="M483.354,264.424a7.377,7.377,0,0,1-1.761-.513s.15.069.881-.107a5.524,5.524,0,0,1,3.173,0c1.146.441.4,1.469.4,1.469A5.549,5.549,0,0,0,483.354,264.424Z" transform="translate(-416.41 -258.678)" fill="#96cc3f"/>
            <path id="Path_199972" data-name="Path 199972" d="M485.9,265.516a2.735,2.735,0,0,0-.946-.475c-.564-.154-1.756-.355-2.191-.448a6.768,6.768,0,0,1-1.151-.443,3.016,3.016,0,0,0,1.409.826c.587.063,1.433.092,1.228.172s.135.2.482.309A2.557,2.557,0,0,0,485.9,265.516Z" transform="translate(-416.419 -258.91)" fill="#77ac3b"/>
            <path id="Path_199973" data-name="Path 199973" d="M488.46,265.355a2.089,2.089,0,0,0,.008-1.181,2.408,2.408,0,0,1-.083,1.127l.025.028Z" transform="translate(-419.098 -258.919)" fill="#659332"/>
            <path id="Path_199974" data-name="Path 199974" d="M487.269,264.917a1.927,1.927,0,0,0-.341-1.093,2.232,2.232,0,0,1,.253,1.073l.032.016Z" transform="translate(-418.522 -258.781)" fill="#659332"/>
            <path id="Path_199975" data-name="Path 199975" d="M485.729,264.683a1.8,1.8,0,0,0-.5-1,2.093,2.093,0,0,1,.413,1l.034.008Z" transform="translate(-417.849 -258.726)" fill="#659332"/>
            <path id="Path_199976" data-name="Path 199976" d="M484.238,264.572a1.523,1.523,0,0,0-.788-.7,1.77,1.77,0,0,1,.7.736l.035-.007Z" transform="translate(-417.145 -258.8)" fill="#659332"/>
            <path id="Path_199977" data-name="Path 199977" d="M487.754,265.813a1.224,1.224,0,0,1-.608.334,1.342,1.342,0,0,0,.531-.336l.031,0Z" transform="translate(-418.608 -259.567)" fill="#659332"/>
            <path id="Path_199978" data-name="Path 199978" d="M486.727,265.618a2.194,2.194,0,0,1-.8.231,2.449,2.449,0,0,0,.729-.245l.03,0Z" transform="translate(-418.126 -259.485)" fill="#659332"/>
            <path id="Path_199979" data-name="Path 199979" d="M485.086,265.257a2.6,2.6,0,0,1-.857.167,2.957,2.957,0,0,0,.8-.187l.027.005Z" transform="translate(-417.453 -259.34)" fill="#659332"/>
            <path id="Path_199980" data-name="Path 199980" d="M483.569,264.955a2.919,2.919,0,0,1-.895.019,3.382,3.382,0,0,0,.857-.049l.02.01Z" transform="translate(-416.838 -259.217)" fill="#659332"/>
            <path id="Path_199981" data-name="Path 199981" d="M498.241,267.377c-.135.008-.607.328-1.451.6s-.068.167-1.553.216a16.435,16.435,0,0,1-2.733-.144s.337-.313-.169-.515a2.833,2.833,0,0,0-1.114-.364c-.439-.008.506-.192,1.215-.132a11.554,11.554,0,0,0,2.025-.045c1.214-.067,1.856,0,2.733-.019a1.814,1.814,0,0,1,1.215.293Z" transform="translate(-420.177 -260.024)" fill="#fde061"/>
            <g id="Group_64764" data-name="Group 64764" transform="translate(72.028 5.839)">
              <path id="Path_199982" data-name="Path 199982" d="M498.841,266.015c0,.526-1.32,1.025-2.947,1.115s-2.869-.281-2.947-.791c-.022-.145-.057-.254.051-.37.536-.572,2.486-.819,2.962-.826,1.589-.024,2.513.176,2.827.5C498.893,265.754,498.841,265.883,498.841,266.015Z" transform="translate(-492.923 -265.141)" fill="#c81b25"/>
              <path id="Path_199983" data-name="Path 199983" d="M498.877,265.858a.58.58,0,0,1-.324.388c-.24.116-.531.076-.415.158.077.054-.178.066-.275.1-.246.079-.6.091-.811.142a5.983,5.983,0,0,1-1.046.184c-.237.013-.512-.135-.733-.135a9.385,9.385,0,0,1-1.375-.126c-2.181-.41.634-1.252,2.065-1.3C497.591,265.179,498.877,265.47,498.877,265.858Z" transform="translate(-492.992 -265.185)" fill="#ff2a2a"/>
              <path id="Path_199984" data-name="Path 199984" d="M498.865,265.949c0,.333-1.169.654-2.616.716s-2.623-.157-2.626-.49c0-.16.274-.325.764-.46a8.831,8.831,0,0,1,1.852-.256,8.649,8.649,0,0,1,1.855.1C498.587,265.648,498.864,265.789,498.865,265.949Z" transform="translate(-493.2 -265.263)" fill="maroon"/>
              <g id="Group_64763" data-name="Group 64763" transform="translate(0.5 0.252)">
                <path id="Path_199985" data-name="Path 199985" d="M498.477,265.722c.631.207.147.527-1.082.717a9.341,9.341,0,0,1-3.368-.03c-.3-.1-.359-.23-.156-.364a3.6,3.6,0,0,1,1.239-.352,12.28,12.28,0,0,1,1.908-.134A5.435,5.435,0,0,1,498.477,265.722Z" transform="translate(-493.751 -265.558)" fill="maroon"/>
                <g id="Group_64761" data-name="Group 64761" transform="translate(0.314 0.066)">
                  <path id="Path_199986" data-name="Path 199986" d="M495.744,266.113c.208.037.361.074.262.1a2.91,2.91,0,0,1-.624,0c-.349-.02-.361-.075-.262-.1A1.854,1.854,0,0,1,495.744,266.113Z" transform="translate(-494.585 -265.833)" fill="#ed683b"/>
                  <path id="Path_199987" data-name="Path 199987" d="M496.79,265.924c.1.056.155.106.021.126a1.625,1.625,0,0,1-.5-.053c-.249-.047-.155-.106-.022-.126A1.022,1.022,0,0,1,496.79,265.924Z" transform="translate(-495.015 -265.745)" fill="#ed683b"/>
                  <path id="Path_199988" data-name="Path 199988" d="M498.056,265.8a.241.241,0,0,1-.236.132.412.412,0,0,1-.3-.1c-.105-.069.088-.122.236-.132S498.092,265.731,498.056,265.8Z" transform="translate(-495.544 -265.683)" fill="#ed683b"/>
                  <path id="Path_199989" data-name="Path 199989" d="M499.347,265.794a1.354,1.354,0,0,1-.474.115c-.138,0-.082-.06-.023-.126a.833.833,0,0,1,.474-.115C499.461,265.671,499.537,265.721,499.347,265.794Z" transform="translate(-496.058 -265.668)" fill="#ed683b"/>
                  <path id="Path_199990" data-name="Path 199990" d="M494.929,266.381c.3.011.535.026.491.056a3.15,3.15,0,0,1-.651.053c-.4.016-.535-.026-.492-.056A1.937,1.937,0,0,1,494.929,266.381Z" transform="translate(-494.27 -265.949)" fill="#ed683b"/>
                </g>
                <path id="Path_199991" data-name="Path 199991" d="M493.884,266.262s.016.069.63.05a1.832,1.832,0,0,0,.891-.137,3.265,3.265,0,0,1,1.4-.244c.851-.013,1-.172,1.062-.238.013-.013,1.036.059.815.358a2.766,2.766,0,0,0-1.364-.01,4.368,4.368,0,0,1-1.568.251c-.913.111-.691.309-.691.309S493.826,266.506,493.884,266.262Z" transform="translate(-493.802 -265.611)" fill="#ed683b"/>
                <g id="Group_64762" data-name="Group 64762" transform="translate(1.359 0.402)">
                  <path id="Path_199992" data-name="Path 199992" d="M498.007,266.821a.469.469,0,0,0-.327-.092.2.2,0,0,0-.207.133c-.043.08.18.1.328.092S498.1,266.885,498.007,266.821Z" transform="translate(-496.58 -266.423)" fill="#ed683b"/>
                  <path id="Path_199993" data-name="Path 199993" d="M499.031,266.689a1.6,1.6,0,0,0-.514-.05c-.132.021-.051.068.037.125a.982.982,0,0,0,.515.05C499.2,266.794,499.249,266.735,499.031,266.689Z" transform="translate(-496.968 -266.386)" fill="#ed683b"/>
                  <path id="Path_199994" data-name="Path 199994" d="M499.814,266.493a2.8,2.8,0,0,0-.633,0c-.094.028.084.059.289.1a1.719,1.719,0,0,0,.632,0C500.2,266.563,500.132,266.511,499.814,266.493Z" transform="translate(-497.249 -266.324)" fill="#ed683b"/>
                  <path id="Path_199995" data-name="Path 199995" d="M500.249,266.227a2.842,2.842,0,0,0-.646.059c-.036.03.217.038.513.049a1.657,1.657,0,0,0,.647-.059C500.8,266.247,500.619,266.213,500.249,266.227Z" transform="translate(-497.424 -266.224)" fill="#ed683b"/>
                  <path id="Path_199996" data-name="Path 199996" d="M496.619,266.885c.061-.066.083-.122-.057-.124a1.3,1.3,0,0,0-.451.118c-.209.079-.084.123.057.124A.8.8,0,0,0,496.619,266.885Z" transform="translate(-496 -266.436)" fill="#ed683b"/>
                </g>
              </g>
              <path id="Path_199997" data-name="Path 199997" d="M493.834,267.653l.007-.269s1.459.215,1.529.22.185.223.268.111.446.11.79-.025l-.007.287s-.656-.009-.949.007A6.078,6.078,0,0,1,493.834,267.653Z" transform="translate(-493.284 -266.029)" fill="#ff2a2a"/>
              <path id="Path_199998" data-name="Path 199998" d="M500.869,267.245l.007.313a1.255,1.255,0,0,0,.5-.224c.013-.278-.013-.277-.013-.277l-.1.005-.032.234-.013-.115Z" transform="translate(-496.068 -265.899)" fill="#ff2a2a"/>
              <path id="Path_199999" data-name="Path 199999" d="M493.417,266.541s.019-.153-.083-.067-.14.33.217.427a8.087,8.087,0,0,0,1.071.147C494.284,267.012,493.468,266.923,493.417,266.541Z" transform="translate(-493.058 -265.658)" fill="#ffd8a0"/>
              <path id="Path_200000" data-name="Path 200000" d="M500.99,265.739s.433.137.356.347a.865.865,0,0,1-.6.445,3.948,3.948,0,0,1-.682.19c-.541.083-.72.076-.37,0s.886-.218,1.128-.286C501.1,266.359,501.506,266.006,500.99,265.739Z" transform="translate(-495.532 -265.378)" fill="#ffd8a0"/>
            </g>
            <path id="Path_200001" data-name="Path 200001" d="M493.971,266.158a2.82,2.82,0,0,1,1.739-.542c1.245-.069,1.858-.053,1.313.093s-1.091.027-1.552.118A5.248,5.248,0,0,1,493.971,266.158Z" transform="translate(-421.309 -259.475)" fill="#ffd8a0"/>
            <path id="Path_200002" data-name="Path 200002" d="M498.788,268.082c-1.213.157-1.662.7-3.106,1.049a4.276,4.276,0,0,0-2.178,1.231,4.71,4.71,0,0,1,1.227.088,9.05,9.05,0,0,0,4.493-.48,1.01,1.01,0,0,0,.424-1.791A2.3,2.3,0,0,0,498.788,268.082Z" transform="translate(-421.125 -260.462)" fill="#659332"/>
            <path id="Path_200003" data-name="Path 200003" d="M495.934,269.6a12.735,12.735,0,0,0-2.43.834,3.053,3.053,0,0,1,1.215,0,9.189,9.189,0,0,0,4.379-.44c1.582-.665.55-1.743.55-1.743C498.9,268.964,497.144,269.3,495.934,269.6Z" transform="translate(-421.125 -260.533)" fill="#96cc3f"/>
            <path id="Path_200004" data-name="Path 200004" d="M499.452,268.26a4.559,4.559,0,0,1-1.305.677c-.778.255-2.423.652-3.023.819a11.626,11.626,0,0,0-1.589.669,4.92,4.92,0,0,1,1.945-1.145c.81-.155,1.978-.305,1.694-.369s.187-.246.665-.422A4.336,4.336,0,0,1,499.452,268.26Z" transform="translate(-421.137 -260.535)" fill="#77ac3b"/>
            <path id="Path_200005" data-name="Path 200005" d="M502.979,268.616a1.988,1.988,0,0,1,.011,1.356,2.27,2.27,0,0,0-.115-1.283l.034-.036Z" transform="translate(-424.834 -260.678)" fill="#659332"/>
            <path id="Path_200006" data-name="Path 200006" d="M501.336,269.327a2.113,2.113,0,0,1-.471,1.3,2.411,2.411,0,0,0,.35-1.269l.044-.022Z" transform="translate(-424.038 -260.959)" fill="#659332"/>
            <path id="Path_200007" data-name="Path 200007" d="M499.211,269.868a2.178,2.178,0,0,1-.693,1.216,2.487,2.487,0,0,0,.57-1.2l.047-.015Z" transform="translate(-423.109 -261.173)" fill="#659332"/>
            <path id="Path_200008" data-name="Path 200008" d="M497.153,270.381a2.275,2.275,0,0,1-1.087.913,2.611,2.611,0,0,0,.969-.943l.048,0Z" transform="translate(-422.139 -261.364)" fill="#659332"/>
            <path id="Path_200009" data-name="Path 200009" d="M502,268.83a1.585,1.585,0,0,0-.84-.3,1.7,1.7,0,0,1,.732.312l.043,0Z" transform="translate(-424.157 -260.644)" fill="#659332"/>
            <path id="Path_200010" data-name="Path 200010" d="M500.589,269.267a3.258,3.258,0,0,0-1.1-.154,3.609,3.609,0,0,1,1.006.18l.041-.008Z" transform="translate(-423.493 -260.874)" fill="#659332"/>
            <path id="Path_200011" data-name="Path 200011" d="M498.324,269.946a4.04,4.04,0,0,0-1.183-.073,4.528,4.528,0,0,1,1.1.1l.038-.01Z" transform="translate(-422.564 -261.171)" fill="#659332"/>
            <path id="Path_200012" data-name="Path 200012" d="M496.231,270.544a4.849,4.849,0,0,0-1.235.1,5.6,5.6,0,0,1,1.182-.063l.028-.014Z" transform="translate(-421.715 -261.439)" fill="#659332"/>
            <g id="Group_64766" data-name="Group 64766" transform="translate(37.215 4.866)">
              <path id="Path_200013" data-name="Path 200013" d="M435.41,266.393a4.47,4.47,0,0,1,1.6-.062,4.824,4.824,0,0,0,2.189-.2,4.366,4.366,0,0,1,1.308-.279,1.286,1.286,0,0,0-1.041-.176c-.4.2.026-.442.4-.385-.881-.21-4.565.536-4.565.536S436.051,265.633,435.41,266.393Z" transform="translate(-435.303 -264.214)" fill="#fde061"/>
              <g id="Group_64765" data-name="Group 64765" transform="translate(0.404)">
                <path id="Path_200014" data-name="Path 200014" d="M439.809,264.573c-.019.766-.859,1.11-1.918,1.168s-1.918-.459-1.918-.958.987-1.189,2.046-1.246S439.824,263.913,439.809,264.573Z" transform="translate(-435.972 -263.531)" fill="#280b0b"/>
                <path id="Path_200015" data-name="Path 200015" d="M438.018,263.537c-1.059.058-2.046.747-2.046,1.246v0a3.191,3.191,0,0,0,1.881.444,3.54,3.54,0,0,0,1.949-.567c0-.03.005-.059.007-.09C439.824,263.913,439.078,263.479,438.018,263.537Z" transform="translate(-435.972 -263.531)" fill="#483737"/>
                <path id="Path_200016" data-name="Path 200016" d="M440.6,264.414c-.007.321-.36.466-.8.49s-.8-.193-.8-.4.413-.5.858-.523S440.61,264.137,440.6,264.414Z" transform="translate(-437.169 -263.708)" fill="#e3dbdb"/>
              </g>
              <path id="Path_200017" data-name="Path 200017" d="M436.363,266.8a16.677,16.677,0,0,1,1.735-.329c.454-.025.588.1.588.1a.5.5,0,0,1,.667-.14,1.4,1.4,0,0,0,.8.189l.16.043A7.106,7.106,0,0,1,436.363,266.8Z" transform="translate(-435.723 -264.645)" fill="#fea"/>
            </g>
            <g id="Group_64768" data-name="Group 64768" transform="translate(67.649 9.947)">
              <path id="Path_200018" data-name="Path 200018" d="M485.828,276.038a6.386,6.386,0,0,1,2.293-.089,6.906,6.906,0,0,0,3.133-.283,6.255,6.255,0,0,1,1.872-.4,1.84,1.84,0,0,0-1.49-.252c-.573.291.038-.633.573-.551-1.261-.3-6.534.767-6.534.767S486.745,274.949,485.828,276.038Z" transform="translate(-485.675 -272.918)" fill="#fde061"/>
              <g id="Group_64767" data-name="Group 64767" transform="translate(0.579)">
                <path id="Path_200019" data-name="Path 200019" d="M492.125,273.432c-.027,1.1-1.229,1.59-2.746,1.673s-2.745-.657-2.745-1.371,1.412-1.7,2.928-1.785S492.147,272.488,492.125,273.432Z" transform="translate(-486.633 -271.941)" fill="#280b0b"/>
                <path id="Path_200020" data-name="Path 200020" d="M489.562,271.948c-1.517.083-2.928,1.07-2.928,1.785v0a4.559,4.559,0,0,0,2.693.635,5.061,5.061,0,0,0,2.789-.811,1.3,1.3,0,0,0,.009-.129C492.147,272.488,491.078,271.865,489.562,271.948Z" transform="translate(-486.633 -271.941)" fill="#483737"/>
                <path id="Path_200021" data-name="Path 200021" d="M493.262,273.2c-.011.46-.515.667-1.152.7s-1.152-.276-1.152-.575.593-.714,1.228-.749S493.272,272.808,493.262,273.2Z" transform="translate(-488.345 -272.193)" fill="#e3dbdb"/>
              </g>
              <path id="Path_200022" data-name="Path 200022" d="M487.193,276.613a23.941,23.941,0,0,1,2.484-.47c.649-.036.841.14.841.14a.714.714,0,0,1,.955-.2,2,2,0,0,0,1.146.271l.23.062A10.167,10.167,0,0,1,487.193,276.613Z" transform="translate(-486.276 -273.535)" fill="#fea"/>
            </g>
            <g id="Group_64770" data-name="Group 64770" transform="translate(27.676 18.7)">
              <path id="Path_200023" data-name="Path 200023" d="M419.71,291.681a8.183,8.183,0,0,1,2.94-.114,8.851,8.851,0,0,0,4.018-.363,8.051,8.051,0,0,1,2.4-.512,2.362,2.362,0,0,0-1.911-.323c-.735.373.049-.811.735-.706-1.617-.387-8.379.983-8.379.983S420.886,290.285,419.71,291.681Z" transform="translate(-419.514 -287.68)" fill="#fde061"/>
              <g id="Group_64769" data-name="Group 64769" transform="translate(0.742)">
                <path id="Path_200024" data-name="Path 200024" d="M427.783,288.339c-.033,1.406-1.576,2.039-3.521,2.145s-3.521-.842-3.521-1.758,1.811-2.182,3.756-2.289S427.812,287.128,427.783,288.339Z" transform="translate(-420.742 -286.427)" fill="#280b0b"/>
                <path id="Path_200025" data-name="Path 200025" d="M424.5,286.437c-1.945.107-3.756,1.372-3.756,2.289v0a5.845,5.845,0,0,0,3.454.814,6.488,6.488,0,0,0,3.576-1.04c.006-.054.011-.109.012-.166C427.812,287.128,426.442,286.331,424.5,286.437Z" transform="translate(-420.742 -286.427)" fill="#483737"/>
                <path id="Path_200026" data-name="Path 200026" d="M429.243,288.047c-.014.59-.661.855-1.476.9s-1.477-.353-1.477-.737.759-.915,1.575-.96S429.255,287.539,429.243,288.047Z" transform="translate(-422.938 -286.751)" fill="#e3dbdb"/>
              </g>
              <path id="Path_200027" data-name="Path 200027" d="M421.461,292.418a30.726,30.726,0,0,1,3.185-.6c.833-.046,1.078.178,1.078.178a.916.916,0,0,1,1.225-.257,2.566,2.566,0,0,0,1.47.347l.294.079S424.793,293.518,421.461,292.418Z" transform="translate(-420.285 -288.472)" fill="#fea"/>
            </g>
            <g id="Group_64772" data-name="Group 64772" transform="translate(59.739 2.797)">
              <path id="Path_200028" data-name="Path 200028" d="M472.66,262.157a3.187,3.187,0,0,1,1.147-.045,3.457,3.457,0,0,0,1.568-.142,3.161,3.161,0,0,1,.938-.2.921.921,0,0,0-.746-.126c-.287.146.019-.317.287-.276a15.94,15.94,0,0,0-3.271.384S473.118,261.612,472.66,262.157Z" transform="translate(-472.583 -260.595)" fill="#fde061"/>
              <g id="Group_64771" data-name="Group 64771" transform="translate(0.289)">
                <path id="Path_200029" data-name="Path 200029" d="M475.811,260.852c-.013.549-.616.8-1.375.837s-1.375-.329-1.375-.686.707-.852,1.466-.894S475.822,260.38,475.811,260.852Z" transform="translate(-473.062 -260.106)" fill="#280b0b"/>
                <path id="Path_200030" data-name="Path 200030" d="M474.528,260.11c-.759.042-1.466.536-1.466.894v0a2.289,2.289,0,0,0,1.349.318,2.534,2.534,0,0,0,1.4-.406c0-.021,0-.042,0-.065C475.822,260.38,475.287,260.068,474.528,260.11Z" transform="translate(-473.062 -260.106)" fill="#483737"/>
                <path id="Path_200031" data-name="Path 200031" d="M476.381,260.738c-.006.23-.258.334-.576.352s-.576-.138-.576-.288.3-.357.615-.375S476.386,260.54,476.381,260.738Z" transform="translate(-473.919 -260.232)" fill="#e3dbdb"/>
              </g>
              <path id="Path_200032" data-name="Path 200032" d="M473.343,262.445a12,12,0,0,1,1.243-.236c.325-.017.421.07.421.07a.358.358,0,0,1,.479-.1,1,1,0,0,0,.573.136l.115.031A5.09,5.09,0,0,1,473.343,262.445Z" transform="translate(-472.884 -260.904)" fill="#fea"/>
            </g>
            <g id="Group_64776" data-name="Group 64776" transform="translate(56.785 4.039)">
              <path id="Path_200033" data-name="Path 200033" d="M475.247,263.278c0,.672-1.685,1.309-3.762,1.423s-3.661-.358-3.762-1.01c-.029-.185-.073-.324.065-.472.685-.73,3.174-1.045,3.782-1.054,2.028-.031,3.207.225,3.608.64C475.314,262.945,475.247,263.109,475.247,263.278Z" transform="translate(-467.693 -262.162)" fill="#c81b25"/>
              <path id="Path_200034" data-name="Path 200034" d="M475.293,263.078a.74.74,0,0,1-.413.5c-.307.148-.678.1-.53.2.1.07-.226.085-.35.124-.314.1-.764.117-1.035.182a7.674,7.674,0,0,1-1.335.234c-.3.017-.654-.172-.936-.173a11.88,11.88,0,0,1-1.756-.16c-2.784-.524.81-1.6,2.635-1.658C473.652,262.211,475.293,262.582,475.293,263.078Z" transform="translate(-467.782 -262.218)" fill="#ff2a2a"/>
              <path id="Path_200035" data-name="Path 200035" d="M475.278,263.193c0,.425-1.492.834-3.339.914s-3.348-.2-3.352-.625c0-.2.349-.416.976-.587a11.267,11.267,0,0,1,2.364-.327,11.035,11.035,0,0,1,2.367.123C474.923,262.809,475.276,262.989,475.278,263.193Z" transform="translate(-468.047 -262.317)" fill="maroon"/>
              <g id="Group_64775" data-name="Group 64775" transform="translate(0.639 0.322)">
                <path id="Path_200036" data-name="Path 200036" d="M474.782,262.9c.805.263.187.672-1.381.915a11.918,11.918,0,0,1-4.3-.038c-.387-.127-.459-.294-.2-.466a4.617,4.617,0,0,1,1.581-.45,15.786,15.786,0,0,1,2.435-.17A6.944,6.944,0,0,1,474.782,262.9Z" transform="translate(-468.75 -262.694)" fill="maroon"/>
                <g id="Group_64773" data-name="Group 64773" transform="translate(0.401 0.084)">
                  <path id="Path_200037" data-name="Path 200037" d="M471.294,263.4c.266.048.462.1.334.13a3.75,3.75,0,0,1-.8,0c-.445-.025-.462-.1-.334-.13A2.358,2.358,0,0,1,471.294,263.4Z" transform="translate(-469.815 -263.044)" fill="#ed683b"/>
                  <path id="Path_200038" data-name="Path 200038" d="M472.629,263.161c.126.071.2.135.027.161a2.113,2.113,0,0,1-.644-.067c-.317-.061-.2-.135-.027-.161A1.312,1.312,0,0,1,472.629,263.161Z" transform="translate(-470.364 -262.932)" fill="#ed683b"/>
                  <path id="Path_200039" data-name="Path 200039" d="M474.246,263.009a.309.309,0,0,1-.3.169.525.525,0,0,1-.384-.123c-.134-.089.111-.156.3-.169S474.291,262.915,474.246,263.009Z" transform="translate(-471.04 -262.854)" fill="#ed683b"/>
                  <path id="Path_200040" data-name="Path 200040" d="M475.894,263a1.743,1.743,0,0,1-.606.147c-.175,0-.1-.076-.03-.161a1.059,1.059,0,0,1,.605-.147C476.039,262.838,476.136,262.9,475.894,263Z" transform="translate(-471.695 -262.834)" fill="#ed683b"/>
                  <path id="Path_200041" data-name="Path 200041" d="M470.254,263.745c.379.014.683.033.627.072a4.086,4.086,0,0,1-.831.067c-.513.021-.683-.033-.627-.071A2.468,2.468,0,0,1,470.254,263.745Z" transform="translate(-469.413 -263.193)" fill="#ed683b"/>
                </g>
                <path id="Path_200042" data-name="Path 200042" d="M468.919,263.592s.021.088.8.065a2.346,2.346,0,0,0,1.137-.175,4.155,4.155,0,0,1,1.79-.312c1.086-.017,1.271-.219,1.355-.3.018-.017,1.323.074,1.04.457a3.53,3.53,0,0,0-1.741-.013,5.578,5.578,0,0,1-2,.321c-1.165.142-.882.394-.882.394S468.845,263.905,468.919,263.592Z" transform="translate(-468.816 -262.762)" fill="#ed683b"/>
                <g id="Group_64774" data-name="Group 64774" transform="translate(1.734 0.513)">
                  <path id="Path_200043" data-name="Path 200043" d="M474.183,264.306a.6.6,0,0,0-.418-.117.26.26,0,0,0-.265.169c-.056.1.23.132.418.117S474.3,264.389,474.183,264.306Z" transform="translate(-472.362 -263.799)" fill="#ed683b"/>
                  <path id="Path_200044" data-name="Path 200044" d="M475.489,264.138a2.05,2.05,0,0,0-.656-.063c-.168.027-.065.088.047.16a1.255,1.255,0,0,0,.657.064C475.7,264.271,475.769,264.2,475.489,264.138Z" transform="translate(-472.857 -263.75)" fill="#ed683b"/>
                  <path id="Path_200045" data-name="Path 200045" d="M476.489,263.888a3.59,3.59,0,0,0-.807,0c-.121.036.107.076.369.125a2.185,2.185,0,0,0,.807,0C476.978,263.977,476.895,263.912,476.489,263.888Z" transform="translate(-473.215 -263.672)" fill="#ed683b"/>
                  <path id="Path_200046" data-name="Path 200046" d="M477.044,263.548a3.636,3.636,0,0,0-.824.075c-.047.039.277.05.655.064a2.131,2.131,0,0,0,.824-.075C477.746,263.574,477.517,263.53,477.044,263.548Z" transform="translate(-473.439 -263.544)" fill="#ed683b"/>
                  <path id="Path_200047" data-name="Path 200047" d="M472.41,264.388c.078-.085.107-.156-.072-.158a1.661,1.661,0,0,0-.576.151c-.267.1-.107.156.072.158A1.025,1.025,0,0,0,472.41,264.388Z" transform="translate(-471.62 -263.815)" fill="#ed683b"/>
                </g>
              </g>
              <path id="Path_200048" data-name="Path 200048" d="M468.856,265.368l.008-.343s1.863.274,1.952.281.236.284.341.141.57.14,1.009-.033l-.009.366s-.838-.012-1.212.009A7.744,7.744,0,0,1,468.856,265.368Z" transform="translate(-468.153 -263.295)" fill="#ff2a2a"/>
              <path id="Path_200049" data-name="Path 200049" d="M477.836,264.848l.008.4a1.616,1.616,0,0,0,.635-.286c.016-.355-.016-.353-.016-.353l-.13.007-.041.3-.016-.147Z" transform="translate(-471.708 -263.13)" fill="#ff2a2a"/>
              <path id="Path_200050" data-name="Path 200050" d="M468.324,263.949s.025-.2-.106-.086-.179.421.277.545a10.482,10.482,0,0,0,1.367.187C469.43,264.551,468.389,264.437,468.324,263.949Z" transform="translate(-467.865 -262.822)" fill="#ffd8a0"/>
              <path id="Path_200051" data-name="Path 200051" d="M477.99,262.925s.553.175.455.444a1.109,1.109,0,0,1-.765.567,5.092,5.092,0,0,1-.87.242c-.692.107-.92.1-.472,0s1.13-.279,1.44-.364C478.136,263.717,478.649,263.266,477.99,262.925Z" transform="translate(-471.024 -262.464)" fill="#ffd8a0"/>
            </g>
            <path id="Path_200052" data-name="Path 200052" d="M469.031,263.46a3.6,3.6,0,0,1,2.219-.692c1.588-.087,2.372-.067,1.676.119s-1.393.034-1.98.151A6.681,6.681,0,0,1,469.031,263.46Z" transform="translate(-411.438 -258.343)" fill="#ffd8a0"/>
            <path id="Path_200053" data-name="Path 200053" d="M466.076,262.031a3.311,3.311,0,0,0,1.193-1.2,3.258,3.258,0,0,1-1.358,1.2C466.058,262.043,466.076,262.031,466.076,262.031Z" transform="translate(-410.203 -257.597)" fill="#659332"/>
            <path id="Path_200054" data-name="Path 200054" d="M466.8,261.488a1.38,1.38,0,0,0,.03.466l-.106.093A2.269,2.269,0,0,1,466.8,261.488Z" transform="translate(-410.523 -257.856)" fill="#659332"/>
            <path id="Path_200055" data-name="Path 200055" d="M466.33,262.394a1.939,1.939,0,0,0,1.228-.432,1.853,1.853,0,0,1-1.116.354C466.318,262.39,466.33,262.394,466.33,262.394Z" transform="translate(-410.369 -258.044)" fill="#659332"/>
            <g id="Group_64778" data-name="Group 64778" transform="translate(16.143 6.835)">
              <path id="Path_200056" data-name="Path 200056" d="M400.55,270.115a5.182,5.182,0,0,1,1.862-.073,5.606,5.606,0,0,0,2.544-.23,5.08,5.08,0,0,1,1.52-.324,1.5,1.5,0,0,0-1.21-.2c-.465.236.031-.514.466-.447-1.024-.245-5.3.622-5.3.622S401.295,269.231,400.55,270.115Z" transform="translate(-400.426 -267.583)" fill="#fde061"/>
              <g id="Group_64777" data-name="Group 64777" transform="translate(0.469)">
                <path id="Path_200057" data-name="Path 200057" d="M405.661,268c-.021.89-1,1.291-2.229,1.358s-2.229-.533-2.229-1.114,1.147-1.381,2.378-1.448S405.68,267.234,405.661,268Z" transform="translate(-401.203 -266.79)" fill="#280b0b"/>
                <path id="Path_200058" data-name="Path 200058" d="M403.581,266.8c-1.231.067-2.378.868-2.378,1.448v0a3.7,3.7,0,0,0,2.187.515,4.107,4.107,0,0,0,2.264-.658c0-.035.007-.069.007-.105C405.68,267.234,404.812,266.728,403.581,266.8Z" transform="translate(-401.203 -266.79)" fill="#483737"/>
                <path id="Path_200059" data-name="Path 200059" d="M406.585,267.815c-.009.373-.419.541-.935.57s-.935-.224-.935-.467.48-.579,1-.607S406.593,267.493,406.585,267.815Z" transform="translate(-402.594 -266.995)" fill="#e3dbdb"/>
              </g>
              <path id="Path_200060" data-name="Path 200060" d="M401.658,270.582a19.5,19.5,0,0,1,2.016-.381c.527-.029.683.113.683.113a.58.58,0,0,1,.776-.163,1.623,1.623,0,0,0,.93.22l.186.05A8.255,8.255,0,0,1,401.658,270.582Z" transform="translate(-400.914 -268.084)" fill="#fea"/>
            </g>
          </g>
          <g id="Group_64780" data-name="Group 64780" transform="translate(0.151 21.439)">
            <path id="Path_200061" data-name="Path 200061" d="M429.916,295.089l81.788-21.95.34.105v9.79L429.987,305.6Z" transform="translate(-378.293 -271.244)" fill="#e4cdad"/>
            <path id="Path_200062" data-name="Path 200062" d="M344.884,270l51.64,23.855-.057,9.972L344.474,280.14V270.022Z" transform="translate(-344.474 -270.003)" fill="#e4cdad"/>
            <path id="Path_200063" data-name="Path 200063" d="M430.14,295.669,512.1,273.275v10.063L430.033,305.65Z" transform="translate(-378.339 -271.298)" fill="#cda065"/>
            <path id="Path_200064" data-name="Path 200064" d="M344.474,270.034l51.867,24.373-.143,9.933-51.724-24.188Z" transform="translate(-344.474 -270.016)" fill="#4d7f4f"/>
          </g>
        </g>
      </g>
    </g>
  </g>
</svg>
