<svg xmlns="http://www.w3.org/2000/svg" xmlns:xlink="http://www.w3.org/1999/xlink" width="1366" height="465" viewBox="0 0 1366 465">
  <defs>
    <clipPath id="clip-path">
      <rect id="Rectangle_14686" data-name="Rectangle 14686" width="1366" height="465" transform="translate(0 4401)" fill="none" stroke="#707070" stroke-width="1"/>
    </clipPath>
    <linearGradient id="linear-gradient" x1="0.5" y1="-2.69" x2="0.5" y2="0.753" gradientUnits="objectBoundingBox">
      <stop offset="0" stop-color="#fff"/>
      <stop offset="1" stop-color="#202020"/>
    </linearGradient>
  </defs>
  <g id="Mask_Group_256" data-name="Mask Group 256" transform="translate(0 -4401)" clip-path="url(#clip-path)">
    <path id="Path_203203" data-name="Path 203203" d="M0,0H1366V465.325H0Z" transform="translate(0 4400.648)" fill="#1e1d1f"/>
    <line id="Line_3" data-name="Line 3" x2="1366" transform="translate(0 4865.5)" fill="none" stroke="#b1b1b1" stroke-width="1" opacity="0.18"/>
    <path id="Path_8" data-name="Path 8" d="M149,180.191a7.771,7.771,0,0,0,.12,1.519c.533,2.88,3.664,4.592,5.693,3.088a8.289,8.289,0,0,0,3.758-.546c4.149-1.636,8.873-6.935,7.161-11.69-1.329-3.69-4.445-3.873-7.37-2.755a5.83,5.83,0,0,0-4.005.912,8.738,8.738,0,0,0-4.292,4.774,16.466,16.466,0,0,1,2.623-5.9,8.693,8.693,0,0,1,3.167-1.186c.041-.007.031-.079-.012-.074a9.088,9.088,0,0,0-2.727.759,4.955,4.955,0,0,1,4.1-1.793c.061,0,.059-.089,0-.1a5.728,5.728,0,0,0-4.993,2.38,8.374,8.374,0,0,0-3.317,10.108C148.93,179.863,148.961,180.028,149,180.191Zm15.586-5.531a6.419,6.419,0,0,1-.648,2.662,6.047,6.047,0,0,0-.355-3.992,5.747,5.747,0,0,0-2.58-2.652C163,170.475,164.608,171.345,164.587,174.66Zm-11.334-3.045a7.279,7.279,0,0,0-1.128,1.374,7.919,7.919,0,0,0-.828,1.374A7.015,7.015,0,0,1,153.253,171.615Zm-2.562,4.465a12.671,12.671,0,0,1,.582-1.668,7.21,7.21,0,0,0-.513,4.759,5.237,5.237,0,0,0,2.428,3.728c.157.119.333.2.5.305l-.071.041a5.118,5.118,0,0,1-3.533-3.372A13.294,13.294,0,0,1,150.691,176.08Zm.9-5.678a17.12,17.12,0,0,0-2.657,6.8A8.046,8.046,0,0,1,151.6,170.4Zm-9.683,23.352a2.22,2.22,0,0,0-3.6-1.249c-.5.412.155,1.264.7.9,1.405-.937,2.167,1.039,1.471,2.1a2.524,2.524,0,0,1-2.682.927c-2.334-.559-2.4-3.634-.678-4.939a.038.038,0,0,0-.038-.066,3.246,3.246,0,0,0-1.643,3.777,3.321,3.321,0,0,0,3.8,2.171A3.143,3.143,0,0,0,141.913,193.755Zm-2.451-32.032a3.223,3.223,0,0,0,1.567-5.96c-.637-.355-1.42.553-.81,1.051,1.473,1.206,1.64,3.634-.668,4.02-2.545.426-3.484-2.738-1.775-4.3.046-.043-.016-.129-.069-.089A2.935,2.935,0,0,0,139.461,161.723Zm25.169,43.315a3.4,3.4,0,0,0-.358,1.527c-.96,2.89-.881,5.919,2.308,7.619,4.729,2.524,11.248-1.927,14.235-5.445,2.93-3.451,1.92-8.126-2.4-9.773a7.325,7.325,0,0,0-6.057.335,6.666,6.666,0,0,0-4.507,2.512,8.216,8.216,0,0,0-1.56,1.1c.165-.318.33-.622.493-.9a.094.094,0,0,0-.162-.1c-.346.521-.7,1.1-1.038,1.714A6.784,6.784,0,0,0,164.63,205.038Zm2.23,4.7a6.116,6.116,0,0,0,6.643,1.876c2.743-.873,4.008-3.446,4.945-5.942a3.866,3.866,0,0,0-2.321-4.6,3.986,3.986,0,0,0-.307-.391,5.18,5.18,0,0,0-.741-.587,5.744,5.744,0,0,1,5.528,2.484c1.511,2.6-.4,5.054-2.268,6.738-2.283,2.059-5.661,4.526-8.873,4.566-4.549.058-5.41-2.842-4.9-5.989A3.168,3.168,0,0,0,166.86,209.742ZM138.3,219.5c-.176.566.666.774.873.239a2.834,2.834,0,0,1,3.921-1.389,2.915,2.915,0,0,1,.049,4.612,3.314,3.314,0,0,1-4.554-.985A3.7,3.7,0,0,1,140.131,217c.1-.054.012-.195-.086-.147a4.017,4.017,0,0,0-1.671,5.795,3.872,3.872,0,0,0,5.65.617,3.807,3.807,0,0,0-.455-5.726A3.619,3.619,0,0,0,138.3,219.5Zm-29.1,6.773c-.694.345-.185,1.325.5,1.189a1.617,1.617,0,0,1,1.89,1.2c.251,1.061-.817,1.753-1.732,1.814-2.61.175-2.775-3.015-1.607-4.605.046-.063-.051-.132-.1-.081-2.27,2.257-.421,6.522,2.935,5.374S112.2,224.779,109.2,226.274Zm9.445-16.886a.832.832,0,0,0,1,1.3,1.875,1.875,0,0,1,2.667.605c.838,1.724-1.537,3.126-2.966,2.649-3.647-1.216-2.148-5.569.373-7.015.084-.048.01-.173-.076-.13a5.031,5.031,0,0,0-2.992,5.178,3.832,3.832,0,0,0,4.77,3.241c2-.612,3.353-2.989,2.242-4.911A3.29,3.29,0,0,0,118.643,209.388Zm42.464,25.774a3.756,3.756,0,0,0-5.208,1.323.614.614,0,0,0,1.059.619c1.221-1.707,4.449-1.341,4.436,1.046a2.694,2.694,0,0,1-1.483,2.451,2.191,2.191,0,0,1-1.894-.046c-1.262-.67-.915-3.009.84-2.578a.075.075,0,0,0,.04-.145c-1.747-.683-2.829,1.636-1.77,2.918,1.331,1.608,3.736,1.052,4.825-.5A3.514,3.514,0,0,0,161.106,235.162ZM129.124,255.87c4.132-1.648,4.383-6.194,1.087-8.931a9.068,9.068,0,0,0-9.666-.884c-3.184-.089-4.881,3.591-3.507,6.483C119.024,256.719,125.221,257.425,129.124,255.87Zm-8.893-9.663a10.77,10.77,0,0,0-2.42,1.659A3.214,3.214,0,0,1,120.231,246.207Zm-2.253,5.935a4.282,4.282,0,0,1-.538-3.334.662.662,0,0,0,1,.17,10.177,10.177,0,0,1,1.371-.939c-.089.068-.185.125-.269.2a2.929,2.929,0,0,0,.762,4.648,5.22,5.22,0,0,0,3.04,1.9c2.166.434,4.149-.609,5.811-1.89a3.651,3.651,0,0,0,1.438-2.469c.511,1.212.279,2.53-1.443,3.6-2.031,1.264-5.326,1.3-7.517.666A6.356,6.356,0,0,1,117.978,252.142Zm-17.127-5.661c-.594.343-.073,1.153.525.9,1.943-.838,3.728,1.584,1.872,2.969s-3.68-1.072-2.7-2.8c.056-.1-.084-.173-.147-.086a2.427,2.427,0,0,0,3.538,3.271C106.406,248.661,103.521,244.942,100.851,246.481ZM83.94,235.036a3.279,3.279,0,0,0-.144-3.454,2.621,2.621,0,0,0-1.509-1.115c-.861-.19-1.513.681-2.1,1.2-.559.5.167,1.433.8,1.036.369-.231.718-.478,1.067-.726a1.929,1.929,0,0,1,.882,2.756c-1.1,1.587-3.517.106-3.632-1.415a.113.113,0,0,0-.226,0C78.9,235.813,82.544,237.255,83.94,235.036Zm11.86-40.09c-.389-1.125,1-.16.94.6,0,.031.051.04.056.008a1.57,1.57,0,0,0-.932-1.88c-1.069-.365-1.544.724-1.3,1.613C94.782,196.086,96.069,195.723,95.8,194.946Zm51.693,67.377a.654.654,0,0,0,.97-.556c.02-.482.038-.96.045-1.442a.732.732,0,0,0-.721-.721,8.67,8.67,0,0,0-1.262.068c-.015-.04-.03-.076-.043-.117a.111.111,0,0,0,.188-.115,3.437,3.437,0,0,1-.394-1.138.284.284,0,0,0-.515-.068A3.2,3.2,0,0,0,147.493,262.323Zm4.178-63.216a.8.8,0,0,0-.861.214c-.061-.031-.132-.03-.157.058a1.732,1.732,0,0,0-.03.221.915.915,0,0,0,.015.861,3.75,3.75,0,0,0,.455,1.066.791.791,0,0,0,1.229.158A1.511,1.511,0,0,0,151.671,199.106Zm-15.045-25.361c2.148.119,2.8-3.822.185-3.606a.97.97,0,0,0-.485,1.791,5.218,5.218,0,0,0,.724.777c-.033.209-1.176-.033-1.3-.124-1.115-.782-.157-2.044.521-2.5a.1.1,0,0,0-.1-.18C134.58,170.817,134.349,173.619,136.626,173.745Zm-14.92-11.957a2.889,2.889,0,0,0,.856-1.593h0c.234-.828-.777-1.783-1.569-1.211a3.207,3.207,0,0,0-1.25,1.658C119.321,161.769,120.927,162.6,121.706,161.787ZM185.83,226.15a.61.61,0,0,0-.51.754h-.045c-.021-.071-.119-.04-.109.031.213,1.5,1.683,1.052,2.25.074a.436.436,0,0,0,0-.444C187.017,225.974,186.483,226.03,185.83,226.15Zm-59.512,40.77a6.807,6.807,0,0,0-.929.518,1.436,1.436,0,0,0,0,2.448c-.282-.168-.148.859-1.074.111-.058-.046-.175,0-.142.082a1.665,1.665,0,0,0,2.044,1.146,1.935,1.935,0,0,0,1.364-2.23c.109-.158.234-.305.335-.475A1.179,1.179,0,0,0,126.318,266.92Zm-24.682-.769a1.3,1.3,0,0,0-1.435.411,2.559,2.559,0,0,0-.15.226,1.363,1.363,0,0,0-.076.114,2.632,2.632,0,0,0-.153.323c-.012.04-.045.071-.053.112v.015a1.821,1.821,0,0,0,.988,2.41,1.987,1.987,0,0,0,2.722-1.935A1.827,1.827,0,0,0,101.636,266.151Zm20.575-79.417a5.55,5.55,0,0,0-.325-3.954,6.583,6.583,0,0,0-1.588-4.66,4.9,4.9,0,0,0-6.722-.567c-3.834.229-7,4-5.823,7.891a6.636,6.636,0,0,0,2.163,3.18,7.713,7.713,0,0,0,1.328,2.217,2.724,2.724,0,0,0,4.241-.388c.061.018.112.048.175.064A5.651,5.651,0,0,0,122.211,186.735Zm-9.9-6.159a6.812,6.812,0,0,0-2.812,6.154,5.475,5.475,0,0,1-1.14-2.2c-.807-3.339,1.824-6.272,4.958-6.728A3.835,3.835,0,0,0,112.312,180.575Zm1.646-.92a3.011,3.011,0,0,1,4.386-1.227,4.388,4.388,0,0,1,1.572,1.973,5.94,5.94,0,0,0-5.958-.746Zm67.3,2.71a3.333,3.333,0,0,0,1.732-1.112,3.815,3.815,0,0,0,3.736-.911c3.34-3.124-.556-8.192-4.5-6.37a.667.667,0,0,0-.34.825c-2.4.544-4.747,3.217-4.015,5.645A2.8,2.8,0,0,0,181.26,182.365Zm5.31-4.978a3.934,3.934,0,0,0-1.209-1.717A2.588,2.588,0,0,1,186.57,177.387Zm-83.735,39.849c.043-.16.076-.31.117-.467a5.335,5.335,0,0,0,1.074-6.164,3.386,3.386,0,0,0-3.144-1.894,2.365,2.365,0,0,0-2.164,2.6.648.648,0,0,0,.134.267c-1,1.48-1.019,3.118-1.052,4.978a2.126,2.126,0,0,0,.053.3c-3.784-1.217-3.467-6.963.624-8.122a.066.066,0,0,0-.035-.127,4.969,4.969,0,0,0-3.6,6.229,5.1,5.1,0,0,0,3.431,3.151C99.381,219.517,102.243,219.476,102.835,217.236Zm-1.287-6.943.1.069c-.046-.018-.1-.026-.144-.041ZM181.1,235.457a2.749,2.749,0,0,0-4.635,1.92l0,.2a2.8,2.8,0,1,0,4.782-1.981Zm-98.8-32.289a4.9,4.9,0,0,0-3.428,3.457,3.785,3.785,0,0,0,.554,3.226l.012.038-.03-.03c.012.028.031.049.045.077a3.006,3.006,0,0,0,1.112,1.565,2.912,2.912,0,0,0,1.151.454,2.582,2.582,0,0,0,.277.059c.03,0,.056.012.086.015a3.573,3.573,0,0,0,2.753-.685c.056-.033.119-.061.172-.094l.729-.562c.074-.063.117-.1.157-.135a4.224,4.224,0,0,0,1.333-4.97A4.134,4.134,0,0,0,82.292,203.167ZM79.714,207.4c-.021.035-.035.079-.056.115V207.5Q79.863,207.089,79.714,207.4Zm6.77,48.724c-.868-.973-2.956-.571-3.151.831l-.048.35a2.193,2.193,0,0,0,.947,2.326l.343.236A1.585,1.585,0,0,0,87,259.052c.086-.218.172-.435.259-.653a2.051,2.051,0,0,0-.53-2Zm83.869-96.057.129.061.012-.015a2.263,2.263,0,0,0,1.513.214l.135-.026a2.28,2.28,0,0,0,1.621-1.622,4.353,4.353,0,0,0,.033-1.935c-.307-1.841-3.37-2.28-4.135-.541a4.312,4.312,0,0,0-.457,1.859A2.287,2.287,0,0,0,170.352,160.065Zm39.973,41.106c-1.036,37.7-25.124,71.19-58.25,86.246-13.6,3.768-27.925,6.517-41.779,3.824,7.233.422,14.707-.726,21.851-2.1,12.378-2.377,23.562-6.435,32.773-14.242a4.859,4.859,0,0,0,.556.03A96.319,96.319,0,0,1,131.984,290.9a.056.056,0,0,0,.03.109,96.084,96.084,0,0,0,34.094-16.1,5.015,5.015,0,0,0,4.257-3.362,90.742,90.742,0,0,0,32.745-63.1c3.636-18.341,2.055-37.157-9.749-50.233,10.783,9.717,15.835,23.451,15.164,38.444-.477,10.638-3.584,20.735-7.66,30.482a.15.15,0,0,0-.209.1c-.15.518-.325,1.024-.482,1.539-2.524,5.864-5.367,11.606-8.172,17.262-.021.043.045.081.066.038,2.616-5.211,5.264-10.5,7.669-15.9A100,100,0,0,1,158.3,284.06c-.03.02,0,.068.028.049a98.871,98.871,0,0,0,42.588-56.628c4.325-10.154,7.618-20.7,8-31.813.538-15.831-5.31-30.572-18.092-40.26-.445-.338-.9-.652-1.356-.977-1.039-.884-2.121-1.744-3.281-2.555-13.463-9.4-29.634-12-45.484-9.815a83.9,83.9,0,0,0-40.519,14.565c-.275.193-.013.652.266.455,1.628-1.133,3.306-2.2,5.018-3.212a86.359,86.359,0,0,0-13.7,11.954c-.51.493-1.026.983-1.521,1.486a.166.166,0,0,0-.015.223A88.069,88.069,0,0,0,68.735,218.12a81.883,81.883,0,0,0-1.171,16.992,104.861,104.861,0,0,0,1.608,24.072c.051.274.468.157.419-.115a104.706,104.706,0,0,1-1.74-19.417c1.623,17.98,9.213,35.587,24.164,45.768a33.267,33.267,0,0,0,12.81,5.163c14.184,4.315,29.395,2.189,43.655-1.617a92.36,92.36,0,0,1-34.863,6.892.312.312,0,0,0,0,.624c25.48.435,51.078-8.413,69.386-26.435,18.412-18.125,27.646-43.241,27.435-68.874A.056.056,0,0,0,210.325,201.171ZM107.15,152.949a83.649,83.649,0,0,1,21.912-8.426,91.488,91.488,0,0,0-31.641,16.32A88.452,88.452,0,0,1,107.15,152.949ZM70.511,212.01l0-.035v0A88.441,88.441,0,0,1,92.348,165.98a84.921,84.921,0,0,1,14.023-9.6,109.862,109.862,0,0,0-36.5,60.991C70.031,215.577,70.239,213.789,70.511,212.01ZM94.6,281c-10.118-6.8-17.048-17.358-21.086-29.1a88.393,88.393,0,0,1-3.931-22.316,54.656,54.656,0,0,1,1.249-6.686.066.066,0,0,0-.127-.035,54.872,54.872,0,0,0-1.174,5.76c-.1-2.712-.059-5.422.092-8.122a109.766,109.766,0,0,1,37.3-64.429c.338-.181.673-.365,1.014-.543a67.935,67.935,0,0,0-17.879,23.892c-.059.132.137.247.195.115a67.9,67.9,0,0,1,18.069-24.2c22.3-11.553,50.515-14.412,72.258-1.417,33.555,20.055,17.3,69.308,3.411,96.71a.6.6,0,0,0,1.041.609,118.3,118.3,0,0,0,16.926-37.647,90.633,90.633,0,0,1-31.389,57.258,5,5,0,0,0,.048-1.575c.407-.467.818-.925,1.216-1.412a.721.721,0,0,0-.363-1.148,64.172,64.172,0,0,0,6.893-9.59.207.207,0,0,0-.358-.21,63.906,63.906,0,0,1-7.848,10.674,7.8,7.8,0,0,0-1.013-1.707c-1.105-1.417-3.2-1.234-4.587-.381a4.78,4.78,0,0,0-3.662,2.85,4.7,4.7,0,0,0-.3,1.358c0,.033-.007.064-.008.1a4.768,4.768,0,0,0,1.91,4.061C143.777,286.308,111.678,292.471,94.6,281Z" transform="translate(91.813 4282.503)" fill="url(#linear-gradient)"/>
    <g id="Group_66996" data-name="Group 66996" transform="translate(-81 -19.473)">
      <path id="Path_31" data-name="Path 31" d="M443.132,129.956c-3.743,4.439-6.035,9.988-1.7,14.9,1.628,1.848,4.622-.115,4.015-2.335-1.052-3.848-3.258-8.254-1.732-12.23a.351.351,0,0,0-.582-.339Z" transform="translate(755.002 4412.631)" fill="url(#linear-gradient)"/>
      <path id="Path_32" data-name="Path 32" d="M441.725,145.092q.614-.936.152-.309c-.085.043-.083.076.006.1-1.187.437-1.143,2.524.322,2.387a1.9,1.9,0,0,0,1.776-1.165,1.56,1.56,0,0,0-.32-1.674,1.523,1.523,0,0,0-2.359.111c-.194.285.126.624.424.552Z" transform="translate(756.68 4424.619)" fill="url(#linear-gradient)"/>
      <g id="Group_66976" data-name="Group 66976" transform="translate(20386.354 -352.878)">
        <path id="Path_28" data-name="Path 28" d="M372.617,140.447a7.242,7.242,0,0,0-3.137.426c-.683.263-1.893,1.437-2.6,1.472l1.254.719c-.878-2-3.73-2.574-5.66-3.124a1.686,1.686,0,0,0-1.293,3.067c1.713,1.137,3.948,2.846,6.085,2.189a1.467,1.467,0,0,0,1.013-1.785c-.259-.707,1.678-1.752,2.072-1.933a6.094,6.094,0,0,1,2.267-.567.232.232,0,0,0,0-.463Z" transform="translate(-19698.373 4774.04)" fill="url(#linear-gradient)"/>
        <path id="Path_29" data-name="Path 29" d="M346.989,126.835a3.432,3.432,0,0,1-1.578-5.154c.78-1.106-1.015-2.113-1.8-1.052a3.9,3.9,0,0,0-.176,4.558,4.705,4.705,0,0,0,3.469,2.272c.367.031.417-.524.083-.624Z" transform="translate(-19713.387 4757.268)" fill="url(#linear-gradient)"/>
        <path id="Path_30" data-name="Path 30" d="M355.413,107.452a15.08,15.08,0,0,1-3.265.432q.261.628.52,1.254A8.147,8.147,0,0,0,344.706,95.9c-1.922.4-1.432,3.33.454,3.354,5,.065,8.093,4.482,6.282,9.163-.233.6.567,1.161,1.08.83a14.982,14.982,0,0,1,3.032-1.3.261.261,0,0,0-.139-.5Z" transform="translate(-19712.791 4736.428)" fill="url(#linear-gradient)"/>
        <path id="Path_64" data-name="Path 64" d="M420.821,139.425a44.579,44.579,0,0,0-9.28-26.436,42.035,42.035,0,0,0-31.042-16.3c-6.135-.939-12.2-.424-17.258,2.32-1.285.428-2.563.9-3.824,1.443-.082.035-.024.17.059.143.726-.237,1.461-.426,2.193-.63a20.382,20.382,0,0,0-4.941,4.669c-.146.194.189.456.341.263a20.489,20.489,0,0,1,6.306-5.4c18.206-4.443,37.917,1.056,48.328,17.773a41.526,41.526,0,0,1,4.146,8.765q.675,2.217,1.191,4.465a40.309,40.309,0,0,1,.7,11.438c-.039-.154-.065-.309-.106-.463a.236.236,0,0,0-.456.126c.156.656.28,1.315.38,1.972a53.9,53.9,0,0,1-3.83,14.271,29.564,29.564,0,0,1-20.675,11.977,50.824,50.824,0,0,1-5.217-.315,27.107,27.107,0,0,0,9.245-4.167c5.965-1.97,11.578-5.354,12.369-11.214a5.361,5.361,0,0,0,.715-5.28c.1-.306.224-.576.311-.895a.407.407,0,0,0-.674-.393c-11.275,10.81-27.451,12.491-39.519,1.759-.065-.057-.161.035-.1.1,8.649,8.358,21.362,11.017,32.241,5.326,1.252-.654,5.635-4.98,6.765-5.158.77-.12-1.38,2.928-2.535,4.5-.33.33-.661.656-1,.965a.191.191,0,0,0-.261.017c-.665.676-1.359,1.294-2.063,1.887a29.239,29.239,0,0,1-41.832-7.728c-.278-.824-.528-1.665-.739-2.522-.026-.111-.194-.065-.17.046.133.6.311,1.174.474,1.757a28.951,28.951,0,0,1-2.056-4.208,25.69,25.69,0,0,1-.6-2.989c-.019-.135-.23-.1-.232.031,0,.206.013.415.017.622-.241-.8-.461-1.615-.643-2.456-.009-.05-.085-.03-.076.02.194,1.033.45,2.026.732,3q.028.858.106,1.726a29.837,29.837,0,0,1-.854-3.056c-.011-.05-.085-.028-.076.02a30.613,30.613,0,0,0,1.045,4.221,31.932,31.932,0,0,0,7.411,16.816,23.4,23.4,0,0,1-5.435-5.411c-.239-.335-.8-.02-.561.328a23.421,23.421,0,0,0,2.111,2.646,23.133,23.133,0,0,1-2.126-1.882c-7.186-7.295-11.032-16.184-12.621-25.677-.154-1.211-.28-2.428-.359-3.645,0-.052-.082-.052-.078,0,.039.663.126,1.322.189,1.983a68.167,68.167,0,0,1-.63-8.186,45.9,45.9,0,0,1,3.167-10.367c.03-.069-.069-.13-.1-.059a46.431,46.431,0,0,0-3.07,8.621c0-.615.017-1.23.035-1.846a41.309,41.309,0,0,1,5.708-12.31c.05-.074-.07-.143-.12-.07a41.5,41.5,0,0,0-5.56,11.567c.054-1.382.13-2.763.25-4.145.018-.219-.354-.274-.387-.054-.372,2.526-.622,5.1-.75,7.682a40.214,40.214,0,0,0-.5,13.251c1,16.786,11.064,32.481,28.061,38.969,10.96,4.182,24.362,3.791,34.089-3.271a27.667,27.667,0,0,0,4.13-3.7,18.3,18.3,0,0,0,3.483-4.267.325.325,0,0,0,.441-.15c.191-.445.343-.9.52-1.345a31.189,31.189,0,0,0,1.8-2.822,47.291,47.291,0,0,1-5.117,10.267c-.043.065.059.122.1.061a47.283,47.283,0,0,0,5.537-11.306A28.313,28.313,0,0,0,420.821,139.425Zm-53.99-41.456a25.814,25.814,0,0,1,8.471-1.261A46.18,46.18,0,0,0,366.831,97.969Zm43.163,51.367a6.949,6.949,0,0,1-.461,2.108.323.323,0,0,0-.3-.119C409.519,150.7,409.759,150.021,409.995,149.336Zm-2.278,4.687q.781-.861,1.519-1.8a16.563,16.563,0,0,1-2.085,3.571,15.075,15.075,0,0,1-2.859,2.465.443.443,0,0,0-.2-.269A17.925,17.925,0,0,0,407.717,154.024Zm-4.609,5.95a23.173,23.173,0,0,0,6.091-5.48c-1.024,4.7-5.441,7.793-10.639,9.758A33.849,33.849,0,0,0,403.107,159.974Zm-5.134,1.4c.53-.191,1.048-.4,1.557-.63a26.787,26.787,0,0,1-4.547,2.019A27.712,27.712,0,0,0,397.974,161.378Zm-52.56-36.163c-.217,1.491-.354,2.983-.426,4.476a39.644,39.644,0,0,1,.47-6.767C345.434,123.687,345.412,124.45,345.414,125.215Zm45.863,47.712a33.048,33.048,0,0,1-10.626-1.08A54.7,54.7,0,0,0,391.277,172.926Zm-11.262-9.995a29.594,29.594,0,0,0,4.761.633,28.774,28.774,0,0,1-6.232-.8Q379.275,162.853,380.015,162.931Zm-20.3-16.31a29.272,29.272,0,0,0,1.8,3.395c.144.435.311.861.476,1.287A24.955,24.955,0,0,1,359.716,146.621Zm4.417,7.632c-.43-.511-.837-1.041-1.228-1.587-.261-.55-.5-1.111-.732-1.68a28.805,28.805,0,0,0,13.44,10.638c-.446-.081-.894-.163-1.337-.25A28.275,28.275,0,0,1,364.133,154.253Zm9.038,15.542a33.5,33.5,0,0,0,19.177,4.128,33.526,33.526,0,0,1-9.174-.148,38.624,38.624,0,0,1-17.338-7.317A42.425,42.425,0,0,0,373.171,169.795Zm-27.618-40.4a54.5,54.5,0,0,0,4.858,20.018,39.778,39.778,0,0,1-3.726-8.5A45.728,45.728,0,0,1,345.552,129.393Zm24.522,41.387a43.9,43.9,0,0,1-22.116-25.309,40.067,40.067,0,0,0,5.15,8.724,38.261,38.261,0,0,0,10.2,10.615,38.617,38.617,0,0,0,22.666,9.78,33.11,33.11,0,0,0,17.018-3.115C392.859,176.808,380.136,175.775,370.074,170.78Zm33.342-2.276c-.046.015-.1.024-.143.037.3-.146.594-.313.893-.469C403.917,168.215,403.672,168.371,403.416,168.5Zm7.5-4.676a28.718,28.718,0,0,1-3.135,2.895c-.2.107-.4.219-.611.32a26.214,26.214,0,0,0,3.941-3.574C411.046,163.589,410.98,163.707,410.915,163.828Zm5.487-4.671c.087-.248.169-.5.252-.746a39.885,39.885,0,0,0,2.719-7.154c-.3,1.541-.7,3.065-1.148,4.576A28.915,28.915,0,0,1,416.4,159.157Zm2.535-5a47.514,47.514,0,0,0,1.185-6.211,41.928,41.928,0,0,0,.63-5.354A27.58,27.58,0,0,1,418.938,154.153Zm-26.851-42.765c-4.284-7.008-14.8-9.88-22.1-6.143-.07.035-.02.144.054.126a19.2,19.2,0,0,1,14.419,1.307c-4.3-1.52-9.475-.985-13.869.039-.255.059-.207.489.061.465a13.263,13.263,0,0,1,5.487.648c.483.172.967.346,1.432.528a23.665,23.665,0,0,1,2.954,1.619c-2.346-.211-4.7-.452-7.049-.519-.6-.017-.617.782-.124.956l-.011.044.131.015,0,0c.148.011.293.039.441.054.474.07.952.115,1.428.176a21.994,21.994,0,0,1,11.084,5.674c.307.283.765-.17.459-.459q-.825-.781-1.687-1.457a24.118,24.118,0,0,1,5.595,2.172c-.189,0-.378.007-.567,0-.3,0-.387.5-.072.541q.833.1,1.659.252a.415.415,0,0,0,.174-.022,25.309,25.309,0,0,1,4.308,3.359.331.331,0,0,0,.548-.32,20.951,20.951,0,0,0-4.93-8.247A.617.617,0,0,0,392.086,111.388Zm-7.68,2.269a.253.253,0,0,0-.239.074,23.782,23.782,0,0,0-4.572-2.524c1.093.106,2.185.207,3.276.313,1.248.846,2.532,1.713,3.935,2.5a2.143,2.143,0,0,0,1.133.241c.419.32.837.643,1.254.982A24.408,24.408,0,0,0,384.406,113.657Zm10.651,3.911a19.983,19.983,0,0,1,.813,1.965,24.738,24.738,0,0,0-3.615-2.676c-.019-.035-.019-.072-.048-.106a25.352,25.352,0,0,0-2.991-2.841c.07-.039.131-.091.2-.135a33.755,33.755,0,0,1,5.445,3.817A.131.131,0,0,0,395.057,117.568Zm-.106-.254a30.5,30.5,0,0,0-5.278-3.719,2.207,2.207,0,0,0,.807-1.632,2.415,2.415,0,0,0,.272-.15c.107.124.222.222.33.348a.5.5,0,0,0,.53.157A19.148,19.148,0,0,1,394.951,117.314Z" transform="translate(-19711.775 4736.885)" fill="url(#linear-gradient)"/>
        <path id="Path_79" data-name="Path 79" d="M402.133,160.02a19.692,19.692,0,0,1,2.815-15.827c1.928-2.717,5.245-5.808,8.752-4.717,6.584,2.045.128,9.389-2.343,10.936a.435.435,0,0,0,.439.75c4.424-2.093,10.849-4.03,9.489-10.339-.915-4.248-5.187-6.321-9.2-5.285-10.121,2.608-13.6,15.89-10.284,24.575a.174.174,0,0,0,.335-.093Z" transform="translate(-19664.145 4770.127)" fill="url(#linear-gradient)"/>
        <path id="Path_80" data-name="Path 80" d="M403.622,150c3.408-1.006,8.706-5.247,6.189-9.219a1.027,1.027,0,0,0-1.75,0,14.508,14.508,0,0,0-1.469,4.319,7.884,7.884,0,0,1-3.148,4.478c-.2.144-.089.5.178.422Z" transform="translate(-19661.795 4774.401)" fill="url(#linear-gradient)"/>
        <path id="Path_81" data-name="Path 81" d="M407.608,142.128c-.35.457-.637,1.024-1.017,1.45a14.73,14.73,0,0,0-1.252,1.313,1.674,1.674,0,0,0,1.437,2.506,9.257,9.257,0,0,0,7.461-4.589c.83-1.426-1.274-3.2-2.363-1.822a8.244,8.244,0,0,1-5.541,3.141l2.109,1.606c.052-.606-.17-1.091-.124-1.685.044-.565.126-1.119.152-1.685.022-.507-.611-.563-.863-.233Z" transform="translate(-19660.301 4774.57)" fill="url(#linear-gradient)"/>
        <path id="Path_82" data-name="Path 82" d="M403.3,152.865a16.99,16.99,0,0,0,13.382-5.945c2.35-2.915,3.048-8-.622-10.186a1.079,1.079,0,0,0-1.465,1.465c4.484,6.939-6.437,11.8-11.367,14.4a.146.146,0,0,0,.072.27Z" transform="translate(-19661.957 4771.252)" fill="url(#linear-gradient)"/>
        <path id="Path_83" data-name="Path 83" d="M412.144,155.479a8.534,8.534,0,0,1,7.239-3.608c1.182.063,3.937.782,3.669,2.435-.359,2.226-3.761,1.4-5.078.9-.137-.052-.243.148-.141.241,1.915,1.77,4.506,3.448,7.023,1.8,2.109-1.382,2.069-4.3.52-6.1-4-4.652-11.584-.261-13.532,4.156a.174.174,0,0,0,.3.174Z" transform="translate(-19654.566 4781.958)" fill="url(#linear-gradient)"/>
        <path id="Path_90" data-name="Path 90" d="M393.171,88.981c-.719-1.928-1.454-3.848-2.135-5.789-.439-1.254-.465-1.23.319-2.224.665-.844,1.511-1.6,2.25-2.382.817-.867-.476-2.167-1.311-1.311-1.146,1.178-2.306,2.328-3.341,3.608a.878.878,0,0,0-.132,1.019c1.339,2.4,2.639,4.826,3.928,7.258.12.228.517.07.422-.178Z" transform="translate(-19674.258 4720.477)" fill="url(#linear-gradient)"/>
        <path id="Path_91" data-name="Path 91" d="M383.879,79.585a2.139,2.139,0,0,0,2.037-1.65,1.309,1.309,0,0,0-2.382-1,1.962,1.962,0,0,0,.061,2.25c.072.126.061.391.283.4Z" transform="translate(-19678.947 4719.887)" fill="url(#linear-gradient)"/>
      </g>
    </g>
    <path id="Path_2" data-name="Path 2" d="M94.045,610.519a.568.568,0,0,0-.274-1.1,37.329,37.329,0,0,1-12.052.915,42.837,42.837,0,0,0,5.71-1.339c13.517-1.813,25.44-9.208,26.053-22.383a32.036,32.036,0,0,0,2.328-8.56,1.061,1.061,0,0,0-.02-.248,55.241,55.241,0,0,0,3.165-6.908c.031-.028.061-.059.094-.087a20.8,20.8,0,0,0,.23,5.641c0,.03-.024.046-.02.078a35.784,35.784,0,0,0,5.03,14c.2.381.4.752.607,1.122a1.615,1.615,0,0,0-.637,2.348,29.981,29.981,0,0,0,19.181,12.743,32.5,32.5,0,0,0,16.725-.265,34.045,34.045,0,0,1-8.076,1.961,35.67,35.67,0,0,1-25.492-10.649c-.409-.4-1.056.211-.646.615a36.794,36.794,0,0,0,18.584,10c-6.721-.887-13.558-4.05-20.071-10.132-.3-.283-.774.159-.469.446a35.545,35.545,0,0,0,23.625,10.145,35.416,35.416,0,0,0,28.5-10.2c-1.211,1.445-2.482,2.88-3.883,4.3-.55.556.289,1.441.837.882a54.587,54.587,0,0,0,9.328-12.862,47.794,47.794,0,0,0,6.31-11.226c14.125-35.761-10.78-70.7-33.142-96.412-.1-.118-.278.048-.176.167,18.418,21.338,37.859,46.8,36.65,76.594a52.958,52.958,0,0,1-5.648,21.26c.189-.6.343-1.22.511-1.83,4.35-11.989,4.324-25.79,1.359-38.241-5.678-23.857-20.627-44.623-40.315-58.592-1.585-1.226-3.2-2.4-4.858-3.5-2.587-2.515-5.176-4.993-7.737-7.447-.187-.18-.481.1-.293.28,1.909,1.848,3.876,3.793,5.869,5.806a78.559,78.559,0,0,0-13.4-6.571,86.227,86.227,0,0,0-16.8-5.908,48.629,48.629,0,0,1,9.163,2.111c.148.048.217-.183.07-.233a47.812,47.812,0,0,0-12.3-2.515A51.261,51.261,0,0,0,91.9,464.11c-1.093-.009-2.187-.015-3.283.018a.243.243,0,0,0-.013.485c.057.006.115.015.17.02a32.7,32.7,0,0,0-18.1,10.454c-4.211,4.752-7.013,11.658-8.3,19.121A46.3,46.3,0,0,0,60.086,515c.061.539,1.011.443.957-.1a48.176,48.176,0,0,1,.594-13.86c-.456,9.508,1.491,19.125,6.063,25.844a41.447,41.447,0,0,0,8.139,10.2,31.472,31.472,0,0,0-12.027,6.874c-6.91,3.632-12.93,8.543-16.9,15.69A33.345,33.345,0,0,0,42.829,576.6c-.913,2.043-1.769,4.117-2.493,6.258-.2.6.7.854.932.282.543-1.367,1.119-2.709,1.715-4.037a34.24,34.24,0,0,0,.656,4.043,27.747,27.747,0,0,0,5.574,15.162c7.121,9.339,17.5,13.019,27.966,12.508A36.252,36.252,0,0,0,94.045,610.519ZM69.86,483.781c13.938-18.723,39.037-18.8,57.5-6.93.4.256.778-.365.385-.62-16.6-10.708-39.367-11.488-53.642,1.333a43.724,43.724,0,0,1,7.4-5.882,31.378,31.378,0,0,1,10.3-3.4,61.882,61.882,0,0,1,15.847-.291,111.973,111.973,0,0,1,50.164,28.3c8.193,9.8,15.893,20.562,21.623,31.75,6.558,15.464,9.48,33.453,3.593,49.239a40.988,40.988,0,0,1-8.837,14.09c.515-.778,1.013-1.57,1.467-2.4,10.278-18.775,3.893-39.819-2.645-58.662-.033-.1-.187-.061-.157.039,4.715,16.16,10.489,34.724,3.954,51.182-6.045,15.219-20.8,24.146-35.722,18.5l.048-.015a15.308,15.308,0,0,0,4.682-2.93,31.983,31.983,0,0,0,6.074.807.162.162,0,0,0,.007-.324,31.656,31.656,0,0,1-5.726-.831,17.871,17.871,0,0,0,4.413-7.086l.015.287c.019.381.646.552.719.115a26.975,26.975,0,0,0,.317-5.435,20.617,20.617,0,0,0-.926-8.182,18.9,18.9,0,0,0-8.339-10.584,26.172,26.172,0,0,0-19.1-5.793c-.719.063-.754,1.2-.028,1.133a26.553,26.553,0,0,1,14.273,2.613,19.851,19.851,0,0,0-2.754-.5,12.015,12.015,0,0,0-4.835-1.443l-.02-.022a.11.11,0,0,0-.17.011,12.611,12.611,0,0,0-2.726.1,9,9,0,0,0-6.037,3.815,7.6,7.6,0,0,0-.576.83,54.847,54.847,0,0,0,1.5-6.415.564.564,0,1,0-1.109-.178,53.92,53.92,0,0,1-1.545,6.669,1.22,1.22,0,0,0-1-1.067,58.478,58.478,0,0,0,.7-6.773.121.121,0,0,0-.243-.006,58.752,58.752,0,0,1-.815,6.741,1.027,1.027,0,0,0-.922.545c-6.861,12.74-17.912,30.735-31.715,36.872a54.411,54.411,0,0,1-6.3,1.88,21.645,21.645,0,0,1-2.945.263,15.838,15.838,0,0,1-6.23-3.46c-.622-.552-1.569.35-.941.895a17.6,17.6,0,0,0,3.365,2.28c-4.7-.759-9.625-3.115-14.723-7.573a34.32,34.32,0,0,1-6.215-12.617q.647.739,1.382,1.435c.265.25.678-.141.411-.391a21.631,21.631,0,0,1-2.1-2.289,37.1,37.1,0,0,1-.689-11.325c.024-.259-.378-.267-.4-.009a37.442,37.442,0,0,0,.352,10.31,18.719,18.719,0,0,1-2.559-5.08c-.015-.367-.02-.733-.022-1.1,1.507-10.4,7.845-18.519,16.056-24.966a28.233,28.233,0,0,1,11.4-.556c.761.109.983-1.222.217-1.348a30.6,30.6,0,0,0-8.8-.206c1.591-1.126,3.235-2.2,4.913-3.219a61.354,61.354,0,0,0,11.212-3.791,42.312,42.312,0,0,0,8.2,3.763.406.406,0,0,0,.235-.776,41.4,41.4,0,0,1-7.628-3.346,62.368,62.368,0,0,0,7.458-4.113,37.794,37.794,0,0,0,5.084.733c.261.02.27-.383.011-.4a37.587,37.587,0,0,1-4.615-.657c1.439-.948,2.845-1.946,4.206-3.011a16.947,16.947,0,0,0,4.478-1.1c.257-.1.085-.519-.176-.45a14.228,14.228,0,0,1-2.593.407,22.5,22.5,0,0,0,9.223-9.625c.069-.083.144-.159.211-.243a.248.248,0,0,0,.009-.287,13.675,13.675,0,0,0,1.024-7.371,14.187,14.187,0,0,0-.383-1.58c3.776,4.558,4.776,11.089,5.6,16.812.1.72,1.206.443,1.1-.274-.917-6.391-2.7-14.966-7.836-19.475a10.746,10.746,0,0,0-5.158-4.659,1.2,1.2,0,0,0-.728-.844c-10.534-4.484-22.8,3.028-21.89,14.9a14.642,14.642,0,0,0,7.754,12c-14.908-1.489-22.02-18.044-20.868-32.429.117-1.454.311-2.87.541-4.269,3.576-9.976,12.149-17.23,22.551-20.294,25.29-7.45,47.951,8.245,66.172,23.973.057.05.146-.031.087-.083-19.455-17.708-46.728-36.531-73.761-23.412a31.967,31.967,0,0,0-12.465,10.571q.506-1.222,1.095-2.383C69.673,484.057,69.758,483.918,69.86,483.781Zm14.706,33.928q.619-8.542,8.182-8.641a7.053,7.053,0,0,1,5.524-1c-6.419-.076-11.828,7.343-7.706,13,.15.206.5.022.354-.2-2.2-3.222-1.232-7.321,1.563-9.843,2.472-2.233,5.71-2.352,8.656-1.359a11.329,11.329,0,0,1,1.241,1.263c3.106,4.81,2.085,11.043-1.3,15.1a22.094,22.094,0,0,1-9.545,6.319,12.561,12.561,0,0,1-8.362-12.471,12.933,12.933,0,0,1,1.433-5.476,13.664,13.664,0,0,0-.45,3.295A.2.2,0,0,0,84.566,517.709Zm-29.811,76.9a27.375,27.375,0,0,1-6.96-15.492,20.1,20.1,0,0,0,2.656,4.526A35.49,35.49,0,0,0,54.756,594.605ZM83.235,538.3q-1.642.6-3.274,1.235c-.1-.072-.209-.143-.311-.217C80.838,538.964,82.035,538.628,83.235,538.3Zm-4.043,1.537c-.843.333-1.68.68-2.515,1.031.73-.424,1.456-.852,2.2-1.254C78.981,539.688,79.09,539.758,79.192,539.834Zm1.07,1.245c.169-.043.341-.08.511-.122.241.161.493.309.737.467A69.508,69.508,0,0,1,74.89,543.9C76.666,542.906,78.462,541.969,80.262,541.078Zm1.474-.354c.972-.233,1.945-.467,2.919-.689-.765.376-1.565.689-2.346,1.037C82.118,540.956,81.924,540.845,81.737,540.725Zm4.245-1.407q-1.975.439-3.974.913c2.3-1.1,4.587-2.124,6.826-3.083.248.069.493.141.743.2C88.405,538.054,87.194,538.686,85.981,539.317Zm3.5-2.448c.761-.324,1.513-.637,2.259-.946-.554.365-1.095.748-1.659,1.095C89.88,536.969,89.68,536.921,89.48,536.869ZM73,542.491c-.472.222-.939.454-1.407.683-.324.111-.646.226-.969.341q1.986-1.081,4.035-2.052C74.1,541.8,73.558,542.147,73,542.491Zm-4.687,2.383c-.276.15-.554.294-.826.448.185-.113.376-.219.561-.331C68.141,544.955,68.229,544.912,68.317,544.875Zm31.077,53.906c.085-.07.178-.135.263-.206a51.7,51.7,0,0,0,12.354-14.866c.083-.115.161-.232.244-.348-3.461,11.352-12.525,19.257-23.681,22.373A39.579,39.579,0,0,0,99.395,598.781ZM116.251,573.9c.074-.161.148-.322.222-.485.215-.258.435-.508.663-.754-.519,1.222-1.093,2.415-1.7,3.591C115.729,575.471,116,574.688,116.251,573.9Zm2.154-4.967c.2-.472.393-.944.583-1.415-.124.4-.22.819-.354,1.219C118.561,568.8,118.477,568.858,118.405,568.93Zm13.223-5.715c-.12.006-.239.031-.359.041l-.183-.191C131.269,563.111,131.448,563.161,131.628,563.215Zm3.008,34.205a7.069,7.069,0,0,1-1.3-.231q-.825-.561-1.632-1.187-.75-.742-1.452-1.521a24.132,24.132,0,0,0,1.9,1.57c.256.189.6-.228.354-.437a22.709,22.709,0,0,1-4.243-4.787c-.028-.122-.072-.215-.1-.341a1.435,1.435,0,0,0-.407-.759c-.672-2.156-1.233-4.328-1.709-6.515a32.027,32.027,0,0,0,15.19,12.465,11.91,11.91,0,0,1-5.534,1.756A1.166,1.166,0,0,0,134.636,597.42Zm-9.084-16.745a98.311,98.311,0,0,1-1.47-13,18.655,18.655,0,0,1,9.5-1.582q7.095,7.52,14.19,15.036c.25.265.665-.13.411-.391l-2.9-3a.47.47,0,0,0,.144-.561,43.053,43.053,0,0,0-4.924-8.68,16.726,16.726,0,0,1,7.356,19.108,14.587,14.587,0,0,1-6.117,7.734A31.346,31.346,0,0,1,125.552,580.675Zm18.44-4.267-9.9-10.238a16.217,16.217,0,0,1,4.037,1.1A33.21,33.21,0,0,1,143.992,576.408ZM130.6,562.933l.339.359a20.544,20.544,0,0,0-5.515,1.213,8.4,8.4,0,0,1,2.963-1.182.285.285,0,0,0-.061-.559,13.7,13.7,0,0,0-2.741.33A10.11,10.11,0,0,1,130.6,562.933Zm-8.245,5.6c.193-.107.38-.222.576-.324a58.838,58.838,0,0,0,.637,7.71c-.117-.357-.248-.706-.352-1.069-.17-.6-1.126-.367-.944.233a32.464,32.464,0,0,0,2.145,5.289,69.963,69.963,0,0,0,1.98,7.021,24.153,24.153,0,0,1-1.65-5.4c-.154-.856-1.385-.607-1.415.17C121.926,577.743,121.037,572.441,122.353,568.535ZM93.156,606.8c8.545-3.972,15.858-10.632,19.792-18.994C111.694,598.048,103.388,604.274,93.156,606.8Zm84.36-9.828a.127.127,0,0,0-.157.028,36.018,36.018,0,0,1-21.038,11.082A44.16,44.16,0,0,0,178.9,595.1C178.445,595.726,178,596.353,177.515,596.976Zm8.308-14.529c-.194.372-.38.748-.583,1.115.409-.878.817-1.754,1.172-2.656C186.234,581.423,186.021,581.934,185.823,582.447ZM70.693,530.465a18.42,18.42,0,0,0,10.054,5.1c-1.426.4-2.83.822-4.209,1.276A40.77,40.77,0,0,1,70.693,530.465Z" transform="translate(1068.92 4215.146)" fill="url(#linear-gradient)"/>
    <path id="Path_62" data-name="Path 62" d="M455.965,467c1.97-18.859-12.934-35.909-31.487-37.985,0,0,0,.006-.006.006a37.1,37.1,0,0,1-7.538-3.91c-.819-.571-1.614-1.174-2.4-1.792-2.607-5.083-8.576-8.861-13.347-11.08a39.425,39.425,0,0,0-25.464-2.66c-.184.042-.108.322.075.283a40.252,40.252,0,0,1,23.627,2.039c5.109,2.086,11.786,5.882,14.785,11.166-6.089-4.863-11.419-10.746-19.368-12.387a.113.113,0,0,0-.058.218,22.951,22.951,0,0,1,8.875,4.8,44.089,44.089,0,0,0-21.917-5.116,35.542,35.542,0,0,1,8.078-.544c.207.011.194-.29,0-.315a35.146,35.146,0,0,0-11.794.546c.066-.022.13-.05.2-.071.02-.006.012-.039-.008-.033-.15.049-.293.108-.442.158a34.815,34.815,0,0,0-4.567,1.357,44.14,44.14,0,0,0-11.112,4.192c-.121.066-.016.251.106.186a44.3,44.3,0,0,1,9.331-3.716A32.469,32.469,0,0,0,357.62,423.7c-.015-.013-.035-.017-.048,0-.119.19-.215.388-.329.58a31.094,31.094,0,0,0-2.1,3.675c-.075.158-.134.322-.207.481q-.422.682-.82,1.38a44.246,44.246,0,0,1,9.38-15.656c.045-.048-.027-.12-.071-.072A44.6,44.6,0,0,0,353.5,430.93a42.881,42.881,0,0,0-3.165,7.606c-.034.112.139.158.173.048a42.753,42.753,0,0,1,2.778-6.918,44.917,44.917,0,0,0,1.518,30.85c.078.18.339.027.263-.151a45.373,45.373,0,0,1-1.263-31.674c.246-.459.493-.917.755-1.365a33.879,33.879,0,0,0,2.229,30.481,17.806,17.806,0,0,1,.981,3.02c.063.29.085.568.119.85a7.94,7.94,0,0,1-.321,1.213,35.945,35.945,0,0,0-5.421,13.244c-.041.155-.072.312-.112.467.04-1.539.131-3.074.276-4.6,0-.036-.053-.036-.056,0-.159,1.618-.255,3.257-.294,4.9-.079.29-.154.581-.207.88a31.687,31.687,0,0,0,.04,14.925,34.807,34.807,0,0,0,23.4,24.1.435.435,0,0,0,.585-.377,37.642,37.642,0,0,0,8.669,1.645c-.249.011-.494.037-.743.044a.135.135,0,0,0,0,.27,40.226,40.226,0,0,0,21.424-4.757c.566-.308,1.113-.645,1.66-.981a37.679,37.679,0,0,1-8.331,4.456,39.7,39.7,0,0,1-33.1-2.631c-.146-.081-.277.14-.133.222a42.314,42.314,0,0,0,48.144-7.127c1.781-1.713,5.027-7.56,7.1-8.366,2.645-1.028,6.421-.023,9.416-.872a23.438,23.438,0,0,0,7.882-4.06,29.689,29.689,0,0,0,4.914-4.856A37.754,37.754,0,0,0,455.965,467Zm-99.493.385a64.647,64.647,0,0,0-3.578,8.25,35.429,35.429,0,0,1,4.628-10.6A24.059,24.059,0,0,1,356.472,467.386Zm99.288-1.407a32.9,32.9,0,0,1-.452,3.454,35.163,35.163,0,0,0-1.314-16.665A32.333,32.333,0,0,1,455.76,465.979Zm-11.933-28.074c-5.466-4.483-12.271-6.121-18.695-8.618A35.641,35.641,0,0,1,443.827,437.905Zm-22.176-7.083c-.443-.116-.886-.233-1.329-.347-1.535-.4-3.138-.608-2.888-1.916A31.767,31.767,0,0,0,421.651,430.822Zm-64.067,30.225c.114.169.217.343.334.51a7.907,7.907,0,0,1,.076.821C357.877,461.93,357.742,461.486,357.584,461.047Zm67.791,37.386a19.646,19.646,0,0,1-4.333-.386,24.951,24.951,0,0,0,4.5.25A.189.189,0,0,0,425.375,498.433Zm2.185-.191c-.406.03-.829.026-1.247.027a25.291,25.291,0,0,0,3-.374A17.789,17.789,0,0,1,427.56,498.242Zm23.478-17.275a37.832,37.832,0,0,1-7.465,9.314c3.711-4.982,6.213-10.93,8.567-16.608.116-.28-.356-.479-.493-.209a105.394,105.394,0,0,1-6.461,11.335,43.26,43.26,0,0,0,2.153-5.074c3.262-9.3,8.331-23.737-.67-31.432-.021-.018-.054.013-.032.032,8.637,7.543,3.832,20.91.761,30.052a42.889,42.889,0,0,1-4.68,9.806,29.534,29.534,0,0,1-9.579,8.283,7.983,7.983,0,0,0,1.646-3.389c.056-.232-.3-.33-.358-.1a7.352,7.352,0,0,1-2.182,3.908c-.08.035-.158.071-.238.105a25.5,25.5,0,0,1-11.435.859c.078-.187.164-.367.239-.556a.041.041,0,0,0-.05-.051l-1.186.432c-.741-.143-1.483-.309-2.23-.522a.034.034,0,0,0-.018.065c.69.208,1.377.377,2.062.525l-.242.088c-.005,0,0,.008-.006.013a1.215,1.215,0,0,0-.735.574c-.283.543-.592,1.064-.9,1.59a12.892,12.892,0,0,0-3.017.925,29.4,29.4,0,0,0,2.376-6.664c.025-.106-.137-.151-.163-.045a30.19,30.19,0,0,1-2.544,6.866,7.518,7.518,0,0,0-3.686,4.061c-.019.047.056.066.075.02a7.415,7.415,0,0,1,3.489-3.839,29.065,29.065,0,0,1-34.489,14.241.022.022,0,0,0-.012.042,29.18,29.18,0,0,0,34.834-14.446,12.456,12.456,0,0,1,3.013-.946,40.064,40.064,0,0,1-30.126,19.639,37.279,37.279,0,0,1-11.564-1.808.518.518,0,0,0-.236-.2,38.032,38.032,0,0,1-8.03-4.41,26.619,26.619,0,0,0,18.9,4.192c.121-.02.071-.2-.05-.184-8.2,1.363-16.317-1.563-22.4-6.926-.128-.12-.261-.237-.387-.358-.086-.078-.167-.159-.252-.238a32.87,32.87,0,0,1-9.984-23.919,24.674,24.674,0,0,0,2.386,7.928c.081.163.325.022.244-.139a24.141,24.141,0,0,1-2.543-9.781,34.22,34.22,0,0,1,7.566-18.746c.013-.017.018-.035.031-.052.061.064.114.132.175.2.555.57,1.3-.222.882-.822.152.153.286.317.441.468.115.112.291-.062.176-.173-.585-.576-1.133-1.176-1.669-1.784-.221-.32-.441-.641-.652-.968-.154-.315-.283-.648-.443-.957.072.186.133.37.192.554a39.942,39.942,0,0,1-2.149-3.837,35.525,35.525,0,0,1,1.957,3.283,18.431,18.431,0,0,0-2.262-3.948c-4.393-9.461-4.961-20.494.277-29.992a33.864,33.864,0,0,1,22.212-16.329,44.091,44.091,0,0,1,24.316,5.41c3.27,2.873,6.113,6.325,9.409,9.415.614.576,1.242,1.105,1.882,1.595a10.658,10.658,0,0,1,.1,1.915c0,.036.054.036.056,0a10.639,10.639,0,0,0-.056-1.837c.462.351.932.676,1.407.989l-.79,1.136a.072.072,0,0,0,.042.105c2,.574,4.1,1.1,6.233,1.627,2.665,1.116,5.462,2.006,8.361,3.009,13.922,4.816,22.946,16.291,23.63,29.394a26.761,26.761,0,0,1-1.243,6.011c-.081.241.3.343.379.1a26.74,26.74,0,0,0,.89-3.364,33.934,33.934,0,0,1-3.777,14.146A.3.3,0,0,0,451.038,480.967Zm-8.933-28.8a17.183,17.183,0,0,0-3.72-4.54,17.469,17.469,0,0,0-6.025-3.227,15.006,15.006,0,0,0-6.779-1.723,18.182,18.182,0,0,0-2.569-.4,61.737,61.737,0,0,1-6.823-.567c-.3-.092-.6-.176-.889-.282a14.522,14.522,0,0,1-3.035-1.492,10.936,10.936,0,0,1-1.093-1.04,4.234,4.234,0,0,1,.4-2.482c.014-.033-.033-.062-.049-.029a4.141,4.141,0,0,0-.41,2.444c-.574-.628-1.126-1.326-1.727-2.094a35.82,35.82,0,0,0-3.075-3.423c-.7-1.006-1.435-2.039-2.3-3.073-.211-.254-.449-.484-.673-.729.234.12.47.236.7.357a37.767,37.767,0,0,1,4.521,3.832.05.05,0,0,0,.072-.07A37.489,37.489,0,0,0,405,430.39c1.015.554,2.018,1.12,2.994,1.7a.028.028,0,0,0,.029-.048c-1.118-.685-2.277-1.349-3.457-1.993-.7-.537-1.417-1.055-2.153-1.536a25.294,25.294,0,0,0-14.281-6.9,20.583,20.583,0,0,0-16.9,5.488c-.044.024-.087.045-.13.07a.51.51,0,0,0-.507.04,15.411,15.411,0,0,0-6.914,7.916c-2.733,5.5-2.736,12.189,1.509,17.339.13.157.35-.064.225-.221a14.863,14.863,0,0,1-2.356-14.628,15.269,15.269,0,0,0,.2,5.361c-.136.293-.27.586-.4.878-.078.177.184.335.261.155s.158-.353.237-.53c.022.09.049.181.072.27a22.67,22.67,0,0,0,.938,4.586,13.313,13.313,0,0,0,.546,2.027,16.219,16.219,0,0,0,4.668,6.692,37.389,37.389,0,0,0,7.6,5.5,32.124,32.124,0,0,0-8.1,6.242,25.321,25.321,0,0,1,6.137-6.134c.023-.016,0-.055-.022-.038a25.747,25.747,0,0,0-6.865,6.986,31.8,31.8,0,0,0-7.787,18.062c-.017.187.275.185.293,0a32.188,32.188,0,0,1,6.728-16.849,24.952,24.952,0,0,0-3.507,14.025,10.213,10.213,0,0,0-.267,1.449c-.3.849-.581,1.706-.817,2.583a.158.158,0,0,0,.3.084c.139-.507.3-1,.458-1.5a10.82,10.82,0,0,0,.207,2.041,12.9,12.9,0,0,0,1.858,5.712,27.752,27.752,0,0,0,1.311,3.531c.091.2.381.029.293-.168-.346-.77-.635-1.549-.906-2.331a17.046,17.046,0,0,0,3.566,3.5,18.986,18.986,0,0,0,11.119,6.832,24.927,24.927,0,0,0,3.742.942c.254.044.364-.343.106-.39-.211-.038-.42-.095-.63-.138a23.61,23.61,0,0,0,15.932-5.339,26.727,26.727,0,0,0,12.8-18.147,6.71,6.71,0,0,0,1.005.839,10.259,10.259,0,0,0,3.046,1.374,15.481,15.481,0,0,0,8,.832c.56.034,1.119.072,1.687.072a.141.141,0,0,0,0-.282c-.165,0-.324-.021-.489-.025a16.505,16.505,0,0,0,3.137-1.07,16.863,16.863,0,0,0,2.421-1.369,20.439,20.439,0,0,0,4.009-2.357c.183-.126.354-.265.528-.4h0a12.832,12.832,0,0,0,1.345-1.2,19.968,19.968,0,0,0,5.906-16.349c.065.191.129.383.193.574a1.036,1.036,0,0,0,2-.537A48.579,48.579,0,0,0,444,456.241a24.722,24.722,0,0,1-5.5,29.3c-.188.172.087.449.276.282,8.488-7.568,11.179-20.7,5.382-30.7A23.9,23.9,0,0,0,442.1,452.167Zm-78.384-7.42q.2.641.442,1.276,0,.515.049,1.031A22.807,22.807,0,0,1,363.72,444.746Zm71.7,3.8a17.476,17.476,0,0,1,3.6,4.012,27.175,27.175,0,0,0-4.6-4.479c-.726-.557-1.49-1.1-2.28-1.612A18.617,18.617,0,0,1,435.421,448.546ZM424.649,442.7c-.211.012-.422.02-.634.04-.292-.011-.585-.022-.875-.021a14.881,14.881,0,0,0-3.453-.177q-.87-.145-1.727-.345C420.177,442.394,422.477,442.355,424.649,442.7ZM403.4,429.424c-.085-.045-.172-.086-.257-.13-.036-.038-.07-.078-.106-.116C403.156,429.261,403.277,429.341,403.4,429.424Zm-7.612-2.4a24.487,24.487,0,0,0-6.368-1.61,25.475,25.475,0,0,0-15.691,3.5A21.611,21.611,0,0,1,395.787,427.027Zm-27.325,27.906a14.881,14.881,0,0,1-3.734-7.562,27.391,27.391,0,0,0,2.947,4.926,19.917,19.917,0,0,0,3.581,5.122A18.494,18.494,0,0,1,368.461,454.934Zm9.566.061c-.6-.55-1.218-1.123-1.838-1.715A7.888,7.888,0,0,1,378.027,454.994Zm.477-5.622a18.186,18.186,0,0,1,2.211,1.05,7.033,7.033,0,0,0,.32,1.015c-.111.012-.221.028-.334.047A15.634,15.634,0,0,0,378.5,449.373Zm-2.673,10.563a23.722,23.722,0,0,1-2.813-1.382,20.639,20.639,0,0,1-3.77-4.316A31.559,31.559,0,0,0,375.831,459.936Zm-3.932-1.155a22.9,22.9,0,0,0,3.1,1.708c.1.067.2.138.3.2a.141.141,0,0,0,.161-.006c.325.139.646.29.976.414a30.663,30.663,0,0,0,4.722,1.326c-.551.236-1.106.466-1.633.734-.013-.035-.021-.074-.067-.09-.6-.21-1.179-.445-1.752-.7.18-.1.353-.2.534-.292.046-.023.006-.09-.039-.068-.2.1-.394.215-.594.319A24.82,24.82,0,0,1,371.9,458.781Zm9.432-7.961a6.27,6.27,0,0,1,.74.615,4.74,4.74,0,0,0-.494-.027C381.485,451.217,381.406,451.019,381.33,450.82ZM365.4,481.009c-.062.253-.135.5-.189.757-.149.368-.284.742-.41,1.12q-.21.43-.378.87a24.988,24.988,0,0,1,3.983-13.931,31.837,31.837,0,0,1,8.878-7.215l.161.1c1.2.72,1.225.386.079,1.24-1.076.8-2.341,1.35-3.415,2.187a23.348,23.348,0,0,0-8.709,14.876Zm12.976-17.2a27.116,27.116,0,0,0-11.914,13.783A22.677,22.677,0,0,1,378.378,463.81Zm-12.454,16.4a26.856,26.856,0,0,1,15.431-17.74c.169.033.337.071.506.1.123.022.983.115,1.8.19a6.151,6.151,0,0,1-.251.649,61.915,61.915,0,0,0-5.868,3.861c-.764.59-1.484,1.22-2.187,1.867a.145.145,0,0,0-.245-.07C371.635,472.386,368.077,475.956,365.924,480.206Zm15.681-18.527a2.457,2.457,0,0,0,.42-.292,1.68,1.68,0,0,0,1.873.42c-.016.1-.019.194-.04.288Q382.73,461.915,381.606,461.679Zm.846,3.276a7.74,7.74,0,0,1-.846.87,47.4,47.4,0,0,1-5.172,3.327A32.482,32.482,0,0,1,382.451,464.955Zm-10.5,33.033c-.119-.172-.248-.336-.361-.514-.019-.031-.068,0-.049.028.08.129.17.245.253.37a14.358,14.358,0,0,1-4.727-5.526,18.722,18.722,0,0,1-.078-10.849.312.312,0,0,0,.262.21c-.214.558-.418,1.122-.6,1.7-.078.236.309.409.41.174a28.423,28.423,0,0,1,13.067-14.488c3.121-1.6,6.981-2.148,7.939-6.1,1.006-4.146-1.073-9.878-4.777-11.272A6,6,0,0,0,381,449.568c-.031-.192-.065-.385-.078-.587-.017-.265-.427-.269-.417,0,0,.123.034.233.044.353a48.937,48.937,0,0,1-5.112-2.343,14.515,14.515,0,0,1-3.594-4.239,11.645,11.645,0,0,1-1.212-5.08c-.01-6.318,5.543-11.007,11.594-11.17a.034.034,0,0,0,0-.068,11.967,11.967,0,0,0-11.958,11.6,10.6,10.6,0,0,1,2.435-8.315,25.552,25.552,0,0,1,15.7-4.15,24.156,24.156,0,0,1,10.013,3.03,23.55,23.55,0,0,1,5.711,5.747,30.108,30.108,0,0,0,5.32,5.94,27.5,27.5,0,0,1,1.354,3.238c.083.244.471.145.391-.105a25.3,25.3,0,0,0-.99-2.547,16.688,16.688,0,0,0,5.3,2.668c-.118.051-.238.089-.356.143-.191.088-.029.37.161.284.233-.106.471-.183.706-.273a20.147,20.147,0,0,0,2.86.523c-.2.13-.01.449.222.342.206-.095.411-.173.616-.258a37.84,37.84,0,0,0,6.024-.074,33.669,33.669,0,0,1,3.728,1.091,32.8,32.8,0,0,1,6.454,4.5c.509.453.989.928,1.455,1.412a23.382,23.382,0,0,0-7.392-4.516c-.294-.109-.412.353-.128.467,4.029,1.615,7.9,3.943,10.269,7.618a15.914,15.914,0,0,1,.5,5.811q-.124.853-.272,1.7a17.875,17.875,0,0,1-10.488,12.857,26.92,26.92,0,0,1-15.577-.112l0-.006a1.283,1.283,0,0,0-.551-.448c1.316.327,2.644.608,3.986.8a42.745,42.745,0,0,0,9.176.279c.316-.021.319-.514,0-.5a43.773,43.773,0,0,1-16.546-2.171,2.735,2.735,0,0,1,.04-.6c.023-.137-.177-.253-.246-.1a4.97,4.97,0,0,0-.219.557c-.353-.121-.7-.255-1.054-.385a1.523,1.523,0,0,0-.2-.47c.024.029.077-.009.053-.04l-.4-.549a.056.056,0,0,0-.1.042c.069.286.147.572.22.857-.2-.075-.4-.139-.6-.218a.2.2,0,0,0-.123.016c-.1-.193-.2-.39-.3-.583-.121-.233-.471-.031-.353.2.067.13.13.261.194.392a1.262,1.262,0,0,0-1.439.877c-.617,3.21-1.042,6.188-1.813,9.044a31.114,31.114,0,0,1-30.65,15.506c-.015,0-.014.02,0,.022a30.879,30.879,0,0,0,28-10.777A31.691,31.691,0,0,0,403.4,484a22.892,22.892,0,0,1-3.547,6.683,24.993,24.993,0,0,1-16.241,9.474.087.087,0,0,0-.069.063,21.6,21.6,0,0,1-9.833-1.15A18.853,18.853,0,0,1,371.955,497.988Zm40.121-15.832c-.087-.054-.175-.1-.262-.156-.052-.2-.108-.392-.165-.587C411.783,481.667,411.923,481.917,412.076,482.156Zm.005-7.211a8.334,8.334,0,0,1-.632-.824c.353.167.719.314,1.083.465A1.089,1.089,0,0,0,412.081,474.945Zm-.335,2.159a11.566,11.566,0,0,1-.931-1.82.565.565,0,0,0,.126-.191A10.912,10.912,0,0,0,411.746,477.1Zm-.325-3.08c-.015-.006-.026,0-.036.013-.058-.085-.128-.155-.183-.242a15.047,15.047,0,0,0,1.409.535c.18.05.363.085.543.133a1.47,1.47,0,0,0-.458.062C412.268,474.365,411.84,474.2,411.421,474.024Zm-.759-.084c.03.154.069.3.1.447a3.347,3.347,0,0,1-.356-.9c.134.046.267.1.4.149A.272.272,0,0,0,410.663,473.94Zm-1.067-.665c-.005-.005-.012-.006-.017-.012.074.015.147.025.222.045-.011.046-.027.092-.036.138C409.708,473.39,409.654,473.33,409.6,473.274Zm-1.042,4.509c-.056.151-.112.3-.17.452.021-.237.067-.469.078-.709C408.5,477.61,408.521,477.7,408.554,477.784Zm-.108-4.488-.006.006,0,0Zm-9.51,28.919a27.057,27.057,0,0,1-15.282,2.937c-.036,0-.036.053,0,.056A27.24,27.24,0,0,0,397.741,503a21.976,21.976,0,0,1-18.834,2.172,26.031,26.031,0,0,1-5.3-3.262c.578.293,1.164.576,1.768.835,10.143,4.373,20.433,2.57,27.518-4.052A22.839,22.839,0,0,1,398.935,502.215Zm2.5-1.5a22.839,22.839,0,0,0,3.328-3.843.132.132,0,0,0,.012-.137,27.77,27.77,0,0,0,4.755-7.886c.154-.386-.453-.614-.657-.278a28.1,28.1,0,0,1-28.229,12.886,23.4,23.4,0,0,1-2.427-.56,23.606,23.606,0,0,0,6.425-.064A25.889,25.889,0,0,0,396.9,495.51c5.861-3.8,10.413-9.5,11.373-16.253.14-.377.274-.754.4-1.135a8.7,8.7,0,0,1,.408,1.519.929.929,0,0,0,1.42.562c.105.383.212.763.32,1.144-.473-.323-.947-.643-1.409-1-.035-.027-.083.034-.048.062.489.387.994.742,1.5,1.1.31,1.107.606,2.222.928,3.321a.3.3,0,0,0,.578-.155,23.257,23.257,0,0,0-.512-2.505c.118.076.238.146.356.219.092.134.206.247.3.374.021.041.041.084.063.125.035.327.074.656.108.983a.048.048,0,0,0,.05.042A27.1,27.1,0,0,1,401.434,500.713Zm11.306-17.535a.215.215,0,0,0,.115.095c-.029.152-.049.308-.081.459C412.761,483.548,412.752,483.362,412.74,483.178Zm2.19-7.244c-.159-.207-.319-.414-.472-.636a28.148,28.148,0,0,0,11.321,1.235,22.354,22.354,0,0,1-4.125.53A34.074,34.074,0,0,1,414.93,475.934Zm3.526,10.056a12.944,12.944,0,0,0,3.056.093c.871.172,1.752.31,2.646.4A15.41,15.41,0,0,1,418.456,485.989Zm7.1.285c-1.042-.058-2.072-.156-3.081-.313l.143-.023A14.7,14.7,0,0,0,429.8,484.7c.235-.073.467-.155.7-.237A16.183,16.183,0,0,1,425.551,486.274Zm7.164-11.317a20.593,20.593,0,0,1-3.587,1.682,30.645,30.645,0,0,1-5.895.485,22.184,22.184,0,0,0,4.227-.813,23.064,23.064,0,0,0,5.867-1.765C433.122,474.682,432.929,474.828,432.716,474.957Zm-.952-.46a18.191,18.191,0,0,0,7.64-8.012,28.715,28.715,0,0,1-1.175,3.378,16.825,16.825,0,0,1-1.333,1.685A21.808,21.808,0,0,1,431.764,474.5Zm-.165,9.284c-.089.039-.181.072-.271.109.318-.189.618-.392.917-.6.03-.009.059-.016.089-.025C432.1,483.447,431.848,483.615,431.6,483.781Zm1.427-.688.15-.119c.078-.03.156-.06.234-.091C433.282,482.954,433.155,483.025,433.026,483.093Zm9.164-17.241a10.578,10.578,0,0,0,.669-4.9c.046.133.092.265.137.4a19.388,19.388,0,0,1,.255,7.471,19.6,19.6,0,0,1-2.962,7.69,24.516,24.516,0,0,0,2.512-9.106c0-.036-.052-.035-.056,0-.422,4.075-1.7,8.367-4.3,11.507a19.568,19.568,0,0,1-2.734,2.484,12.022,12.022,0,0,1-1.939,1.059,22.567,22.567,0,0,0,5.886-8.854A20.843,20.843,0,0,0,442.19,465.852Z" transform="translate(-330.959 4319.545)" fill="url(#linear-gradient)"/>
    <path id="Path_6" data-name="Path 6" d="M528.924,592.271A76.011,76.011,0,0,0,544.6,559.92a49.05,49.05,0,0,0-1.217-24.9c-2.031-15.562-8.361-31.174-20.158-40.5a1.009,1.009,0,0,0-1.373-1.03c-.407-.294-.784-.622-1.2-.9-.222-.148-.5.212-.284.376.355.267.673.571,1.018.848-2.279,2.02-4.537,4.092-6.785,6.18a2.18,2.18,0,0,0-.37.345q-2.779,2.586-5.536,5.2c-8.285,7.685-16.8,15.045-25.515,22.162-23.748,18.357-48.4,35.655-73.782,51.674-.032-.057-.118-.005-.089.055h0c-2.748,1.734-5.494,3.47-8.258,5.173a2.062,2.062,0,0,0-.373,3.187c5.96,7.352,13.355,13.2,21.2,18.419a.844.844,0,0,0,1.217-.464c23.083,15.531,54.6,19.278,79.705,7.439a83.378,83.378,0,0,0,8.551-3.885c-1.32.985-2.665,1.941-4.05,2.843-.042.028,0,.093.039.066,1.717-1.085,3.37-2.25,4.994-3.453.844-.459,1.685-.926,2.513-1.412a75.917,75.917,0,0,1-17.773,11.43c-.046.021-.005.086.039.065a75.9,75.9,0,0,0,18.58-11.993,83.286,83.286,0,0,0,20.318-17.2c.191-.223-.136-.546-.328-.322a82.874,82.874,0,0,1-17.654,15.4c.623-.594,1.251-1.185,1.855-1.8A82.327,82.327,0,0,0,537.44,585.85c.241-.319-.205-.762-.45-.439a82.252,82.252,0,0,1-14.417,14.62q1.447-1.638,2.795-3.359C526.6,595.243,527.794,593.782,528.924,592.271Zm-5.968-97.156c10.593,9.225,16.923,22.661,19.382,36.762-3.913-10.77-10.628-20.7-16.543-31.844a.619.619,0,0,0-1.1.125c-.924-1.29-1.916-2.536-2.937-3.763C522.158,495.969,522.569,495.549,522.956,495.115Zm11.853,29.995c-.075-.112-.143-.229-.22-.338-.492-1.416-1.025-2.816-1.616-4.191q.877,2,1.7,4.007C534.717,524.762,534.764,524.935,534.808,525.11Zm-16.181-25.576a210.037,210.037,0,0,1,1.412,25.242q-.1-3.65-.43-7.283c.177-5.556-.075-11.907-2.18-16.823C517.83,500.292,518.232,499.914,518.627,499.534ZM503.349,540a.239.239,0,0,0-.233-.079c.169-.521.308-1.059.414-1.465a20.437,20.437,0,0,0,.572-6.867,19.439,19.439,0,0,0-.625-3.5c.133-.1.267-.193.4-.29A25.746,25.746,0,0,1,503.349,540Zm-29.1,25.9c-.223-.151-.446-.3-.666-.459q9.5-6.044,18.6-12.7c.237-.173,0-.571-.237-.393q-9.126,6.761-18.675,12.882-.455-.322-.9-.654a1.969,1.969,0,0,0-2.012.023c-.849.484-1.709.931-2.572,1.361,10.191-6.8,20.389-13.593,30.445-20.585.434-.3.018-1.01-.425-.709-10.758,7.261-21.366,14.749-31.983,22.216a37.762,37.762,0,0,1-8.4,2.655q11.265-6.963,22.389-14.178l-.006.006c-.068.053,0,.17.071.118L482,553.935q7.353-4.774,14.664-9.6a.486.486,0,0,0,.51-.1q.464-.422.923-.845c.28-.184.56-.367.838-.552a.448.448,0,0,0,.211-.409c1.122-1.028,2.261-2.034,3.431-3.007a20.461,20.461,0,0,1-1.666,3.842.259.259,0,0,0,.45.256c.745-1.2,1.165-1.668,1.379-1.709a29.015,29.015,0,0,1-2.587,5.177.4.4,0,0,0-.522-.01A288.43,288.43,0,0,1,474.251,565.893Zm8.869-5.459c-1.593,1.29-3.194,2.573-4.786,3.867-.015.011-.006.028,0,.043q-1.449,1.16-2.9,2.317c-.321-.2-.643-.406-.96-.618Q478.86,563.334,483.121,560.434Zm-10.818,9.6a30.826,30.826,0,0,1-3.281,2.08c-.9.323-1.8.6-2.7.842a21.65,21.65,0,0,0,5.038-3.727C471.667,569.515,471.983,569.778,472.3,570.029Zm-7.389,3.942a31.736,31.736,0,0,1-4.01,1.215c-.037-.085-.078-.169-.115-.252a19.345,19.345,0,0,0,2.579-.673C463.884,574.172,464.4,574.083,464.913,573.971ZM502,537.665c-4.013,3.4-8.124,6.686-12.261,9.938-11.221,7.227-22.386,14.564-33.4,22.1a28.161,28.161,0,0,1-5.973.258c14.046-9.31,28.2-18.57,42.04-28.2q-18.363,13.485-36.716,26.985c-.055.04,0,.133.055.092q22.46-16.328,44.914-32.666c.2-.144,0-.475-.2-.33l-.75.551a.292.292,0,0,0-.456-.219c-16.623,10.813-32.828,22.4-49.069,33.777-.439-.032-.879-.065-1.318-.119,18.192-12.3,36.463-24.492,54.643-36.813a19.6,19.6,0,0,1-.443,4.6A.872.872,0,0,0,502,537.665Zm-57.725,33.668A37.223,37.223,0,0,1,439,568.571c.32-.237.642-.471.963-.708A28.725,28.725,0,0,0,444.272,571.333Zm-3.647-3.957c19.995-14.719,40.462-28.856,60.051-44.113.3.495.565,1,.816,1.513-19.819,14.218-39.245,29.011-58.893,43.459Q441.61,567.85,440.625,567.376Zm2.053.891c19.663-14.327,39.587-28.344,59.084-42.9a19.84,19.84,0,0,1,.995,2.72q-8.262,6.03-16.507,12.083c-13.867,9.492-27.735,19.014-41.354,28.851C444.157,568.806,443.417,568.551,442.678,568.267Zm49.9-31.506a.388.388,0,0,0-.162-.7q5.233-3.77,10.467-7.542a19.6,19.6,0,0,1,.581,3.6.392.392,0,0,0-.333.064c-18.213,12.485-36.334,25.1-54.535,37.6a25.782,25.782,0,0,1-3.381-.671C461.181,558.61,476.881,547.66,492.577,536.76Zm11.206-9.428-.434.319a19.307,19.307,0,0,0-1.031-2.7c.242-.182.485-.36.727-.54C503.345,525.384,503.582,526.359,503.783,527.333Zm-.939-3.529c-.267.191-.532.384-.8.575-.262-.515-.542-1.023-.848-1.519.342-.266.687-.528,1.028-.8C502.45,522.644,502.652,523.223,502.843,523.8ZM430.55,573.569c.107-.083.184-.183.285-.27a3.433,3.433,0,0,0,.514.56,3.787,3.787,0,0,1-.97-.233C430.436,573.605,430.5,573.61,430.55,573.569Zm-2.193-2.26a5.439,5.439,0,0,0,.107,2.026c.416,1.679,2.489,1.627,3.931,1.337a5.834,5.834,0,0,0,4.164-3.274c.105-.23-.222-.425-.346-.2a5.409,5.409,0,0,1-3.352,2.548.652.652,0,0,0-.186-.719,2.145,2.145,0,0,1-.165-.2.722.722,0,0,0,.13-.075,4.458,4.458,0,0,0,1.539-2.547,2.586,2.586,0,0,0,.9-1.413c.1-.4-.4-.88-.78-.585-.075.057-.133.12-.205.179a.705.705,0,0,0-.229-.175c.029-.13.079-.248.1-.381a.805.805,0,0,0-.029-.388,4.647,4.647,0,0,1,1.023-.234.786.786,0,0,0,.685-1.053q21.169-15.137,41.114-31.909,10.644-8.37,21.142-16.912c.047-.037-.019-.1-.065-.065q-7.9,6.362-15.9,12.587c2.627-2.257,5.252-4.517,7.848-6.82a.178.178,0,0,0-.048-.281q5.755-4.959,11.383-10.046c-.439.416-.88.836-1.319,1.25a1.909,1.909,0,0,0-.52,1.668c-.668.629-1.344,1.253-2.011,1.884-.022.021.011.053.032.032.664-.6,1.323-1.21,1.986-1.812a2.03,2.03,0,0,0,.229.648,44.355,44.355,0,0,1,2.2,4.434c-.427.3-.847.614-1.272.917-.364-.514-.745-1.02-1.158-1.51-.262-.31-.694.141-.439.45.385.466.741.945,1.079,1.434-20.23,14.494-39.632,30.154-59.46,45.188-.389-.19-.779-.369-1.167-.581a.185.185,0,0,0-.22.291c.251.265.518.5.776.754-.324.247-.647.495-.973.74-.822-.52-1.634-1.061-2.422-1.65,20.453-14.33,41-28.984,60.047-45.151.3-.251-.112-.777-.424-.538-20.082,15.483-39.776,31.348-60.4,46.125-.048.033,0,.112.047.079l.637-.448c.725.639,1.48,1.226,2.249,1.786-.265.2-.528.4-.793.6-.054.042,0,.134.055.093.281-.208.564-.413.845-.621a31.007,31.007,0,0,0,6.267,3.5c-.466.319-.928.643-1.4.962-.064.044,0,.15.064.105.495-.337.993-.668,1.49-1,.959.393,1.932.743,2.922,1.039a22.381,22.381,0,0,0,8.763,1.932c.007.047.04.09.1.06.03-.017.06-.035.09-.053a19.8,19.8,0,0,0,3.658-.36c.035.086.066.172.1.256a31.848,31.848,0,0,1-9.241.639c-.026-.06-.04-.121-.068-.18l0-.017h0c-.018-.039-.028-.078-.047-.116-.223-.442-.852-.189-.867.242a31.457,31.457,0,0,1-4.225-.765,6.455,6.455,0,0,1,1.393-.59.077.077,0,0,0-.043-.147,6.617,6.617,0,0,0-1.63.668c-.678-.173-1.348-.373-2.015-.593a4.98,4.98,0,0,1,2.8-1,.039.039,0,0,0,0-.078,5.2,5.2,0,0,0-3.014,1.006,30.681,30.681,0,0,1-8.44-4.373c-.035-.025-.08.035-.046.061a30.91,30.91,0,0,0,8.24,4.484,5.276,5.276,0,0,0-1.519,6.022,3.461,3.461,0,0,0,.371,3,6.914,6.914,0,0,0,2.146,3.773c.2.176.491-.122.29-.3a6.476,6.476,0,0,1-1.872-2.8,3.237,3.237,0,0,0,2.013.9,3.83,3.83,0,0,0,3.673-1.836,5.685,5.685,0,0,0,3.019-6.966,33.022,33.022,0,0,0,9.288-.521q.567,1.465,1.128,2.933a6.129,6.129,0,0,0-1.275,3.188c-.281,3.2,2.314,5.494,5.373,5.621,3.083.129,5.94-1.926,6.048-5.155.1-2.953-2.422-6.952-5.77-6.529a.657.657,0,0,0-.581.635,5.591,5.591,0,0,0-3.546,1.916q-.609-1.32-1.212-2.644a33.608,33.608,0,0,0,7.306-2.365,11.04,11.04,0,0,0,1.469-.877c.507-.2,1.017-.389,1.516-.611.231-.1.183-.332.035-.471.464-.328.934-.644,1.405-.939a11.974,11.974,0,0,0,6.346,2.1,33.941,33.941,0,0,1-7.994.658c-.05,0-.048.075,0,.078a33.886,33.886,0,0,0,8.775-.719,19.855,19.855,0,0,0,11.12-4,.437.437,0,0,0,.126-.578,34.906,34.906,0,0,0,5.53-4.309,9.815,9.815,0,0,0,4.905,7.722c2.674,1.409,6.335.672,6.943-2.634a.429.429,0,0,0-.83-.219c-.612,2.4-2.55,2.943-4.494,2.554a2.848,2.848,0,0,0,.635-.108,2.682,2.682,0,0,0,1.5-1.207,5.492,5.492,0,0,0,3.378-4.591c.346-4.027-2.617-6.73-6.1-7.294a.127.127,0,0,0-.14-.116l-.495.04c-.121-.01-.241-.022-.362-.028a33.906,33.906,0,0,0,2.649-4.8,1.948,1.948,0,0,0,1.508-3.011q.877-.189,1.751-.406c2.425.671,5.149.025,6.27-2.268a2.869,2.869,0,0,0,1.656-2.318c.236-3.9-4.575-4.081-7.23-3.8-.105.011-.108.173,0,.168.308-.015.618-.028.927-.037a2.968,2.968,0,0,0-1.645,1.063c-.287.381.1,1.07.575.727a3,3,0,0,1,3.758.05,2.16,2.16,0,0,1-.45,1.025l-2.7.9a.436.436,0,0,0-.3.412,2.975,2.975,0,0,1-.37-.047c-.068-.021-.09.079-.028.1a3.54,3.54,0,0,0,.439.1.4.4,0,0,0,.27.272,3.323,3.323,0,0,0,3.885-1.807,3.147,3.147,0,0,1,.155,2.038,4.411,4.411,0,0,1-.4,1.038,33.693,33.693,0,0,1-5.587,1.779,6.673,6.673,0,0,1-1.617-.719c-.043-.028-.1.039-.054.072a6.3,6.3,0,0,0,1.171.754c-.421.094-.841.19-1.262.273a.393.393,0,0,0-.165.654l-.844,2.39c-.265.039-.283.389-.125.55a34.262,34.262,0,0,1-2.694,4.84,8.4,8.4,0,0,0-1.958.258c-.089.008-.179.014-.266.022l.27-.1a.038.038,0,0,0-.022-.073l-.978.247a.094.094,0,0,0,.028.183c.107,0,.213-.011.32-.015a.327.327,0,0,0,.351.5,9.99,9.99,0,0,1,1.653-.179q-.788,1.106-1.659,2.142a14.959,14.959,0,0,1-.287-1.48c-.01-.086-.143-.089-.137,0a17.4,17.4,0,0,0,.194,1.746q-.914,1.066-1.908,2.052c-.025-.283-.082-.558-.084-.847a.031.031,0,0,0-.062,0c0,.316.021.633.043.951A35.027,35.027,0,0,1,491,567.753a.386.386,0,0,0-.327.057c-.154.1-.308.173-.461.265a11.72,11.72,0,0,0,2.322-4.508.4.4,0,0,0-.069-.359c.848-.662,1.686-1.34,2.508-2.042.357-.3-.175-.833-.527-.514-1.512,1.373-3.09,2.654-4.7,3.885a11.957,11.957,0,0,0,1.537-3.187c.107-.341-.42-.472-.533-.14a13.263,13.263,0,0,1-2.665,4.561q-2.4,1.742-4.915,3.348c-.012.008,0,.019-.007.03-.36.136-.733.247-1.11.349a15.087,15.087,0,0,1-2.315-.664,73.517,73.517,0,0,0,8.591-5.741l.355-.229a.152.152,0,0,0,.06-.087,57.059,57.059,0,0,0,6.6-6.1.415.415,0,0,0,.033-.528c.071-.068.15-.127.22-.2.351-.345-.175-.831-.538-.525a145.512,145.512,0,0,1-16.619,12.513.1.1,0,0,0,.1.17,85.284,85.284,0,0,0,10.9-6.959q-2.3,2.078-4.743,3.961l-5.346,3.568a24.475,24.475,0,0,1-3.754-1.919c7.805-5.893,15.68-11.71,23.359-17.764a.412.412,0,0,0,.086-.547c.15-.125.3-.242.454-.367-.046.208.242.407.4.218a32.974,32.974,0,0,0,2.2-2.953,21.008,21.008,0,0,1-1.165,2.912,15.641,15.641,0,0,1-7.3,6.343c-.047.021-.011.1.037.083a15.39,15.39,0,0,0,9.242-10.653,29.169,29.169,0,0,0,4.04-18.455c.482-.348.966-.694,1.448-1.043.247-.177,0-.587-.244-.407-.416.3-.83.608-1.246.91v-.018a19.829,19.829,0,0,0-.642-3.012c.5-.381,1.018-.751,1.523-1.134.262-.2.01-.643-.269-.446-.475.337-.942.685-1.417,1.021-.948-3.115-1.969-5.285.319-8.8a53.048,53.048,0,0,1,8.008-9.138c.928,2.246,2.128,4.379,2.9,6.7a41.484,41.484,0,0,1,1.736,9.889.215.215,0,0,0,.359.151,112.852,112.852,0,0,1,.456,11.837q-.1,2.492-.254,4.984a51.2,51.2,0,0,0-1.854-6.719c-.111-.315-.61-.176-.5.144a51.869,51.869,0,0,1,2.195,9.18q-.22,2.97-.525,5.94c-.019.2.287.191.306,0,.156-1.569.28-3.138.4-4.708a50.834,50.834,0,0,1,.352,6.893c-.238,2.669-.5,5.339-.75,8.016a50.83,50.83,0,0,1-12.58,25.58,63.332,63.332,0,0,1-38.793,17.427c-6.747-.941-13.447-2.435-20.022-3.916-7.585-1.707-15.033-4.052-21.65-7.945-.473-.341-.951-.667-1.417-1.023a.127.127,0,0,0-.2.062,43.408,43.408,0,0,1-6.349-4.926c-.006-.007-.012,0-.019,0q-.727-.933-1.4-1.92Q422.638,575.292,428.357,571.309ZM446.492,582.7c-.053.033-.1.071-.156.1-.152-.011-.306-.028-.461-.054a3.516,3.516,0,0,0,.087-1.314,1.586,1.586,0,0,0,1.386.378c-.021.043-.06.075-.083.115a4.551,4.551,0,0,1-.517.154C446.4,582.141,446.363,582.451,446.492,582.7Zm.546-3.076a.638.638,0,0,0,.017.333A.373.373,0,0,1,447.038,579.62Zm-1.411-.848a2.092,2.092,0,0,0-.334,1.1c-.042-.054-.091-.1-.137-.151a8.907,8.907,0,0,0,.033-3.935,6.787,6.787,0,0,1,.768-.574,31.933,31.933,0,0,0,4.611.91c.01.036.013.072.021.108a.7.7,0,0,0-.83.231,2.218,2.218,0,0,1-.793.637.8.8,0,0,0-.628.067,2.373,2.373,0,0,0-.3.24.9.9,0,0,0-.568.227A3.121,3.121,0,0,0,445.627,578.772Zm-1.573-3.82a.148.148,0,0,0-.247.005l-.022.04a.85.85,0,0,0-.568.474,10.477,10.477,0,0,0-.83,3.014c-.085.4-.129.8-.176,1.21a4.941,4.941,0,0,1,1.571-5.167q.948.337,1.912.612a6.521,6.521,0,0,0-.583.425A1.087,1.087,0,0,0,444.054,574.952Zm6.666,2.379a4.734,4.734,0,0,1-1.01,2.924q-.033-.987-.068-1.973A3.51,3.51,0,0,0,450.72,577.331Zm13.2,2.282c-.163.425-.267.866-.395,1.3-.355-.77-.7-1.545-1.057-2.315a5.581,5.581,0,0,1,3.069-1.963.805.805,0,0,0-.425.373A7.438,7.438,0,0,0,463.92,579.613Zm.691,6.54a5.3,5.3,0,0,1-1.258-.572.723.723,0,0,0,.4-.026A2.969,2.969,0,0,0,464.611,586.154Zm-1.327-4.449c-.018.078-.051.152-.069.23a4.991,4.991,0,0,0-.284,1.627,14.155,14.155,0,0,0-.129,1.416.574.574,0,0,0,.079.288,4.075,4.075,0,0,1-1.6-2.987,5.306,5.306,0,0,1,.938-3.31C462.565,579.884,462.932,580.791,463.284,581.7Zm3.357-4.585c2.317.769,4.212,2.281,4.261,5a4.3,4.3,0,0,1-4.24,4.248,1.29,1.29,0,0,0,1.036-.944,5.413,5.413,0,0,0,2.184-3.471l.349-.327a.526.526,0,0,0-.1-.874.694.694,0,0,0-1.275-.489c-.388.629-.779,1.255-1.157,1.89a.652.652,0,0,0,.373.966,2.692,2.692,0,0,1-.752.851,4.26,4.26,0,0,0-.772-1.462,6.284,6.284,0,0,1,.08-4.631A.854.854,0,0,0,466.641,577.119Zm-.03,9.249c-.073,0-.146.022-.22.024-.151,0-.3-.017-.452-.025l-.012-.028c.069-.022.136-.047.211-.066A.965.965,0,0,0,466.611,586.368Zm-.872-9.788c.06-.011.116-.036.176-.046,0,.017.015.029.018.044A.828.828,0,0,0,465.739,576.58Zm22.748-10.509q1.511-1.006,2.964-2.1a9.8,9.8,0,0,1-4.366,5.427,11.1,11.1,0,0,1-4.585.179A12.608,12.608,0,0,0,488.487,566.072Zm-4.639,2.788c.707-.378,1.406-.766,2.094-1.174A12.518,12.518,0,0,1,483.848,568.86Zm21.678-3.84a.665.665,0,0,0-.781.279,11.956,11.956,0,0,0-2.3-1.71.785.785,0,0,0-.716-.032,18.7,18.7,0,0,0-1.208-2.781.741.741,0,0,0-.727-.388c.461-.571.894-1.165,1.318-1.767a8.319,8.319,0,0,1,4.18,1.125.652.652,0,0,0-.125.43C505.246,561.794,505.382,563.407,505.526,565.02Zm-1.535,2.042c-.413.071-.66-.208-.72-.877A1.922,1.922,0,0,1,503.991,567.063Zm-3.483,1.959c-.128-.09-.256-.168-.38-.273-.06-.05-.144.035-.086.087a5.333,5.333,0,0,0,.647.51,4.242,4.242,0,0,0,.991,1.2,7.455,7.455,0,0,1-1.927-1.26,9.307,9.307,0,0,1-2.86-5.753q1.014-.979,1.945-2.04c.05.281.093.563.151.841A18.907,18.907,0,0,0,500.507,569.022Zm6.162-8.159a5.79,5.79,0,0,1,1.444,2.967,5.259,5.259,0,0,1-2.4,5.361,3.315,3.315,0,0,0,.175-.507,2.053,2.053,0,0,0,.775-1.293.784.784,0,0,0,.653-.79C507.126,564.685,506.927,562.771,506.669,560.863Zm2.016-11.6c.928-.259,1.847-.55,2.748-.888A4.379,4.379,0,0,1,508.685,549.263Zm3.465-7.653c.123.038.249.057.37.1.817.315,2.213,1.183,2.274,2.231-.14.352-.279.7-.419,1.053A3.847,3.847,0,0,0,512.151,541.61Zm-83.286,47.179a77.832,77.832,0,0,0,15.748,5.969,35.541,35.541,0,0,1-6.2-.844A64.112,64.112,0,0,1,428.865,588.789Zm3.96,3.364a35.533,35.533,0,0,1-14.237-10.607,44.322,44.322,0,0,0,6.956,5.329A63.87,63.87,0,0,0,432.825,592.153Zm14.039,3.217c5.1,1.327,10.348,2.634,15.651,3.632a62.027,62.027,0,0,1-21.5-4.038A36.075,36.075,0,0,0,446.864,595.371Zm-19.855,7.739a83.1,83.1,0,0,1-16.946-15.778c-.043-.054-.116.024-.075.076a82.986,82.986,0,0,0,15.254,14.807,81.9,81.9,0,0,1-14.1-12.888c-.032-.037-.085.018-.053.055a82.364,82.364,0,0,0,13.335,12.494,68.269,68.269,0,0,1-14.455-9.482q-2.469-2.746-4.864-5.6c2.019-1.286,4.009-2.6,6.009-3.909a60.529,60.529,0,0,0,23.736,23.355C432.192,605.3,429.566,604.269,427.01,603.109Zm87.261,3.914c-1.643.949-3.323,1.834-5.026,2.67q1.241-.759,2.451-1.577,2.174-1.208,4.27-2.545C515.4,606.06,514.847,606.551,514.271,607.024Zm2.861-1.743c-.586.371-1.165.755-1.761,1.111.75-.612,1.5-1.225,2.229-1.864.389-.261.77-.535,1.156-.8C518.224,604.254,517.681,604.769,517.132,605.281Zm4.243-4.293-.036.029c.044-.044.086-.091.132-.136C521.437,600.916,521.407,600.953,521.375,600.988Zm-1.962,1.419c-.635.456-1.261.924-1.908,1.361,1.437-1.187,2.845-2.415,4.2-3.7C520.958,600.859,520.2,601.644,519.413,602.407Zm-8.456-.053c-13.323,9.656-28.324,12.317-43.834,11.025a.231.231,0,0,0-.249-.222c-.63.035-1.258.018-1.887.032-3.579-.38-7.182-.955-10.8-1.7a155.771,155.771,0,0,1-16.723-4.352,60.8,60.8,0,0,1-26.226-24.326c1.814-1.182,3.639-2.351,5.44-3.55a35.126,35.126,0,0,0,18.741,14.409,60.984,60.984,0,0,0,39.417,6.946,66.6,66.6,0,0,0,10.531-.111c.563-.053.564-.931-.011-.888-2.084.153-4.171.169-6.256.133a59.619,59.619,0,0,0,13.5-4.981,91.214,91.214,0,0,0,14.447-6.447c.32-.177.028-.662-.291-.486a96.01,96.01,0,0,1-10.97,5.178,60.3,60.3,0,0,0,21.425-21.864c.479-.831-.757-1.5-1.279-.727a66.821,66.821,0,0,1-5.112,6.634,50.7,50.7,0,0,0,8.01-16.472l-.008.094c-.1,1.275,1.972,1.52,2.232.276,2.055-9.852,1.359-20.176.012-30.074-.026-.19-.312-.2-.308,0,.089,3.885-.064,7.728-.324,11.556-.139-1.444-.326-2.889-.593-4.336a209.024,209.024,0,0,0-1.157-38.624q1.112-1.066,2.184-2.148a1.789,1.789,0,0,1,.977.308,13.232,13.232,0,0,1,3.132,3.744c2.151,6.352,4.979,12.372,7.629,18.379a63.92,63.92,0,0,0-13.181-19.155c-.1-.1-.247.055-.15.154a63.914,63.914,0,0,1,14.433,22.848,16.825,16.825,0,0,0-7.751-5.515c-.32-.108-.446.393-.133.5a17.043,17.043,0,0,1,8.5,6.767,63.722,63.722,0,0,1,2.091,8.024,76.167,76.167,0,0,1-7.053,44.526c-.119.238.238.443.36.205a77.547,77.547,0,0,0,8.222-34.449.226.226,0,0,0,.166-.233c-.031-.8-.086-1.587-.146-2.376a78.351,78.351,0,0,0-.96-10.344,63.873,63.873,0,0,1,2.425,9.073c.284,1.757.495,3.493.646,5.148.082.888.122,1.779.172,2.67a43.937,43.937,0,0,1-.49,7.378A73.478,73.478,0,0,1,510.956,602.354Zm-25.48-15.81c.316.118.441-.384.133-.5a10.827,10.827,0,0,1-6.621-13.086.061.061,0,0,0-.118-.032A11.262,11.262,0,0,0,485.476,586.544Zm21.72-64.968a.468.468,0,0,0,.482.8,2.734,2.734,0,0,1,2.135-.043,1.837,1.837,0,0,0-1.577.428.721.721,0,0,0-.026.924c-.1-.007-.2-.006-.3-.013a.069.069,0,0,0-.017.136c1.185.256,2.421.6,3.58.975-.223,1.787-2.529,2.712-4.065,2.026-.043-.021-.1.037-.054.072,1.833,1.451,4.828-.032,5-2.314A3.448,3.448,0,0,0,507.2,521.577ZM480.87,535.185a168.473,168.473,0,0,0,19.4-16.367c.233-.229-.132-.585-.362-.353a176.369,176.369,0,0,1-19.1,16.615C480.744,535.125,480.805,535.231,480.87,535.185Zm1.219,46.073a19.236,19.236,0,0,0-1.908-2.069c-.043-.039-.107.025-.064.065a29.964,29.964,0,0,1,2.128,2.5c.06.176.119.338.175.47a1.033,1.033,0,0,0,.737.585,6.409,6.409,0,0,0,2.708,1.9c.2.205.369.43.574.629.241.234.608-.143.364-.373-.019-.018-.035-.037-.053-.055a.754.754,0,0,0,.19-.055,3.679,3.679,0,0,0,1.3-.3,2.31,2.31,0,0,0,1.4-3.338c.123-.053.244-.094.367-.157.545-.272.143-1.226-.431-.989-.151.062-.306.1-.46.154a9.1,9.1,0,0,0-1.808-2.006c-.384-.31-.923.248-.536.549a10.506,10.506,0,0,1,1.815,1.636,5.193,5.193,0,0,1-3.482-.151.734.734,0,0,0-.154-.036c.177-1.219.948-2.393.467-3.626a2.058,2.058,0,0,0-1.75-1.332c-.014-.064-.026-.129-.04-.194a.092.092,0,0,0-.18.026l.017.157c-.038,0-.071-.011-.108-.006-1.377.215-1.776,1.563-1.749,3.054a28.156,28.156,0,0,1-2.037-4.316c-.04-.111-.213-.062-.176.051a28.3,28.3,0,0,0,2.264,5.027A12.875,12.875,0,0,0,482.09,581.258Zm7.045.165a2.009,2.009,0,0,1-1.779,2.843c.007-.037.033-.064.035-.1a4.172,4.172,0,0,0-.586-2.382A6.825,6.825,0,0,0,489.134,581.423Zm-5.238,1.045c.421.54.885,1.052,1.35,1.563a3.018,3.018,0,0,1-.335-.161,7.229,7.229,0,0,1-1.426-1.093A.655.655,0,0,0,483.9,582.468Z" transform="translate(-128.559 4140.759)" fill="url(#linear-gradient)"/>
    <path id="Path_73" data-name="Path 73" d="M651.391,490.965a116.106,116.106,0,0,1-3.858,15.725,26.2,26.2,0,0,0-4.721-12.5c-.256-.372-.872-.028-.617.352a25.443,25.443,0,0,1,4.591,14.438c-.139.4-.291.8-.433,1.2-6.089-16.847-12.441-33.989-22.766-48.773-1.841-3.091-3.706-6.089-5.535-8.96-.2-.319-.715-.028-.511.293.726,1.133,1.456,2.293,2.189,3.463-7.871-9.912-18.892-19.764-31.683-19.582-15.627-12.447-30.685-25.392-39.695-43.854-.139-.283-.55-.041-.422.243,4.639,10.295,11.141,18.953,18.588,26.807-2.1-1.882-4.167-3.811-6.149-5.854a156.085,156.085,0,0,1-20.755-26.77c-.843-2.213-1.635-4.443-2.33-6.7-.039-.124-.235-.074-.2.05.593,1.921,1.258,3.819,1.958,5.7a166.491,166.491,0,0,1-12.919-26.105c-.031-.085-.17-.052-.137.035a166.592,166.592,0,0,0,13.736,27.859q.506,1.292,1.043,2.57c-6.36-10.675-12.13-21.773-19.421-31.8a.6.6,0,0,0,.368-.843c-.863-1.769-2.072-4.082-3.55-6.6a101.46,101.46,0,0,1,12.627,14.616c.043.072.091.143.133.215.015.026.039.028.057.043.148.209.311.407.459.619.052.074.176,0,.122-.07-.12-.178-.257-.343-.38-.519a.187.187,0,0,0,.094-.272c-5.041-8.593-12.108-18.121-20.523-25.3a34.528,34.528,0,0,0-7.693-7.006,26.849,26.849,0,0,1,6.308,3.617c.124.094.248-.117.124-.211a26.838,26.838,0,0,0-7.486-4.021,15.207,15.207,0,0,0-3.185-1.317c1.352-1.607,2.732-3.187,4.167-4.711.267-.283-.15-.713-.428-.432-1.582,1.6-3.1,3.246-4.578,4.934a10.676,10.676,0,0,0-2.911-.185,4.9,4.9,0,0,0-3.172.3c-.707.037-1.417.083-2.132.176-.091.013-.054.15.035.139.576-.072,1.145-.1,1.717-.135a9.336,9.336,0,0,0-2.441,2,23.015,23.015,0,0,0-3.991,5.319c-.272.363-.544.715-.819,1.039l-12.647,14.9c-.985-.2-1.971-.4-2.971-.552-.089-.015-.13.122-.039.135.974.156,1.933.356,2.893.554L462.6,365.722c-.067.08.046.194.115.117l9.039-10.56c.519.111,1.035.226,1.55.348-.454.6-.9,1.215-1.361,1.811-.25.289-.474.587-.73.874a117.737,117.737,0,0,1-11.9,11.6,1.648,1.648,0,0,0-.552.272q-7.711,5.9-15.862,11.025a26.12,26.12,0,0,0-6.66,2.389,1.652,1.652,0,0,0-.759,2.089q-8.434,4.864-17.317,9.008c-1.8.837-.717,3.209.87,3.4a58.5,58.5,0,0,1,39.178,21.683c.228.283.724-.087.511-.389a59.367,59.367,0,0,0-32.683-23.327,134,134,0,0,0,11.715-6.71c20.2-1.206,29.907,17.393,36.748,33.842.043.1.228.03.185-.076-5.723-14.456-16.1-36.22-34.344-35.459q.367-.247.73-.5l.015-.007c18.588,1.717,31.2,12.691,42.226,27.1,6.176,16.088,13.547,32.366,26.538,43.869a57.028,57.028,0,0,0,8.412,6.156l.811,1.189c.144.213.493.024.352-.2-.1-.167-.2-.335-.307-.5,12.7,7.367,27.6,9.915,42.261,11.606.454.052.461-.656.013-.711-15.049-1.841-30.207-4.406-43.052-12.162-4.43-7.134-8.723-14.415-13.012-21.72a156.561,156.561,0,0,0-7.737-21.008c13.592,23.87,36.761,44.184,64.309,47.856.324.043.328-.463.009-.507-28.114-3.921-51.593-24.6-65.122-49.067q-1.911-4.1-4.045-8.095c-.2-.454-.435-.9-.632-1.357-.02-.048-.091-.007-.07.039.031.074.068.144.1.219a168.41,168.41,0,0,0-17.786-26.311,53.452,53.452,0,0,1,14.769,13.828.288.288,0,0,0,.206.118,135.856,135.856,0,0,1,10.921,20.3c.059.132.25.019.194-.111-7.321-17.04-18.557-40.48-39.465-41.858,1.6-1.172,3.163-2.4,4.676-3.693a102.637,102.637,0,0,0,13.73-14.747c.685.235,1.363.489,2.039.746a107.509,107.509,0,0,1,24.41,24.666c6.615,13.138,10.826,27.368,18.269,40.4l.006.009c.241,1.031.5,2.061.711,3.1.046.23.4.139.354-.091-.139-.678-.311-1.35-.463-2.026,10.267,17.184,26.566,24.829,41.819,36.9.12.094.294-.069.172-.17-16.4-13.915-32.6-23.09-42.587-42.5a78.864,78.864,0,0,0,9.556,11.588,56.89,56.89,0,0,0,10.558,11.571c13.434,10.912,30.729,16.014,43.415,27.959A71.646,71.646,0,0,1,602.622,490.5l-.015-.019c-.076-.091-.2.037-.13.128.2.257.391.524.593.781.5,1.052.985,2.117,1.458,3.187a112.586,112.586,0,0,0-27.637-29.294c-.293-.217-.687.28-.4.507A107.166,107.166,0,0,1,611.5,513.977c1.033,3.393,2.009,6.786,2.967,10.136a.274.274,0,0,0,.257.2,126.149,126.149,0,0,1,3.795,23.164c-.067.593-.115,1.183-.193,1.776a.374.374,0,0,0,.33.4c.037.678.1,1.346.128,2.028,0,.059.03.1.037.156-.65.563-1.291,1.139-1.952,1.689,1.08-22.731-10.371-46.652-24.425-63.329-.17-.2-.444.083-.287.285,15.751,20.182,18.306,40.615,17.847,64.116-1.222.774-2.445,1.548-3.687,2.271.087-.874.1-1.748.154-2.624a.266.266,0,0,0,.126-.313c-.03-.1-.061-.209-.091-.313a61.7,61.7,0,0,0-.093-7.45q.6,3.931.884,7.863c.031.426.7.445.67.013-2.471-40.817-32.72-83.091-74.924-89.24-.067-.009-.085.109-.017.118a74.224,74.224,0,0,1,19.149,5.678A55.031,55.031,0,0,0,533.7,466.96c-.026,0-.026.039,0,.041a54.446,54.446,0,0,1,22.488,5.554c.1.052.194.106.293.157.815.409,1.613.844,2.4,1.293.539.307,1.065.635,1.6.954,18.486,11.339,29.776,33.137,37.661,54.793a124.884,124.884,0,0,1,1.926,30.477c-1.344.672-2.689,1.343-4.056,1.958-1.774-35.413-26.257-66.244-59.738-78.571-.257-.094-.446.331-.191.443,33.946,14.882,52.334,45.032,54.388,80.432-2.854,1.1-5.767,2.039-8.713,2.895-2.641-17.262-9.136-34.154-20.344-47.513-18.919-22.553-50.675-28.946-66.905-54.34-.111-.174-.389-.02-.282.161,11.7,19.716,32.209,28.581,49.875,41.882,20.56,15.48,29.494,37.065,33.7,60.9-2.543.637-5.124,1.167-7.732,1.628a30.711,30.711,0,0,1-1.932-5.378c-1.148-3.967-2.387-7.8-3.765-11.538,2.054,4.737,3.941,9.614,5.717,14.619.081.232.454.139.372-.1a182.823,182.823,0,0,0-9.76-23.329,83.31,83.31,0,0,0-9.737-15.94c-1.171-1.6-2.384-3.172-3.654-4.708a.772.772,0,0,0,.291-.072,32.55,32.55,0,0,1,4.115,5.395c.137.222.489.022.354-.2a33.852,33.852,0,0,0-4.119-5.485.769.769,0,0,0-.23-1.195c-.774-.413-1.528-.855-2.3-1.278-.765-.683-1.55-1.341-2.365-1.965a91.933,91.933,0,0,0-13.723-11.9c-.054-.039-.1.048-.052.087A91.052,91.052,0,0,1,542.1,518.244c-.77-.559-1.554-1.1-2.361-1.619A70.041,70.041,0,0,0,519.945,504.4a205.991,205.991,0,0,1-34.207-32.563,190.522,190.522,0,0,1-12.478-25.457,75.007,75.007,0,0,0-4.093-10.451c-1.724-4.574-3.378-9.158-5.015-13.7-.026-.074-.144-.044-.117.03,1.432,4.035,2.878,8.091,4.371,12.143a62.6,62.6,0,0,0-4.135-6.934,50.649,50.649,0,0,0-12.771-13.1,29.579,29.579,0,0,0-5.46-2.839,37.388,37.388,0,0,0-15.377-8.5,14.346,14.346,0,0,1-1.641-2.545c-.041-.083-.161-.013-.122.07a15.676,15.676,0,0,0,1.419,2.371,32.565,32.565,0,0,0-3.246-.624c-1.708-.239-2.043,2.5-.441,2.945,16.708,4.619,27.068,16.242,37.237,29.6.137.183.443-.05.32-.243-4.761-7.382-10.036-15.4-16.606-21.659a41.2,41.2,0,0,1,12.462,9.9c8.236,9.652,12.658,21.427,15.125,33.657a148.484,148.484,0,0,1-6.961-16.764c-.285-1.25-.6-2.491-.846-3.756-.039-.207-.343-.122-.313.082a102.82,102.82,0,0,0,3.146,14.4c-1.848-2.909-3.654-5.854-5.363-8.869a.162.162,0,0,0-.282.161c1.974,3.624,4.071,7.158,6.239,10.634a95.6,95.6,0,0,0,6.067,14.74c.2,1.624.376,3.25.526,4.871.028.294.491.307.467.007-.1-1.2-.213-2.409-.337-3.615a102.833,102.833,0,0,0,30.979,34.941c13.036,9.458,26.9,17.721,37.493,30.1,11.03,12.886,17.34,27.9,21.381,44.076l-.876.43c-2.258,1.109-1.344,5.189,1.267,4.948a71.779,71.779,0,0,0,11.817-2.139c.074.639.157,1.272.226,1.913.22,2.065,3.382,2.254,3.326.061-.024-.983-.074-1.969-.122-2.956a72.818,72.818,0,0,0,8.382-3.234,2.638,2.638,0,0,0,4.315-1.763c.013-.141.018-.278.033-.417a77.164,77.164,0,0,0,13.973-9.791c.057,3,4.68,3.659,5.463.644a55.522,55.522,0,0,0,1.333-7.352c1.463-1.624,2.878-3.295,4.213-5.039a1.122,1.122,0,0,0,.607-.8c.73-.978,1.433-1.978,2.122-2.991q2.253-2.156,4.369-4.354c-.059.843-.109,1.674-.17,2.524-.063.872,1.219,1.008,1.472.22a49.4,49.4,0,0,0,1.443-5.673l.074-.078c1.628-1.791,3.259-3.659,4.834-5.593a49.553,49.553,0,0,1-3.859,5.9c-.032.041.037.082.068.041a48.873,48.873,0,0,0,4.221-6.473c1.241-1.545,2.441-3.13,3.571-4.752-.283,1.9-.622,3.791-1.063,5.674-.13.557.711.8.859.244a67.731,67.731,0,0,0,1.572-7.96c.895-1.387,1.728-2.8,2.485-4.228a1.353,1.353,0,0,0,1.378-1.543c-.022-.361-.067-.713-.094-1.072a31.043,31.043,0,0,0,3.041-13.371,112.882,112.882,0,0,0,4.371-17.39C652.083,490.735,651.461,490.552,651.391,490.965Zm-225.5-94.951c-.372-.106-.731-.237-1.107-.335.08-.122.157-.248.239-.369,3.515-1.809,6.961-3.721,10.362-5.7.152-.063.3-.128.454-.189.043,0,.063.039.109.035.5-.059.967-.048,1.456-.081Q431.848,392.96,425.887,396.014Zm14.082-8.345-.041,0,.115-.05Zm-1.537.148-.13.015c.42-.254.843-.507,1.261-.763.154.009.311.015.467.026C439.5,387.338,438.965,387.58,438.432,387.817ZM569.259,570.247l-.32.056c-.124-.5-.258-.991-.389-1.485C568.768,569.326,569.013,569.789,569.259,570.247Zm-22.333-46.582.015.017-.017-.017Zm-3.919-4.113-.23-.128c-.083-.081-.17-.159-.256-.241C542.685,519.3,542.846,519.428,543.007,519.552Zm-1.961-1.1c-2.8-1.628-5.545-3.337-8.26-5.084a77.773,77.773,0,0,1,6.908,3.878C540.144,517.646,540.6,518.039,541.046,518.45ZM537.057,515q-2.606-1.486-5.384-2.817c-.913-.439-1.811-.874-2.711-1.311-2.819-1.9-5.569-3.891-8.284-5.923A70.186,70.186,0,0,1,537.057,515Zm-63.151-66.448a190.908,190.908,0,0,0,10.332,21.418q-3.317-4.081-6.435-8.339c-.556-1.03-1.119-2.056-1.648-3.1A102.218,102.218,0,0,0,473.906,448.554Zm2.363,10.639c.22.437.456.863.681,1.3-.2-.281-.4-.569-.6-.852C476.321,459.489,476.293,459.341,476.269,459.193Zm-.006,3.537c-.978-1.983-1.88-4.006-2.726-6.052.763,1.159,1.522,2.322,2.308,3.463C475.991,461,476.134,461.865,476.263,462.73Zm-3.669-8.519a106.122,106.122,0,0,1-4.176-13.538,149.051,149.051,0,0,0,6.9,16.584c.081.415.167.828.243,1.243C474.562,457.08,473.56,455.661,472.595,454.211Zm19.677,31.635a94.2,94.2,0,0,1-15.26-21.729q-.192-1.447-.411-2.887,1.522,2.183,3.106,4.317a142.474,142.474,0,0,0,20.569,27.727A92.809,92.809,0,0,1,492.272,485.846Zm10.838,9.732a142.689,142.689,0,0,1-22.086-28.253c2.133,2.832,4.35,5.587,6.623,8.295A112.718,112.718,0,0,0,498.394,490a79.188,79.188,0,0,0,11.121,10.362Q506.257,498.042,503.109,495.578Zm-.067-1.4a103.85,103.85,0,0,1-13.39-16.158,199.78,199.78,0,0,0,25.629,24.725c-.787-.241-1.58-.47-2.38-.678A66.589,66.589,0,0,1,503.043,494.182Zm12.512,8.793c1.291,1.037,2.609,2.041,3.926,3.046-2.139-1.182-4.235-2.413-6.276-3.75C513.991,502.5,514.78,502.717,515.554,502.975Zm50.893,59.033c-6.419-18.01-18.49-33.739-33.829-45.467-5.787-4.424-11.878-8.424-17.88-12.528A80.123,80.123,0,0,0,523,508.66a202.365,202.365,0,0,0,22.4,14.171,91.269,91.269,0,0,1,12.045,16.314q.522.925,1.03,1.858c.283.519.569,1.037.843,1.561.285.541.557,1.091.837,1.639a80.508,80.508,0,0,1,4.637,11.373C565.457,557.674,565.933,559.848,566.448,562.007Zm4.734,15.088a2.335,2.335,0,0,0-.885-.444c-.361-2.1-.817-4.176-1.328-6.232l.348-.057c1.921,3.495,4.646,5.422,8.228,5.48C575.45,576.317,573.335,576.753,571.181,577.1Zm7.273-4.778c-.62.122-1.233.257-1.859.367-.052.009-.031.087.02.078.624-.1,1.235-.235,1.852-.352.131.85.248,1.706.369,2.56a7.742,7.742,0,0,1-6.65-2.017,9.3,9.3,0,0,1-2.052-2.726c2.595-.439,5.167-.943,7.706-1.554C578.052,569.884,578.265,571.095,578.454,572.317Zm12.206-1.969c-2,.956-4.023,1.878-6.076,2.717-.665.272-1.333.546-2,.811-.074-.763-.165-1.526-.256-2.291a83.742,83.742,0,0,0,8.334-2.432C590.665,569.55,590.658,569.952,590.66,570.349Zm0-1.382a84.325,84.325,0,0,1-8.347,2.5q-.225-1.922-.519-3.843c2.939-.824,5.85-1.728,8.7-2.793C590.569,566.2,590.632,567.578,590.658,568.967Zm5.395.482.007-.241c1.3-.683,2.58-1.4,3.854-2.15a1.771,1.771,0,0,0,.185.3Q598.11,568.462,596.053,569.449Zm3.724-3.948c-.572.333-1.124.7-1.7,1.022-.643.363-1.311.676-1.959,1.028,0-.178.007-.355.009-.531q1.856-.8,3.659-1.682C599.783,565.391,599.781,565.445,599.777,565.5Zm.026-.446q-1.814.906-3.68,1.726c.007-1.407-.026-2.807-.089-4.2,1.356-.6,2.685-1.256,4.019-1.911C599.986,562.12,599.9,563.583,599.8,565.054Zm-19.258-71.429a76.428,76.428,0,0,0-12.627-13.654,97.829,97.829,0,0,1,25.351,29.1,97.8,97.8,0,0,0-12.315-15.427A.287.287,0,0,0,580.545,493.624Zm2.437,3.478a74.171,74.171,0,0,1,13.934,27.45A146.048,146.048,0,0,0,582.982,497.1Zm26.833,63.838q-2.344,1.817-4.817,3.445c.046-.193.093-.385.137-.578,1.593-1.059,3.154-2.171,4.7-3.306C609.828,560.646,609.82,560.794,609.814,560.941Zm.076-1.985c-1.322.954-2.68,1.859-4.037,2.759l-.263.161c.285-1.5.491-3,.656-4.51,1.265-.733,2.507-1.517,3.746-2.309C609.965,556.348,609.933,557.646,609.89,558.955ZM626.523,466.4c8.56,13.638,14.271,28.818,19.8,43.871-.717,2.006-1.478,3.993-2.3,5.947A96.907,96.907,0,0,0,639.26,496.2c-2.75-10.464-7.654-20.764-13.052-30.289C626.31,466.071,626.423,466.238,626.523,466.4ZM529.772,364.342a100.4,100.4,0,0,0-12.027-13.693c-1.157-1.937-2.467-3.971-3.9-5.969A94.631,94.631,0,0,1,529.772,364.342Zm-18.523-19.279A84.433,84.433,0,0,0,498.1,336.57C502.768,337.094,507.335,340.683,511.248,345.063Zm-22.033-5.178a12.806,12.806,0,0,1,4.063-2.667c-4.374,5.506-8.475,11.236-12.73,16.819-.459-.122-.917-.25-1.383-.354C482.445,348.96,485.338,343.556,489.216,339.885Zm-17.342,15.256q3.792-4.431,7.586-8.862l4.247-4.961c-1.774,2.719-3.545,5.387-5.395,7.989.754-1.126,1.5-2.258,2.228-3.409.139-.22-.209-.426-.35-.206-2.137,3.367-4.406,6.623-6.775,9.788C472.9,355.362,472.389,355.247,471.874,355.142ZM449.7,380.724c.574-.465,1.148-.932,1.717-1.406,1.345-.946,2.661-1.945,3.989-2.922a.689.689,0,0,0,.644,1c.48,0,.922.061,1.391.078l-.08.054c-1.015-.059-2.037-.085-3.069-.048-.078,0-.081.122,0,.122.937,0,1.863.043,2.783.115q-2.509,1.7-5.126,3.237C451.207,380.841,450.457,380.772,449.7,380.724Zm58.829,74.285c-.474-2.465-1.033-4.91-1.632-7.343q5.222,7.6,10.415,15.223a56.26,56.26,0,0,1-8.53-6.595c-11.951-11.241-19.066-26.37-25.073-41.528q1.236,1.631,2.45,3.313c6.7,9.295,13.245,18.694,19.738,28.129.78,2.952,1.5,5.928,2.122,8.932C508.091,455.474,508.6,455.341,508.532,455.01Zm-4.563-15.543c-5.163-8.782-10.375-17.547-15.869-26.075a73,73,0,0,0-10.741-15.63c-6.211-8.006-14.921-14.84-24.472-16.636q2.678-1.561,5.25-3.287a38.843,38.843,0,0,1,15.729,5.4A166.3,166.3,0,0,1,503.968,439.466Zm-20.118-49.03a49.687,49.687,0,0,0-10.332-7.921c-.046-.056-.089-.113-.135-.167s-.094-.024-.124.022a37.248,37.248,0,0,0-14.814-4.748l.122-.085C469.22,378.233,477.369,383.278,483.851,390.436Zm-15.64-21.87a72.788,72.788,0,0,1-8.4,7.213,30.993,30.993,0,0,0-3.728.117l-.006,0c1.6-1.191,3.222-2.348,4.8-3.583a1.182,1.182,0,0,0,.506-1.08,99.711,99.711,0,0,0,14.84-13.708c.257-.293.5-.615.746-.92.428.128.848.274,1.272.411A131.323,131.323,0,0,1,468.211,368.566Zm10.152-11.712c-.424-.135-.844-.278-1.272-.4.622-.772,1.226-1.57,1.813-2.4.446.13.874.28,1.309.422Q479.3,355.669,478.363,356.855Zm2.721.924c-.178-.128-.348-.265-.526-.391-.042-.03-.083.041-.042.07.1.067.187.141.281.209-.422-.154-.848-.3-1.274-.443q.919-1.175,1.826-2.361A44.949,44.949,0,0,1,501.4,369.283c-.941-.743-1.9-1.459-2.874-2.158-.9-1.1-1.83-2.195-2.813-3.259a.919.919,0,0,0-1.546.324A71.3,71.3,0,0,0,481.084,357.779Zm.646.478a71.281,71.281,0,0,1,12.35,6.217.944.944,0,0,0,.245.761,81.471,81.471,0,0,1,10.884,16.353A108.141,108.141,0,0,0,481.73,358.257Zm41.215,57.712c-.219-.469-.454-.909-.667-1.389-.233-.53-.458-1.061-.687-1.591a113.394,113.394,0,0,0-5.789-14.025c-4.448-10.9-9.125-21.51-16.525-30.887q1.6,1.2,3.15,2.482c12.532,16.127,18.182,39.561,29.729,57.229A84.661,84.661,0,0,1,522.945,415.969Zm67.879,54.982c-13.039-13.79-32.15-18.8-46.443-30.9a54.892,54.892,0,0,1-5.652-5.552,50.97,50.97,0,0,0,15.906,8.691c.337.109.483-.415.15-.526a52.758,52.758,0,0,1-17.868-10.349c-.113-.141-.232-.276-.343-.417,25.7,11.328,51.817,25.577,63.99,51.564-1.159-1.839-2.328-3.672-3.571-5.465-.081-.117-.276-.007-.194.111q2.267,3.272,4.343,6.656.572,1.295,1.1,2.624A71.371,71.371,0,0,0,590.825,470.951Zm13.5,20.7c-.4-1.235-.828-2.441-1.28-3.628,2.369,4.069,4.563,8.225,6.523,12.488q-1.9-3.256-4.13-6.33C605.073,493.337,604.705,492.493,604.322,491.656Zm3.291,7.962q-.817-2.186-1.709-4.335a74.731,74.731,0,0,1,5.336,9.1,140.1,140.1,0,0,1,5.906,16.745c.141.62.27,1.241.394,1.865A104.655,104.655,0,0,0,607.613,499.617Zm20.336,43.022c-.552.657-1.107,1.309-1.676,1.95.613-1.035,1.187-2.094,1.758-3.158C628.006,541.83,627.975,542.238,627.949,542.64Zm2.845-2.254c.03-.174.057-.35.085-.524a101.613,101.613,0,0,0,8.276-12.356A45.122,45.122,0,0,1,637,533.06C635.06,535.612,632.955,538.062,630.793,540.386Zm8.9-11.125q-1.086,1.642-2.274,3.235a45.484,45.484,0,0,0,2.146-5.7c.159-.287.32-.572.478-.861Q639.908,527.6,639.694,529.261Zm1.361-2.159c.139-1.222.237-2.445.309-3.665.035-.069.072-.135.107-.2a1.785,1.785,0,0,0,1.1,1.185C642.1,525.322,641.588,526.215,641.055,527.1Zm-.937-12.114a76.25,76.25,0,0,1,.055,8.658c-.087.4-.17.8-.268,1.195a102.958,102.958,0,0,1-8.85,13.919c1.887-13.538-.917-28.509-5.385-40.782a97.325,97.325,0,0,0-28.131-40.648c-.069-.057-.17.039-.1.1a92.915,92.915,0,0,1,27.09,41.887c4.359,13.9,4.395,27.086,3.565,41.046a77.011,77.011,0,0,1-6.261,8.858c-.106.1-.213.2-.318.294-.052.048-.107.091-.159.137a96.864,96.864,0,0,0-1.7-17.881c-.022-.237-.043-.474-.067-.709.531,2.619.994,5.256,1.372,7.913.026.181.3.109.274-.07-.5-3.508-1.185-6.969-1.952-10.406a76.1,76.1,0,0,0-8.465-25.742,145.911,145.911,0,0,0-8.336-16.18c-11.5-28.257-38.987-43.117-66-54.8-10.789-13.74-15.462-31.457-23.333-47.015a86.206,86.206,0,0,0-5.826-9.847,95.942,95.942,0,0,1,12.227,14.375c.163.233.552.015.387-.222A95.112,95.112,0,0,0,506.3,373.459c-6.26-8.674-14.421-16.042-24.559-19.114,4.409-5.821,8.608-11.851,13.073-17.612a9.728,9.728,0,0,1,2.315-.231,84.237,84.237,0,0,1,15.114,9.706,76.368,76.368,0,0,1,6.656,9.349c-1.865-2.38-3.817-4.7-5.924-6.9-.1-.1-.257.052-.159.157a98,98,0,0,1,7.2,8.621c.226.393.445.774.645,1.135a.551.551,0,0,0,.4.291c7.606,10.467,13.6,22.081,20.321,33.159,8.271,18.931,21.9,35.524,39.6,46.354a.06.06,0,0,0,.061-.1c-17.3-10.61-30.709-26.733-38.991-45.16,4.943,8.047,10.325,15.779,17.1,22.512.056.055.143-.03.087-.085-7.091-7.08-12.638-15.258-17.751-23.747-.406-.937-.817-1.872-1.2-2.822a158.206,158.206,0,0,0,11.563,16.175,148.171,148.171,0,0,0,19.323,19.371c7.908,7.663,16.6,14.671,25.144,21.86C618.287,464.847,634.7,486.974,640.118,514.988Zm-19.832-50.436a107.2,107.2,0,0,0-16.156-15.934c-5.061-4.022-10.295-7.8-15.518-11.571,13.323.152,24.731,11.01,32.817,21.892,6.115,9.958,12.169,21.02,15.958,32.4A95.327,95.327,0,0,0,620.285,464.553Zm24.177,55.755c-.085-.948-.167-1.9-.278-2.835q1.353-3.086,2.513-6.263A31.811,31.811,0,0,1,644.463,520.307Zm-38.28,2.031c-10.523-29.927-34.715-57.468-66.011-66.076a.062.062,0,0,0-.033.119c31.1,8.732,55.1,36.285,65.553,66.083C605.8,522.77,606.292,522.646,606.183,522.339ZM548.81,465.584a.2.2,0,0,0,.1.393A.2.2,0,0,0,548.81,465.584Z" transform="translate(831.376 4083.697)" fill="url(#linear-gradient)"/>
    <circle id="Ellipse_2030" data-name="Ellipse 2030" cx="10.5" cy="10.5" r="10.5" transform="translate(1031 4724.107)" fill="#434343"/>
    <circle id="Ellipse_2033" data-name="Ellipse 2033" cx="10.5" cy="10.5" r="10.5" transform="translate(387 4447.683)" fill="#434343"/>
    <circle id="Ellipse_2036" data-name="Ellipse 2036" cx="7.925" cy="7.925" r="7.925" transform="translate(181.539 4748.5)" fill="#434343"/>
    <circle id="Ellipse_2031" data-name="Ellipse 2031" cx="7" cy="7" r="7" transform="translate(962 4697.107)" fill="#434343"/>
    <circle id="Ellipse_2034" data-name="Ellipse 2034" cx="7" cy="7" r="7" transform="translate(463 4420.683)" fill="#434343"/>
    <circle id="Ellipse_2037" data-name="Ellipse 2037" cx="5.283" cy="5.283" r="5.283" transform="translate(238.902 4728.121)" fill="#434343"/>
    <circle id="Ellipse_2032" data-name="Ellipse 2032" cx="7" cy="7" r="7" transform="translate(976 4758.107)" fill="#434343"/>
    <circle id="Ellipse_2035" data-name="Ellipse 2035" cx="7" cy="7" r="7" transform="translate(449 4481.683)" fill="#434343"/>
    <circle id="Ellipse_2038" data-name="Ellipse 2038" cx="5.283" cy="5.283" r="5.283" transform="translate(228.334 4774.162)" fill="#434343"/>
  </g>
</svg>
