<svg xmlns="http://www.w3.org/2000/svg" xmlns:xlink="http://www.w3.org/1999/xlink" width="414.16" height="326.657" viewBox="0 0 414.16 326.657">
  <defs>
    <filter id="Rectangle_6519" x="0" y="190.792" width="414.16" height="135.865" filterUnits="userSpaceOnUse">
      <feOffset dy="22" input="SourceAlpha"/>
      <feGaussianBlur stdDeviation="22" result="blur"/>
      <feFlood flood-opacity="0.161"/>
      <feComposite operator="in" in2="blur"/>
      <feComposite in="SourceGraphic"/>
    </filter>
    <clipPath id="clip-path">
      <rect id="Rectangle_6518" data-name="Rectangle 6518" width="182.953" height="182.953" transform="translate(0 0)" fill="#f5f5fa"/>
    </clipPath>
    <clipPath id="clip-path-2">
      <rect id="Rectangle_6533" data-name="Rectangle 6533" width="200.042" height="386.747" rx="9.646" fill="none"/>
    </clipPath>
  </defs>
  <g id="Group_67001" data-name="Group 67001" transform="translate(-763.618 -1127.186)">
    <g id="Group_57569" data-name="Group 57569" transform="translate(953.607 1235.185)">
      <path id="Path_199027" data-name="Path 199027" d="M41.81,8.592a19.528,19.528,0,0,0-11.732-.673,19.278,19.278,0,0,0-5.354,2.255,18.513,18.513,0,0,0-4.445,3.808,18.538,18.538,0,0,0-4.361,9.778A19.453,19.453,0,0,0,15.964,29a20.33,20.33,0,0,0,1.42,5.07,38.377,38.377,0,0,1,1.6,5.153,36.861,36.861,0,0,1,.844,5.273,35.66,35.66,0,0,1,.061,5.322,34.952,34.952,0,0,1-.747,5.3l-1.064,4.337,3.373-3A29.67,29.67,0,0,1,25.7,52.99a34.173,34.173,0,0,1,4.744-2.661,41.081,41.081,0,0,1,5.093-1.947,49.925,49.925,0,0,1,5.3-1.321,17.247,17.247,0,0,0,3.8-1.117,18.1,18.1,0,0,0,3.513-1.976,18.68,18.68,0,0,0,3.067-2.77,19.194,19.194,0,0,0,2.466-3.5A18.87,18.87,0,0,0,56,29.38a20.411,20.411,0,0,0-1.455-8.407A21.634,21.634,0,0,0,49.7,13.653,22.462,22.462,0,0,0,41.81,8.592Z" transform="translate(-0.214 -0.534)" fill="#b8b8b8"/>
    </g>
    <path id="Path_1" data-name="Path 1" d="M29.941,0H174.006a29.941,29.941,0,0,1,29.941,29.941V235.191H0V29.941A29.941,29.941,0,0,1,29.941,0Z" transform="translate(868.938 1127.186)" fill="#dd2928"/>
    <rect id="Rectangle_6516" data-name="Rectangle 6516" width="30.922" height="6.442" rx="3.221" transform="translate(957.171 1154.544)" fill="#fff"/>
    <rect id="Rectangle_6517" data-name="Rectangle 6517" width="6.442" height="6.442" rx="3.221" transform="translate(941.71 1154.544)" fill="#fff"/>
    <g transform="matrix(1, 0, 0, 1, 763.62, 1127.19)" filter="url(#Rectangle_6519)">
      <rect id="Rectangle_6519-2" data-name="Rectangle 6519" width="282.16" height="3.865" transform="translate(66 234.79)" fill="#dd2928"/>
    </g>
    <rect id="Rectangle_6534" data-name="Rectangle 6534" width="182.953" height="182.953" transform="translate(879.865 1179.024)" fill="#fff"/>
    <g id="Mask_Group_1" data-name="Mask Group 1" transform="translate(879.865 1179.024)" clip-path="url(#clip-path)">
      <g id="Group_57159" data-name="Group 57159" transform="translate(-7.024 -18.673)">
        <g id="Group_57158" data-name="Group 57158" transform="translate(0 0)" clip-path="url(#clip-path-2)">
          <g id="Group_57157" data-name="Group 57157" transform="translate(-120.642 -125.573)" opacity="0.5">
            <rect id="Rectangle_6520" data-name="Rectangle 6520" width="196.343" height="34.812" transform="matrix(0.584, -0.812, 0.812, 0.584, 119.06, 159.43)" fill="#bad4fb"/>
            <rect id="Rectangle_6521" data-name="Rectangle 6521" width="196.343" height="34.812" transform="translate(0 326.183) rotate(-54.291)" fill="#d5d5ff"/>
            <rect id="Rectangle_6522" data-name="Rectangle 6522" width="196.342" height="24.723" transform="translate(141.621 199.813) rotate(-54.292)" fill="#bad4fb"/>
            <path id="Path_2" data-name="Path 2" d="M85.1,253.895l25.079-34.889L82.2,198.89-32.4,358.318l25.079,18.029L-32.4,411.235-4.416,431.35l114.6-159.429Z" transform="translate(55.661 8.942)" fill="#d5d5ff"/>
            <rect id="Rectangle_6523" data-name="Rectangle 6523" width="92.493" height="41.931" transform="translate(150.736 260.038) rotate(-54.291)" fill="#e6e2e2"/>
            <path id="Path_3" data-name="Path 3" d="M162.4,213.309H281.456V105.991l-75.89-26.457L129.675,188.5Z" transform="translate(85.671 -13.158)" fill="#b5dfcd"/>
            <path id="Path_4" data-name="Path 4" d="M187.458,246.683h65.188V204.3H166.284L112.3,279.4l34.047,24.473Z" transform="translate(82.454 9.944)" fill="#e6e2e2"/>
            <rect id="Rectangle_6524" data-name="Rectangle 6524" width="46.266" height="47.173" transform="matrix(0.584, -0.812, 0.812, 0.584, 147.905, 326.046)" fill="#b5dfcd"/>
            <rect id="Rectangle_6525" data-name="Rectangle 6525" width="134.222" height="43.7" transform="matrix(0.584, -0.812, 0.812, 0.584, 61.339, 445.278)" fill="#e4e4f9"/>
            <rect id="Rectangle_6526" data-name="Rectangle 6526" width="43.699" height="134.222" transform="matrix(0.584, -0.812, 0.812, 0.584, 141.709, 433.98)" fill="#e4e4f9"/>
            <path id="Path_5" data-name="Path 5" d="M95.77,357.351l69.254,51.228,25.51-35.481-69.258-51.233Z" transform="translate(79.393 31.713)" fill="#e4e4f9"/>
            <rect id="Rectangle_6527" data-name="Rectangle 6527" width="75.171" height="47.173" transform="matrix(0.584, -0.812, 0.812, 0.584, 216.084, 351.518)" fill="#e4e4f9"/>
            <path id="Path_6" data-name="Path 6" d="M241.053,310.444V246.308h-55.7L174.91,263.8Z" transform="translate(94.047 17.723)" fill="#e4e4f9"/>
            <rect id="Rectangle_6528" data-name="Rectangle 6528" width="75.171" height="78.626" transform="translate(262.385 384.317) rotate(-54.291)" fill="#e4e4f9"/>
            <rect id="Rectangle_6529" data-name="Rectangle 6529" width="196.342" height="34.811" transform="translate(18.7 603.41) rotate(-54.294)" fill="#e4e4f9"/>
            <rect id="Rectangle_6530" data-name="Rectangle 6530" width="196.343" height="34.811" transform="translate(56.514 630.215) rotate(-54.293)" fill="#e4e4f9"/>
            <rect id="Rectangle_6531" data-name="Rectangle 6531" width="46.267" height="47.173" transform="matrix(0.584, -0.812, 0.812, 0.584, 181.422, 533.788)" fill="#c5e8d9"/>
            <rect id="Rectangle_6532" data-name="Rectangle 6532" width="43.7" height="134.223" transform="translate(261.519 520.593) rotate(-54.292)" fill="#e4e4f9"/>
            <path id="Path_7" data-name="Path 7" d="M161.373,405.066l91.68,63.957,25.51-35.481-91.684-63.962Z" transform="translate(91.541 40.548)" fill="#e4e4f9"/>
          </g>
        </g>
      </g>
    </g>
    <g id="Group_57161" data-name="Group 57161" transform="translate(950.081 1235.235)">
      <path id="Path_199027-2" data-name="Path 199027" d="M93.459.348A20.572,20.572,0,0,0,77.118,16.987a20.455,20.455,0,0,0,7.428,19.907A37.345,37.345,0,0,1,96.43,55.018l1.188,4.457L99.1,55.018c2.08-7.428,6.834-13.667,12.479-18.719a20.368,20.368,0,0,0,6.834-15.45A21,21,0,0,0,93.459.348Zm4.16,32.386A11.885,11.885,0,1,1,109.5,20.85,11.92,11.92,0,0,1,97.619,32.734Z" transform="translate(-76.76 0)" fill="#dd2928"/>
      <path id="Path_199027-3" data-name="Path 199027" d="M109.326,44.429a11.885,11.885,0,1,1,11.885-11.885A11.92,11.92,0,0,1,109.326,44.429Z" transform="translate(-88.467 -11.695)" fill="#fff"/>
    </g>
  </g>
</svg>
