<svg xmlns="http://www.w3.org/2000/svg" xmlns:xlink="http://www.w3.org/1999/xlink" width="1237" height="737" viewBox="0 0 1237 737">
  <defs>
    <clipPath id="clip-path">
      <rect id="Rectangle_14686" data-name="Rectangle 14686" width="1237" height="737" transform="translate(101 3450)" fill="none" stroke="#707070" stroke-width="1"/>
    </clipPath>
  </defs>
  <g id="Mask_Group_256" data-name="Mask Group 256" transform="translate(-101 -3450)" clip-path="url(#clip-path)">
    <g id="Group_66995" data-name="Group 66995" transform="translate(0.179 69.068)">
      <path id="Path_72" data-name="Path 72" d="M248.3,596.524c.219.031.437.044.656.076a.335.335,0,0,1,.413-.139l.02.009a1.358,1.358,0,0,1,1.326-.056c.383.178.765.343,1.148.519a99.777,99.777,0,0,0,29.609-1.152c-.041-.319.294-.641.567-.361.068.07.122.148.191.219a102.751,102.751,0,0,0,11.349-2.93,82.829,82.829,0,0,0-19.786,3.2c-.2.059-.33-.246-.124-.307a80.225,80.225,0,0,1,21.188-3.295l.05-.017c-.311-.415.176-1.026.635-.663.272.215.526.456.791.682a77.267,77.267,0,0,1,12.064.922c-1.315-.507-2.63-1.02-3.922-1.591a.575.575,0,0,1,.461-1.054c1.022.4,2.043.767,3.065,1.144a37.24,37.24,0,0,1-3.339-8.636,45.471,45.471,0,0,1-1.248-11.3c-1.77-4.789-3.121-10.21-1.583-13.614a70.23,70.23,0,0,1,.882-12.9c-.063-.033-.132-.059-.2-.092a.8.8,0,0,1,.472-1.5,69.638,69.638,0,0,1,2.937-10.854c.587-7.047,1.2-14.04,1.433-20.784-.115-.054-.233-.1-.348-.154a.519.519,0,0,1,.38-.963,103.337,103.337,0,0,0-.7-16.79.117.117,0,0,1,.231-.03,82.62,82.62,0,0,1,.785,8.528.259.259,0,0,1,.311.009c.2.156.4.313.606.47a13.921,13.921,0,0,1,.481-1.765.294.294,0,0,1,.18-.191c0-.15.007-.3.009-.45q-.72-3.028-1.439-6.054c-3.152-3.574-5.337-7.463-4.21-12.24a.666.666,0,0,1,1.313.011,23.548,23.548,0,0,0,2.674,7.408c11.4,8.367,26.979,9.017,37.909,17.921.465.3.92.6,1.346.939a8.613,8.613,0,0,1,2.041,2.221A172.517,172.517,0,0,1,377.406,532a5.73,5.73,0,0,1,.737-.12,13.155,13.155,0,0,1,1.344-.057,3.8,3.8,0,0,0-1.474.732q3.517,3.234,6.86,6.66c-.1-.2-.2-.4-.311-.6-.759-1.1-1.543-2.182-2.363-3.245a.137.137,0,0,1,.218-.165c.193.25.37.509.559.761-.067-.1-.124-.207-.193-.309-.126-.187.156-.4.281-.209a35.444,35.444,0,0,1,1.959,3.365q.608.886,1.187,1.784c.368.385.748.761,1.111,1.15.044.045-.035.1-.078.057-.235-.248-.48-.485-.719-.733q.986,1.553,1.891,3.141c.048.05.1.1.15.146.033.033.011.07-.02.087a76.083,76.083,0,0,1,9.443,44.958c-.009.087-.144.067-.135-.02a76.219,76.219,0,0,0-9.969-45.519c-.354-.354-.724-.687-1.078-1.037.2.559.38,1.128.554,1.7l.035.07a.571.571,0,0,1,.283.378c.026.107.037.215.061.322a73.637,73.637,0,0,1,6.2,44.991,37.3,37.3,0,0,1,5.841,15.034,79.043,79.043,0,0,0-1.046-8.367c-.059-.344.493-.5.6-.157.772,2.493,1.622,5.282,2.313,8.171a47.193,47.193,0,0,0-2.361-11.764c-.035-.108.126-.172.163-.067a48.209,48.209,0,0,1,2.763,14.412c1.23,6.3,1.348,12.8-1.983,17.627a.466.466,0,0,0,.154.239c.254.148.083.572-.187.43l-.328-.172a14.232,14.232,0,0,1-3.933,3.569c-.478.292-1.269-.148-.944-.75a39.924,39.924,0,0,0,4.908-19.158c-.046-1.208-.135-2.409-.3-3.6a40.947,40.947,0,0,1-4.641,21.294c-.33.613-1.33.187-1-.437a42.821,42.821,0,0,0,5.417-21.4.107.107,0,0,1,.107-.111,36.968,36.968,0,0,0-5.582-14.551c-.256,1.363-.541,2.722-.882,4.074-.005.024-.043.018-.037-.005.287-1.441.526-2.882.739-4.321-.659-.994-1.339-1.98-2.1-2.93-.063-.078.061-.17.124-.092.726.9,1.372,1.833,2.007,2.772a77.2,77.2,0,0,0-5.635-42.741,52.991,52.991,0,0,1-4.822,33.952.058.058,0,0,1-.107-.046,59.054,59.054,0,0,0,3.371-36.076.436.436,0,0,1,.3-.53q-.85-1.733-1.8-3.435-3.989-3.853-8.16-7.484a10.369,10.369,0,0,0-.669.9.437.437,0,0,1-.689-.009,38.166,38.166,0,0,0-4.011-5.437q-5.784-4.706-11.884-8.973a39.112,39.112,0,0,0-8.565-2.93c-.437-.093-.346-.776.1-.694a40.289,40.289,0,0,1,5.2,1.32c-2.235-1.508-4.513-2.95-6.806-4.372a2.889,2.889,0,0,0,.285,1.076c.565.822,2.057,1.315,3.672,1.77a12.584,12.584,0,0,0-3.7-.046,61.988,61.988,0,0,1-1.745,31.7c.182,0,.359.011.541.007.063,0,.076.1.013.1-.2.006-.391,0-.587,0-.274.839-.528,1.68-.839,2.511,1.793,3.035,3.6,6.063,5.374,9.108.031.054-.044.113-.078.059-1.587-2.613-3.148-5.241-4.724-7.86,2.007,3.444,4.022,6.887,5.976,10.362.054.1-.113.191-.169.094-1.085-1.906-2.22-3.78-3.324-5.674q2.464,4.761,4.789,9.554c.037.08-.087.152-.135.076q-4.311-6.75-8.643-13.467c-.091.217-.176.435-.27.652-.191.891-.372,1.783-.58,2.67-.048.2-.372.163-.328-.048.072-.348.128-.695.2-1.043-.156.1-.4-.041-.307-.25.241-.518.43-1.048.656-1.57.07-.359.135-.717.206-1.076-.885-1.374-1.767-2.758-2.652-4.132a85.275,85.275,0,0,1-33-7.774.292.292,0,0,1,.235-.535,87.736,87.736,0,0,0,32.648,8.128q-6.5-10.075-13.058-20.1a73.512,73.512,0,0,0-16.708-4.156.2.2,0,0,1,.057-.406,67.317,67.317,0,0,1,16.4,4.183q-10.056-15.376-20.3-30.661c-.011.065-.017.133-.026.2.061-.022.128-.009.137.08.22,2.206.37,4.384.506,6.558l.117.515c.011.052-.03.067-.072.059,0,.067.013.133.017.2,2.152,1.654,4.315,3.3,6.432,4.995a.1.1,0,0,1-.12.152c-2.109-1.463-4.189-2.97-6.267-4.48.135,2.456.218,4.895.265,7.321,2.906,1.317,5.78,2.713,8.558,4.274a.078.078,0,0,1-.061.143c-2.876-.969-5.7-2.106-8.486-3.309.006.439,0,.872,0,1.309a31.156,31.156,0,0,1,1.376,8.295,74.269,74.269,0,0,0,9.732,3.81c.1.03.046.178-.048.167a34.932,34.932,0,0,1-9.743-2.752c0,.03,0,.059,0,.089a13.978,13.978,0,0,1-1.572,4.982c-.044,1.091-.1,2.183-.152,3.276a61.491,61.491,0,0,0,13.852,4.063.068.068,0,0,1-.019.135,66.159,66.159,0,0,1-13.875-3.3c-.213,4.239-.465,8.5-.731,12.788A103.378,103.378,0,0,0,332.7,552.97a.1.1,0,0,1-.028.193,95.89,95.89,0,0,1-23.477-5.085q-.183,2.925-.354,5.885c12.851,4.106,25.67,7.711,39.1,9.747a.078.078,0,0,1-.022.154c-13.149-1.633-26.462-4.063-39.113-8.236l-.063.006c-.057,1.011-.122,2.008-.176,3.024-.08,1.48-.139,2.991-.168,4.519q2.433,1.164,4.906,2.211a158.076,158.076,0,0,0,43.52,8.034c.074,0,.057.117-.017.115a152.705,152.705,0,0,1-35.853-5.191A113.3,113.3,0,0,0,347.3,574c.05.005.037.081-.011.078a112.73,112.73,0,0,1-31.522-7.23c-2.478-.768-4.935-1.615-7.376-2.52-.07,7.347.593,15.062,3.084,21.947,2.306.83,4.622,1.593,6.96,2.252-1.343-.4-2.685-.8-4.019-1.25-.332-.113-.111-.613.219-.5a111.543,111.543,0,0,0,24.216,5.315q5.189.361,10.465.206c.126,0,.15.189.026.193-1.552.059-3.1.068-4.639.061a110.683,110.683,0,0,0,13.2-.083c.1-.007.119.146.019.154a108.785,108.785,0,0,1-23.514-.65,102.167,102.167,0,0,1-22.7-5.084,34.024,34.024,0,0,0,3.728,7.223c.065.1.139.18.206.274a120.888,120.888,0,0,0,30.988,5.906c.1.006.076.157-.022.154a124.871,124.871,0,0,1-29.711-4.4,27.253,27.253,0,0,0,7.632,6.43c5.93,1.363,11.893,2.395,17.977,3.183a.108.108,0,0,1-.03.213,139.177,139.177,0,0,1-15.234-2.013c6.461,2.939,13.875,3.943,21.293,5.239.739.128.809,1.394-.013,1.389-2.693-.015-5.35-.148-7.956-.4a75.433,75.433,0,0,0,15.565,2.835c.063,0,.048.1-.013.1a74.642,74.642,0,0,1-17.577-3.161c-12.339-1.528-23.2-6.128-29.542-16.3a83.088,83.088,0,0,0-12.256-.887,34.459,34.459,0,0,1,8.961,13.767.1.1,0,0,1-.18.072,39.842,39.842,0,0,0-10.267-13.838c-.4.008-.8-.011-1.2,0a105.917,105.917,0,0,1-11.669,3.15,40.64,40.64,0,0,1,8.941,14.671c3.493.693,7.032,1.284,10.671,1.671.2.022.15.317-.046.309-1.235-.044-2.474-.135-3.711-.207,14.575,3.2,29.162,6.3,43.061,11.865.069.028.022.133-.048.107-15.962-6.119-32.766-8.969-49.421-12.492-13.623-1.4-27.11-4.717-39.3-10.969a88.644,88.644,0,0,0,3.1,8.669l3.489,6.247c.276.493.548.985.824,1.478a86.774,86.774,0,0,0,27.4-3.382c.07-.02.115.085.043.109a83.206,83.206,0,0,1-27,4.056c.106.191.211.382.319.572,2.833.361,5.663.774,8.491,1.17a.068.068,0,0,1-.02.133c-2.724-.256-5.454-.5-8.178-.778q2.283,4.089,4.561,8.18a33.716,33.716,0,0,0,13.052-1.232c.141-.044.232.165.087.217A36.276,36.276,0,0,1,266.36,628.4c.646.835,1.3,1.661,1.98,2.467a10.889,10.889,0,0,1,2.926,1.708c4.432-.7,8.921-1.183,13.341-1.82.115-.015.13.15.022.174-4.115.913-8.239,1.965-12.38,2.852a11,11,0,0,1,.691,2.106c1.228,1.224,2.487,2.413,3.795,3.55,6.365-.578,13.9-4.348,18.916-6.517a59.663,59.663,0,0,0,18.132-11.741c.039-.037.105.03.067.07-5.856,6.08-13,10.182-20.725,13.456-4.311,1.828-9.919,4.854-15.241,5.686a75.332,75.332,0,0,0,8.595,6.245,17.819,17.819,0,0,0,2.57.544c.406.054.3.633-.091.617-.182-.008-.369-.02-.552-.028q1.919,1.114,3.908,2.113A66.659,66.659,0,0,0,308.836,639c.082-.076.209.057.135.137a60.2,60.2,0,0,1-14.7,11.73,72.748,72.748,0,0,0,8.169,3.217,42.742,42.742,0,0,0,17.782-20.016c.024-.057.111-.018.089.039a44.162,44.162,0,0,1-15.6,20.653c1.933.563,3.885,1.076,5.88,1.48.146.03.115.261-.033.231-2.069-.418-4.091-.952-6.091-1.539a38.794,38.794,0,0,1-6.052,3.478c3.73-.933,7.65-.656,11.573-.393,4.523-2.811,8.441-7.136,11.714-10.93a78.462,78.462,0,0,0,13.049-21.275.049.049,0,0,1,.089.039,84.4,84.4,0,0,1-16.508,26.566,53.748,53.748,0,0,1-6.137,5.735c.569.028,1.133.033,1.7.044a107.825,107.825,0,0,0,19.382-3.771c.046-.013.063.032.048.063a87.263,87.263,0,0,0,9.021-3.824c.2-.1.378.219.191.337-.693.439-1.395.857-2.095,1.274,2.895-1.046,5.763-2.187,8.6-3.448.057-.026.094.065.037.091-3.045,1.372-6.13,2.606-9.247,3.732a75.466,75.466,0,0,1-20.462,8.369c-6.948,1.676-14.99,4.148-21.643.965-.1-.026-.2-.039-.306-.069a.628.628,0,0,1-.393-.311c-.206-.111-.415-.211-.617-.335a1.134,1.134,0,0,1-.493-1.056q-1.086-.005-2.172-.03c-.543.165-1.082.335-1.633.474a.722.722,0,0,1-.872-.561c-2.228-.094-4.458-.233-6.691-.444-.213-.02-.165-.348.048-.328,2.2.209,4.4.346,6.595.443a.74.74,0,0,1,.5-.717c.3-.1.585-.233.885-.339a5.985,5.985,0,0,1-3.395-2.506,4.542,4.542,0,0,1-.517-2.78c-.746.272-1.489.552-2.252.774a.722.722,0,0,1-.543-1.337q1.464-.642,2.9-1.3c-.05-1.161-.506-2.306-2.435-3.474-.306-.185-.628-.344-.954-.5a31.533,31.533,0,0,1-8-1.489c-3.833-1.35-5.828-4.08-7.948-7.387a1.055,1.055,0,0,1-.143-.348,31.106,31.106,0,0,1-2.717-3.619.666.666,0,0,1-.372-.561,35.2,35.2,0,0,1-2.282-4.365,10.972,10.972,0,0,1-1.407-1.7,30.576,30.576,0,0,1-3.865-.735c-.826-.218-.648-1.548.193-1.33.941.243,1.88.448,2.819.63a55.1,55.1,0,0,1-2.495-5.726c-.663-1.028-1.313-2.063-1.93-3.119-.743-.043-1.483-.069-2.228-.133-.513-.044-.4-.831.115-.791.552.046,1.1.065,1.648.1a93.923,93.923,0,0,1-8.08-18.625,1.647,1.647,0,0,1-.057-.6c-.181-.328-.367-.654-.548-.983C247.993,596.667,248.156,596.5,248.3,596.524Zm60.8-100.4c-.089-.131-.176-.263-.263-.393-.213-.224-.424-.448-.63-.676q.533,2.378,1.065,4.756C309.223,498.586,309.155,497.356,309.1,496.126ZM328.32,501.9l-.022-.005.076.03Zm5.467,1.776c-.685-.245-1.3-.47-1.85-.683q-.542-.169-1.083-.333c.732.357,1.443.752,2.171,1.119.267.1.535.194.8.294C333.811,503.938,333.8,503.806,333.787,503.675Zm.359.126-.228-.08c.024.135.039.27.063.406,1.209.452,2.421.906,3.637,1.331Q335.894,504.611,334.146,503.8ZM340,506.032c.417.213.83.43,1.244.646l.556.183Q340.916,506.426,340,506.032Zm3.517,1.745c-.13-.076-.261-.148-.393-.222-.3-.17-.615-.318-.922-.481l-.53-.172c.943.5,1.883.994,2.819,1.507C344.167,508.2,343.852,507.971,343.519,507.777Zm4.213,3.559a8.477,8.477,0,0,0-.772-.946c-2.819-1.594-5.676-3.126-8.582-4.569-1.465-.5-2.924-1.024-4.376-1.559l0,.021c4.722,2.413,9.371,4.952,13.882,7.706C347.834,511.772,347.79,511.553,347.732,511.336Zm.233.346c.039.139.072.276.109.415.065.039.13.074.193.113C348.178,512.031,348.073,511.857,347.966,511.683Zm.522,1.085c-.094-.059-.187-.122-.282-.181.209.787.413,1.574.583,2.365A5.169,5.169,0,0,0,348.488,512.768Zm39.155,30.694c-.552-.939-1.12-1.869-1.715-2.787.278.622.548,1.246.785,1.883C387.021,542.864,387.339,543.155,387.643,543.462Zm-1.109-.554c-.07-.187-.15-.372-.224-.559-.041-.041-.083-.08-.124-.12C386.3,542.453,386.415,542.682,386.534,542.908ZM386,541.86c.059.059.12.117.181.176q-.506-1.247-1.117-2.459c-.3-.306-.6-.617-.9-.919Q385.117,540.239,386,541.86Zm-1.182-1.148c-.337-.6-.663-1.2-1.017-1.793-.145-.241.2-.5.35-.274q-3.075-3.081-6.291-5.982a6.919,6.919,0,0,0-.837.843Q381,537.006,384.815,540.712Zm-11.091-10.519c.4.53.691.917.944,1.239.4.343.789.7,1.189,1.048.285-.008.6-.248,1.311-.433q-3.772-3.375-7.717-6.511A36.193,36.193,0,0,1,373.724,530.193Zm-3.024-2.035a36.463,36.463,0,0,0-9.413-7.2Q366.089,524.426,370.7,528.158Zm-13.232-9.947a35.435,35.435,0,0,1,6.124,2.876q-6.909-5.017-14.269-9.334a11.667,11.667,0,0,1,.2,1.272C352.21,514.7,354.864,516.418,357.468,518.211Zm-7.734-1.93c-.226.028-.435.02-.669.059l-.011,0q.358,1.906.57,3.817c0-.124.015-.246.018-.37,0-.05.08-.039.078.011-.006.318-.02.635-.028.954a48.9,48.9,0,0,1-.069,10.173,34.316,34.316,0,0,0-.27-14c-.011-.048.067-.057.078-.009a34.313,34.313,0,0,1-.063,16.143c-.185,1.18-.407,2.358-.68,3.53-.4,3.806-.922,7.6-1.585,11.367.187,0,.374.009.563.009A62.163,62.163,0,0,0,349.734,516.281Zm-2.78,33.852c.254-.681.448-1.374.678-2.059-.185,0-.367,0-.55,0-.1.578-.213,1.156-.322,1.732Zm-.53-.9c.07-.387.154-.776.222-1.163-.3,0-.607,0-.909,0C345.967,548.457,346.2,548.846,346.425,549.235Zm-1.256-2.128.485.824q.508.011,1.017.017.8-4.55,1.406-9.11c-.133.47-.239.945-.385,1.413-.132.419-.752.141-.626-.274.1-.333.176-.667.27-1-.17.385-.319.774-.5,1.156-.081.169-.352.05-.268-.119q.683-1.369,1.237-2.763c.368-1.465.693-2.93.939-4.395q.45-4.456.681-8.956a50.523,50.523,0,0,0-.667-7.693.306.306,0,0,1-.089-.272c.013-.054.007-.1.018-.155q-.286-1.659-.683-3.321c-4.528-2.752-9.191-5.285-13.923-7.7a59.279,59.279,0,0,1,.12,17.7c.067,1.482.117,2.963.137,4.448.776,1.2,1.565,2.391,2.335,3.591.187.1.378.185.567.285.076.041.024.165-.056.124-.119-.059-.239-.113-.359-.172.109.167.22.335.328.5.041.063-.052.133-.094.07-.148-.228-.3-.452-.452-.68-.476-.237-.956-.467-1.435-.694C338.632,535.6,341.982,541.318,345.169,547.107Zm-10.163-17.442c.48.233.959.476,1.435.72-.689-1.056-1.4-2.1-2.1-3.146l0,.026c0,.087-.133.106-.135.017s-.009-.176-.013-.263q-.317-.478-.633-.952c-.061.305-.131.609-.2.913C333.922,527.871,334.458,528.771,335.006,529.665Zm-.822-2.989c-.033-1.081-.089-2.161-.146-3.241-.126.794-.259,1.587-.417,2.376C333.807,526.1,334,526.387,334.183,526.676Zm-4.441-5.371c.039,0,.081-.028.109.019.446.752.895,1.5,1.341,2.252.567.891,1.144,1.772,1.706,2.669.059-.3.131-.6.187-.9-3.08-4.6-6.21-9.173-9.463-13.66-1.241-1.711-2.515-3.4-3.78-5.095Q324.931,513.83,329.742,521.305Zm3.4,3.763c.293-1.591.517-3.176.7-4.761a139.607,139.607,0,0,0-1.88-14.69c-.052-.283.4-.341.444-.056.757,4.478,1.267,8.971,1.583,13.484a72.9,72.9,0,0,0-.1-14.389c-1.152-.585-2.287-1.2-3.45-1.769-1.157-.456-2.315-.911-3.463-1.391-5.1-1.511-10.1-3.122-14.478-5.824C319.79,505.145,326.6,515.042,333.139,525.069Zm-22.644-6.96c-.007,1.4-.02,2.8-.05,4.2.174.089.346.18.52.267A23.607,23.607,0,0,0,310.5,518.109Zm.413,5.73c-.169-.082-.33-.176-.5-.259-.026,1.065-.048,2.13-.083,3.191A13.59,13.59,0,0,0,310.908,523.839Zm-3.011,4.621c-.4.922-.767,1.852-1.122,2.785a.4.4,0,0,1,.233.006c.206.1.417.178.624.274Q307.771,529.994,307.9,528.459Zm-1.861,18.375c-.1-.044-.2-.1-.307-.143-.007.067-.017.133-.024.2q.067.695.167,1.4C305.93,547.8,305.978,547.32,306.036,546.834Zm-.33,2.915c.033-.263.057-.526.089-.789q-.114-.567-.209-1.133c-.089.911-.135,1.818-.194,2.728.048.1.117.185.17.28C305.608,550.472,305.662,550.111,305.706,549.749Zm-.181-2.322c-.026-.169-.056-.339-.078-.507-.054,1.015-.1,2.03-.143,3.039C305.369,549.114,305.434,548.272,305.525,547.427Zm-.23,5.385c.033-.237.065-.474.1-.713l-.081-.091c-.013.265-.033.53-.043.794Zm-.148-9.782a10.391,10.391,0,0,0-.483,1.339l.391.167C305.086,544.034,305.115,543.532,305.147,543.031Zm-.2,3.3c-.176-.08-.35-.165-.526-.246a8.6,8.6,0,0,0,.4,3.034C304.858,548.188,304.9,547.259,304.949,546.329Zm-1.469,22.623c.182-3.861.646-7.721,1.183-11.588,0-.106,0-.211,0-.317a6.526,6.526,0,0,0-2.182,4.367A69.877,69.877,0,0,0,303.48,568.952Zm-1.2-11.554a5.18,5.18,0,0,1,2.391-1.932c0-.432,0-.859.006-1.293-.694-.254-1.4-.485-2.087-.75a.722.722,0,0,1-.278-.193Q302.236,555.314,302.282,557.4Zm.063-5.028a.723.723,0,0,1,.817-.25c.517.17,1.032.333,1.548.5.009-.432.022-.865.035-1.3-.035-.046-.089-.113-.1-.141a8.966,8.966,0,0,1-1.089-5.506c-.17-.08-.344-.154-.511-.237A69.148,69.148,0,0,0,302.345,552.37Zm.967-8.573c.191.083.382.161.574.245a11.793,11.793,0,0,1,1.393-2.959q.261-3.681.57-7.36A68.68,68.68,0,0,0,303.312,543.8Zm3.306-3.428a11.688,11.688,0,0,0-.861,1.391c-.063.915-.119,1.828-.174,2.741,0,.087,0,.172,0,.257l.274.117c.106-.772.17-1.543.3-2.315.011-.061.107-.048.1.013-.126.781-.191,1.563-.3,2.343l.287.122c.382-3.267.752-6.535,1.072-9.81a24.358,24.358,0,0,0-1.389,4.943c.057-.074.1-.154.161-.226A.341.341,0,0,1,306.617,540.369Zm-.478-3.8a25,25,0,0,1,1.352-3.411c.018-.206.035-.411.054-.617-.313-.128-.633-.23-.943-.361-.057-.026-.065-.076-.1-.111Q306.315,534.316,306.14,536.569Zm3.07-32.3-.083-.059a16.442,16.442,0,0,0-.009,4.135C309.166,506.986,309.177,505.627,309.21,504.269Zm-.709-.513-.774-.563c.1,2.591.12,5.228.065,7.91.4.17.8.367,1.2.543A20.638,20.638,0,0,1,308.5,503.756Zm.217,60.038-.319-.15,0,.033C308.5,563.717,308.612,563.758,308.717,563.795Zm-.267-42.465q.289-4.289.483-8.584c-.387-.174-.783-.333-1.169-.511-.172,6.154-.672,12.5-1.193,18.9q.644-1.65,1.376-3.271c.146-1.78.311-3.559.435-5.343-.063-.035-.13-.063-.191-.1C307.643,522.106,307.923,521.255,308.451,521.33Zm-40.224,82.495c6.463,2.259,13,4.248,19.706,5.987,1.052.237,2.12.437,3.185.65a46.079,46.079,0,0,0-9.556-14.447l0,0a96.662,96.662,0,0,1-27.888,1.58c-.176-.015-.346-.043-.515-.07C258.176,599.807,263.182,601.934,268.227,603.824Zm51.839,53.962q5.356-.986,10.625-2.424,1.114-.353,2.217-.739a111.026,111.026,0,0,1-15.153,3.447C318.529,657.994,319.3,657.894,320.066,657.786Zm-24.136,2.1a1.639,1.639,0,0,1,.2-.465c-.048,0-.1-.006-.143-.011-.413.156-.824.317-1.245.459C295.137,659.879,295.534,659.888,295.93,659.89Zm-2.152-1.944c.15.046.313.074.467.117a54.517,54.517,0,0,0,7.919-3.815,72.829,72.829,0,0,1-8.15-3.245,42,42,0,0,1-3.787,1.819C290.37,654.942,290.509,656.923,293.778,657.946Zm-4.052-8.043a5.966,5.966,0,0,1,.3,1.07c.68-.317,1.359-.631,2.028-.956q-2.117-1.072-4.159-2.272l-.259-.013A4.4,4.4,0,0,1,289.726,649.9Zm-10.945-7.343a24.134,24.134,0,0,0,6.86,3.806,74.692,74.692,0,0,1-8.041-5.935,17.444,17.444,0,0,1-1.763.163C276.838,641.217,277.837,641.85,278.781,642.56Zm-4.708-3.083a16.07,16.07,0,0,0,2.369-.009c-1.172-1.032-2.307-2.109-3.415-3.213.209.926.4,1.941.617,2.945C273.786,639.291,273.929,639.385,274.073,639.476Zm-.9-.578a4.315,4.315,0,0,0-.191-.726,7.19,7.19,0,0,0-.787-1.5.263.263,0,0,1-.17-.059c-.791-.761-1.522-1.552-2.278-2.332l-.239.044q.9,1.611,1.794,3.219Q272.21,638.258,273.175,638.9Zm-3.637-1.519a.947.947,0,0,1,1-.33c-.495-.878-.982-1.761-1.476-2.641-.526.1-1.052.207-1.578.3A31.722,31.722,0,0,0,269.538,637.38Zm-2.858-3.963a.632.632,0,0,1,.1-.043c.513-.1,1.033-.182,1.55-.276l-.039-.069c-1.011-.7-2.033-1.356-2.965-2.02Q265.958,632.245,266.68,633.417Zm-1.243-3.911c-.333-.4-.694-.785-1.02-1.191-.206-.013-.409-.013-.615-.031A8.11,8.11,0,0,0,265.438,629.505Zm-2.745-2.643c.237.041.474.087.713.122-.922-1.189-1.83-2.387-2.682-3.617A30.84,30.84,0,0,0,262.693,626.862Zm.478-3.013q-1.356-2.419-2.706-4.845l-.207-.022C261.182,620.631,262.145,622.259,263.171,623.849Zm-3.2-5.408.194.024-.282-.506c-.057,0-.113,0-.17,0C259.8,618.12,259.882,618.283,259.969,618.442Zm-.678-1.272c.05,0,.1,0,.15,0q-.87-1.558-1.741-3.117C258.208,615.106,258.745,616.14,259.291,617.17ZM381.66,532.134a7.962,7.962,0,0,0-2.172-.311A3.139,3.139,0,0,1,381.66,532.134Zm4.619,4.278c4,7.145,6.436,15.669,9.495,23.259a.069.069,0,0,1-.128.052q-2.817-6.673-5.635-13.343c-.937-2.22-1.8-4.491-2.819-6.671-.726-1.55-2.83-6.171-5.532-7.574C383.569,532.693,384.956,534.045,386.278,536.412ZM357.9,517.965a16.082,16.082,0,0,0-2.015-.97,8.877,8.877,0,0,1,2.065.887C358,517.911,357.951,517.992,357.9,517.965Zm-10.96,121.2a27.354,27.354,0,0,1,1.808-2.622C348.154,637.424,347.545,638.295,346.943,639.169Zm3.676-5.13c-.491.735-1.172,1.589-1.869,2.508.587-.863,1.189-1.717,1.778-2.58C350.571,633.9,350.66,633.976,350.619,634.039Zm58.619,6.039A36.832,36.832,0,0,1,403,629.559a.1.1,0,0,1,.182-.072,34.865,34.865,0,0,0,7.537,11.345c.695.372,1.382.774,2.065,1.189l-3.085-3.183c-.061-.061.022-.169.085-.106q.9.9,1.8,1.8c-.565-.7-1.108-1.417-1.693-2.091-.033-.039.028-.083.061-.046.78.822,1.576,1.633,2.369,2.446q-.67-1.081-1.257-2.193a.347.347,0,0,1-.333-.256c-.074-.282-.15-.563-.222-.844-.08-.163-.135-.335-.211-.5-.659-.709-1.3-1.433-1.974-2.133-.03-.032.024-.085.056-.054.585.583,1.161,1.183,1.745,1.774a36.87,36.87,0,0,1-3.1-12.539c-.024-.356.537-.554.643-.169,1.263,4.611,2.42,9.252,3.617,13.882a155.225,155.225,0,0,1,13.53,15.482c.241-.009.5-.028.807-.055a1.008,1.008,0,0,1,.5,1.926,26.468,26.468,0,0,1-3.215,1,1.2,1.2,0,0,1-1.15-.489c-1.637-2.826-3.365-5.647-5.2-8.393a8.147,8.147,0,0,0-1.107-.352c-.559-.124-.706-.387-1.158.133a11.2,11.2,0,0,0-.317,2.417.214.214,0,0,1-.424-.061c.13-1.076.283-2.146.435-3.221a.208.208,0,0,1,.285-.159c.6.243,1.372.663,2.128,1-.265-.394-.544-.774-.813-1.165a32.915,32.915,0,0,1-4.791-4.067,45.591,45.591,0,0,0-21.407-5.787c-.031,0-.031-.057,0-.059A41.972,41.972,0,0,1,409.239,640.078ZM408.1,628.359A35.927,35.927,0,0,0,409.829,635Q408.954,631.681,408.1,628.359Zm9.376,17.956c.226.146.439.306.669.448a.278.278,0,0,1,.078.374c.069.08.13.167.2.246l.539.539c.048.048.033.105.024.161.809.978,1.615,1.963,2.389,2.965,1.165,1.509,1.548,2.091,2.63,2.213-4.109-5.132-8.221-10.189-12.63-15.042l.022.083a.263.263,0,0,1-.056.256c.4.832.82,1.656,1.282,2.469a.093.093,0,0,1-.022.107C414.257,642.834,415.9,644.55,417.48,646.315Zm-3.267-2.354c-.078-.106-.152-.215-.228-.32-.056-.009-.111.005-.167-.03-.083-.056-.172-.1-.257-.156C413.772,643.63,414,643.791,414.213,643.961Zm16.671-32.948a34.442,34.442,0,0,1-4.876,3.247c-.2.107-.33-.22-.132-.326a33.737,33.737,0,0,0,5.3-3.511,99.2,99.2,0,0,0,8.782-25.87c-2.067,1.067-4.135,2.133-6.182,3.233-.076.043-.152-.089-.076-.133,2.154-1.287,4.285-2.615,6.421-3.939a98.678,98.678,0,0,0,1.406-11.271,41.37,41.37,0,0,1-17.725,12.2,39.66,39.66,0,0,1,.294,4.437c.052.211.106.42.157.631a.271.271,0,0,1-.172.335,36.088,36.088,0,0,1-1.476,9.736,63.489,63.489,0,0,0,15.365-8.638c.12-.093.256.091.141.187a53.72,53.72,0,0,1-15.723,9.33c-.026.009-.043-.007-.065,0a33.487,33.487,0,0,1-7.006,12.117,1.638,1.638,0,0,1-2.561-2.039,60.18,60.18,0,0,0,4.665-8.491,20.11,20.11,0,0,1-10.884.611.078.078,0,0,1,.022-.154,21.8,21.8,0,0,0,11.317-1.548q.939-2.236,1.652-4.532a25.833,25.833,0,0,1-6.056,2.117c-.139.032-.2-.2-.063-.243a22.5,22.5,0,0,0,6.548-3.378c.226-1.132.422-2.269.581-3.411-3.559.882-7.217,1.5-10.795,2.256-.085.019-.124-.122-.039-.148,3.641-1.12,7.289-2.411,10.982-3.378.191-1.641.319-3.287.369-4.939-.031.007-.061.02-.093.028-.922.235-1.341-1.348-.424-1.626.183-.056.359-.126.541-.183q0-2.05-.15-4.108c-.274-1.074-.544-2.148-.819-3.223a12.419,12.419,0,0,1-3.346,2.645c-.144.078-.281-.163-.143-.254a11.777,11.777,0,0,0,3.282-3.215q-.256-1-.507-2a20.558,20.558,0,0,1-10.626,4.967c-.089.015-.1-.117-.019-.135a20.276,20.276,0,0,0,10.43-5.674l-.65-2.563c-1.522.963-3.137,1.813-4.671,2.717-.074.043-.152-.054-.081-.109,1.491-1.169,2.954-2.45,4.509-3.561-.557-2.211-1.128-4.419-1.682-6.63-.315-1.257-.582-4.072-2.048-4.922-3.826,12.8-7.68,25.587-11.475,38.393-.026.083-.172.043-.15-.043q2.753-9.881,5.46-19.779a48.7,48.7,0,0,0-2.465-14.577,32.764,32.764,0,0,0-7.311,7.626c-.072.1-.222-.018-.152-.122a31.637,31.637,0,0,1,7.371-7.819c-.069-.224-.124-.443-.194-.667a.322.322,0,0,1,.6-.243c.067.167.12.337.185.5a36.985,36.985,0,0,1,7.3-4l.154-.552a.488.488,0,0,1,.969.093c.178-.068.346-.146.526-.213a.387.387,0,0,1,.52.3c.769,2.969,1.515,5.943,2.271,8.913.015-.067.1-.1.13-.024.348,1.039.663,2.085.952,3.135.213-.137.419-.289.635-.417.476-.282.982.346.526.7-.3.23-.613.437-.922.652.2.77.391,1.541.559,2.313.257-.281.52-.557.77-.852a.38.38,0,0,1,.594.472,17.5,17.5,0,0,1-1.174,1.333c.117.58.235,1.161.335,1.743l.007-.013c-.013-.057-.02-.115-.033-.17-.046-.211.133-.326.313-.326.083-.156.178-.3.259-.459.22-.446.928-.144.713.313-.139.3-.328.565-.494.846a42.815,42.815,0,0,1,2.209,8.167,46.516,46.516,0,0,0,18.047-11.375q.125-2.242.144-4.487c-.933.487-1.872.965-2.828,1.387-.163.07-.259-.178-.1-.254a25.9,25.9,0,0,0,2.943-1.707q.011-2.711-.132-5.426c-1.7,1.319-3.407,2.617-5.058,3.935-.061.048-.122-.043-.07-.094,1.683-1.613,3.346-3.311,5.043-4.974-.094-1.493-.211-2.983-.372-4.474a57.566,57.566,0,0,1-12.054,8.7c-.059.032-.113-.065-.057-.1A57.764,57.764,0,0,0,440.9,553.49c-.178-1.378-.378-2.756-.617-4.13-5.695,6.878-13.375,12.39-21.077,16.619-.665.365-1.3-.754-.656-1.161,7.789-4.933,15.63-8.873,21.69-15.688a97.59,97.59,0,0,0-3.472-13.89c-.015-.048.057-.076.072-.03a98.3,98.3,0,0,1,3.522,13.78c.763-.867,1.489-1.793,2.191-2.759-1.361-4.709-2.95-9.363-4.565-13.925-.072-.165-.131-.337-.206-.5-.107-.237.268-.459.4-.228.776,1.331,1.467,2.678,2.156,4.024a10.484,10.484,0,0,1,1-2.9.643.643,0,0,1,1.217.176,122.66,122.66,0,0,0,3.093,15.875.8.8,0,0,1,.307,1.159c.457,1.639.863,3.28,1.2,4.926.111-.089.217-.189.33-.276.483-.374,1.224.337.767.789-.272.27-.57.517-.85.78q.442,2.372.72,4.745c.737-.807,1.459-1.633,2.163-2.495a.77.77,0,0,1,1.2.959,24.8,24.8,0,0,1-3.176,3.259,68.44,68.44,0,0,1-.481,16.5c.822-.47,1.641-.95,2.476-1.4.541-.291,1.063.624.531.943-1.052.628-2.122,1.222-3.193,1.819a75.274,75.274,0,0,1-16.782,35.405.741.741,0,0,1-1.159-.922,73.492,73.492,0,0,0,4.239-6.636c-.717.726-1.478,1.415-2.265,2.078-1.146,2.3-2.356,4.569-3.693,6.782-.122.206-.489-.009-.363-.219C428.793,615,429.862,613.017,430.884,611.014Zm-23.392-50.5c-.337.217-.639.469-.965.7a37.484,37.484,0,0,1,2.083,14.229q2.475-8.995,4.963-17.984C412.024,557.674,407.892,560.261,407.492,560.517Zm10.812,5.519c.23.9.461,1.806.689,2.709l.093-.061C418.848,567.8,418.583,566.917,418.3,566.035Zm1.015,3.6-.083.059c.2.787.4,1.574.6,2.363l.031-.037C419.7,571.223,419.517,570.428,419.319,569.634Zm1.463,5.963c-.013.017-.03.031-.043.05.076.3.152.609.23.915C420.913,576.241,420.843,575.919,420.782,575.6Zm.73,9.758c-.048.013-.093.032-.139.043-.024,1.237-.078,2.472-.18,3.7C421.356,587.862,421.458,586.612,421.511,585.355Zm.013-3.4c-.08-.311-.157-.624-.237-.935.048.867.083,1.734.093,2.6.059-.019.117-.041.174-.06Q421.554,582.757,421.524,581.951Zm18.755-43.837c-.281-.806-.574-1.606-.883-2.4q.453,1.283.893,2.58C440.282,538.229,440.284,538.175,440.279,538.114Zm.243.852q.611,1.795,1.193,3.6c-.346-1.211-.744-2.4-1.148-3.593C440.553,538.967,440.534,538.975,440.521,538.966Zm1.641.307c-.311-1.624-1.082-7.78-.756-1.535.293.615.55,1.233.822,1.85C442.208,539.482,442.183,539.379,442.162,539.273Zm.943,8.95c-.172-.628-.339-1.257-.519-1.885-.689.985-1.411,1.95-2.18,2.883.246,1.365.456,2.734.643,4.106.835-.952,1.654-1.93,2.467-2.926C443.384,549.674,443.257,548.946,443.1,548.223Zm.811,4.284c-.82.956-1.694,1.87-2.606,2.754.172,1.48.3,2.961.4,4.443.911-.889,1.833-1.765,2.772-2.613C444.329,555.557,444.155,554.026,443.916,552.507Zm.715,6.087c-.93.77-1.867,1.532-2.822,2.276q.158,2.72.17,5.441a29.575,29.575,0,0,0,2.943-2.269Q444.861,561.312,444.631,558.594Zm.287,6.554c-.956.624-1.93,1.217-2.937,1.754,0,1.443-.048,2.883-.115,4.324a43.483,43.483,0,0,0,3.048-3.558C444.929,566.828,444.927,565.989,444.918,565.148Zm-.006,2.9a47.114,47.114,0,0,1-3.078,4.028,98.818,98.818,0,0,1-1.313,11.388c1-.62,2.011-1.232,3.021-1.845A88.951,88.951,0,0,0,444.912,568.05Zm-10.349,39.184a82.911,82.911,0,0,0,8.754-24.433c-.987.517-1.974,1.035-2.963,1.546a97.373,97.373,0,0,1-8.319,25.327A32.814,32.814,0,0,0,434.564,607.234Zm-66.329-71.661c-.217,2.446-.506,4.878-.833,7.3a106.768,106.768,0,0,1-4.791,28.1c-.119.38-.694.13-.572-.25a105.989,105.989,0,0,0,4.808-24.107c-.028.165-.054.328-.08.493a81.954,81.954,0,0,1-3.078,14.76.113.113,0,0,1-.124.085q-1.244,4.6-2.783,9.143c-.094.272-.5.091-.411-.18A160.557,160.557,0,0,0,366.824,545a82,82,0,0,0,.344-9.417c-.072-3.152-.25-6.31-.6-9.478a.05.05,0,0,1,.1-.013,107.845,107.845,0,0,1,.756,14.851c.241-1.791.461-3.587.641-5.395C368.072,535.434,368.244,535.46,368.235,535.573Zm67.407-10.1c-.88-1.369-1.693-2.752-2.482-4.143-.615.476-1.256.93-1.9,1.374q1.614,4.292,3.222,8.582c.106.281-.328.457-.433.174q-1.589-4.242-3.178-8.486c-.639.443-1.276.887-1.876,1.365a59,59,0,0,0-5.369,4.833c-.12.122-.322-.028-.213-.17a47.833,47.833,0,0,1,6.86-7.625q-.467-1.247-.933-2.493c-.82.872-1.656,1.728-2.469,2.585a.117.117,0,0,1-.182-.146c.746-1.15,1.48-2.335,2.256-3.491q-1.4-3.745-2.8-7.487c-.531.572-1.065,1.128-1.544,1.639a.156.156,0,0,1-.245-.193,24.243,24.243,0,0,0,1.463-2.319l-1.848-4.93c-.1-.276-.376-1.022-.706-1.921a263.329,263.329,0,0,1-8.008,37.837c-.22,1.163-.431,2.326-.654,3.489a.321.321,0,0,1-.422.246c-.394,1.35-.783,2.7-1.191,4.048-.039.126-.25.065-.224-.065,2.713-13.2,4.576-26.464,6.232-39.789-6.139,9.588-15.875,16.89-20.31,28.077-.243.615-1.13.2-.928-.406,3.05-9.21,10.271-16.075,15.8-23.779a109.088,109.088,0,0,0-8.656,8.8c-6.26,7.752-14.258,18.193-11.021,28.709.015.048-.056.078-.072.03-2.635-8.115,1.461-15.669,5.841-22.39a91.681,91.681,0,0,1,10.2-12.936c1.893-2,4.221-3.961,6.258-6.093a29.9,29.9,0,0,0,4.48-13.193c.174-2.226,3.646-1.732,3.441.5-.05.543-.124,1.082-.178,1.622.893,3.352,1.922,6.637,3.113,9.85a7.812,7.812,0,0,1,.557-1.031c.433-.635,1.4,0,1.126.68a8.746,8.746,0,0,1-1.106,1.841q1.372,3.536,3,6.965c.337-.428.674-.857,1.039-1.259a.575.575,0,0,1,.9.715c-.417.611-.872,1.2-1.346,1.774.469.952.957,1.9,1.457,2.841.32-.195.641-.4.97-.565.8-.4,1.274.743.711,1.263-.287.265-.6.508-.907.754.78,1.409,1.583,2.809,2.433,4.195C435.862,525.463,435.71,525.58,435.642,525.474Zm-12.036-25.925c-.078.689-.143,1.378-.228,2.063q1.361,3.67,2.732,7.336c.035-.067.076-.128.109-.194.17-.337.32-.683.476-1.03C425.615,505.045,424.595,502.323,423.606,499.549Zm3.628,9.523c-.243.3-.483.6-.746.895.926,2.472,1.843,4.946,2.772,7.417.339-.494.683-.983,1.046-1.459C429.208,513.672,428.193,511.388,427.234,509.072Zm3.68,8.048c-.4.474-.807.941-1.228,1.4q.478,1.269.954,2.543a18.215,18.215,0,0,1,1.7-1.2C431.847,518.95,431.375,518.037,430.914,517.12Zm.969,14.682c.026-.026.07.009.044.037a114.175,114.175,0,0,1-16.2,14.816.371.371,0,0,1-.444-.593A153.646,153.646,0,0,0,431.882,531.8Zm-62.223,97.016a71.276,71.276,0,0,0,23.17,2.224c.481-.022.587.707.094.754a59.458,59.458,0,0,1-23.3-2.867C369.565,628.911,369.594,628.8,369.659,628.818Zm21.573-33.67a28.026,28.026,0,0,1-2.195,18.1c-.287.567-1.194.178-.909-.4a28.22,28.22,0,0,0,2.948-17.684C391.06,595.068,391.212,595.05,391.232,595.148Zm27.566-6.017c.374-.2.743.441.37.657a20.859,20.859,0,0,1-13.6,2.328.068.068,0,0,1,.02-.133A21.581,21.581,0,0,0,418.8,589.131Zm-14.714-2.037c.048.1-.111.167-.161.067l-3.672-7.386c-.105-.213.243-.356.343-.141Q402.341,583.365,404.085,587.094Zm-79.753-9.465a.058.058,0,0,1,.019-.115,135.587,135.587,0,0,0,31.116,1.695c.92-.045,1.109,1.381.18,1.432A115.288,115.288,0,0,1,324.331,577.629Zm33.794,5.347a99.494,99.494,0,0,1-25.72-.337.058.058,0,0,1,.017-.115,116.891,116.891,0,0,0,25.527-.941A.7.7,0,0,1,358.125,582.975Zm-7.941,64.892a29.765,29.765,0,0,1-5.88-4.591.171.171,0,0,1-.026-.235c.35-.494.687-1,1.03-1.5-.174,0-.348,0-.522-.005a26.159,26.159,0,0,0-1.974,8.975c-.011.274-.435.211-.424-.061a26.1,26.1,0,0,1,1.95-8.928c-.983-.017-1.965-.037-2.937-.1-.587-.039-.559-.958.009-1.022,1.2-.139,2.4-.254,3.6-.354a26.388,26.388,0,0,1,5-7.043.23.23,0,0,1-.244-.32,20.994,20.994,0,0,1,6.595-8.593c.809-.6,2.578-1.217,3.765-1.863a19.467,19.467,0,0,1-1.648-7.493c-.12-.519-.217-1.045-.307-1.574-.763-.182-1.52-.378-2.287-.557-.626-.148-.5-1.137.146-1,.661.137,1.317.3,1.976.444a27.421,27.421,0,0,1-.191-4.685,34.261,34.261,0,0,1-.115-7.078c-.15-.048-.3-.1-.446-.148-.467-.148-.241-.965.239-.835.093.024.183.056.276.08a36.979,36.979,0,0,1,2.546-9.9c.028-.069.135-.022.107.048a35.716,35.716,0,0,0-2.341,9.949c1.007.278,2.013.567,3.011.876q.181-4.245.156-8.488c-.156-.035-.3-.087-.459-.12-.417-.091-.317-.756.094-.656.122.03.239.074.359.1-.006-.77,0-1.543-.018-2.315a79.568,79.568,0,0,1-23.708-.98.058.058,0,0,1,.017-.115,89.589,89.589,0,0,0,23.664.041q-.2-7.639-1-15.3a.294.294,0,0,1,.469-.263c.4.243.809.474,1.215.711a.517.517,0,0,1,.883-.52c.441.567.848,1.163,1.282,1.737a45.6,45.6,0,0,1,5.185,2.917,38.87,38.87,0,0,1,26.918,29.279c.019.085-.115.1-.135.017a37.857,37.857,0,0,0-13.26-21.242,20.813,20.813,0,0,1-.941,13.788.332.332,0,0,1-.607-.267,20.9,20.9,0,0,0,1.333-13.6c-.009-.035.024-.048.046-.067a39.235,39.235,0,0,0-9.615-5.619l1.17.669c.063.037.018.144-.048.107-.3-.165-.852-.511-1.541-.952a40.4,40.4,0,0,0-6.2-1.909,200.021,200.021,0,0,1,19.173,33.752c.45.25.906.494,1.352.75.074.043.026.165-.054.124-.38-.195-.767-.358-1.146-.548,2.306,5.1,4.445,10.254,6.4,15.414a.069.069,0,0,1-.128.052c-2.167-5.452-4.572-10.721-7.145-15.88a184.515,184.515,0,0,0-22.968-9.306c-.037.654-.1,1.306-.148,1.959.141-.219.243-.443.393-.658.043-.063.133.009.091.072-.193.283-.328.576-.5.863q-.3,4.406-.83,8.8a212.11,212.11,0,0,1,28.951,9.545c.106.043.035.2-.07.161a263.79,263.79,0,0,0-29-8.624c-.063.5-.106,1.009-.174,1.513-.009.067-.054.1-.085.143a36.965,36.965,0,0,0,2.743,5.554.283.283,0,0,1-.119.424c-.409.135-.793.3-1.187.454a25.677,25.677,0,0,0,13.4,11.038,21.18,21.18,0,0,0,3.613.226c.3-.009.361.446.057.465-.552.033-1.076-.009-1.613-.017a27.517,27.517,0,0,0,9.141.868c.113-.007.135.165.022.174a27.548,27.548,0,0,1-10.273-1.054,18.758,18.758,0,0,1-13.845-7.424,26.244,26.244,0,0,0-16.93,13.867c.309-.026.622-.043.933-.067.176-.259.356-.517.533-.776q-.222.383-.415.769c8.163-.6,16.388-.569,24.547-1.581a.039.039,0,0,1,.011.078c-2.446.417-4.941.857-7.465,1.272a26.277,26.277,0,0,1-7.952,10.063c.895.278,1.75.519,2.487.7.852.211,1.707.367,2.563.506a10.857,10.857,0,0,0,3.543-5.152c.026-.083.172-.043.148.042a11.286,11.286,0,0,1-3.211,5.2,30.871,30.871,0,0,0,4.082.289,20.814,20.814,0,0,0,3.158-7.839.068.068,0,0,1,.135.018,24.638,24.638,0,0,1-2.428,7.819c.974-.015,1.941-.078,2.906-.183a32.51,32.51,0,0,0,3.428-13.391c0-.076.135-.074.135,0a32.773,32.773,0,0,1-2.787,13.31,30.524,30.524,0,0,0,3.859-.787,21.559,21.559,0,0,0,3.5-10.326c.006-.078.117-.057.115.017a21.971,21.971,0,0,1-2.328,9.91,30.818,30.818,0,0,0,5.039-2.124c0-.028-.026-.043-.022-.074.291-2.478.711-4.939,1.15-7.393a.078.078,0,0,1,.154.022c-.076,2.32-.18,4.641-.378,6.954.252-.145.513-.263.763-.415.413-.254.872.35.454.607a31.332,31.332,0,0,1-7.68,3.391,18.375,18.375,0,0,1-2.42,3.215c-.4.42-1.1-.113-.717-.572.618-.733,1.185-1.493,1.724-2.265a30.928,30.928,0,0,1-3.565.645c-.148.319-.259.646-.419.963-.215.428-.907.118-.678-.3.106-.193.18-.393.281-.587-1,.094-1.995.146-2.993.145a16.347,16.347,0,0,1-.982,1.563c-.311.413-.922-.08-.624-.5.257-.361.472-.715.711-1.07a30.7,30.7,0,0,1-4.22-.433,11.973,11.973,0,0,1-2.233,1.435c-.326.158-.55-.381-.213-.524a10.947,10.947,0,0,0,1.819-1.008,30.311,30.311,0,0,1-4.841-1.354c-.08.056-.146.128-.226.183a.3.3,0,0,1-.4-.448,30.063,30.063,0,0,1-3.561-1.693c-.365.394-.722.8-1.089,1.187-.385.409-1.078-.146-.685-.546C349.469,648.565,349.832,648.219,350.184,647.867Zm18.642-70.874c-1.57-.906-3.145-1.809-4.709-2.726.5.661.987,1.33,1.474,2C366.685,576.464,367.765,576.7,368.826,576.993Zm15.767,33.542q-2.986-5.956-6.269-11.725a55.617,55.617,0,0,0-16.269-6.743c.011,2.846-.035,5.689-.174,8.528A128.034,128.034,0,0,1,384.593,610.536Zm-22.586-22.829c.772-.1,1.543-.2,2.315-.318a.526.526,0,0,1,.133,1.043c-.811.131-1.62.232-2.43.333.022.885.017,1.77.024,2.656a56.417,56.417,0,0,1,16.11,7.111c-4.206-7.333-8.771-14.473-13.586-21.553-.43-.074-.85-.169-1.283-.23a.419.419,0,0,1,.12-.83c.167.02.328.057.495.08-.509-.744-1.009-1.489-1.524-2.233h-.028C359.957,574.678,361.864,585.168,362.007,587.707Zm-1.556,34.331a2.718,2.718,0,0,0,.659-.532,25.808,25.808,0,0,1-2.372-5.821A18.717,18.717,0,0,0,360.451,622.038Zm-1.9-9.873.059.015c.011-.1.02-.207.035-.311-.115-.439-.187-.88-.283-1.32C358.4,611.1,358.475,611.63,358.549,612.165Zm2.495-10.771c-1.013-.337-2.019-.683-3.039-1.013a33.912,33.912,0,0,0,0,4.632c.006-.054.006-.1.011-.157a.234.234,0,0,1,.463.067c-.107.859-.148,1.7-.178,2.545.148,1.007.322,2.011.561,3.008a19.862,19.862,0,0,1,1.98-5.413C360.923,603.839,360.983,602.617,361.044,601.395Zm-.232,3.982a19.631,19.631,0,0,0-1.861,5.439c.128.515.265,1.026.419,1.535.256.059.513.113.769.174C360.41,610.139,360.642,607.756,360.812,605.376Zm-1.115,8.156c.072.213.178.419.254.632.022-.185.041-.37.063-.556C359.909,613.582,359.8,613.556,359.7,613.532Zm-.006,1.656c-.224-.594-.389-1.2-.576-1.8l-.394-.1a25.9,25.9,0,0,0,2.695,7.658C362.246,619.038,360.34,616.914,359.692,615.188Zm13.843,17.406a25.681,25.681,0,0,1-9.426-6.837c-.393.076-.776.172-1.163.265A19.178,19.178,0,0,0,373.535,632.594Zm-10.7-6.706c.389-.089.778-.18,1.172-.25a25.669,25.669,0,0,1-2.6-3.58c-.263.109-.526.219-.782.335A18.887,18.887,0,0,0,362.833,625.888Zm-.543.117a19.458,19.458,0,0,1-2.006-3.441,20.717,20.717,0,0,0-9.971,10.13A26.316,26.316,0,0,1,362.29,626.005Zm-7.2,17.218c.076-.067.183.048.122.124-1.291,1.591-2.68,3.15-4.082,4.674a33.511,33.511,0,0,0,3.822,1.521,28.677,28.677,0,0,0,8.452-9.8,115.709,115.709,0,0,1-17.477,1.789,3.567,3.567,0,0,0,.585,3.226,11.943,11.943,0,0,0,3.872,2.909C351.918,646.143,353.482,644.634,355.092,643.223Z" transform="translate(-78.668 3427.75)" fill="#39383b"/>
      <g id="Group_66993" data-name="Group 66993" transform="translate(156.756 3305.031)">
        <path id="Path_203200" data-name="Path 203200" d="M96.995,349.742c43.445,23.119,59,63.24,56.708,143.571S220.008,755.93,430.314,684.386c73.262-27.343,153.159-61.7,231.114,12.465s210.5,78.5,269.048-.078S941.787,497.033,821.25,433.2,641.38,361.877,585.387,233.173,378.445-81,107.108,38.257C-8.326,97.3-56.743,273.138,96.995,349.742Z" transform="translate(1126.31 725.175) rotate(164)" fill="#1e1d1f"/>
        <path id="Path_203201" data-name="Path 203201" d="M7.96,52.857c26.91,48.437,92.936,42.658,120.328,24.8s2.258-55.289-26.209-58.793-40.2-1.1-58.051-14.024S-17.956,3.861,7.96,52.857Z" transform="translate(434.756 193.755) rotate(164)" fill="#1e1d1f"/>
        <ellipse id="Ellipse_2023" data-name="Ellipse 2023" cx="34.841" cy="34.841" rx="34.841" ry="34.841" transform="translate(526.77 148.545) rotate(164)" fill="#1e1d1f"/>
        <path id="Path_203199" data-name="Path 203199" d="M123.449,63.141C79.675-8.376,26.928-3.39,14.6,4.047S-21.26,23.88,42.588,112.256,167.222,134.658,123.449,63.141Z" transform="translate(458.772 723.592) rotate(164)" fill="#1e1d1f"/>
      </g>
      <path id="Path_7" data-name="Path 7" d="M320.247,408.9a9.166,9.166,0,0,0,.024,1.752c.4,3.341,3.861,5.535,6.3,3.959a9.526,9.526,0,0,0,4.347-.346c4.878-1.569,10.686-7.293,9.073-12.873-1.248-4.326-4.809-4.767-8.243-3.7a6.692,6.692,0,0,0-4.659.746,10.048,10.048,0,0,0-5.273,5.158,18.891,18.891,0,0,1,3.445-6.569,9.966,9.966,0,0,1,3.717-1.126c.048-.005.043-.089-.007-.085a10.384,10.384,0,0,0-3.182.669,5.7,5.7,0,0,1,4.828-1.754c.07.009.076-.1.007-.107-2.272-.4-4.269.661-5.9,2.358a9.62,9.62,0,0,0-4.552,11.341C320.19,408.516,320.214,408.709,320.247,408.9Zm18.277-5.187a7.41,7.41,0,0,1-.941,3.006,6.942,6.942,0,0,0-.111-4.6,6.6,6.6,0,0,0-2.761-3.232C337.017,398.8,338.793,399.912,338.524,403.71Zm-12.767-4.328a8.4,8.4,0,0,0-1.4,1.493,9.233,9.233,0,0,0-1.05,1.513A8.066,8.066,0,0,1,325.757,399.382Zm-3.267,4.93a14.5,14.5,0,0,1,.791-1.87,8.281,8.281,0,0,0-.941,5.419,6.019,6.019,0,0,0,2.508,4.452c.17.148.369.256.55.387l-.085.043a5.882,5.882,0,0,1-3.8-4.128A15.3,15.3,0,0,1,322.49,404.312Zm1.456-6.443a19.663,19.663,0,0,0-3.548,7.595A9.244,9.244,0,0,1,323.946,397.869Zm-12.827,26.053a2.551,2.551,0,0,0-4.032-1.7c-.607.435.083,1.461.732,1.087,1.68-.969,2.408,1.354,1.532,2.519a2.906,2.906,0,0,1-3.145.865c-2.633-.815-2.483-4.343-.411-5.713a.043.043,0,0,0-.039-.076,3.728,3.728,0,0,0-2.163,4.208,3.815,3.815,0,0,0,4.195,2.771A3.613,3.613,0,0,0,311.119,423.922Zm-.441-36.9c3.587.257,5.273-4.761,2.239-6.715-.7-.454-1.669.528-1.007,1.145,1.6,1.491,1.611,4.287-1.063,4.559-2.95.3-3.791-3.4-1.717-5.065.057-.044-.009-.148-.072-.107A3.372,3.372,0,0,0,310.678,387.022Zm25.646,51.516a3.918,3.918,0,0,0-.524,1.724c-1.313,3.241-1.446,6.719,2.082,8.9,5.234,3.243,13.038-1.376,16.721-5.189,3.615-3.739,2.8-9.173-2.03-11.38a8.411,8.411,0,0,0-6.967-.065,7.655,7.655,0,0,0-5.352,2.546,9.494,9.494,0,0,0-1.87,1.145c.213-.352.424-.689.633-.991.08-.117-.1-.232-.18-.122-.435.572-.883,1.211-1.315,1.889A7.736,7.736,0,0,0,336.324,438.538Zm2.208,5.556a7.024,7.024,0,0,0,7.476,2.641c3.209-.8,4.85-3.652,6.11-6.445.9-2.006-.42-4.554-2.32-5.448a4.813,4.813,0,0,0-.322-.47,6.083,6.083,0,0,0-.806-.728,6.534,6.534,0,0,1,2.172.213,6.636,6.636,0,0,1,3.978,3.045c1.541,3.095-.831,5.763-3.1,7.554-2.771,2.193-6.824,4.771-10.508,4.58-5.221-.27-5.993-3.659-5.172-7.228A3.634,3.634,0,0,0,338.531,444.094Zm-33.465,9.073c-.243.635.709.935.983.341a3.255,3.255,0,0,1,4.6-1.3c1.754,1.232,1.426,4.2-.283,5.289a3.807,3.807,0,0,1-5.148-1.465c-1.107-2.085.152-4.635,2.141-5.6.113-.056.028-.222-.087-.176-2.45,1.013-3.848,4.154-2.346,6.521a4.446,4.446,0,0,0,6.43,1.124c1.9-1.641,2.009-5.071-.1-6.6A4.158,4.158,0,0,0,305.067,453.167Zm-33.855,5.611c-.822.344-.311,1.5.485,1.4a1.856,1.856,0,0,1,2.078,1.511c.211,1.235-1.065,1.95-2.119,1.952-3,.007-2.956-3.661-1.5-5.4.057-.069-.05-.156-.113-.1-2.767,2.419-.965,7.445,2.967,6.376S274.763,457.287,271.211,458.778Zm12.075-18.658a.956.956,0,0,0,1.056,1.567,2.153,2.153,0,0,1,3.013.891c.833,2.037-1.995,3.469-3.6,2.819-4.089-1.665-2.048-6.543.948-8.015a.086.086,0,0,0-.078-.154,5.774,5.774,0,0,0-3.813,5.713,4.4,4.4,0,0,0,5.228,4.067c2.335-.552,4.065-3.178,2.934-5.463A3.781,3.781,0,0,0,283.286,440.12Zm46.771,32.687a4.316,4.316,0,0,0-6.069,1.132.7.7,0,0,0,1.168.787c1.526-1.867,5.2-1.208,5.008,1.528a3.093,3.093,0,0,1-1.882,2.7,2.521,2.521,0,0,1-2.167-.193c-1.4-.861-.828-3.517,1.152-2.895a.087.087,0,0,0,.057-.165c-1.952-.911-3.363,1.669-2.245,3.215,1.406,1.945,4.2,1.483,5.567-.211A4.039,4.039,0,0,0,330.057,472.806Zm-38.2,21.371c4.86-1.583,5.484-6.774,1.909-10.156-3.013-2.848-7.336-3.143-11.017-1.728-3.641-.339-5.859,3.754-4.5,7.171C280.223,494.406,287.273,495.672,291.861,494.178Zm-9.478-11.734a12.425,12.425,0,0,0-2.9,1.722A3.693,3.693,0,0,1,282.382,482.444Zm-3.022,6.636a4.921,4.921,0,0,1-.369-3.861.763.763,0,0,0,1.13.27,11.745,11.745,0,0,1,1.641-.976c-.107.072-.22.131-.322.213a3.366,3.366,0,0,0,.528,5.385,6.008,6.008,0,0,0,3.345,2.406c2.45.656,4.8-.393,6.8-1.739a4.189,4.189,0,0,0,1.833-2.724c.5,1.43.131,2.922-1.922,4.024-2.421,1.3-6.2,1.095-8.665.206A7.3,7.3,0,0,1,279.36,489.079Zm-19.212-7.756c-.706.348-.169,1.315.533,1.065,2.291-.817,4.158,2.093,1.928,3.543-2.211,1.439-4.139-1.5-2.885-3.408.07-.106-.083-.2-.163-.109a2.789,2.789,0,0,0,3.815,4.013C266.356,484.233,263.324,479.757,260.148,481.323ZM241.61,466.954a3.769,3.769,0,0,0,.091-3.971,3,3,0,0,0-1.646-1.391c-.974-.281-1.785.67-2.495,1.226a.761.761,0,0,0,.841,1.246c.441-.237.857-.494,1.278-.754a2.215,2.215,0,0,1,.806,3.226c-1.37,1.737-4.037-.141-4.058-1.891a.13.13,0,0,0-.259-.017C235.778,467.471,239.845,469.393,241.61,466.954Zm16.562-45.08c-.363-1.319,1.154-.109,1.033.757-.006.035.056.048.063.013a1.8,1.8,0,0,0-.928-2.224c-1.2-.5-1.824.717-1.611,1.754C256.92,423.106,258.422,422.785,258.172,421.874Zm54.269,81.06a.75.75,0,0,0,1.152-.565c.057-.55.115-1.1.159-1.648a.843.843,0,0,0-.774-.882,9.993,9.993,0,0,0-1.45-.015c-.015-.046-.03-.091-.043-.137a.127.127,0,0,0,.224-.119,3.932,3.932,0,0,1-.367-1.335.327.327,0,0,0-.585-.115A3.677,3.677,0,0,0,312.441,502.934Zm9.467-72.155a.915.915,0,0,0-1,.183c-.069-.041-.15-.046-.185.054a2.055,2.055,0,0,0-.05.25,1.062,1.062,0,0,0-.048.989,4.339,4.339,0,0,0,.444,1.256.91.91,0,0,0,1.4.272A1.736,1.736,0,0,0,321.908,430.778Zm-15.369-30.185c2.452.294,3.491-4.173.478-4.121a1.115,1.115,0,0,0-.689,2.019,5.97,5.97,0,0,0,.774.943c-.054.239-1.346-.124-1.487-.237-1.22-.98-.028-2.356.783-2.824a.119.119,0,0,0-.107-.213C304.411,397.086,303.939,400.282,306.539,400.594Zm-16.218-14.81a3.314,3.314,0,0,0,1.1-1.765h-.006c.332-.931-.757-2.1-1.709-1.5a3.693,3.693,0,0,0-1.556,1.807C287.588,385.585,289.368,386.654,290.322,385.783Zm68.741,78.522a.7.7,0,0,0-.639.828l-.052,0c-.018-.083-.133-.054-.126.028.133,1.732,1.85,1.332,2.574.252a.5.5,0,0,0,.031-.509C360.438,464.191,359.82,464.217,359.062,464.306Zm-71.235,42.332a7.8,7.8,0,0,0-1.1.524,1.65,1.65,0,0,0-.181,2.808c-.311-.215-.233.972-1.239.046-.063-.057-.2-.018-.169.085a1.91,1.91,0,0,0,2.258,1.463,2.219,2.219,0,0,0,1.728-2.454c.137-.174.293-.333.42-.52A1.354,1.354,0,0,0,287.827,506.638Zm-28.235-2.709a1.5,1.5,0,0,0-1.674.365,2.754,2.754,0,0,0-.191.25,1.509,1.509,0,0,0-.094.122,2.864,2.864,0,0,0-.2.361c-.017.044-.056.078-.069.124l0,.017a2.093,2.093,0,0,0,.956,2.837,2.284,2.284,0,0,0,3.263-2.017A2.1,2.1,0,0,0,259.592,503.928Zm29.461-89.512a6.367,6.367,0,0,0-.08-4.556,7.56,7.56,0,0,0-1.476-5.46,5.623,5.623,0,0,0-7.663-1.148c-4.411-.02-8.324,4.063-7.258,8.617a7.612,7.612,0,0,0,2.243,3.8,8.833,8.833,0,0,0,1.357,2.639c1.289,1.73,3.656,1.281,4.889-.13.07.026.126.063.2.085A6.489,6.489,0,0,0,289.053,414.416Zm-10.891-7.793a7.85,7.85,0,0,0-3.68,6.849,6.341,6.341,0,0,1-1.143-2.609c-.678-3.887,2.556-7.054,6.182-7.347A4.4,4.4,0,0,0,278.162,406.623Zm1.958-.933a3.457,3.457,0,0,1,5.117-1.081,5.039,5.039,0,0,1,1.656,2.378,7.616,7.616,0,0,0-.78-.591A7.13,7.13,0,0,0,280.119,405.69Zm76.946,8.087a3.828,3.828,0,0,0,2.067-1.146,4.378,4.378,0,0,0,4.35-.767c4.061-3.333-.031-9.432-4.684-7.636a.765.765,0,0,0-.45.92c-2.8.446-5.682,3.337-5.022,6.174A3.216,3.216,0,0,0,357.066,413.777Zm6.456-5.313a4.531,4.531,0,0,0-1.259-2.059A2.987,2.987,0,0,1,363.522,408.464Zm-98.935,39.482c.059-.18.111-.348.169-.524a6.131,6.131,0,0,0,1.687-6.987,3.888,3.888,0,0,0-3.465-2.4,2.715,2.715,0,0,0-2.672,2.817.752.752,0,0,0,.133.317c-1.252,1.622-1.4,3.5-1.574,5.628a2.617,2.617,0,0,0,.037.344c-4.247-1.676-3.458-8.237,1.317-9.265a.076.076,0,0,0-.03-.148A5.708,5.708,0,0,0,255.6,444.6a5.853,5.853,0,0,0,3.7,3.863C260.457,450.305,263.743,450.47,264.587,447.946Zm-.961-8.052.111.087a1.63,1.63,0,0,0-.161-.057Zm89.321,34.731a3.156,3.156,0,0,0-5.454,1.857l-.017.226a3.21,3.21,0,1,0,5.628-1.917ZM242.078,430.3a5.624,5.624,0,0,0-4.184,3.708,4.344,4.344,0,0,0,.4,3.741l.009.044-.031-.037c.011.033.033.059.044.093a3.454,3.454,0,0,0,1.159,1.876,3.33,3.33,0,0,0,1.285.606,3.186,3.186,0,0,0,.315.089c.033.006.063.018.1.024a4.11,4.11,0,0,0,3.206-.582c.065-.033.139-.061.2-.094l.878-.593c.091-.065.143-.106.191-.143a4.858,4.858,0,0,0,1.9-5.6C246.81,431.33,244.384,429.636,242.078,430.3Zm-3.267,4.659c-.028.037-.048.087-.074.128l0-.018C238.915,434.766,238.939,434.73,238.812,434.96Zm4.154,56.353c-.924-1.182-3.346-.874-3.672.72l-.082.4a2.515,2.515,0,0,0,.913,2.735c.124.1.25.2.376.3a1.82,1.82,0,0,0,2.837-.754l.344-.73a2.352,2.352,0,0,0-.457-2.335Zm103.246-103.9.143.08.015-.017a2.614,2.614,0,0,0,1.717.357l.159-.02a2.623,2.623,0,0,0,1.978-1.739,5.02,5.02,0,0,0,.181-2.217c-.217-2.132-3.695-2.861-4.7-.926a4.984,4.984,0,0,0-.663,2.1A2.631,2.631,0,0,0,346.211,387.409Zm42.778,50.078c-3.976,43.132-34.067,79.745-73.152,94.551-15.875,3.313-32.492,5.4-48.175,1.291,8.26,1.021,16.912.257,25.2-.787,14.366-1.809,27.485-5.632,38.62-13.9a6.1,6.1,0,0,0,.637.074,110.634,110.634,0,0,1-39.576,15.83.065.065,0,0,0,.026.128,110.335,110.335,0,0,0,40.274-15.932,5.866,5.866,0,0,0,4.508-2.417,5.96,5.96,0,0,0,.622-1.122,104.24,104.24,0,0,0,42.2-69.9c5.524-20.755,5.1-42.439-7.458-58.3,11.641,11.938,16.417,28.055,14.538,45.191-1.333,12.16-5.645,23.5-11.038,34.374a.173.173,0,0,0-.248.094c-.209.583-.446,1.152-.665,1.73-3.328,6.536-7.011,12.906-10.643,19.182-.028.048.043.1.07.048,3.385-5.778,6.811-11.649,9.967-17.656a114.87,114.87,0,0,1-51.482,58.692.032.032,0,0,0,.03.057,113.563,113.563,0,0,0,53.006-61.76c5.71-11.319,10.263-23.16,11.519-35.874,1.789-18.108-3.824-35.439-17.76-47.489-.485-.42-.985-.815-1.482-1.22-1.126-1.091-2.3-2.156-3.572-3.171-14.738-11.771-33.079-15.953-51.41-14.617a96.355,96.355,0,0,0-47.525,13.7c-.332.2-.065.744.27.541q2.925-1.769,5.989-3.309A99.135,99.135,0,0,0,255.7,388.2c-.622.526-1.248,1.05-1.852,1.589a.193.193,0,0,0-.035.256,101.161,101.161,0,0,0-28.381,56.4,94.032,94.032,0,0,0-2.6,19.392,120.5,120.5,0,0,0,.063,27.711c.039.319.526.217.487-.1a120.424,120.424,0,0,1-.557-22.386c.53,20.731,7.926,41.474,24.314,54.251a38.209,38.209,0,0,0,14.3,6.869c15.942,5.995,33.533,4.682,50.162,1.376a106.113,106.113,0,0,1-40.472,5.321.357.357,0,0,0-.046.713c29.174,2.385,59.173-5.863,81.493-25.168C375.02,495,387.464,466.893,389.119,437.5A.065.065,0,0,0,388.99,437.488Zm-114.7-62.914a96.043,96.043,0,0,1,25.742-8.036A105.037,105.037,0,0,0,262.554,382.9,101.957,101.957,0,0,1,274.289,374.574ZM227.92,439.566l.009-.041v0a101.6,101.6,0,0,1,28.427-51.106,97.624,97.624,0,0,1,16.784-9.967,126.205,126.205,0,0,0-46.358,67.213C227.106,443.616,227.476,441.583,227.92,439.566Zm22.509,80.86c-11.095-8.543-18.256-21.158-22.018-34.915a101.608,101.608,0,0,1-2.854-25.873,62.939,62.939,0,0,1,1.926-7.571.076.076,0,0,0-.143-.05,63.643,63.643,0,0,0-1.774,6.517c.093-3.117.335-6.219.709-9.3A126.088,126.088,0,0,1,273.8,378.135c.4-.183.8-.369,1.2-.548a78.055,78.055,0,0,0-22.262,26.066c-.078.146.137.293.215.146a77.98,77.98,0,0,1,22.5-26.407c26.42-11.593,58.971-12.782,82.934,3.722,36.98,25.472,14.7,80.728-3.246,111.111A.693.693,0,0,0,356.3,493a135.9,135.9,0,0,0,22.188-41.9,104.091,104.091,0,0,1-40.217,63.312,5.816,5.816,0,0,0,.17-1.8c.5-.506,1.007-1,1.5-1.53a.829.829,0,0,0-.332-1.343,73.609,73.609,0,0,0,8.612-10.482.239.239,0,0,0-.4-.267,73.463,73.463,0,0,1-9.784,11.654A9.028,9.028,0,0,0,337,508.61c-1.161-1.707-3.578-1.652-5.232-.776a5.485,5.485,0,0,0-4.408,3,5.373,5.373,0,0,0-.448,1.531c-.006.039-.013.076-.017.113a5.47,5.47,0,0,0,1.889,4.795C306.406,530.154,269.156,534.843,250.429,520.425Z" transform="translate(819.434 3148.656)" fill="#39383b"/>
      <path id="Path_47" data-name="Path 47" d="M327.614,418.8a2.614,2.614,0,0,0,1.23,1,3.053,3.053,0,0,0,.878.193c.543.043.7.309,1.178.518,1.935.857,3.745-1.226,4.361-2.782.576-1.456-.88-3.022-2.291-3.008a11.213,11.213,0,0,0-3.48.709c-3.132,1.031-1.869,5.789,1.369,4.965a11.2,11.2,0,0,0,3.311-1.248l-3.489-1.419c.2.659-.111-.439.035.191-.068-.293-.052.05.007-.046a4.472,4.472,0,0,0-.487,1.009c-.087.276-.033.441-.3.557a2.123,2.123,0,0,1-.763-.046,2.2,2.2,0,0,1-1.282-.806c-.126-.15-.385.048-.274.211Z" transform="translate(909.333 3191.625)" fill="#39383b"/>
      <path id="Path_48" data-name="Path 48" d="M330.418,427.843l.161-.026.833.226a1.272,1.272,0,0,1,.5,1.3l-.535.919-.207.183c1.47-.622,1.313-2.785.222-3.626a2.21,2.21,0,0,0-3.454,1.143c-.882,2.45,3.1,4.658,4.211,2.135.485-1.1-.333-2.733-1.732-2.252Z" transform="translate(909.524 3201.556)" fill="#39383b"/>
      <path id="Path_56" data-name="Path 56" d="M219.535,415.717c6.848,8.843-3.015,19.206,1.572,28.409a8,8,0,0,0,8.111,4.665,18.643,18.643,0,0,0,2.532-.924c-1.443-2.17-4.185,6.134-4.335,6.626-2.195,7.2-1.643,14.286.822,21.327.228.65,1.239.391,1.044-.287a35.2,35.2,0,0,1,4.085-29.266.906.906,0,0,0-1.417-1.094q-12.665.936-10.328-8.208a23.452,23.452,0,0,1,.85-7.828c.241-2.589.813-3.835.52-6.349a12.268,12.268,0,0,0-3.246-7.282c-.124-.152-.328.063-.211.211Z" transform="translate(817.293 3192.269)" fill="#39383b"/>
      <path id="Path_10" data-name="Path 10" d="M396.47,239.759c.106-1.061.263-2.1.452-3.12-.043.68-.074,1.359-.076,2.043-2.841,32.711,34.074,57.649,57.725,30.516,24.294-27.874-3.847-71.146-34.318-60.651a28.052,28.052,0,0,0-8.556,2.572c-.315.154-.085.767.235.62a29.386,29.386,0,0,1,4.6-1.639c-.389.191-.776.346-1.165.556-.865.465-.107,1.811.741,1.406a33.238,33.238,0,0,1,9.721-2.9c8.986.524,17.714,5.061,24.173,12.482a42.525,42.525,0,0,1,9.891,28.49c-1.622,8.05-5.665,15.466-12.051,20.249a35.248,35.248,0,0,1-3.867,2.495c-12.4,4.232-28.2-1.589-37.211-10.713a32.96,32.96,0,0,1-7.571-12.4,41.2,41.2,0,0,1,.1-20.838c4.18-9.423,12.386-15.943,22.46-17.182.052-.006.052-.1,0-.089-10.117,1.148-18.347,7.567-22.649,16.919a.2.2,0,0,0-.185.141c-.081.244-.133.487-.211.73q-.389.914-.726,1.863a27.826,27.826,0,0,1,6.865-13.215c.048-.05-.024-.13-.072-.08a28.55,28.55,0,0,0-7.528,15.627,36.942,36.942,0,0,0-1.183,6.115C396.031,240.046,396.443,240.046,396.47,239.759Zm56.471-15.549a37.748,37.748,0,0,0-23.279-15.369,29.056,29.056,0,0,1,25.751,13.769,37.725,37.725,0,0,1,5.122,23.1A42.884,42.884,0,0,0,452.942,224.21Zm-48.647,36.219c8.056,9.952,23.351,16.569,36.2,14.169-15.973,6.561-32.141-2.926-39.08-18.429A31.812,31.812,0,0,0,404.295,260.428Zm-6.762-26.5c.024-.091.056-.178.08-.269-.054.261-.109.52-.157.78C397.474,234.27,397.511,234.1,397.533,233.929Zm87.5-50.664a72.212,72.212,0,0,0-31.324-17.458c-23.283-8.252-49.571-3.787-70.5,14.4-.063.056.02.178.085.124a73.326,73.326,0,0,1,47.587-16.621,81.33,81.33,0,0,0-43.043,16.384c-.776.58-.078,1.952.743,1.406,27-17.988,61.757-19.445,87.938-1.017A80.719,80.719,0,0,1,489.5,193.7c.235.3.611-.131.391-.432-1.174-1.591-2.4-3.1-3.65-4.576,1.367,1.365,2.708,2.776,4,4.276,19.473,22.618,24.49,54.868,14.651,82.086a.558.558,0,0,0-1.043.165,54.4,54.4,0,0,1-3.53,10.123,75.348,75.348,0,0,1-12.38,17.036c-.432.444-.883.856-1.324,1.285a59.135,59.135,0,0,1-17.164,10.63c-18.771,7.539-39.706,4.484-58.357-1.826-.063-.022-.089.085-.028.109,15.856,6.26,33.348,9.884,49.967,6.4-27.744,9.049-61.222,1.111-82.675-18.673A79.5,79.5,0,0,1,356.2,263.369a128.4,128.4,0,0,1-.583-24.564c.894-12.11,2.719-32.055,13.6-38.537.069-.041.007-.157-.063-.117-9.788,5.75-11.741,21.053-13.186,31.965a128.05,128.05,0,0,0-.513,28.424,81.379,81.379,0,0,1-2.3-17.553,162.779,162.779,0,0,1,2.476-20.6,61.827,61.827,0,0,1,7.334-16.68c5.213-6.282,10.98-12.221,17.44-16.634a1.159,1.159,0,0,0,.422-1.256c.33-.211.637-.439.972-.644.278-.17.033-.624-.246-.469-.332.185-.63.411-.956.6a.84.84,0,0,0-.976-.289c-12.643,4.347-22.725,14.493-28.692,27.459-.07.154.13.287.211.137a53.887,53.887,0,0,1,22.209-22.244,60.441,60.441,0,0,0-13.084,14.93c-.961,1.178-1.928,2.346-2.854,3.585a.649.649,0,0,0,.259.978c-9.062,17.6-10.554,39.724-3.1,59.612.124.333.28.641.407.97.165.7.322,1.4.506,2.089,4.454,16.858,15.045,29.52,28.668,38.082,26.588,16.706,58.753,20.851,88.393,13.358a74.922,74.922,0,0,1-19.744,8.191c-37.581,9.48-85.923-12.054-101.483-52.767-.022-.057-.115-.017-.093.044,15.353,42.545,64.207,64.951,103.109,54.584a77.093,77.093,0,0,0,25.214-12.045c2.421-.774,4.824-1.607,7.2-2.541.478-.187.276-1.037-.211-.85-1.522.583-3.063,1.1-4.6,1.622a84.646,84.646,0,0,0,32.22-61.988c.3-2.169.535-4.359.67-6.585C516.561,225.253,504.474,199.227,485.03,183.265ZM355.1,224.506c-.807,4.574-1.472,9.217-1.911,13.891A71.613,71.613,0,0,1,355.1,224.506Zm120.269,99.716a117.346,117.346,0,0,1-22.123,3.8c25.5-4.661,47.062-23.846,56.553-50.064A84.22,84.22,0,0,1,475.372,324.222Zm37.433-61.114c-5.917,34.494-31.872,60.692-63.075,65.159a112.52,112.52,0,0,1-61.183-14.728c-13.547-7.78-25.01-19.04-30.8-34.742,14.46,29.718,44.134,45.88,74.285,47.278,32.533,1.509,63.177-14.93,75.493-49.614a86.726,86.726,0,0,0,4.613-36.13A82.716,82.716,0,0,1,512.806,263.108Zm-.754-26.927a.313.313,0,0,0-.406-.257A89.071,89.071,0,0,0,492.3,191.06a84.849,84.849,0,0,1,21.775,58.7A86.781,86.781,0,0,0,512.052,236.181ZM388.864,199.266a99.063,99.063,0,0,0-13.806,10.858,81.376,81.376,0,0,1,5.385-8.208c.067-.087-.046-.217-.115-.128a81.383,81.383,0,0,0-5.976,9.03A104.087,104.087,0,0,0,363.813,222.6c-.152.2.107.487.261.287a104.262,104.262,0,0,1,9.567-10.843,86.7,86.7,0,0,0-9.808,52.869c.057.444.667.256.609-.187A87.706,87.706,0,0,1,372.2,215.5a.357.357,0,0,0,.583.05c17.858-19.081,42.491-30.279,67.507-27.72,30.831,3.154,57.47,24.66,55.973,61.525a.941.941,0,1,0,1.878,0c.017-.25.018-.494.033-.743a61.863,61.863,0,0,1-9.358,33.278c-30.579,34.291-110.544,25.966-121.03-29.877-.559-7.054-.483-14.228-.383-21.168a.082.082,0,1,0-.163,0c-.12,6.191-.211,12.59.148,18.929a69.834,69.834,0,0,1-.756-11.488.328.328,0,1,0-.654,0,69.194,69.194,0,0,0,2.958,24.431,52.892,52.892,0,0,0,7.634,19.484c5.908,8.838,14.512,13.13,23.681,15.847,16.338,8.023,36.131,10.032,53.925,6.385,12.941-1.422,25.033-6.091,33.365-16.634,11.865-11.491,17.912-28.238,12.858-49.91-.146-.626-.983-.359-.867.263,3.174,17-.546,30.718-8.462,41.034a61.861,61.861,0,0,0,6.963-40.387,63.99,63.99,0,0,0-4.926-19.934c1.074,1.628,2.126,3.276,3.095,5,.028.05.1,0,.07-.046q-1.692-3.1-3.613-6a58.138,58.138,0,0,0-43.9-33.722c-2.122-.346-4.247-.569-6.371-.73a72.832,72.832,0,0,0-15.89-1.139c-.328.013-.33.576,0,.565a73.915,73.915,0,0,1,8.473.237c-.459.052-.911.128-1.369.185A82.141,82.141,0,0,0,388.864,199.266Zm-15.971,14.869c.485-.961.985-1.913,1.507-2.856a100.467,100.467,0,0,1,9.469-8.119A92.785,92.785,0,0,0,372.893,214.135Zm2.893,66.031a52.257,52.257,0,0,1-5.974-14.9c5.13,13.9,14.9,24.153,26.9,30.922C388.474,293.262,380.962,288.706,375.786,280.166Zm84.921,22.647c1.824-.535,3.619-1.126,5.374-1.785a41.674,41.674,0,0,0,3.939-1.624,62.337,62.337,0,0,0,14.069-8.554C477.648,297.34,469.518,301,460.707,302.814Zm-25.2-119.736c.381.031.763.052,1.144.091-.689,0-1.378.015-2.067.035C434.894,183.167,435.2,183.112,435.509,183.078ZM418.5,227.4a12.537,12.537,0,0,0-.548,3.943,4.572,4.572,0,0,0-.982,1.217c-1.822,3.387-.583,8.2,1.948,10.673a6.909,6.909,0,0,0,9.589.387c2.239-2.087,3.1-6.185,1.161-8.71a7.685,7.685,0,0,0-4.006-4.563,4.631,4.631,0,0,0-3.882.161,3.647,3.647,0,0,0-3.489.535,11.931,11.931,0,0,1,.424-3.576A.113.113,0,1,0,418.5,227.4Zm3.213,12.81a6.985,6.985,0,0,1-1.646-2.161,10.151,10.151,0,0,0,.791.993,8.056,8.056,0,0,0,3.443,2.141A4.231,4.231,0,0,1,421.71,240.214Zm-1.822-4.776a4.3,4.3,0,0,1,2-4.193,2.4,2.4,0,0,1,1.144.48c.118.087.241-.106.148-.213a3.666,3.666,0,0,0-.628-.569,3.591,3.591,0,0,1,.957-.209,5.5,5.5,0,0,1,4.467,2.446,5.96,5.96,0,0,1,.419.739,1.2,1.2,0,0,0-1.393,1.606c.511,1.6.719,3.641-.574,4.869a2.817,2.817,0,0,1-.495.372,4.309,4.309,0,0,1-1.222-.044,7.662,7.662,0,0,1-5.385-4.8c-.011-.057-.035-.115-.043-.172s0-.137-.011-.2A.313.313,0,0,0,419.888,235.438Zm.607-12.473c-5.545-1.126-9.5,1.524-11.564,5.7-4.689,6.984-2.022,15.329,3.8,21.825,6.289,8.308,16.686,14.108,25.99,12.467,11.254-1.983,18.708-13.662,14.016-25.735a25.84,25.84,0,0,0-12.743-13.867c-9.517-6.3-21.5-4.365-31.259,1.12-.27.152-.033.593.237.448,7.865-4.161,16.766-6.408,25.064-3.7a26.314,26.314,0,0,0-10.1-.369c-.226.037-.174.467.054.445,7.554-.785,14.851,1.38,20.419,7.365a24.028,24.028,0,0,1,3.232,4.428,20.812,20.812,0,0,1,.613,17.388c-2.437,5.691-6.337,8.636-10.782,9.6-5.2.719-10.654-1.193-15.19-4.291a35.884,35.884,0,0,1-7.543-7.008,25.066,25.066,0,0,1-4.7-8.262q-3.828-11.142,9.993-15.734C421.116,225,421.585,223.186,420.5,222.965Zm-12.526,18.266a14.613,14.613,0,0,1,.167-10.551A19.05,19.05,0,0,0,407.969,241.231Zm38.7,13.8a20.509,20.509,0,0,0,3.821-14.145c.959,5.571-.311,11.275-4.815,15.321C446.013,255.832,446.354,255.46,446.669,255.034Zm-53.742,21.281a49.906,49.906,0,0,0,31.129,14.132c23.77,5.958,48.736-8.66,55.923-35.876a.362.362,0,1,0-.691-.211c-7.715,25.572-30.25,40.478-53.166,36.213a56.425,56.425,0,0,0,32.392-8.373,41.7,41.7,0,0,0,13.051-12.906c15.051-20.144,4.845-51.053-15.89-63.359a51.788,51.788,0,0,0-20.133-6.761,84.9,84.9,0,0,0-30.522.92c-.839.172-.465,1.52.346,1.395,2.052-.317,4.128-.57,6.21-.785-12.61,3-27.507,9.175-30.081,24.96a.318.318,0,0,0,.222.369A47.865,47.865,0,0,0,392.928,276.314Zm-10.051-21.323a55.87,55.87,0,0,0,14.841,21.927A46.657,46.657,0,0,1,382.877,254.991Zm94.968-2.385a37.793,37.793,0,0,1-1.648,7.054A42.944,42.944,0,0,0,477.845,252.606Zm-93.786-33.066c-.565,1.463-1.069,2.943-1.524,4.434-.037.085-.083.169-.119.254A25.65,25.65,0,0,1,384.059,219.539Zm5.052-5.9c.13-.176-.089-.431-.232-.256a45.047,45.047,0,0,0-5.682,9.158c.533-1.637,1.144-3.256,1.811-4.863,5.624-9.76,17.071-13.991,27.261-16.34,2.026-.467,4.076-.822,6.134-1.119,16.979-.635,34.029,3.2,46.591,17.169,17.155,19.079,13.467,49.354-7.867,62.181-15.391,9.254-35.029,10.758-51.084,2.7a54.285,54.285,0,0,1-24.268-31.289A45.447,45.447,0,0,1,389.111,213.639Z" transform="translate(-248.986 3219.458)" fill="#39383b"/>
      <path id="Path_3" data-name="Path 3" d="M30.556.655a.323.323,0,0,1-.156.627,21.226,21.226,0,0,0-6.853-.52,24.363,24.363,0,0,1,3.247.761C34.48,2.553,41.259,6.758,41.608,14.25a18.218,18.218,0,0,1,1.324,4.867.612.612,0,0,1-.012.141,31.4,31.4,0,0,1,1.8,3.928c.018.016.035.034.054.049a11.827,11.827,0,0,1,.13-3.208c0-.017-.014-.026-.012-.044a20.35,20.35,0,0,1,2.86-7.961c.114-.217.23-.428.345-.638a.918.918,0,0,1-.362-1.335A17.048,17.048,0,0,1,58.642,2.8a18.479,18.479,0,0,1,9.51.151A19.359,19.359,0,0,0,63.56,1.838a20.283,20.283,0,0,0-14.5,6.055c-.233.227-.6-.12-.368-.35A20.921,20.921,0,0,1,59.265,1.858,20.658,20.658,0,0,0,47.852,7.62c-.173.161-.44-.091-.266-.254A20.212,20.212,0,0,1,61.019,1.6,20.138,20.138,0,0,1,77.224,7.4c-.689-.821-1.411-1.638-2.208-2.444-.313-.316.164-.819.476-.5a31.039,31.039,0,0,1,5.3,7.313,27.175,27.175,0,0,1,3.588,6.384c8.032,20.335-6.13,40.2-18.846,54.822-.059.067-.158-.027-.1-.095,10.473-12.133,21.528-26.613,20.84-43.553a30.113,30.113,0,0,0-3.212-12.089c.107.343.195.694.291,1.04,2.474,6.817,2.459,14.665.773,21.745A57.744,57.744,0,0,1,61.206,73.336c-.9.7-1.819,1.366-2.762,1.988-1.471,1.43-2.943,2.839-4.4,4.234-.106.1-.274-.056-.166-.159,1.086-1.051,2.2-2.157,3.337-3.3a44.679,44.679,0,0,1-7.621,3.736,49.026,49.026,0,0,1-9.553,3.359,27.653,27.653,0,0,0,5.211-1.2c.084-.027.123.1.04.133a27.187,27.187,0,0,1-7,1.43,29.15,29.15,0,0,1-8.958.351c-.621.005-1.244.008-1.867-.011a.138.138,0,0,1-.007-.276l.1-.012A18.594,18.594,0,0,1,17.27,77.664a22.267,22.267,0,0,1-4.722-10.873,26.329,26.329,0,0,1-1.3-11.823c.035-.306.575-.252.544.059a27.4,27.4,0,0,0,.338,7.881c-.259-5.406.848-10.875,3.448-14.7a23.567,23.567,0,0,1,4.628-5.8,17.9,17.9,0,0,1-6.839-3.909,22.491,22.491,0,0,1-9.607-8.922,18.961,18.961,0,0,1-2.325-9.645C.915,18.778.428,17.6.017,16.381c-.115-.341.4-.485.53-.16.309.777.636,1.541.975,2.3a19.456,19.456,0,0,1,.373-2.3A15.776,15.776,0,0,1,5.064,7.6,18.271,18.271,0,0,1,20.966.484,20.613,20.613,0,0,1,30.556.655ZM16.8,72.721C24.73,83.367,39,83.411,49.5,76.661c.225-.145.442.208.219.353-9.441,6.089-22.385,6.532-30.5-.758A24.856,24.856,0,0,0,23.421,79.6a17.841,17.841,0,0,0,5.859,1.933,35.187,35.187,0,0,0,9.011.165A63.67,63.67,0,0,0,66.815,65.607a99.6,99.6,0,0,0,12.3-18.054c3.729-8.793,5.391-19.022,2.043-28a23.307,23.307,0,0,0-5.025-8.012c.293.442.576.893.834,1.365,5.844,10.676,2.214,22.642-1.5,33.357-.019.055-.106.035-.089-.022,2.681-9.189,5.965-19.745,2.248-29.1C74.18,8.485,65.791,3.409,57.3,6.618l.027.008a8.7,8.7,0,0,1,2.662,1.666,18.184,18.184,0,0,1,3.454-.459.092.092,0,0,1,0,.184A17.994,17.994,0,0,0,60.2,8.49a10.163,10.163,0,0,1,2.509,4.029l.008-.163c.01-.217.367-.314.409-.065a15.347,15.347,0,0,1,.18,3.091,11.724,11.724,0,0,1-.527,4.652,10.745,10.745,0,0,1-4.742,6.018,14.883,14.883,0,0,1-10.862,3.294c-.409-.036-.429-.682-.016-.644a15.1,15.1,0,0,0,8.116-1.486,11.271,11.271,0,0,1-1.566.285,6.831,6.831,0,0,1-2.75.82l-.012.013a.063.063,0,0,1-.1-.006,7.171,7.171,0,0,1-1.55-.056A5.118,5.118,0,0,1,45.865,26.1a4.3,4.3,0,0,1-.327-.472,31.187,31.187,0,0,1,.851,3.648.321.321,0,1,1-.631.1,30.669,30.669,0,0,0-.878-3.792.694.694,0,0,1-.567.607,33.26,33.26,0,0,1,.4,3.851.069.069,0,0,1-.138,0,33.4,33.4,0,0,0-.463-3.833.584.584,0,0,1-.524-.31C39.686,18.662,33.4,8.429,25.554,4.939a30.955,30.955,0,0,0-3.58-1.069,12.308,12.308,0,0,0-1.674-.15,9.007,9.007,0,0,0-3.543,1.967c-.354.314-.892-.2-.535-.509a10,10,0,0,1,1.913-1.3A16.913,16.913,0,0,0,9.764,8.189,19.516,19.516,0,0,0,6.23,15.364q.368-.42.786-.816c.151-.142.385.08.234.222a12.3,12.3,0,0,0-1.192,1.3,21.089,21.089,0,0,0-.392,6.439c.014.147-.215.152-.23.005a21.29,21.29,0,0,1,.2-5.862A10.646,10.646,0,0,0,4.18,19.542c-.008.208-.012.417-.013.625.857,5.916,4.461,10.531,9.13,14.2a16.053,16.053,0,0,0,6.485.316c.433-.062.559.7.123.767a17.4,17.4,0,0,1-5,.117c.9.64,1.84,1.25,2.794,1.83a34.886,34.886,0,0,1,6.375,2.156,24.062,24.062,0,0,1,4.662-2.14.231.231,0,0,1,.134.441,23.544,23.544,0,0,0-4.338,1.9,35.465,35.465,0,0,1,4.241,2.339,21.489,21.489,0,0,1,2.891-.417c.148-.012.154.218.006.229a21.375,21.375,0,0,0-2.624.374c.818.539,1.617,1.107,2.391,1.712a9.638,9.638,0,0,1,2.546.624c.146.059.048.295-.1.256a8.089,8.089,0,0,0-1.474-.232,12.8,12.8,0,0,1,5.244,5.473c.039.047.082.091.12.138a.141.141,0,0,1,.005.163,7.775,7.775,0,0,1,.582,4.191,8.088,8.088,0,0,1-.218.9c2.147-2.592,2.716-6.306,3.182-9.56.059-.41.686-.252.627.156-.521,3.634-1.537,8.51-4.456,11.074a6.11,6.11,0,0,1-2.933,2.65.685.685,0,0,1-.414.48c-5.99,2.549-12.964-1.722-12.447-8.472a8.325,8.325,0,0,1,4.409-6.825c-8.477.847-12.521,10.26-11.866,18.44.066.827.177,1.632.308,2.427A19.008,19.008,0,0,0,27.373,77.413C41.753,81.65,54.638,72.725,65,63.781c.033-.029.083.018.049.047C53.987,73.9,38.478,84.6,23.107,77.141a18.177,18.177,0,0,1-7.088-6.011q.287.695.622,1.355C16.7,72.564,16.747,72.643,16.8,72.721Zm8.362-19.292q.352,4.857,4.652,4.914a4.01,4.01,0,0,0,3.141.569c-3.65.043-6.726-4.175-4.382-7.389.085-.117.286-.013.2.112a4.27,4.27,0,0,0,.889,5.6A4.81,4.81,0,0,0,34.59,58a6.442,6.442,0,0,0,.706-.718,7.369,7.369,0,0,0-.737-8.589A12.563,12.563,0,0,0,29.131,45.1a7.143,7.143,0,0,0-4.755,7.091,7.353,7.353,0,0,0,.815,3.114,7.773,7.773,0,0,1-.256-1.873A.115.115,0,0,1,25.167,53.429ZM8.216,9.7a15.566,15.566,0,0,0-3.957,8.809,11.433,11.433,0,0,1,1.51-2.574A20.179,20.179,0,0,1,8.216,9.7ZM24.409,41.722q-.933-.341-1.862-.7c-.059.041-.119.081-.177.123C23.047,41.343,23.727,41.533,24.409,41.722Zm-2.3-.874c-.479-.19-.955-.386-1.43-.587.415.241.828.484,1.252.713C21.991,40.931,22.053,40.891,22.111,40.848Zm.609-.708c.1.024.194.045.291.07.137-.092.28-.176.419-.265a39.534,39.534,0,0,0-3.765-1.406C20.674,39.1,21.7,39.634,22.719,40.14Zm.838.2c.553.133,1.106.265,1.66.392-.435-.214-.89-.392-1.334-.59C23.774,40.21,23.664,40.273,23.558,40.341Zm2.414.8q-1.123-.25-2.26-.519c1.308.626,2.608,1.208,3.882,1.753.141-.039.28-.08.422-.115C27.35,41.86,26.661,41.5,25.971,41.142Zm1.989,1.392c.433.184.86.362,1.285.538-.315-.208-.622-.425-.944-.622C28.188,42.477,28.074,42.5,27.96,42.534Zm-9.368-3.2c-.268-.126-.534-.258-.8-.389-.184-.063-.367-.128-.551-.194q1.129.614,2.295,1.167C19.218,39.733,18.907,39.532,18.592,39.337Zm-2.665-1.355c-.157-.085-.315-.167-.47-.255.105.064.214.124.319.188C15.827,37.936,15.877,37.96,15.927,37.981ZM33.6,7.329c.048.04.1.077.149.117A29.4,29.4,0,0,1,40.773,15.9c.047.065.092.132.139.2A19.05,19.05,0,0,0,27.446,3.375,22.507,22.507,0,0,1,33.6,7.329Zm9.585,14.15.126.276c.122.146.247.289.377.429-.295-.7-.621-1.373-.965-2.042C42.886,20.584,43.039,21.029,43.183,21.479ZM44.408,24.3c.112.269.223.537.332.8-.071-.23-.125-.465-.2-.693C44.5,24.375,44.449,24.344,44.408,24.3Zm7.519,3.25c-.068,0-.136-.018-.2-.023l-.1.109C51.723,27.612,51.825,27.583,51.927,27.553ZM53.637,8.1a4.015,4.015,0,0,0-.74.132q-.469.319-.928.675-.426.422-.826.865a13.7,13.7,0,0,1,1.082-.893c.145-.107.341.13.2.249a12.911,12.911,0,0,0-2.412,2.722c-.016.069-.041.122-.056.194a.818.818,0,0,1-.232.432c-.382,1.226-.7,2.461-.972,3.7a18.21,18.21,0,0,1,8.637-7.088,6.772,6.772,0,0,0-3.146-1A.664.664,0,0,1,53.637,8.1Zm-5.165,9.522a55.9,55.9,0,0,0-.836,7.39,10.608,10.608,0,0,0,5.4.9l8.068-8.55c.142-.151.378.074.234.222L59.69,19.294a.267.267,0,0,1,.082.319,24.476,24.476,0,0,1-2.8,4.936,9.51,9.51,0,0,0,4.183-10.865,8.3,8.3,0,0,0-3.478-4.4A17.825,17.825,0,0,0,48.472,17.625Zm10.485,2.426-5.631,5.821a9.221,9.221,0,0,0,2.3-.625A18.882,18.882,0,0,0,58.957,20.051Zm-7.616,7.662.193-.2a11.681,11.681,0,0,1-3.136-.69,4.775,4.775,0,0,0,1.685.672.162.162,0,0,1-.035.318,7.787,7.787,0,0,1-1.558-.187A5.748,5.748,0,0,0,51.341,27.713Zm-4.688-3.186c.109.061.216.126.328.184a33.434,33.434,0,0,1,.362-4.384c-.066.2-.141.4-.2.608-.1.342-.64.208-.537-.133A18.461,18.461,0,0,1,47.825,17.8,39.765,39.765,0,0,1,48.951,13.8a13.732,13.732,0,0,0-.938,3.069c-.087.487-.788.345-.8-.1C46.41,19.292,45.9,22.307,46.653,24.527Zm-16.6-21.76A23.1,23.1,0,0,1,41.3,13.567C40.592,7.746,35.869,4.205,30.051,2.767ZM78.019,8.356a.072.072,0,0,1-.09-.016,20.48,20.48,0,0,0-11.963-6.3A25.11,25.11,0,0,1,78.806,9.422C78.548,9.066,78.3,8.709,78.019,8.356Zm4.724,8.261c-.111-.212-.216-.425-.332-.634.233.5.464,1,.667,1.51C82.977,17.2,82.856,16.909,82.744,16.617ZM17.278,46.175A10.474,10.474,0,0,1,23,43.275c-.811-.227-1.609-.468-2.394-.726A23.18,23.18,0,0,0,17.278,46.175Z" transform="translate(1340.081 3804.215) rotate(98)" fill="#39383b"/>
      <circle id="Ellipse_2024" data-name="Ellipse 2024" cx="10.5" cy="10.5" r="10.5" transform="translate(1083.855 3487.361)" fill="#434343"/>
      <circle id="Ellipse_2025" data-name="Ellipse 2025" cx="7" cy="7" r="7" transform="translate(1014.866 3460.186)" fill="#434343"/>
      <circle id="Ellipse_2026" data-name="Ellipse 2026" cx="7" cy="7" r="7" transform="translate(1028.864 3521.392)" fill="#434343"/>
      <circle id="Ellipse_2027" data-name="Ellipse 2027" cx="10.5" cy="10.5" r="10.5" transform="translate(227.821 3792.932)" fill="#1e1d1f"/>
      <circle id="Ellipse_2028" data-name="Ellipse 2028" cx="7" cy="7" r="7" transform="translate(168.821 3806.932)" fill="#1e1d1f"/>
      <circle id="Ellipse_2029" data-name="Ellipse 2029" cx="7" cy="7" r="7" transform="translate(182.821 3751.932)" fill="#1e1d1f"/>
    </g>
  </g>
</svg>
