<svg xmlns="http://www.w3.org/2000/svg" xmlns:xlink="http://www.w3.org/1999/xlink" width="1366" height="983" viewBox="0 0 1366 983">
  <defs>
    <clipPath id="clip-path">
      <rect id="Rectangle_14685" data-name="Rectangle 14685" width="1366" height="983" transform="translate(0 971)" fill="none" stroke="#707070" stroke-width="1"/>
    </clipPath>
    <linearGradient id="linear-gradient" x1="0.5" y1="-2.69" x2="0.5" y2="0.753" gradientUnits="objectBoundingBox">
      <stop offset="0" stop-color="#fff"/>
      <stop offset="1" stop-color="#202020"/>
    </linearGradient>
  </defs>
  <g id="Mask_Group_255" data-name="Mask Group 255" transform="translate(0 -971)" clip-path="url(#clip-path)">
    <g id="Group_66972" data-name="Group 66972" transform="translate(0 1348.813)">
      <path id="Path_9" data-name="Path 9" d="M636.422,184.959a8.729,8.729,0,0,1-.135,1.706c-.6,3.234-4.113,5.156-6.391,3.467a9.307,9.307,0,0,1-4.219-.613c-4.658-1.837-9.962-7.786-8.039-13.125,1.493-4.143,4.991-4.348,8.275-3.093a6.546,6.546,0,0,1,4.5,1.024,9.81,9.81,0,0,1,4.819,5.36,18.488,18.488,0,0,0-2.945-6.623,9.76,9.76,0,0,0-3.556-1.332c-.046-.007-.035-.089.013-.083a10.2,10.2,0,0,1,3.061.852,5.564,5.564,0,0,0-4.6-2.013c-.068,0-.067-.1,0-.107,2.243-.241,4.122.915,5.606,2.672a9.4,9.4,0,0,1,3.724,11.349C636.5,184.59,636.467,184.776,636.422,184.959Zm-17.5-6.21a7.208,7.208,0,0,0,.728,2.989,6.79,6.79,0,0,1,.4-4.482,6.452,6.452,0,0,1,2.9-2.978C620.7,174.051,618.9,175.027,618.923,178.749Zm12.725-3.419a8.169,8.169,0,0,1,1.267,1.543,8.877,8.877,0,0,1,.93,1.543A7.876,7.876,0,0,0,631.648,175.331Zm2.876,5.013a14.231,14.231,0,0,0-.654-1.872,8.1,8.1,0,0,1,.576,5.343A5.88,5.88,0,0,1,631.72,188c-.176.133-.374.226-.561.343l.08.046a5.746,5.746,0,0,0,3.967-3.785A14.92,14.92,0,0,0,634.524,180.344Zm-1.015-6.374a19.222,19.222,0,0,1,2.983,7.63A9.033,9.033,0,0,0,633.509,173.97Zm10.871,26.218a2.492,2.492,0,0,1,4.039-1.4c.565.463-.174,1.419-.781,1.015-1.578-1.052-2.433,1.167-1.652,2.359A2.834,2.834,0,0,0,649,203.2c2.62-.628,2.695-4.08.761-5.545a.043.043,0,0,1,.043-.074,3.644,3.644,0,0,1,1.844,4.241,3.728,3.728,0,0,1-4.265,2.437A3.529,3.529,0,0,1,644.38,200.188Zm2.752-35.963c-3.513.026-4.841-4.976-1.759-6.691.715-.4,1.594.62.909,1.18-1.654,1.354-1.841,4.08.75,4.513,2.858.478,3.911-3.074,1.993-4.83-.052-.048.019-.144.078-.1A3.3,3.3,0,0,1,647.132,164.225Zm-28.257,48.63a3.818,3.818,0,0,1,.4,1.715c1.078,3.245.989,6.645-2.591,8.554-5.309,2.833-12.628-2.163-15.982-6.113-3.289-3.874-2.156-9.123,2.7-10.973a8.224,8.224,0,0,1,6.8.376,7.484,7.484,0,0,1,5.06,2.821,9.226,9.226,0,0,1,1.752,1.235c-.185-.357-.37-.7-.554-1.007a.106.106,0,0,1,.182-.107c.389.585.785,1.237,1.165,1.924A7.614,7.614,0,0,1,618.875,212.855Zm-2.5,5.282a6.866,6.866,0,0,1-7.458,2.106c-3.08-.98-4.5-3.869-5.552-6.671-.756-2.015.7-4.417,2.606-5.169a4.509,4.509,0,0,1,.344-.439,5.816,5.816,0,0,1,.832-.659,6.449,6.449,0,0,0-6.206,2.789c-1.7,2.922.45,5.674,2.546,7.565,2.563,2.311,6.356,5.082,9.962,5.126,5.108.065,6.074-3.191,5.5-6.724A3.556,3.556,0,0,1,616.371,218.137Zm32.068,10.956c.2.635-.748.869-.98.269a3.182,3.182,0,0,0-4.4-1.559c-1.789,1.093-1.656,4.006-.056,5.178a3.721,3.721,0,0,0,5.113-1.106c1.211-1.963.143-4.53-1.735-5.595-.109-.061-.013-.219.1-.165,2.324,1.143,3.491,4.293,1.876,6.506a4.347,4.347,0,0,1-6.343.693,4.274,4.274,0,0,1,.511-6.428A4.063,4.063,0,0,1,648.44,229.093Zm32.67,7.6c.78.387.207,1.487-.563,1.335a1.815,1.815,0,0,0-2.122,1.343c-.281,1.191.917,1.969,1.945,2.037,2.93.2,3.115-3.385,1.8-5.171-.052-.07.057-.148.115-.091,2.548,2.533.472,7.323-3.295,6.034S677.737,235.019,681.11,236.7Zm-10.6-18.958a.934.934,0,0,1-1.128,1.461,2.1,2.1,0,0,0-2.995.68c-.941,1.935,1.726,3.509,3.33,2.974,4.095-1.365,2.411-6.252-.418-7.876-.095-.054-.011-.194.085-.146a5.649,5.649,0,0,1,3.359,5.813,4.3,4.3,0,0,1-5.356,3.639c-2.243-.687-3.765-3.356-2.517-5.513A3.694,3.694,0,0,1,670.505,217.738Zm-47.674,28.937a4.217,4.217,0,0,1,5.847,1.485.689.689,0,0,1-1.189.694c-1.37-1.917-4.995-1.506-4.98,1.174a3.024,3.024,0,0,0,1.665,2.752,2.46,2.46,0,0,0,2.126-.052c1.417-.752,1.028-3.378-.943-2.895a.085.085,0,0,1-.044-.163c1.961-.767,3.176,1.837,1.987,3.276-1.495,1.806-4.195,1.182-5.417-.557A3.945,3.945,0,0,1,622.831,246.675Zm35.907,23.249c-4.639-1.85-4.92-6.954-1.22-10.026,3.117-2.589,7.352-2.6,10.852-.993,3.574-.1,5.48,4.032,3.937,7.278C670.078,270.878,663.12,271.671,658.738,269.924Zm9.984-10.849a12.089,12.089,0,0,1,2.717,1.863A3.609,3.609,0,0,0,668.722,259.076Zm2.53,6.663a4.808,4.808,0,0,0,.6-3.743.744.744,0,0,1-1.118.191,11.438,11.438,0,0,0-1.539-1.054c.1.076.207.141.3.228a3.288,3.288,0,0,1-.856,5.219,5.86,5.86,0,0,1-3.413,2.135c-2.432.487-4.658-.683-6.524-2.122a4.1,4.1,0,0,1-1.615-2.772c-.574,1.361-.313,2.841,1.62,4.045,2.28,1.419,5.98,1.459,8.439.748A7.136,7.136,0,0,0,671.252,265.739Zm19.229-6.356c.667.385.082,1.294-.589,1.006-2.182-.941-4.185,1.778-2.1,3.333,2.067,1.543,4.132-1.2,3.03-3.141-.063-.109.095-.194.165-.1a2.725,2.725,0,0,1-3.972,3.672C684.243,261.831,687.482,257.655,690.481,259.383Zm18.986-12.849a3.682,3.682,0,0,1,.161-3.878,2.942,2.942,0,0,1,1.695-1.252c.967-.213,1.7.765,2.354,1.352.628.561-.187,1.609-.9,1.163-.415-.259-.806-.537-1.2-.815a2.166,2.166,0,0,0-.991,3.095c1.23,1.782,3.948.119,4.078-1.589a.127.127,0,0,1,.254,0C715.122,247.407,711.033,249.025,709.467,246.534Zm-13.315-45.01c.437-1.263-1.119-.18-1.056.672,0,.035-.057.044-.063.009a1.763,1.763,0,0,1,1.047-2.111c1.2-.409,1.733.813,1.459,1.811C697.294,202.8,695.849,202.4,696.151,201.525Zm-58.036,75.645a.734.734,0,0,1-1.089-.624c-.022-.541-.043-1.078-.05-1.619a.822.822,0,0,1,.809-.809,9.736,9.736,0,0,1,1.417.076c.017-.044.033-.085.048-.132a.124.124,0,0,1-.211-.13,3.857,3.857,0,0,0,.443-1.278.319.319,0,0,1,.578-.076A3.6,3.6,0,0,1,638.115,277.169ZM633.424,206.2a.9.9,0,0,1,.967.241c.068-.035.148-.033.176.065a1.955,1.955,0,0,1,.033.248,1.028,1.028,0,0,1-.017.967,4.209,4.209,0,0,1-.511,1.2.889.889,0,0,1-1.38.178A1.7,1.7,0,0,1,633.424,206.2Zm16.892-28.474c-2.411.133-3.143-4.291-.207-4.048a1.089,1.089,0,0,1,.544,2.011,5.853,5.853,0,0,1-.813.872c.037.235,1.32-.037,1.465-.139,1.252-.878.176-2.295-.585-2.8a.117.117,0,0,1,.117-.2C652.612,174.434,652.871,177.581,650.316,177.722ZM667.066,164.3a3.243,3.243,0,0,1-.961-1.789h.006c-.263-.93.872-2,1.761-1.359a3.6,3.6,0,0,1,1.4,1.861C669.744,164.277,667.941,165.208,667.066,164.3Zm-71.993,72.261a.685.685,0,0,1,.572.846h.05c.024-.08.133-.044.122.035-.239,1.682-1.889,1.182-2.526.083a.49.49,0,0,1,0-.5C593.741,236.36,594.341,236.423,595.074,236.558Zm66.814,45.773a7.633,7.633,0,0,1,1.043.582,1.612,1.612,0,0,1,0,2.748c.317-.189.167.965,1.206.124.065-.052.2-.006.159.093A1.869,1.869,0,0,1,662,287.164a2.173,2.173,0,0,1-1.532-2.5c-.122-.178-.263-.343-.376-.533A1.324,1.324,0,0,1,661.888,282.331Zm27.711-.863a1.459,1.459,0,0,1,1.611.461,2.893,2.893,0,0,1,.169.254c.033.041.055.083.085.128a2.974,2.974,0,0,1,.172.363c.013.044.05.08.059.126v.017a2.044,2.044,0,0,1-1.109,2.706,2.231,2.231,0,0,1-3.056-2.172A2.051,2.051,0,0,1,689.6,281.468Zm-23.1-89.162a6.232,6.232,0,0,1,.365-4.439,7.391,7.391,0,0,1,1.783-5.232,5.5,5.5,0,0,1,7.547-.637c4.3.257,7.863,4.487,6.537,8.86a7.452,7.452,0,0,1-2.428,3.571,8.661,8.661,0,0,1-1.491,2.489c-1.365,1.606-3.645,1.019-4.761-.435-.069.02-.126.054-.2.072A6.345,6.345,0,0,1,666.5,192.306Zm11.114-6.915a7.647,7.647,0,0,1,3.157,6.91,6.145,6.145,0,0,0,1.28-2.472c.906-3.748-2.048-7.041-5.567-7.554A4.306,4.306,0,0,1,677.613,185.391Zm-1.848-1.033a3.38,3.38,0,0,0-4.924-1.378,4.927,4.927,0,0,0-1.765,2.215,6.67,6.67,0,0,1,6.689-.837ZM600.2,187.4a3.742,3.742,0,0,1-1.944-1.248,4.283,4.283,0,0,1-4.195-1.022c-3.75-3.508.624-9.2,5.05-7.152a.749.749,0,0,1,.381.926c2.7.611,5.33,3.611,4.508,6.337A3.143,3.143,0,0,1,600.2,187.4Zm-5.961-5.589a4.417,4.417,0,0,1,1.357-1.928A2.906,2.906,0,0,0,594.242,181.811Zm94.01,44.739c-.048-.18-.085-.348-.131-.524a5.989,5.989,0,0,1-1.206-6.921,3.8,3.8,0,0,1,3.53-2.126,2.655,2.655,0,0,1,2.43,2.917.727.727,0,0,1-.15.3c1.119,1.661,1.145,3.5,1.182,5.589a2.372,2.372,0,0,1-.059.332c4.248-1.367,3.893-7.817-.7-9.119a.074.074,0,0,1,.039-.143,5.579,5.579,0,0,1,4.047,6.993,5.724,5.724,0,0,1-3.852,3.537C692.131,229.111,688.918,229.065,688.253,226.55Zm1.444-7.795-.115.078c.052-.02.108-.03.161-.046Zm-89.308,28.251a3.086,3.086,0,0,1,5.2,2.156l0,.22a3.138,3.138,0,1,1-5.369-2.224Zm110.928-36.252a5.5,5.5,0,0,1,3.848,3.882,4.249,4.249,0,0,1-.622,3.622l-.013.043.033-.033c-.013.031-.035.056-.05.087a3.374,3.374,0,0,1-1.248,1.758,3.269,3.269,0,0,1-1.293.509,2.906,2.906,0,0,1-.311.067c-.033,0-.063.013-.1.017a4.011,4.011,0,0,1-3.091-.769c-.063-.037-.133-.069-.193-.106l-.819-.631c-.083-.07-.131-.113-.176-.152a4.743,4.743,0,0,1-1.5-5.58C706.637,211.462,709.109,209.96,711.317,210.755Zm2.894,4.75c.024.039.039.089.063.13v-.019C714.121,215.311,714.1,215.273,714.211,215.505Zm-7.6,54.7c.974-1.093,3.319-.641,3.537.933l.054.393a2.463,2.463,0,0,1-1.063,2.611l-.385.265a1.78,1.78,0,0,1-2.721-.913c-.1-.244-.193-.489-.291-.733a2.3,2.3,0,0,1,.595-2.25Zm-94.16-107.844-.144.069-.013-.017a2.54,2.54,0,0,1-1.7.241l-.152-.03a2.56,2.56,0,0,1-1.82-1.82,4.888,4.888,0,0,1-.037-2.172c.344-2.067,3.784-2.559,4.643-.607a4.843,4.843,0,0,1,.513,2.087A2.568,2.568,0,0,1,612.451,162.363Zm-44.878,46.15c1.163,42.321,28.207,79.926,65.4,96.829,15.273,4.23,31.351,7.317,46.906,4.293-8.121.474-16.512-.815-24.533-2.356-13.9-2.669-26.453-7.224-36.794-15.99a5.45,5.45,0,0,1-.624.033,108.14,108.14,0,0,0,37.6,17.932.063.063,0,0,1-.033.122A107.876,107.876,0,0,1,617.216,291.3a5.63,5.63,0,0,1-4.78-3.774,101.876,101.876,0,0,1-36.763-70.839c-4.082-20.592-2.307-41.717,10.945-56.4-12.106,10.91-17.779,26.329-17.025,43.161.535,11.943,4.024,23.279,8.6,34.222a.168.168,0,0,1,.235.109c.169.581.365,1.15.541,1.728,2.833,6.584,6.026,13.03,9.174,19.381.024.048-.05.091-.074.043-2.937-5.85-5.909-11.791-8.61-17.849a112.268,112.268,0,0,0,46.519,60.486c.033.022,0,.076-.031.056a111,111,0,0,1-47.813-63.577c-4.856-11.4-8.552-23.236-8.976-35.717-.6-17.773,5.961-34.324,20.312-45.2.5-.38,1.015-.732,1.522-1.1,1.167-.993,2.382-1.957,3.684-2.869,15.115-10.552,33.27-13.475,51.065-11.019A94.193,94.193,0,0,1,691.232,158.5c.309.217.015.732-.3.511-1.828-1.272-3.711-2.47-5.634-3.606a96.957,96.957,0,0,1,15.382,13.421c.572.554,1.152,1.1,1.708,1.669a.186.186,0,0,1,.017.25,98.878,98.878,0,0,1,24.131,56.794,91.929,91.929,0,0,1,1.315,19.077,117.726,117.726,0,0,1-1.806,27.025c-.057.307-.526.176-.47-.13a117.551,117.551,0,0,0,1.954-21.8C725.708,271.9,717.187,291.67,700.4,303.1a37.35,37.35,0,0,1-14.382,5.8c-15.925,4.845-33,2.458-49.012-1.815a103.693,103.693,0,0,0,39.141,7.737.35.35,0,0,1,0,.7c-28.607.489-57.346-9.445-77.9-29.679-20.671-20.349-31.039-48.547-30.8-77.326A.063.063,0,0,1,567.573,208.514Zm115.835-54.14a93.915,93.915,0,0,0-24.6-9.46,102.715,102.715,0,0,1,35.524,18.323A99.306,99.306,0,0,0,683.408,154.374Zm41.135,66.309-.006-.039v0A99.294,99.294,0,0,0,700.027,169a95.343,95.343,0,0,0-15.743-10.78A123.343,123.343,0,0,1,725.267,226.7C725.082,224.687,724.849,222.679,724.543,220.683ZM697.5,298.133c11.36-7.634,19.14-19.488,23.673-32.668a99.226,99.226,0,0,0,4.413-25.055,61.343,61.343,0,0,0-1.4-7.506.074.074,0,0,1,.142-.039,61.617,61.617,0,0,1,1.319,6.467c.107-3.045.067-6.087-.1-9.119a123.236,123.236,0,0,0-41.882-72.335c-.38-.2-.756-.409-1.139-.609a76.27,76.27,0,0,1,20.073,26.824c.067.148-.154.278-.219.13a76.23,76.23,0,0,0-20.286-27.174c-25.038-12.971-56.714-16.18-81.124-1.591-37.672,22.516-19.425,77.813-3.83,108.578a.677.677,0,0,1-1.168.683,132.811,132.811,0,0,1-19-42.267A101.756,101.756,0,0,0,612.2,286.736a5.616,5.616,0,0,1-.054-1.769c-.457-.524-.919-1.039-1.365-1.585a.81.81,0,0,1,.407-1.289,72.07,72.07,0,0,1-7.739-10.767.233.233,0,0,1,.4-.235,71.742,71.742,0,0,0,8.812,11.984,8.76,8.76,0,0,1,1.137-1.917c1.241-1.591,3.593-1.385,5.15-.428a5.367,5.367,0,0,1,4.111,3.2,5.279,5.279,0,0,1,.341,1.524c0,.037.007.072.009.109a5.353,5.353,0,0,1-2.145,4.56C642.287,304.1,678.324,311.017,697.5,298.133Z" transform="translate(-567.442 -141.335)" fill="url(#linear-gradient)"/>
      <path id="Path_53" data-name="Path 53" d="M582.788,204.019c-1.089,16.656-6.443,33.476-18.531,45.406-.989.976-2.9-.361-2-1.543,10.228-13.371,18.092-26.861,20.242-43.863.022-.18.3-.191.289,0Z" transform="translate(-412.203 -88.051)" fill="url(#linear-gradient)"/>
    </g>
    <g id="Group_66973" data-name="Group 66973" transform="translate(20514 -2286.814)">
      <path id="Path_13" data-name="Path 13" d="M216.811,195.063c27.681,27.659,72.435,24.559,95.579-7.148.844-1.157-1.1-2.68-2-1.543-23.1,29.285-65.435,33.6-93.332,8.447-.165-.15-.406.085-.246.244Z" transform="translate(-19461.883 4027.372)" fill="url(#linear-gradient)"/>
      <path id="Path_14" data-name="Path 14" d="M285.463,184.653c7.126-.819,14.1-4.354,18.273-10.325.759-1.087-.976-2.028-1.748-1.022-4.3,5.593-9.573,9.46-16.593,10.836-.285.056-.224.546.069.511Z" transform="translate(-19403.566 4016.218)" fill="url(#linear-gradient)"/>
      <path id="Path_27" data-name="Path 27" d="M307.335,166.584a8.518,8.518,0,0,1-1.207,2.25h.891c-.178-.213-.133.174-.009,0a1.251,1.251,0,0,0,.1-.378,2.287,2.287,0,0,0,.1-.426c0-.107.346-.115-.2.156l-.928.252.111-.013a2.053,2.053,0,0,0,1.9-1.443c-.03.1-.307.369-.05.122a1.547,1.547,0,0,0-.678-2.563,3.158,3.158,0,0,0-1.691.022,1.982,1.982,0,0,0-1.444,1.9c.039.341.041-.209.005.178a5.136,5.136,0,0,0-.063.8,2.976,2.976,0,0,0,.4,1.428,2.554,2.554,0,0,0,2.006,1.044.634.634,0,0,0,.63-.63,8.54,8.54,0,0,1,.607-2.495c.087-.278-.35-.472-.476-.2Z" transform="translate(-19387.416 4009.026)" fill="url(#linear-gradient)"/>
      <path id="Path_38" data-name="Path 38" d="M272.276,132.932c-2.38,1.419-5.1,3.135-7.787,3.85-2.2.585-4.33-.083-6.5.2-4.4.58-7.889,3.056-12.6,3.291-1.022.052-1.361,1.652-.254,1.876,4.256.861,10.441,2.921,14.577,1.217,2.337-.963,4.493-3.109,6.671-4.389a50.1,50.1,0,0,0,6.9-4.728c.741-.617-.213-1.8-1.017-1.319Z" transform="translate(-19438.287 3982.092)" fill="url(#linear-gradient)"/>
      <path id="Path_39" data-name="Path 39" d="M246.143,135.3a32.682,32.682,0,0,1,10.719.152,16.048,16.048,0,0,0,8.584-.715c3.128-1.061,2.769-6.034-.807-5.967a16.527,16.527,0,0,0-8.371,2.132,36.724,36.724,0,0,1-4.584,2.6,42.7,42.7,0,0,1-5.61,1.289c-.28.065-.226.548.068.511Z" transform="translate(-19437.064 3978.641)" fill="url(#linear-gradient)"/>
      <path id="Path_54" data-name="Path 54" d="M214.728,109.461c-5.739,10.73-9.221,22.207-9.18,34.424a1.361,1.361,0,0,0,2.72,0c.176-11.889,2.02-23.294,6.81-34.22.1-.231-.224-.439-.35-.2Z" transform="translate(-19471.434 3962.102)" fill="url(#linear-gradient)"/>
      <path id="Path_63" data-name="Path 63" d="M246.481,100.969c-29.476,11.78-43.121,47.151-31.735,76.256l.013.006a62.165,62.165,0,0,1,.083,14.217c-.207,1.656-.482,3.306-.787,4.948-5.5,7.824-6.443,19.614-6.011,28.411a66,66,0,0,0,15.9,39.8c.206.241.561-.091.359-.332a67.38,67.38,0,0,1-15.392-36.593c-.895-9.195-.472-22.047,5.017-30.607-2.458,12.812-7.021,25.294-3.256,38.348a.189.189,0,0,0,.369-.081,38.438,38.438,0,0,1,.2-16.892,73.786,73.786,0,0,0,9.5,36.459,59.413,59.413,0,0,1-7.1-11.545c-.146-.315-.583-.063-.467.246a58.889,58.889,0,0,0,10,17.047c-.085-.08-.174-.154-.259-.235-.026-.024-.067.013-.041.039.187.183.389.35.578.532a58.526,58.526,0,0,0,5.569,5.708,73.972,73.972,0,0,0,14.871,13.2c.193.13.383-.172.193-.3a74.24,74.24,0,0,1-12.777-10.928,54.366,54.366,0,0,0,27.663,11.762c-.007.032,0,.065.043.069.374.028.743.015,1.117.035a52.225,52.225,0,0,0,7.078.241c.294-.011.583-.052.876-.069.893.065,1.787.109,2.683.139a74.087,74.087,0,0,1-30.507-1.693c-.1-.028-.157.132-.052.161a74.647,74.647,0,0,0,32.689,1.585,71.928,71.928,0,0,0,13.738-1.237c.191-.037.124-.332-.065-.294a71.582,71.582,0,0,1-12.415,1.274,75.187,75.187,0,0,0,44.521-26.294c.207-.254-.224-.522-.428-.272A75.955,75.955,0,0,1,272.31,280.63c-.87-.007-1.743-.015-2.611-.056a56.719,56.719,0,0,0,43.423-27.059,29.7,29.7,0,0,1,3.709-3.808c.382-.319.776-.567,1.167-.837a13.1,13.1,0,0,1,2.046-.47,60.174,60.174,0,0,0,23.847-2.293c.263-.059.519-.137.78-.2q-3.467,1.708-7.023,3.172c-.057.024-.013.106.043.083,2.522-1.024,5.024-2.159,7.489-3.382.491-.111.98-.226,1.463-.378a53.094,53.094,0,0,0,22.082-11.693C383.3,220.5,389.975,199.42,386.2,180.249a.728.728,0,0,0-1.015-.574,62.985,62.985,0,0,0-4.319-14.123c.209.359.439.7.643,1.065a.226.226,0,0,0,.4-.211,67.342,67.342,0,0,0-23.746-28.033c-.9-.6-1.822-1.146-2.746-1.7a63.149,63.149,0,0,1,13.1,8.871c14.517,12.851,22.3,31.82,21.9,51.09a.217.217,0,0,0,.433.022,70.83,70.83,0,0,0-48.082-65.772c-3.926-1.3-15.119-1.556-17.929-4-3.584-3.117-5.039-9.495-8.63-13.269a39.2,39.2,0,0,0-12.16-8.513,49.757,49.757,0,0,0-11.023-3.5C278.45,95.539,260.913,95.2,246.481,100.969ZM324.6,248.075a108.24,108.24,0,0,0,15.012-1.128,59.385,59.385,0,0,1-19.318,1.409A40.179,40.179,0,0,1,324.6,248.075Zm-79.469-146a54.952,54.952,0,0,1,5.467-2.024,58.872,58.872,0,0,0-23.666,14.936A54.13,54.13,0,0,1,245.129,102.071Zm-32.294,39.561c-2.382,11.591.5,22.949,1.8,34.413A59.654,59.654,0,0,1,212.835,141.632Zm6.791,38.374c.174.746.344,1.495.522,2.241.609,2.583,1.544,5.121-.589,5.771A53.357,53.357,0,0,0,219.626,180.006Zm94.714,71.361c.161-.3.339-.587.5-.891a13.175,13.175,0,0,1,1.157-.752Q315.133,250.505,314.34,251.367Zm2.552-129.575a32.808,32.808,0,0,1,2.806,6.721,41.9,41.9,0,0,0-3.135-6.86A.316.316,0,0,0,316.892,121.792Zm-1.985-3.087c.361.58.682,1.207,1.011,1.828a42.569,42.569,0,0,0-2.889-4.148C313.688,117.118,314.312,117.894,314.907,118.705Zm-43.893-21.32a63.333,63.333,0,0,1,19.618,3.8c-10.275-1.615-21.036-.685-31.283.254-.506.046-.431.9.074.893a176.331,176.331,0,0,1,21.829.739,72.147,72.147,0,0,0-9.2.765c-16.316,2.413-41.659,6.158-46.045,25.492-.011.046.061.07.072.022,4.443-18.675,27.992-21.975,43.93-24.549a71.71,71.71,0,0,1,18.177-.709c7.265,1.372,14.143,3.732,19.738,7.737a13.378,13.378,0,0,0-6.3.2c-.387.1-.254.707.133.607a12.293,12.293,0,0,1,7.491.189c.113.091.228.178.341.27a42.669,42.669,0,0,1,10.184,16.271c-.337.03-.67.043-1.009.078a.07.07,0,0,0-.035.115q.781.711,1.565,1.419c.365,1.209.7,2.439.965,3.713a.056.056,0,0,0,.109-.026c-.23-1.183-.515-2.333-.83-3.463l.32.289c.007.007.015,0,.022,0a2.046,2.046,0,0,0,1.424.643c1.024,0,2.037.048,3.052.089a21.63,21.63,0,0,0,3.724,3.748,49.229,49.229,0,0,0-11.726,1.674c-.174.046-.115.32.061.276a50.523,50.523,0,0,1,12.154-1.583,12.59,12.59,0,0,0,8.889,2.3c.085-.009.056-.137-.028-.13a12.4,12.4,0,0,1-8.408-2.176,48.656,48.656,0,0,1,47.978,40c.009.048.083.031.074-.017a48.852,48.852,0,0,0-48.552-40.348,20.873,20.873,0,0,1-3.75-3.728,67.068,67.068,0,0,1,52.577,29.327,62.4,62.4,0,0,1,6.336,18.542.854.854,0,0,0-.107.5,63.553,63.553,0,0,1-.276,15.336c1-11.019-1.624-22.229-8.517-31.266-.124-.163-.359.056-.235.219,8.411,11.082,10.4,25.392,7.2,38.585-.078.283-.146.57-.23.854-.048.187-.106.37-.156.557a55.037,55.037,0,0,1-27.657,33.435,41.3,41.3,0,0,0,9.888-9.715c.178-.246-.22-.5-.4-.254a40.4,40.4,0,0,1-12.512,11.389,57.268,57.268,0,0,1-33.668,3.4c-.035-.007-.067,0-.1-.006.046-.139.107-.272.154-.411.411-1.265-1.339-1.748-1.906-.667.107-.344.246-.67.35-1.017a.208.208,0,0,0-.4-.128c-.4,1.319-.859,2.6-1.341,3.863-.3.578-.606,1.154-.926,1.722-.346.472-.739.922-1.072,1.4.219-.252.445-.485.67-.715a66.786,66.786,0,0,1-4.009,6.173,59.832,59.832,0,0,1,3.339-5.458,30.788,30.788,0,0,0-4.087,6.43c-10.593,13.884-26.5,23.322-44.652,22.964-16.217-.319-31.179-8.171-41.5-20.182A73.81,73.81,0,0,1,211.6,216.879c1.707-7.086,4.608-13.988,6.615-21.281.374-1.357.669-2.7.9-4.03a17.75,17.75,0,0,1,2.758-1.643c.056-.026.011-.109-.044-.083a17.938,17.938,0,0,0-2.678,1.515c.159-.957.276-1.908.369-2.854l2.3.283a.12.12,0,0,0,.122-.144c-.713-3.417-1.572-6.93-2.448-10.5-.424-4.817-1.285-9.658-2.057-14.732-3.715-24.381,6.252-46.693,25.131-57.92a44.83,44.83,0,0,1,9.875-2.843c.42-.069.276-.711-.143-.644a45.153,45.153,0,0,0-5.678,1.3,56.856,56.856,0,0,1,23.9-5.43A.5.5,0,0,0,271.014,97.386Zm-35.707,35.681a28.818,28.818,0,0,0-3.826,9.05,29.2,29.2,0,0,0-.083,11.441,25.112,25.112,0,0,0,2.73,11.388,30.5,30.5,0,0,0,1.411,4.117c1.478,3.521,3.393,6.874,4.478,10.551.093.511.2,1.02.276,1.537a24.357,24.357,0,0,1,.156,5.66,18.909,18.909,0,0,1-.689,2.43,7.088,7.088,0,0,1-3.989,1.344c-.059,0-.065.1,0,.094a6.942,6.942,0,0,0,3.941-1.3c-.485,1.343-1.087,2.7-1.759,4.193a59.864,59.864,0,0,0-2.672,7.223c-.946,1.822-1.9,3.715-2.765,5.795-.211.511-.367,1.044-.556,1.565-.006-.439-.019-.88-.019-1.317a63.211,63.211,0,0,1,2.156-9.686.085.085,0,0,0-.161-.052,62.706,62.706,0,0,0-1.97,7.9c.028-1.933.085-3.861.191-5.765a.047.047,0,0,0-.094,0c-.145,2.189-.224,4.424-.257,6.674-.246,1.461-.459,2.922-.6,4.387a42.377,42.377,0,0,0,.906,26.538,34.466,34.466,0,0,0,21.3,20.758c.07.044.133.093.206.137a.851.851,0,0,0,.456.719c6.161,3.7,11.915,4.809,17.116,4.074,10.284-.243,20.19-5.447,24.512-15.749.132-.317-.369-.469-.5-.163a24.89,24.89,0,0,1-19.838,14.893,25.645,25.645,0,0,0,7.786-4.482c.539-.028,1.078-.057,1.609-.1.322-.022.35-.531.026-.507s-.648.041-.97.061c.117-.1.228-.213.343-.317a37.9,37.9,0,0,0,6.063-4.965,22.347,22.347,0,0,0,2.578-2.387,27.127,27.127,0,0,0,6.274-12.132c1.548-4.943,1.917-9.949,2.226-15.551a53.709,53.709,0,0,0,15.562,7.137,42.408,42.408,0,0,1-13.871-4.311c-.043-.022-.083.041-.041.063a43.078,43.078,0,0,0,15.7,4.724A53.226,53.226,0,0,0,351.47,226.2c.291-.12.061-.55-.23-.431a53.89,53.89,0,0,1-30.205,3.163,41.765,41.765,0,0,0,23.512-5.736,16.949,16.949,0,0,0,2.356-.733c1.491-.217,2.98-.469,4.463-.8a.264.264,0,0,0-.115-.515c-.859.187-1.719.341-2.58.491a18.125,18.125,0,0,0,2.861-1.9,21.6,21.6,0,0,0,7.015-7.206,46.294,46.294,0,0,0,4.208-4.693c.222-.291-.254-.589-.476-.3-.872,1.113-1.8,2.148-2.746,3.159a28.54,28.54,0,0,0,2.4-8.01,31.794,31.794,0,0,0,1.457-21.8,41.936,41.936,0,0,0-1.52-6.276c-.133-.411-.794-.272-.661.146.107.344.187.694.287,1.041a39.536,39.536,0,0,0-20.329-19.444,44.743,44.743,0,0,0-36.863-4.819,11.306,11.306,0,0,0,.463-2.143,17.258,17.258,0,0,0-.341-5.584,25.906,25.906,0,0,0-5-12.5c-.385-.856-.765-1.713-1.207-2.554a.236.236,0,0,0-.417.22c.126.246.224.5.343.743a27.509,27.509,0,0,0-4.03-3.813,27.977,27.977,0,0,0-3.913-2.52,34.2,34.2,0,0,0-6.615-4.1c-.332-.172-.669-.319-1.006-.47l0,0a21.376,21.376,0,0,0-2.83-1.056,33.434,33.434,0,0,0-28.826,3.989c.233-.244.467-.487.7-.733a1.734,1.734,0,0,0-2.354-2.543,81.178,81.178,0,0,0-9.4,8.626A41.391,41.391,0,0,1,287.574,112.4c.4.146.6-.478.2-.628-17.829-6.676-39.378-.43-49.678,15.955A40.366,40.366,0,0,0,235.307,133.067Zm50.1,121.915c.528-.528,1.044-1.078,1.545-1.648q.761-.408,1.489-.876A37.343,37.343,0,0,1,285.407,254.982ZM235.153,145.792a29.268,29.268,0,0,1,3.133-8.463,45.463,45.463,0,0,0-3.046,10.312c-.261,1.507-.465,3.061-.613,4.634A31.135,31.135,0,0,1,235.153,145.792Zm-.272,20.518c.182.3.359.609.556.909.211.441.422.883.652,1.313a24.961,24.961,0,0,0,2.426,5.254c.309.935.585,1.878.835,2.828C237.918,173.173,236.068,169.795,234.881,166.309Zm-3.1,41.83c0,.161.006.32.007.482l-.089.248C231.727,208.626,231.751,208.382,231.78,208.139Zm2.382,13.145a40.954,40.954,0,0,0,2.578,10.689,42.656,42.656,0,0,0,17.419,20.516C242.34,246.324,234.412,234.635,234.162,221.284ZM296.8,240.019a24.922,24.922,0,0,1-8.293,11.425,45.72,45.72,0,0,0,5-8.206,33.281,33.281,0,0,0,4.8-9.3A30.818,30.818,0,0,1,296.8,240.019ZM289.439,225.8c-.346,1.32-.715,2.68-1.109,4.059A13.143,13.143,0,0,1,289.439,225.8Zm-8.7,3.674a30.655,30.655,0,0,1-.169-4.095,11.706,11.706,0,0,0,1.256-1.263c.1.154.213.306.328.456A26.283,26.283,0,0,0,280.737,229.474Zm17.734-4.272a39.7,39.7,0,0,1,.144,5.245,34.481,34.481,0,0,1-3.456,8.949A52.791,52.791,0,0,0,298.471,225.2Zm1.354,6.724a38.185,38.185,0,0,0,.113-5.928c.017-.206.048-.4.063-.611a.231.231,0,0,0-.133-.233c-.048-.591-.074-1.185-.148-1.77A51.445,51.445,0,0,0,298,215.354c.78.632,1.554,1.274,2.361,1.846-.043.046-.094.089-.081.17.152,1.046.259,2.093.332,3.137-.281-.191-.57-.365-.848-.563-.07-.05-.141.061-.072.111.307.222.626.417.937.632A41.613,41.613,0,0,1,299.825,231.926Zm-19.145-7.767a10.077,10.077,0,0,1,.335-1.576,8.063,8.063,0,0,0,.344.752C281.148,223.622,280.916,223.892,280.679,224.159Zm57.144.07c.422-.107.848-.193,1.267-.311.661-.067,1.32-.157,1.98-.265.535-.015,1.061-.056,1.583-.119a41.815,41.815,0,0,1-23.746,4.958,53.264,53.264,0,0,1-17.608-7.53c.006-.107.013-.207.019-.315.128-2.345-.383-2.115,1.776-1.083,2.026.97,3.826,2.415,5.9,3.356a39.078,39.078,0,0,0,28.827,1.309Zm-35.6-5.821a45.4,45.4,0,0,0,29.7,6.91A37.961,37.961,0,0,1,302.227,218.408Zm34,5.671a44.961,44.961,0,0,1-38.309-9.034c-.082-.276-.157-.554-.243-.83-.063-.2-.6-1.545-1.119-2.813a11.455,11.455,0,0,1,1.156-.135A103.33,103.33,0,0,0,308,216.953c1.469.672,2.963,1.25,4.471,1.785a.242.242,0,0,0,.085.419C320.187,221.712,328.25,224.2,336.223,224.079Zm-39.67-8.793a4.174,4.174,0,0,0-.759-.394,2.814,2.814,0,0,0-.837-3.1c.154-.05.3-.122.457-.165Q296.027,213.436,296.552,215.286Zm4.2-3.806a12.94,12.94,0,0,1,1.948.576c3.111,1.193,5.913,3.4,8.958,5.069A54.35,54.35,0,0,1,300.749,211.48Zm57.119-10.195c-.161.311-.3.63-.48.937-.03.052.048.1.08.05.128-.217.23-.443.35-.663a24.039,24.039,0,0,1-4.5,11.31A31.336,31.336,0,0,1,337.3,221.49a.512.512,0,0,0,.107-.552c.994-.12,1.989-.256,2.985-.426.411-.07.367-.78-.061-.744-11.252.906-22.331-1.511-31.648-8.067-4.8-3.378-8.625-8.667-15.221-7.01-6.926,1.739-13.8,9.289-12.977,15.862a10.066,10.066,0,0,0-1.4,5.074c-.261.2-.519.4-.807.574-.38.232-.067.841.326.615.178-.1.317-.231.487-.339.089,3.38.8,6.252.513,9.4a24.247,24.247,0,0,1-3.48,8.628,19.509,19.509,0,0,1-6.58,5.756c-9.352,4.937-20.629.365-25.586-8.473a.057.057,0,0,0-.1.054,20.034,20.034,0,0,0,26.5,8.678,17.745,17.745,0,0,1-14.219,2.872,42.775,42.775,0,0,1-18.386-20.029,40.46,40.46,0,0,1-3.315-17.2,39.444,39.444,0,0,1,4.065-12.941,50.433,50.433,0,0,0,4.654-12.51,45.649,45.649,0,0,1,3.743-4.53c.3-.315-.152-.811-.461-.5a41.779,41.779,0,0,0-3,3.454,27.939,27.939,0,0,0-.178-9.934c.167.137.317.285.491.417.28.215.569-.246.293-.459-.339-.263-.637-.556-.954-.833a33.928,33.928,0,0,0-1.456-4.645c.348.2.674-.337.335-.6-.3-.23-.578-.472-.863-.709a63.426,63.426,0,0,0-4.806-8.867,56.187,56.187,0,0,1-1.291-6.376,54.973,54.973,0,0,1,1.641-13.069c.274-1.107.6-2.189.959-3.256a39.152,39.152,0,0,0-.93,14.471c.069.522.845.335.791-.174-.746-7.228-.319-14.788,3.283-21.153a26.638,26.638,0,0,1,8.223-5.267q1.358-.481,2.73-.922a29.926,29.926,0,0,1,27.224,5.517,45.067,45.067,0,0,1,11.975,23.166l-.006.009a2.154,2.154,0,0,0-.237,1.167c-.541-2.206-1.159-4.391-1.915-6.534a71.549,71.549,0,0,0-6.736-13.812c-.28-.45-1.011-.072-.733.387a73.259,73.259,0,0,1,9.678,26.207,4.549,4.549,0,0,1-.913.406c-.222.07-.237.459.037.446a8.673,8.673,0,0,0,1-.109c.1.615.168,1.239.252,1.859a2.6,2.6,0,0,0-.537.669c.024-.059-.074-.106-.1-.048l-.5,1.026c-.044.093.059.2.144.12.369-.326.732-.665,1.1-.994.043.354.1.7.143,1.056.007.069.069.119.12.17-.209.3-.426.593-.633.894-.248.359.32.72.572.365.141-.2.287-.4.43-.593a2.112,2.112,0,0,0,2.42,1.446c5.237-1.585,9.98-3.278,14.812-4.361a52.085,52.085,0,0,1,46.862,33.324c.007.022.041.006.033-.018-6.219-16.729-20.169-29.448-37.793-33.087a53.286,53.286,0,0,0-5.773-.852,38.315,38.315,0,0,1,12.665.046c11.088,1.9,19.921,7.808,26.7,16.679a.149.149,0,0,0,.144.054,36.141,36.141,0,0,1,5.961,15.464A31.238,31.238,0,0,1,357.868,201.285Zm-54.727-47.1c-.011.17-.013.341-.026.511-.252.23-.5.467-.743.7C302.647,155,302.908,154.6,303.141,154.183ZM292.454,159.8a14.2,14.2,0,0,1-.728,1.58c-.03-.652-.1-1.311-.156-1.967A1.821,1.821,0,0,0,292.454,159.8Zm3.459-1.187a19.567,19.567,0,0,1-1.97,2.8.933.933,0,0,0-.383-.039A18.253,18.253,0,0,0,295.913,158.609Zm-4.31,2.882c0,.028.026.035.046.044-.08.152-.13.309-.217.459-.093-.941-.161-1.843-.3-2.5-.065-.306-.156-.606-.226-.909a2.4,2.4,0,0,0,.448.632C291.45,159.97,291.545,160.729,291.6,161.491Zm.467,1.189c.206-.163.387-.333.582-.5a5.56,5.56,0,0,1-1.05,1.226c-.035-.235-.063-.472-.091-.709A.454.454,0,0,0,292.071,162.68Zm-.154,2.1,0,.033c-.035-.12-.078-.235-.107-.363.076-.02.157-.031.233-.054C292,164.524,291.954,164.65,291.917,164.78Zm7.493-1.97c.267-.033.533-.069.8-.1-.368.154-.746.267-1.111.437C299.2,163.03,299.31,162.924,299.41,162.809Zm-6.565,3.659.015,0,0,.007Zm50.258-8.45a45.3,45.3,0,0,1,16.262,20.353c.024.056.106.011.083-.044A45.607,45.607,0,0,0,345.2,159.176c9.676,5.763,16.469,15.517,17.9,26.212a43.477,43.477,0,0,1-.7,10.389c-.015-1.085-.056-2.174-.139-3.271-1.428-18.436-12.119-32.276-27.453-37.611A38.31,38.31,0,0,1,343.1,158.018Zm-4.172-2.532a38.1,38.1,0,0,0-8.287-1.933.213.213,0,0,0-.211.087,46.52,46.52,0,0,0-15.39-.9c-.691.074-.557,1.15.1,1.191a47.051,47.051,0,0,1,41.095,31.779,38.918,38.918,0,0,1,1.061,4.034,39.4,39.4,0,0,0-5.1-9.469,43.361,43.361,0,0,0-17.436-14.017c-10.195-5.723-22.192-8.024-32.946-4.182q-1,.128-1.995.285a14.5,14.5,0,0,1,1.933-1.787,1.557,1.557,0,0,0-.274-2.541c.483-.454.963-.911,1.445-1.365-.109.952-.213,1.9-.381,2.863-.011.074.115.1.13.024.193-1.026.324-2.052.454-3.076,1.4-1.322,2.819-2.628,4.2-3.963.474-.461-.17-1.1-.682-.735a38.619,38.619,0,0,0-3.311,2.711c.019-.233.03-.465.046-.7.126-.241.205-.5.317-.743.044-.065.093-.126.137-.191.457-.307.913-.622,1.37-.928a.077.077,0,0,0,.024-.106A45.364,45.364,0,0,1,338.93,155.487ZM304.14,152.4a.367.367,0,0,0,.05-.244c.248-.074.494-.167.743-.237C304.669,152.085,304.4,152.242,304.14,152.4Zm-12.44,2.4c-.183.4-.367.8-.576,1.194a47.134,47.134,0,0,0-6.993-17.734,37.381,37.381,0,0,1,4,5.7A57.042,57.042,0,0,1,291.7,154.805Zm12.149-13.062a21.548,21.548,0,0,0-2.245-4.6c-.422-1.426-.9-2.837-1.47-4.232A25.848,25.848,0,0,1,303.849,141.743Zm-5.108-10.736c.724,1.593,1.383,3.193,1.935,4.811q-.072-.1-.144-.194a24.608,24.608,0,0,0-7.434-9.68c-.293-.291-.594-.572-.9-.852A27.143,27.143,0,0,1,298.741,131.008Zm-22.351-1.793a34.344,34.344,0,0,1,5.287,4,51.363,51.363,0,0,1,5.313,8.354,37.214,37.214,0,0,0-4.5-5.628,38.553,38.553,0,0,0-7.187-7.317C275.666,128.828,276.031,129,276.39,129.215Zm.061,1.769a30.439,30.439,0,0,0-17.827-5.074,48.2,48.2,0,0,1,5.921-.893,28.363,28.363,0,0,1,3.535.663A36.512,36.512,0,0,1,276.451,130.984Zm13.884-6.991c.126.1.246.211.372.315-.53-.322-1.063-.611-1.6-.893-.035-.037-.07-.076-.107-.113C289.45,123.515,289.893,123.754,290.335,123.992Zm-2.133-1.578-.293-.13c-.106-.093-.211-.185-.319-.276C287.8,122.144,288,122.276,288.2,122.415Zm-32.685-.139a17.714,17.714,0,0,0-7.782,2.824c.161-.17.32-.341.483-.511a32.456,32.456,0,0,1,10.869-6.2,32.846,32.846,0,0,1,13.7-1.6,41.035,41.035,0,0,0-15.447,3.374c-.057.024-.013.106.043.083,6.367-2.548,13.725-4,20.4-2.591a32.747,32.747,0,0,1,5.811,2.115,20.121,20.121,0,0,1,3.082,2.046,37.788,37.788,0,0,0-17.706-1.819A34.814,34.814,0,0,0,255.517,122.276Z" transform="translate(-19469.385 3951.44)" fill="url(#linear-gradient)"/>
      <path id="Path_87" data-name="Path 87" d="M292.775,105.416c-.88-.446-1.322-1.139-.639-1.982l-.935.544q-.611-.172.585-.159l.674-.285c.493-.287.878-1.006,1.143-1.245.165-.148.235-.233.689-.226,2.665.052,3.156-3.885.624-4.6a5.956,5.956,0,0,0-5.878,1.639,2.79,2.79,0,0,0-.726,2.748c.372,1,.782,2.383,1.817,2.926.193.1.443.083.615.178a3.883,3.883,0,0,1,.476.452,3.981,3.981,0,0,0,1.265.7.378.378,0,0,0,.291-.687Z" transform="translate(-19401.031 3951.781)" fill="url(#linear-gradient)"/>
    </g>
    <path id="Path_71" data-name="Path 71" d="M451.423,96.524c-.219.031-.437.044-.656.076a.335.335,0,0,0-.413-.139l-.02.009a1.358,1.358,0,0,0-1.326-.056c-.383.178-.765.343-1.148.519a99.779,99.779,0,0,1-29.609-1.152c.041-.319-.294-.641-.567-.361-.068.07-.122.148-.191.219a102.733,102.733,0,0,1-11.349-2.93,82.829,82.829,0,0,1,19.786,3.2c.2.059.33-.246.124-.307a80.223,80.223,0,0,0-21.188-3.295l-.05-.017c.311-.415-.176-1.026-.635-.663-.272.215-.526.456-.791.682a77.26,77.26,0,0,0-12.064.922c1.315-.507,2.63-1.02,3.922-1.591a.575.575,0,0,0-.461-1.054c-1.022.4-2.043.767-3.065,1.145a37.244,37.244,0,0,0,3.339-8.636,45.471,45.471,0,0,0,1.248-11.3c1.77-4.789,3.121-10.21,1.583-13.614a70.229,70.229,0,0,0-.882-12.9c.063-.033.132-.059.2-.093a.8.8,0,0,0-.472-1.5A69.637,69.637,0,0,0,393.8,32.839c-.587-7.047-1.2-14.04-1.433-20.784.115-.054.233-.1.348-.154a.519.519,0,0,0-.38-.963,103.336,103.336,0,0,1,.7-16.79.117.117,0,0,0-.231-.03,82.619,82.619,0,0,0-.785,8.528.259.259,0,0,0-.311.009c-.2.156-.4.313-.606.47a13.919,13.919,0,0,0-.481-1.765.294.294,0,0,0-.18-.191c0-.15-.007-.3-.009-.45q.72-3.028,1.439-6.054c3.152-3.574,5.337-7.463,4.21-12.24a.666.666,0,0,0-1.313.011,23.549,23.549,0,0,1-2.674,7.408c-11.4,8.367-26.979,9.017-37.909,17.921-.465.3-.92.6-1.346.939a8.612,8.612,0,0,0-2.041,2.22A172.53,172.53,0,0,0,322.315,32a5.724,5.724,0,0,0-.737-.12,13.1,13.1,0,0,0-1.344-.057,3.8,3.8,0,0,1,1.474.732q-3.517,3.233-6.86,6.66c.1-.2.2-.4.311-.6.759-1.1,1.543-2.182,2.363-3.245a.137.137,0,0,0-.218-.165c-.193.25-.37.509-.559.761.067-.1.124-.207.193-.309.126-.187-.156-.4-.281-.209a35.438,35.438,0,0,0-1.959,3.365q-.608.886-1.187,1.783c-.368.385-.748.761-1.111,1.15-.044.044.035.1.078.057.235-.248.48-.485.719-.733q-.986,1.553-1.891,3.141c-.048.05-.1.1-.15.146-.033.033-.011.07.02.087a76.083,76.083,0,0,0-9.443,44.958c.009.087.144.067.135-.02a76.219,76.219,0,0,1,9.969-45.519c.354-.354.724-.687,1.078-1.037-.2.559-.38,1.128-.554,1.7l-.035.07a.571.571,0,0,0-.283.378c-.026.107-.037.215-.061.322a73.636,73.636,0,0,0-6.2,44.991,37.3,37.3,0,0,0-5.841,15.034,79.035,79.035,0,0,1,1.046-8.367c.059-.344-.493-.5-.6-.157-.772,2.493-1.622,5.282-2.313,8.171A47.193,47.193,0,0,1,300.434,93.2c.035-.107-.126-.172-.163-.067a48.209,48.209,0,0,0-2.763,14.412c-1.23,6.3-1.348,12.8,1.983,17.627a.466.466,0,0,1-.154.239c-.254.148-.083.572.187.43l.328-.172a14.23,14.23,0,0,0,3.934,3.569c.478.293,1.269-.148.944-.75a39.924,39.924,0,0,1-4.908-19.158c.046-1.207.135-2.409.3-3.6a40.947,40.947,0,0,0,4.641,21.294c.33.613,1.33.187,1-.437a42.82,42.82,0,0,1-5.417-21.4.107.107,0,0,0-.107-.111,36.968,36.968,0,0,1,5.582-14.551c.256,1.363.541,2.722.882,4.074.005.024.043.019.037-.006-.287-1.441-.526-2.882-.739-4.321.659-.994,1.339-1.98,2.1-2.93.063-.078-.061-.17-.124-.093-.726.9-1.372,1.833-2.007,2.772A77.2,77.2,0,0,1,311.6,47.285a52.99,52.99,0,0,0,4.822,33.952.059.059,0,0,0,.107-.046,59.053,59.053,0,0,1-3.371-36.076.436.436,0,0,0-.3-.53q.85-1.733,1.8-3.435,3.989-3.853,8.16-7.484a10.386,10.386,0,0,1,.669.9.437.437,0,0,0,.689-.009,38.174,38.174,0,0,1,4.011-5.437q5.784-4.706,11.884-8.973a39.107,39.107,0,0,1,8.565-2.93c.437-.093.346-.776-.1-.694a40.286,40.286,0,0,0-5.2,1.32c2.235-1.507,4.513-2.95,6.806-4.372a2.888,2.888,0,0,1-.285,1.076c-.565.822-2.057,1.315-3.672,1.77a12.586,12.586,0,0,1,3.7-.046,61.988,61.988,0,0,0,1.745,31.7c-.182,0-.359.011-.541.007-.063,0-.076.1-.013.1.2.006.391,0,.587,0,.274.839.528,1.68.839,2.511-1.793,3.035-3.6,6.063-5.374,9.108-.031.054.044.113.078.059,1.587-2.613,3.148-5.241,4.724-7.86-2.007,3.445-4.022,6.887-5.976,10.362-.054.1.113.191.169.094,1.085-1.906,2.22-3.78,3.324-5.674q-2.464,4.761-4.789,9.554c-.037.08.087.152.135.076q4.311-6.75,8.643-13.467c.091.217.176.435.27.652.191.891.372,1.783.58,2.671.048.2.372.163.328-.048-.072-.348-.128-.694-.2-1.043.156.1.4-.041.307-.25-.241-.519-.43-1.048-.656-1.57-.07-.359-.135-.717-.206-1.076.885-1.374,1.767-2.758,2.652-4.132a85.275,85.275,0,0,0,33-7.774.292.292,0,0,0-.235-.535,87.735,87.735,0,0,1-32.648,8.128q6.5-10.076,13.058-20.1A73.515,73.515,0,0,1,386.392,23.6a.2.2,0,0,0-.057-.406,67.321,67.321,0,0,0-16.4,4.184Q379.986,12,390.229-3.281c.011.065.017.133.026.2-.061-.022-.128-.009-.137.08-.22,2.206-.37,4.384-.506,6.558l-.117.515c-.011.052.03.067.072.059,0,.067-.013.133-.017.2-2.152,1.654-4.315,3.3-6.432,4.995a.1.1,0,0,0,.12.152c2.109-1.463,4.189-2.971,6.267-4.48-.135,2.456-.218,4.895-.265,7.321-2.906,1.317-5.78,2.713-8.558,4.274a.078.078,0,0,0,.061.143c2.876-.969,5.7-2.106,8.486-3.309-.006.439,0,.872,0,1.309a31.155,31.155,0,0,0-1.376,8.295,74.26,74.26,0,0,1-9.732,3.809c-.1.03-.046.178.048.167a34.93,34.93,0,0,0,9.743-2.752c0,.03,0,.059,0,.089a13.978,13.978,0,0,0,1.572,4.982c.044,1.091.1,2.183.152,3.276a61.492,61.492,0,0,1-13.853,4.063.068.068,0,0,0,.019.135,66.157,66.157,0,0,0,13.875-3.3c.213,4.239.465,8.5.731,12.788a103.377,103.377,0,0,1-23.394,6.684.1.1,0,0,0,.028.193,95.893,95.893,0,0,0,23.477-5.085q.183,2.925.354,5.885c-12.851,4.106-25.67,7.711-39.1,9.747a.078.078,0,0,0,.022.154c13.149-1.633,26.462-4.063,39.113-8.236l.063.006c.057,1.011.122,2.008.176,3.024.08,1.48.139,2.991.168,4.519q-2.433,1.164-4.906,2.211a158.078,158.078,0,0,1-43.521,8.034c-.074,0-.057.117.017.115a152.713,152.713,0,0,0,35.854-5.191A113.31,113.31,0,0,1,352.42,74c-.05.006-.037.081.011.078a112.733,112.733,0,0,0,31.522-7.23c2.478-.769,4.935-1.615,7.376-2.52.07,7.347-.593,15.062-3.084,21.947-2.306.83-4.622,1.593-6.96,2.252,1.343-.4,2.685-.8,4.019-1.25.332-.113.111-.613-.219-.5a111.541,111.541,0,0,1-24.216,5.315A104.639,104.639,0,0,1,350.4,92.3c-.126,0-.15.189-.026.193,1.552.059,3.1.069,4.639.061a110.682,110.682,0,0,1-13.2-.083c-.1-.007-.119.146-.019.154a108.782,108.782,0,0,0,23.514-.65,102.166,102.166,0,0,0,22.7-5.084,34.023,34.023,0,0,1-3.728,7.223c-.065.1-.139.18-.206.274a120.9,120.9,0,0,1-30.989,5.906c-.1.006-.076.157.022.154a124.874,124.874,0,0,0,29.711-4.4,27.252,27.252,0,0,1-7.632,6.43c-5.93,1.363-11.893,2.395-17.977,3.184a.108.108,0,0,0,.03.213,139.141,139.141,0,0,0,15.234-2.013c-6.461,2.939-13.875,3.943-21.294,5.239-.739.128-.809,1.395.013,1.389,2.693-.015,5.35-.148,7.956-.4a75.435,75.435,0,0,1-15.566,2.835c-.063,0-.048.1.013.1a74.649,74.649,0,0,0,17.577-3.161c12.339-1.528,23.2-6.128,29.542-16.3a83.084,83.084,0,0,1,12.256-.887,34.458,34.458,0,0,0-8.962,13.767.1.1,0,0,0,.18.072,39.841,39.841,0,0,1,10.267-13.838c.4.007.8-.011,1.2,0a105.944,105.944,0,0,0,11.669,3.15,40.639,40.639,0,0,0-8.941,14.671c-3.493.693-7.032,1.283-10.671,1.67-.2.022-.15.317.046.309,1.235-.044,2.474-.135,3.711-.207-14.575,3.2-29.163,6.3-43.061,11.865-.069.028-.022.133.048.107,15.962-6.119,32.766-8.969,49.421-12.491,13.623-1.4,27.111-4.717,39.3-10.969a88.634,88.634,0,0,1-3.1,8.669l-3.489,6.247c-.276.493-.548.985-.824,1.478a86.775,86.775,0,0,1-27.4-3.382c-.07-.02-.115.085-.043.109a83.207,83.207,0,0,0,27,4.056c-.106.191-.211.382-.319.572-2.833.361-5.663.774-8.491,1.17a.067.067,0,0,0,.02.133c2.724-.256,5.454-.5,8.178-.778q-2.283,4.089-4.561,8.18a33.717,33.717,0,0,1-13.052-1.232c-.141-.044-.232.165-.087.217a36.28,36.28,0,0,0,12.341,2.176c-.646.835-1.3,1.661-1.98,2.467a10.888,10.888,0,0,0-2.926,1.707c-4.432-.7-8.921-1.183-13.341-1.82-.115-.015-.13.15-.022.174,4.115.913,8.239,1.965,12.38,2.852a11,11,0,0,0-.691,2.106c-1.228,1.224-2.487,2.413-3.795,3.55-6.365-.578-13.9-4.348-18.916-6.517a59.667,59.667,0,0,1-18.132-11.741c-.039-.037-.105.03-.067.07,5.856,6.08,13,10.182,20.725,13.456,4.311,1.828,9.919,4.854,15.241,5.685a75.322,75.322,0,0,1-8.595,6.245,17.813,17.813,0,0,1-2.57.544c-.406.054-.3.633.091.617.182-.007.369-.02.552-.028q-1.919,1.114-3.908,2.113A66.658,66.658,0,0,1,390.885,139c-.082-.076-.209.057-.135.137a60.2,60.2,0,0,0,14.7,11.73,72.777,72.777,0,0,1-8.169,3.217A42.743,42.743,0,0,1,379.5,134.065c-.024-.057-.111-.019-.089.039a44.162,44.162,0,0,0,15.6,20.653c-1.933.563-3.885,1.076-5.88,1.48-.146.03-.115.261.033.231,2.069-.419,4.091-.952,6.091-1.539a38.793,38.793,0,0,0,6.052,3.478c-3.73-.933-7.65-.656-11.573-.393-4.523-2.811-8.441-7.135-11.714-10.93a78.462,78.462,0,0,1-13.049-21.275.049.049,0,0,0-.089.039A84.4,84.4,0,0,0,381.4,152.414a53.745,53.745,0,0,0,6.137,5.735c-.569.028-1.133.033-1.7.044a107.828,107.828,0,0,1-19.382-3.771c-.046-.013-.063.032-.048.063a87.282,87.282,0,0,1-9.021-3.824c-.2-.1-.378.219-.191.337.693.439,1.395.857,2.095,1.274-2.895-1.046-5.763-2.187-8.6-3.448-.057-.026-.094.065-.037.091,3.045,1.372,6.13,2.606,9.247,3.732a75.467,75.467,0,0,0,20.462,8.369c6.948,1.676,14.99,4.148,21.644.965.1-.026.2-.039.306-.069a.628.628,0,0,0,.393-.311c.206-.111.415-.211.617-.335a1.134,1.134,0,0,0,.493-1.056q1.086-.006,2.172-.03c.543.165,1.082.335,1.633.474a.722.722,0,0,0,.872-.561c2.228-.094,4.458-.233,6.691-.444.213-.02.165-.348-.048-.328-2.2.209-4.4.346-6.595.443a.74.74,0,0,0-.5-.717c-.3-.1-.585-.233-.885-.339a5.985,5.985,0,0,0,3.395-2.506,4.542,4.542,0,0,0,.517-2.78c.746.272,1.489.552,2.252.774a.722.722,0,0,0,.543-1.337q-1.464-.642-2.9-1.3c.05-1.161.506-2.306,2.435-3.474.306-.185.628-.344.954-.5a31.53,31.53,0,0,0,8-1.489c3.834-1.35,5.828-4.08,7.948-7.387a1.055,1.055,0,0,0,.143-.348,31.108,31.108,0,0,0,2.717-3.619.666.666,0,0,0,.372-.561,35.187,35.187,0,0,0,2.282-4.365,10.977,10.977,0,0,0,1.407-1.7,30.605,30.605,0,0,0,3.865-.735c.826-.219.648-1.548-.193-1.33-.941.243-1.88.448-2.819.63a55.106,55.106,0,0,0,2.495-5.726c.663-1.028,1.313-2.063,1.93-3.119.743-.043,1.483-.069,2.228-.133.513-.044.4-.832-.115-.791-.552.046-1.1.065-1.648.1a93.923,93.923,0,0,0,8.08-18.625,1.646,1.646,0,0,0,.057-.6c.181-.328.367-.654.548-.983C451.728,96.667,451.566,96.5,451.423,96.524Zm-60.8-100.4c.089-.131.176-.263.263-.393.213-.224.424-.448.63-.676q-.533,2.378-1.065,4.756C390.5-1.414,390.566-2.644,390.624-3.873ZM371.4,1.9l.022-.006-.076.03Zm-5.467,1.776c.685-.244,1.3-.47,1.85-.683q.542-.169,1.083-.333c-.732.357-1.443.752-2.171,1.119-.267.1-.535.194-.8.294C365.909,3.938,365.917,3.807,365.933,3.675Zm-.359.126.228-.08c-.024.135-.039.27-.063.406-1.209.452-2.421.906-3.637,1.332Q363.827,4.611,365.574,3.8Zm-5.856,2.232c-.417.213-.83.43-1.244.646l-.556.183Q358.8,6.426,359.718,6.033ZM356.2,7.777c.13-.076.261-.148.393-.222.3-.17.615-.319.922-.482l.53-.172c-.943.5-1.883.994-2.819,1.507C355.553,8.2,355.868,7.972,356.2,7.777Zm-4.213,3.559a8.473,8.473,0,0,1,.772-.946c2.819-1.595,5.676-3.126,8.582-4.569,1.465-.5,2.924-1.024,4.376-1.559l0,.02c-4.723,2.413-9.371,4.952-13.882,7.706C351.887,11.772,351.931,11.553,351.988,11.337Zm-.233.346c-.039.139-.072.276-.109.415-.065.039-.13.074-.193.113C351.542,12.031,351.648,11.857,351.755,11.683Zm-.522,1.085c.094-.059.187-.122.282-.181-.209.787-.413,1.574-.583,2.365A5.169,5.169,0,0,1,351.233,12.768ZM312.077,43.462c.552-.939,1.12-1.869,1.715-2.787-.278.622-.548,1.246-.785,1.883C312.7,42.864,312.381,43.155,312.077,43.462Zm1.109-.554c.07-.187.15-.372.224-.559.041-.041.083-.08.124-.12C313.416,42.453,313.3,42.683,313.186,42.909Zm.537-1.048c-.059.059-.12.117-.181.176q.506-1.247,1.117-2.459c.3-.306.6-.617.9-.919Q314.6,40.239,313.724,41.86Zm1.182-1.148c.337-.6.663-1.2,1.017-1.793.145-.241-.2-.5-.35-.274q3.075-3.081,6.291-5.982a6.924,6.924,0,0,1,.837.843Q318.719,37.006,314.905,40.712ZM326,30.193c-.4.53-.691.917-.945,1.239-.4.343-.789.7-1.189,1.048-.285-.007-.6-.248-1.311-.433q3.772-3.375,7.717-6.511A36.192,36.192,0,0,0,326,30.193Zm3.024-2.035a36.461,36.461,0,0,1,9.413-7.2Q333.631,24.426,329.021,28.158Zm13.232-9.947a35.427,35.427,0,0,0-6.124,2.876q6.909-5.017,14.269-9.334a11.667,11.667,0,0,0-.2,1.272C347.51,14.7,344.857,16.418,342.253,18.211Zm7.734-1.93c.226.028.435.02.669.059l.011,0q-.358,1.906-.57,3.817c0-.124-.015-.246-.018-.37,0-.05-.08-.039-.078.011.006.319.02.635.028.954a48.9,48.9,0,0,0,.069,10.173,34.316,34.316,0,0,1,.27-14c.011-.048-.067-.057-.078-.009a34.313,34.313,0,0,0,.063,16.143c.185,1.18.407,2.358.68,3.53.4,3.806.922,7.6,1.585,11.367-.187,0-.374.009-.563.009A62.162,62.162,0,0,1,349.986,16.281Zm2.78,33.852c-.254-.682-.448-1.374-.678-2.059.185,0,.367,0,.55,0,.1.578.213,1.156.322,1.732Zm.53-.9c-.07-.387-.154-.776-.222-1.163.3,0,.607,0,.909,0C353.753,48.457,353.526,48.846,353.3,49.235Zm1.256-2.128-.485.824q-.508.011-1.017.017-.8-4.55-1.406-9.11c.133.47.239.944.385,1.413.132.419.752.141.626-.274-.1-.333-.176-.667-.27-1,.17.385.319.774.5,1.156.081.169.352.05.268-.119q-.683-1.37-1.237-2.763c-.368-1.465-.693-2.93-.939-4.395q-.45-4.456-.682-8.956a50.523,50.523,0,0,1,.667-7.693.306.306,0,0,0,.089-.272c-.013-.054-.007-.1-.018-.156q.286-1.658.683-3.321c4.528-2.752,9.191-5.285,13.923-7.7a59.278,59.278,0,0,0-.12,17.7c-.067,1.482-.117,2.963-.137,4.448-.776,1.2-1.565,2.391-2.335,3.591-.187.1-.378.185-.567.285-.076.041-.024.165.056.124.119-.059.239-.113.359-.172-.109.167-.22.335-.328.5-.041.063.052.133.094.07.148-.228.3-.452.452-.68.476-.237.956-.467,1.435-.694C361.089,35.6,357.739,41.318,354.551,47.107Zm10.163-17.442c-.48.233-.959.476-1.435.72.689-1.056,1.4-2.1,2.1-3.146l0,.026c0,.087.133.106.135.017s.009-.176.013-.263q.317-.478.633-.952c.061.306.131.609.2.913C365.8,27.871,365.263,28.771,364.715,29.665Zm.822-2.989c.033-1.082.089-2.161.146-3.241.126.794.259,1.587.417,2.376C365.913,26.1,365.724,26.387,365.537,26.676Zm4.441-5.371c-.039,0-.081-.028-.109.019-.446.752-.895,1.5-1.341,2.252-.567.891-1.144,1.772-1.706,2.669-.059-.3-.131-.6-.187-.9,3.08-4.6,6.21-9.173,9.463-13.66,1.241-1.711,2.515-3.4,3.78-5.095Q374.79,13.83,369.978,21.306Zm-3.4,3.763c-.293-1.591-.517-3.176-.7-4.761a139.6,139.6,0,0,1,1.88-14.69c.052-.283-.4-.341-.444-.056-.757,4.478-1.267,8.971-1.583,13.484a72.9,72.9,0,0,1,.1-14.39c1.152-.585,2.287-1.2,3.45-1.769,1.157-.456,2.315-.911,3.463-1.391,5.1-1.511,10.1-3.122,14.478-5.824C379.93,5.146,373.121,15.042,366.582,25.069Zm22.644-6.96c.007,1.4.02,2.8.05,4.2-.174.089-.346.18-.52.267A23.607,23.607,0,0,1,389.225,18.109Zm-.413,5.73c.169-.081.33-.176.5-.259.026,1.065.048,2.13.083,3.191A13.59,13.59,0,0,1,388.812,23.839Zm3.011,4.621c.4.922.767,1.852,1.122,2.785a.4.4,0,0,0-.233.006c-.206.1-.417.178-.624.274Q391.95,29.994,391.824,28.46Zm1.861,18.375c.1-.044.2-.1.307-.143.007.067.017.133.024.2q-.067.694-.167,1.4C393.79,47.805,393.742,47.32,393.685,46.835Zm.33,2.915c-.033-.263-.057-.526-.089-.789q.114-.567.209-1.133c.089.911.135,1.819.194,2.728-.048.1-.117.185-.17.28C394.113,50.472,394.059,50.111,394.015,49.75Zm.181-2.322c.026-.169.056-.339.078-.507.054,1.015.1,2.03.143,3.039C394.352,49.114,394.287,48.272,394.2,47.427Zm.23,5.385c-.033-.237-.065-.474-.1-.713l.081-.091c.013.265.033.53.043.794Zm.148-9.782a10.387,10.387,0,0,1,.483,1.339l-.391.167C394.635,44.034,394.605,43.533,394.574,43.031Zm.2,3.3c.176-.08.35-.165.526-.246a8.6,8.6,0,0,1-.4,3.033C394.863,48.188,394.822,47.259,394.772,46.329Zm1.469,22.623c-.182-3.861-.646-7.721-1.183-11.588,0-.106,0-.211,0-.317a6.527,6.527,0,0,1,2.182,4.367A69.874,69.874,0,0,1,396.241,68.952Zm1.2-11.554a5.18,5.18,0,0,0-2.391-1.932c0-.432,0-.859-.006-1.293.694-.254,1.4-.485,2.087-.75a.72.72,0,0,0,.278-.193Q397.485,55.315,397.439,57.4Zm-.063-5.028a.723.723,0,0,0-.817-.25c-.517.17-1.032.333-1.548.5-.009-.432-.022-.865-.035-1.3.035-.046.089-.113.1-.141a8.966,8.966,0,0,0,1.089-5.506c.17-.08.344-.154.511-.237A69.149,69.149,0,0,1,397.376,52.37Zm-.967-8.573c-.191.083-.382.161-.574.244a11.793,11.793,0,0,0-1.393-2.959q-.261-3.681-.57-7.36A68.681,68.681,0,0,1,396.409,43.8ZM393.1,40.369a11.677,11.677,0,0,1,.861,1.391c.063.915.119,1.828.174,2.741,0,.087,0,.172,0,.257l-.274.117c-.106-.772-.17-1.543-.3-2.315-.011-.061-.107-.048-.1.013.126.782.191,1.563.3,2.343l-.287.122c-.382-3.267-.752-6.535-1.072-9.81a24.36,24.36,0,0,1,1.389,4.943c-.057-.074-.1-.154-.161-.226A.341.341,0,0,0,393.1,40.369Zm.478-3.8a24.992,24.992,0,0,0-1.352-3.411c-.018-.206-.035-.411-.054-.617.313-.128.633-.23.943-.361.057-.026.065-.076.1-.111Q393.405,34.316,393.581,36.569Zm-3.07-32.3.083-.059a16.442,16.442,0,0,1,.009,4.135C390.555,6.986,390.544,5.627,390.511,4.27Zm.709-.513.774-.563c-.1,2.591-.12,5.228-.065,7.91-.4.17-.8.367-1.2.543A20.638,20.638,0,0,0,391.22,3.757ZM391,63.795l.319-.15,0,.033C391.216,63.717,391.109,63.758,391,63.795Zm.267-42.465q-.289-4.289-.483-8.584c.387-.174.783-.333,1.169-.511.172,6.154.672,12.5,1.193,18.9q-.644-1.65-1.376-3.271c-.146-1.78-.311-3.559-.435-5.343.063-.035.13-.063.191-.1C392.077,22.106,391.8,21.256,391.27,21.33Zm40.224,82.495c-6.463,2.259-13,4.248-19.707,5.987-1.052.237-2.12.437-3.185.65a46.076,46.076,0,0,1,9.556-14.447l0,0a96.661,96.661,0,0,0,27.888,1.58c.176-.015.346-.043.515-.07C441.545,99.808,436.539,101.934,431.494,103.825Zm-51.84,53.962q-5.356-.986-10.625-2.424-1.114-.353-2.217-.739a111,111,0,0,0,15.153,3.446C381.192,157.994,380.423,157.894,379.655,157.786Zm24.136,2.1a1.639,1.639,0,0,0-.2-.465c.048,0,.1-.006.143-.011.413.156.824.317,1.245.459C404.584,159.879,404.187,159.888,403.791,159.89Zm2.152-1.945c-.15.046-.313.074-.467.117a54.519,54.519,0,0,1-7.919-3.815,72.847,72.847,0,0,0,8.15-3.245c1.237.667,2.5,1.282,3.787,1.819C409.35,154.942,409.212,156.923,405.943,157.946Zm4.052-8.043a5.965,5.965,0,0,0-.3,1.07c-.68-.317-1.359-.632-2.028-.956q2.117-1.072,4.159-2.272l.259-.013A4.4,4.4,0,0,0,409.995,149.9Zm10.945-7.343a24.132,24.132,0,0,1-6.86,3.806,74.685,74.685,0,0,0,8.041-5.935,17.462,17.462,0,0,0,1.763.163C422.883,141.217,421.884,141.85,420.94,142.56Zm4.708-3.083a16.077,16.077,0,0,1-2.369-.009c1.172-1.032,2.308-2.109,3.415-3.213-.209.926-.4,1.941-.617,2.945C425.935,139.291,425.792,139.386,425.648,139.476Zm.9-.578a4.321,4.321,0,0,1,.191-.726,7.189,7.189,0,0,1,.787-1.5.262.262,0,0,0,.17-.059c.791-.761,1.522-1.552,2.278-2.332l.239.044q-.9,1.611-1.794,3.219Q427.511,138.259,426.546,138.9Zm3.637-1.519a.947.947,0,0,0-1-.33c.495-.878.982-1.761,1.476-2.641.526.1,1.052.207,1.578.3A31.738,31.738,0,0,1,430.183,137.38Zm2.858-3.963a.643.643,0,0,0-.1-.043c-.513-.1-1.033-.181-1.55-.276l.039-.069c1.011-.7,2.033-1.356,2.965-2.02Q433.763,132.245,433.041,133.417Zm1.243-3.911c.333-.4.694-.785,1.02-1.191.206-.013.409-.013.615-.031A8.107,8.107,0,0,1,434.283,129.505Zm2.745-2.643c-.237.041-.474.087-.713.122.922-1.189,1.83-2.387,2.682-3.617A30.841,30.841,0,0,1,437.028,126.863Zm-.478-3.013q1.356-2.42,2.706-4.845l.207-.022C438.539,120.631,437.576,122.259,436.55,123.85Zm3.2-5.408-.194.024.282-.506c.057,0,.113,0,.17,0C439.922,118.12,439.839,118.283,439.752,118.442Zm.678-1.272c-.05,0-.1,0-.15,0q.87-1.558,1.741-3.117C441.513,115.107,440.976,116.14,440.43,117.17ZM318.061,32.134a7.963,7.963,0,0,1,2.172-.311A3.139,3.139,0,0,0,318.061,32.134Zm-4.619,4.278c-4,7.145-6.436,15.669-9.495,23.259a.069.069,0,0,0,.128.052q2.817-6.673,5.635-13.343c.937-2.22,1.8-4.491,2.819-6.671.726-1.55,2.83-6.171,5.532-7.574C316.151,32.693,314.764,34.045,313.442,36.412Zm28.376-18.447a16.1,16.1,0,0,1,2.015-.97,8.879,8.879,0,0,0-2.065.887C341.721,17.911,341.769,17.992,341.818,17.965Zm10.96,121.2a27.347,27.347,0,0,0-1.808-2.622C351.566,137.424,352.175,138.295,352.777,139.169Zm-3.676-5.13c.491.735,1.172,1.589,1.869,2.508-.587-.863-1.189-1.717-1.778-2.58C349.149,133.9,349.06,133.976,349.1,134.039Zm-58.62,6.039a36.83,36.83,0,0,0,6.243-10.519.1.1,0,0,0-.182-.072,34.865,34.865,0,0,1-7.537,11.345c-.695.372-1.382.774-2.065,1.189l3.085-3.184c.061-.061-.022-.169-.085-.106q-.9.9-1.8,1.8c.565-.7,1.108-1.417,1.693-2.091.033-.039-.028-.083-.061-.046-.78.822-1.576,1.633-2.369,2.446q.67-1.081,1.257-2.193a.347.347,0,0,0,.333-.256c.074-.281.15-.563.222-.844.08-.163.135-.335.211-.5.659-.709,1.3-1.433,1.974-2.133.03-.031-.024-.085-.056-.054-.585.583-1.161,1.183-1.745,1.774a36.871,36.871,0,0,0,3.1-12.54c.024-.356-.537-.554-.643-.169-1.263,4.611-2.421,9.252-3.617,13.882a155.214,155.214,0,0,0-13.53,15.482c-.241-.009-.5-.028-.807-.056a1.008,1.008,0,0,0-.5,1.926,26.454,26.454,0,0,0,3.215,1,1.2,1.2,0,0,0,1.15-.489c1.637-2.826,3.365-5.647,5.2-8.393a8.136,8.136,0,0,1,1.107-.352c.559-.124.706-.387,1.158.133a11.2,11.2,0,0,1,.317,2.417.214.214,0,0,0,.424-.061c-.13-1.076-.283-2.146-.435-3.221a.208.208,0,0,0-.285-.159c-.6.243-1.372.663-2.128,1,.265-.394.544-.774.813-1.165a32.907,32.907,0,0,0,4.791-4.067,45.593,45.593,0,0,1,21.407-5.787c.031,0,.031-.057,0-.059A41.973,41.973,0,0,0,290.482,140.078Zm1.135-11.719A35.927,35.927,0,0,1,289.891,135Q290.766,131.681,291.617,128.359Zm-9.376,17.956c-.226.146-.439.306-.669.448a.278.278,0,0,0-.078.374c-.069.08-.13.167-.2.246l-.539.539c-.048.048-.033.106-.024.161-.809.978-1.615,1.963-2.389,2.965-1.165,1.509-1.548,2.091-2.63,2.213,4.109-5.132,8.221-10.189,12.63-15.041l-.022.083a.263.263,0,0,0,.056.256c-.4.831-.82,1.656-1.282,2.469a.093.093,0,0,0,.022.107C285.463,142.834,283.822,144.551,282.24,146.316Zm3.267-2.354c.078-.106.152-.215.228-.32.056-.009.111.006.167-.03.083-.056.172-.1.257-.156C285.948,143.63,285.722,143.791,285.507,143.962Zm-16.671-32.948a34.435,34.435,0,0,0,4.876,3.246c.2.107.33-.22.132-.326a33.742,33.742,0,0,1-5.3-3.511,99.2,99.2,0,0,1-8.782-25.87c2.067,1.067,4.135,2.133,6.182,3.233.076.043.152-.089.076-.133-2.154-1.287-4.285-2.615-6.421-3.939a98.68,98.68,0,0,1-1.406-11.271,41.372,41.372,0,0,0,17.725,12.2,39.651,39.651,0,0,0-.294,4.437c-.052.211-.106.42-.157.632a.271.271,0,0,0,.172.335,36.087,36.087,0,0,0,1.476,9.736,63.487,63.487,0,0,1-15.366-8.637c-.12-.093-.256.091-.141.187a53.722,53.722,0,0,0,15.723,9.33c.026.009.043-.007.065,0a33.487,33.487,0,0,0,7.006,12.117,1.638,1.638,0,0,0,2.561-2.039,60.165,60.165,0,0,1-4.665-8.491,20.11,20.11,0,0,0,10.884.611.078.078,0,0,0-.022-.154,21.8,21.8,0,0,1-11.317-1.548q-.939-2.236-1.652-4.532a25.838,25.838,0,0,0,6.056,2.117c.139.032.2-.2.063-.243a22.505,22.505,0,0,1-6.549-3.378c-.226-1.132-.422-2.269-.581-3.411,3.559.882,7.217,1.5,10.795,2.256.085.019.124-.122.039-.148-3.641-1.12-7.289-2.411-10.982-3.378-.191-1.641-.319-3.287-.369-4.939.031.007.061.02.093.028.922.235,1.341-1.348.424-1.626-.183-.056-.359-.126-.541-.183q0-2.05.15-4.108c.274-1.074.544-2.148.819-3.222a12.419,12.419,0,0,0,3.346,2.645c.144.078.281-.163.143-.254a11.777,11.777,0,0,1-3.282-3.215q.256-1,.507-2a20.56,20.56,0,0,0,10.626,4.967c.089.015.1-.117.019-.135a20.277,20.277,0,0,1-10.43-5.674l.65-2.563c1.522.963,3.137,1.813,4.671,2.717.074.043.152-.054.081-.109-1.491-1.169-2.954-2.45-4.509-3.561.557-2.211,1.128-4.419,1.682-6.63.315-1.257.582-4.072,2.048-4.922,3.826,12.8,7.68,25.586,11.475,38.393.026.083.172.043.15-.043q-2.753-9.881-5.46-19.779a48.7,48.7,0,0,1,2.465-14.577,32.767,32.767,0,0,1,7.311,7.626c.072.1.222-.019.152-.122a31.636,31.636,0,0,0-7.371-7.819c.069-.224.124-.443.194-.667a.322.322,0,0,0-.6-.243c-.067.167-.12.337-.185.5a36.98,36.98,0,0,0-7.3-4l-.154-.552a.488.488,0,0,0-.969.093c-.178-.069-.346-.146-.526-.213a.387.387,0,0,0-.52.3c-.769,2.969-1.515,5.943-2.271,8.913-.015-.067-.1-.1-.13-.024-.348,1.039-.663,2.085-.952,3.135-.213-.137-.419-.289-.635-.417-.476-.281-.982.346-.526.7.3.23.613.437.922.652-.2.77-.391,1.541-.559,2.313-.257-.281-.52-.557-.77-.852a.38.38,0,0,0-.594.472,17.5,17.5,0,0,0,1.174,1.333c-.117.58-.235,1.161-.335,1.743l-.007-.013c.013-.057.02-.115.033-.17.046-.211-.133-.326-.313-.326-.083-.156-.178-.3-.259-.459-.22-.446-.928-.144-.713.313.139.3.328.565.494.846a42.815,42.815,0,0,0-2.209,8.167,46.517,46.517,0,0,1-18.047-11.375q-.125-2.242-.144-4.487c.933.487,1.872.965,2.828,1.387.163.07.259-.178.1-.254a25.9,25.9,0,0,1-2.943-1.707q-.011-2.711.132-5.426c1.7,1.319,3.408,2.617,5.058,3.935.061.048.122-.043.07-.094-1.683-1.613-3.346-3.311-5.043-4.974.094-1.493.211-2.983.372-4.474a57.577,57.577,0,0,0,12.054,8.7c.059.031.113-.065.057-.1a57.769,57.769,0,0,1-11.86-10.528c.178-1.378.378-2.756.617-4.13,5.695,6.878,13.375,12.39,21.077,16.619.665.365,1.3-.754.656-1.161-7.789-4.934-15.63-8.873-21.69-15.688a97.585,97.585,0,0,1,3.472-13.89c.015-.048-.057-.076-.072-.03a98.294,98.294,0,0,0-3.522,13.78c-.763-.867-1.489-1.793-2.191-2.759,1.361-4.709,2.95-9.363,4.565-13.925.072-.165.131-.337.206-.5.107-.237-.268-.459-.4-.228-.776,1.332-1.467,2.678-2.156,4.024a10.485,10.485,0,0,0-1-2.9.643.643,0,0,0-1.217.176,122.657,122.657,0,0,1-3.093,15.875.8.8,0,0,0-.307,1.159c-.457,1.639-.863,3.28-1.2,4.926-.111-.089-.217-.189-.33-.276-.483-.374-1.224.337-.767.789.272.27.57.517.85.78q-.442,2.372-.72,4.745c-.737-.807-1.459-1.633-2.163-2.495a.77.77,0,0,0-1.2.959A24.807,24.807,0,0,0,251.4,62.6a68.438,68.438,0,0,0,.481,16.5c-.822-.47-1.641-.95-2.476-1.4-.541-.291-1.063.624-.531.943,1.052.628,2.122,1.222,3.193,1.819a75.274,75.274,0,0,0,16.782,35.405.741.741,0,0,0,1.159-.922,73.505,73.505,0,0,1-4.239-6.636c.717.726,1.478,1.415,2.265,2.078,1.146,2.3,2.356,4.569,3.693,6.782.122.206.489-.009.363-.219C270.927,115,269.858,113.018,268.836,111.014Zm23.392-50.5c.337.217.639.469.965.7a37.485,37.485,0,0,0-2.083,14.228q-2.475-8.995-4.963-17.984C287.7,57.674,291.828,60.261,292.228,60.517Zm-10.812,5.519q-.344,1.356-.689,2.709l-.093-.061C280.872,67.8,281.137,66.917,281.416,66.036Zm-1.015,3.6.083.059c-.2.787-.4,1.574-.6,2.363l-.031-.037C280.016,71.223,280.2,70.428,280.4,69.634ZM278.938,75.6c.013.017.03.031.043.05q-.114.456-.23.915C278.807,76.242,278.877,75.919,278.938,75.6Zm-.73,9.758c.048.013.093.031.139.043.024,1.237.078,2.472.18,3.7C278.364,87.863,278.262,86.613,278.209,85.355Zm-.013-3.4c.08-.311.157-.624.237-.935-.048.867-.083,1.733-.093,2.6-.059-.019-.117-.041-.174-.059Q278.166,82.757,278.2,81.951ZM259.441,38.114c.281-.806.574-1.606.883-2.4q-.453,1.283-.893,2.58C259.438,38.229,259.436,38.175,259.441,38.114Zm-.243.852q-.611,1.795-1.193,3.6c.346-1.211.744-2.4,1.148-3.593C259.167,38.968,259.186,38.975,259.2,38.966Zm-1.641.307c.311-1.624,1.082-7.78.756-1.535-.293.615-.55,1.233-.822,1.85C257.511,39.482,257.537,39.379,257.558,39.273Zm-.943,8.95c.172-.628.339-1.257.519-1.885.689.985,1.411,1.95,2.18,2.883-.246,1.365-.456,2.733-.643,4.106-.835-.952-1.654-1.93-2.467-2.926C256.335,49.674,256.463,48.946,256.615,48.224Zm-.811,4.284c.82.956,1.694,1.87,2.606,2.754-.172,1.48-.3,2.961-.4,4.443-.911-.889-1.833-1.765-2.772-2.613C255.391,55.557,255.565,54.026,255.8,52.507Zm-.715,6.087c.93.77,1.867,1.532,2.822,2.276q-.158,2.72-.17,5.441a29.58,29.58,0,0,1-2.943-2.269Q254.859,61.312,255.089,58.594Zm-.287,6.554c.956.624,1.93,1.217,2.937,1.754,0,1.443.048,2.883.115,4.324a43.448,43.448,0,0,1-3.048-3.558C254.791,66.828,254.793,65.989,254.8,65.149Zm.006,2.9a47.126,47.126,0,0,0,3.078,4.028A98.817,98.817,0,0,0,259.2,83.466c-1-.62-2.011-1.232-3.021-1.845A88.953,88.953,0,0,1,254.808,68.051Zm10.349,39.183A82.911,82.911,0,0,1,256.4,82.8c.987.517,1.974,1.035,2.963,1.546a97.371,97.371,0,0,0,8.319,25.327A32.789,32.789,0,0,1,265.156,107.234Zm66.329-71.661c.217,2.446.506,4.878.833,7.3a106.766,106.766,0,0,0,4.791,28.1c.119.38.694.13.572-.25a105.989,105.989,0,0,1-4.808-24.107c.028.165.054.328.08.493a81.952,81.952,0,0,0,3.078,14.76.113.113,0,0,0,.124.085q1.244,4.6,2.783,9.143c.094.272.5.091.411-.18A160.56,160.56,0,0,1,332.9,45a82,82,0,0,1-.344-9.417c.072-3.152.25-6.31.6-9.478a.05.05,0,0,0-.1-.013,107.845,107.845,0,0,0-.756,14.851c-.241-1.791-.461-3.587-.641-5.395C331.648,35.434,331.476,35.46,331.486,35.573Zm-67.407-10.1c.88-1.369,1.693-2.752,2.482-4.143.615.476,1.256.93,1.9,1.374Q266.848,27,265.24,31.288c-.106.281.328.457.433.174q1.589-4.242,3.178-8.486c.639.443,1.276.887,1.876,1.365a58.989,58.989,0,0,1,5.369,4.834c.12.122.322-.028.213-.17a47.839,47.839,0,0,0-6.86-7.624q.467-1.247.933-2.493c.82.872,1.656,1.728,2.469,2.585a.117.117,0,0,0,.182-.146c-.746-1.15-1.48-2.335-2.256-3.491q1.4-3.745,2.8-7.487c.531.572,1.065,1.128,1.544,1.639a.156.156,0,0,0,.245-.193,24.235,24.235,0,0,1-1.463-2.319l1.848-4.93c.1-.276.376-1.022.706-1.92a263.331,263.331,0,0,0,8.008,37.837c.22,1.163.431,2.326.654,3.489a.321.321,0,0,0,.422.246c.394,1.35.783,2.7,1.191,4.048.039.126.25.065.224-.065-2.713-13.2-4.576-26.464-6.232-39.789,6.139,9.588,15.875,16.89,20.31,28.077.243.615,1.13.2.928-.406-3.05-9.21-10.271-16.075-15.8-23.779a109.1,109.1,0,0,1,8.656,8.8c6.26,7.752,14.258,18.193,11.021,28.709-.015.048.056.078.072.03,2.635-8.115-1.461-15.669-5.841-22.39a91.682,91.682,0,0,0-10.2-12.936c-1.893-2-4.221-3.961-6.258-6.093a29.9,29.9,0,0,1-4.48-13.193c-.174-2.226-3.646-1.732-3.441.5.05.543.124,1.082.178,1.622-.893,3.352-1.922,6.637-3.113,9.85a7.812,7.812,0,0,0-.557-1.032c-.433-.635-1.4,0-1.126.68a8.748,8.748,0,0,0,1.106,1.841q-1.372,3.536-3,6.965c-.337-.428-.674-.857-1.039-1.259a.575.575,0,0,0-.9.715c.417.611.872,1.2,1.346,1.774-.469.952-.957,1.9-1.457,2.841-.32-.194-.641-.4-.97-.565-.8-.4-1.274.743-.711,1.263.287.265.6.507.907.754-.78,1.409-1.583,2.809-2.433,4.195C263.858,25.463,264.01,25.58,264.078,25.474ZM276.114-.451c.078.689.143,1.378.228,2.063q-1.361,3.67-2.732,7.336c-.035-.067-.076-.128-.109-.194-.17-.337-.32-.683-.476-1.03C274.1,5.046,275.125,2.323,276.114-.451Zm-3.628,9.523c.243.3.483.6.746.894-.926,2.472-1.843,4.947-2.772,7.417-.339-.494-.683-.983-1.046-1.459C270.512,13.672,271.527,11.388,272.486,9.072Zm-3.68,8.049c.4.474.807.941,1.228,1.4q-.478,1.27-.954,2.543a18.209,18.209,0,0,0-1.7-1.2C267.873,18.95,268.345,18.037,268.806,17.12ZM267.838,31.8c-.026-.026-.07.009-.044.037a114.175,114.175,0,0,0,16.2,14.816.371.371,0,0,0,.444-.593A153.648,153.648,0,0,1,267.838,31.8Zm62.223,97.016a71.28,71.28,0,0,1-23.17,2.224c-.481-.022-.587.707-.094.754a59.462,59.462,0,0,0,23.3-2.867C330.156,128.911,330.126,128.8,330.061,128.818Zm-21.573-33.67a28.026,28.026,0,0,0,2.195,18.1c.287.567,1.194.178.909-.4a28.22,28.22,0,0,1-2.948-17.684C308.66,95.069,308.508,95.05,308.488,95.148Zm-27.566-6.017c-.374-.2-.743.441-.37.657a20.86,20.86,0,0,0,13.6,2.328.067.067,0,0,0-.02-.133A21.581,21.581,0,0,1,280.922,89.131Zm14.714-2.037c-.048.1.111.167.161.067l3.672-7.386c.105-.213-.243-.356-.343-.141Q297.379,83.365,295.636,87.094Zm79.754-9.465a.058.058,0,0,0-.019-.115,135.59,135.59,0,0,1-31.116,1.695c-.92-.044-1.109,1.382-.18,1.432A115.285,115.285,0,0,0,375.39,77.629ZM341.6,82.975a99.488,99.488,0,0,0,25.72-.337.058.058,0,0,0-.017-.115,116.886,116.886,0,0,1-25.527-.941A.7.7,0,0,0,341.6,82.975Zm7.941,64.892a29.766,29.766,0,0,0,5.88-4.591.171.171,0,0,0,.026-.235c-.35-.494-.687-1-1.03-1.5.174,0,.348,0,.522-.006a26.158,26.158,0,0,1,1.974,8.975c.011.274.435.211.424-.061a26.1,26.1,0,0,0-1.95-8.928c.983-.017,1.965-.037,2.937-.1.587-.039.559-.957-.009-1.022-1.2-.139-2.4-.254-3.6-.354a26.386,26.386,0,0,0-5-7.043.23.23,0,0,0,.244-.32,20.994,20.994,0,0,0-6.595-8.593c-.809-.6-2.578-1.217-3.765-1.863a19.466,19.466,0,0,0,1.648-7.493c.12-.519.217-1.044.307-1.574.763-.181,1.52-.378,2.287-.557.626-.148.5-1.137-.146-1-.661.137-1.317.3-1.976.444a27.423,27.423,0,0,0,.191-4.685,34.26,34.26,0,0,0,.115-7.078c.15-.048.3-.1.446-.148.467-.148.241-.965-.239-.835-.093.024-.183.056-.276.08a36.977,36.977,0,0,0-2.546-9.9c-.028-.069-.135-.022-.107.048a35.715,35.715,0,0,1,2.341,9.949c-1.007.278-2.013.567-3.011.876q-.181-4.245-.156-8.487c.156-.035.3-.087.459-.12.417-.091.317-.756-.094-.656-.122.03-.239.074-.359.1.006-.77,0-1.543.018-2.315a79.57,79.57,0,0,0,23.709-.98.058.058,0,0,0-.017-.115,89.594,89.594,0,0,1-23.664.041q.2-7.639,1-15.3a.294.294,0,0,0-.469-.263c-.4.243-.809.474-1.215.711a.517.517,0,0,0-.883-.52c-.441.567-.848,1.163-1.282,1.737a45.615,45.615,0,0,0-5.185,2.917,38.871,38.871,0,0,0-26.918,29.279c-.019.085.115.1.135.017a37.857,37.857,0,0,1,13.26-21.242,20.813,20.813,0,0,0,.941,13.788.332.332,0,0,0,.607-.267,20.9,20.9,0,0,1-1.333-13.6c.009-.035-.024-.048-.046-.067a39.231,39.231,0,0,1,9.615-5.619l-1.17.669c-.063.037-.018.144.048.107.3-.165.852-.511,1.541-.952a40.4,40.4,0,0,1,6.2-1.909,200.023,200.023,0,0,0-19.173,33.752c-.45.25-.906.494-1.352.75-.074.043-.026.165.054.124.38-.194.767-.357,1.146-.548-2.306,5.1-4.445,10.254-6.4,15.414a.069.069,0,0,0,.128.052c2.167-5.452,4.572-10.721,7.145-15.88a184.513,184.513,0,0,1,22.968-9.306c.037.654.1,1.306.148,1.959-.141-.219-.243-.443-.393-.657-.043-.063-.133.009-.091.072.193.283.328.576.5.863q.3,4.406.83,8.8a212.1,212.1,0,0,0-28.951,9.545c-.106.043-.035.2.07.161A263.748,263.748,0,0,1,339,113.781c.063.5.106,1.009.174,1.513.009.067.054.1.085.143a36.966,36.966,0,0,1-2.743,5.554.283.283,0,0,0,.119.424c.409.135.793.3,1.187.454a25.678,25.678,0,0,1-13.4,11.038,21.185,21.185,0,0,1-3.613.226c-.3-.009-.361.446-.057.465.552.033,1.076-.009,1.613-.017a27.513,27.513,0,0,1-9.141.869c-.113-.007-.135.165-.022.174a27.549,27.549,0,0,0,10.273-1.054,18.758,18.758,0,0,0,13.845-7.424,26.245,26.245,0,0,1,16.931,13.867c-.309-.026-.622-.043-.933-.067-.176-.259-.356-.517-.533-.776q.222.383.415.769c-8.163-.6-16.388-.569-24.548-1.582a.039.039,0,0,0-.011.078c2.446.417,4.941.857,7.465,1.272a26.278,26.278,0,0,0,7.952,10.063c-.895.278-1.75.519-2.487.7-.852.211-1.708.367-2.563.506a10.857,10.857,0,0,1-3.543-5.152c-.026-.083-.172-.043-.148.043a11.287,11.287,0,0,0,3.211,5.2,30.886,30.886,0,0,1-4.082.289,20.814,20.814,0,0,1-3.158-7.839.068.068,0,0,0-.135.019,24.638,24.638,0,0,0,2.428,7.819c-.974-.015-1.941-.078-2.906-.183a32.509,32.509,0,0,1-3.428-13.391c0-.076-.135-.074-.135,0a32.773,32.773,0,0,0,2.787,13.31,30.515,30.515,0,0,1-3.859-.787,21.559,21.559,0,0,1-3.5-10.326c-.006-.078-.117-.057-.115.017a21.971,21.971,0,0,0,2.328,9.91,30.817,30.817,0,0,1-5.039-2.124c0-.028.026-.043.022-.074-.291-2.478-.711-4.939-1.15-7.393a.078.078,0,0,0-.154.022c.076,2.32.18,4.641.378,6.954-.252-.144-.513-.263-.763-.415-.413-.254-.872.35-.454.607a31.336,31.336,0,0,0,7.68,3.391,18.374,18.374,0,0,0,2.421,3.215c.4.42,1.1-.113.717-.572-.618-.733-1.185-1.493-1.724-2.265a30.954,30.954,0,0,0,3.565.644c.148.319.259.646.419.963.215.428.907.118.678-.3-.106-.193-.18-.393-.281-.587,1,.094,1.995.146,2.993.144a16.336,16.336,0,0,0,.982,1.563c.311.413.922-.08.624-.5-.257-.361-.472-.715-.711-1.07a30.7,30.7,0,0,0,4.221-.433,11.975,11.975,0,0,0,2.233,1.435c.326.157.55-.382.213-.524a10.952,10.952,0,0,1-1.819-1.007,30.31,30.31,0,0,0,4.841-1.354c.08.056.146.128.226.183a.3.3,0,0,0,.4-.448,30.076,30.076,0,0,0,3.561-1.693c.365.394.722.8,1.089,1.187.385.409,1.078-.146.685-.546C350.251,148.566,349.888,148.219,349.536,147.867ZM330.895,76.994c1.57-.906,3.145-1.809,4.709-2.726-.5.661-.987,1.33-1.474,2C333.036,76.464,331.956,76.7,330.895,76.994Zm-15.768,33.542q2.986-5.956,6.269-11.725a55.619,55.619,0,0,1,16.269-6.743c-.011,2.846.035,5.689.174,8.528A128.033,128.033,0,0,0,315.127,110.536Zm22.586-22.829c-.772-.1-1.543-.2-2.315-.319a.526.526,0,0,0-.133,1.043c.811.131,1.62.231,2.43.333-.022.885-.017,1.77-.024,2.656a56.412,56.412,0,0,0-16.11,7.111c4.206-7.334,8.771-14.473,13.586-21.553.43-.074.85-.169,1.283-.23a.419.419,0,0,0-.12-.83c-.167.02-.328.057-.495.08.509-.744,1.009-1.489,1.524-2.233h.028C339.764,74.679,337.856,85.168,337.714,87.707Zm1.556,34.331a2.72,2.72,0,0,1-.659-.532,25.812,25.812,0,0,0,2.372-5.821A18.717,18.717,0,0,1,339.269,122.038Zm1.9-9.873-.059.015c-.011-.1-.02-.207-.035-.311.115-.439.187-.88.283-1.32C341.317,111.1,341.245,111.63,341.171,112.166Zm-2.495-10.771c1.013-.337,2.019-.683,3.039-1.013a33.912,33.912,0,0,1,0,4.632c-.006-.054-.006-.1-.011-.157a.234.234,0,0,0-.463.067c.107.859.148,1.7.178,2.545-.148,1.007-.322,2.011-.561,3.008a19.863,19.863,0,0,0-1.98-5.413C338.8,103.839,338.738,102.617,338.677,101.395Zm.232,3.982a19.632,19.632,0,0,1,1.861,5.439c-.128.515-.265,1.026-.419,1.535-.256.059-.513.113-.769.174C339.31,110.14,339.079,107.756,338.908,105.376Zm1.115,8.156c-.072.213-.178.419-.254.632-.022-.185-.041-.37-.063-.556C339.812,113.582,339.917,113.556,340.023,113.532Zm.006,1.656c.224-.594.389-1.2.576-1.8l.394-.1a25.9,25.9,0,0,1-2.695,7.658C337.475,119.038,339.38,116.914,340.029,115.188Zm-13.843,17.406a25.681,25.681,0,0,0,9.426-6.837c.393.076.776.172,1.163.265A19.179,19.179,0,0,1,326.185,132.594Zm10.7-6.706c-.389-.089-.778-.18-1.172-.25a25.674,25.674,0,0,0,2.6-3.58c.263.109.526.219.782.335A18.89,18.89,0,0,1,336.888,125.889Zm.543.117a19.456,19.456,0,0,0,2.006-3.441,20.717,20.717,0,0,1,9.971,10.13A26.316,26.316,0,0,0,337.43,126.005Zm7.2,17.218c-.076-.067-.183.048-.122.124,1.291,1.591,2.68,3.15,4.082,4.674a33.551,33.551,0,0,1-3.822,1.52,28.676,28.676,0,0,1-8.452-9.8,115.708,115.708,0,0,0,17.477,1.789,3.567,3.567,0,0,1-.585,3.226,11.944,11.944,0,0,1-3.872,2.909C347.8,146.143,346.238,144.634,344.629,143.223Z" transform="matrix(-0.848, -0.53, 0.53, -0.848, 1556.636, 1324.38)" fill="url(#linear-gradient)"/>
    <path id="Path_65" data-name="Path 65" d="M570.395,94.162a16.446,16.446,0,0,0,2.649-9.989,15.506,15.506,0,0,0-6.092-11.409,10.077,10.077,0,0,0-5.747-2.869c-.48-.136-.968-.257-1.466-.353-.032-.006-.042.047-.011.057.27.077.534.172.8.261a7.531,7.531,0,0,0-2.475.4c-.085.029-.037.179.049.151a7.559,7.559,0,0,1,3.044-.341c6.476,2.418,11.35,8.182,11.06,15.441a15.256,15.256,0,0,1-.552,3.534c-.169.544-.355,1.081-.562,1.609a14.857,14.857,0,0,1-2.157,3.635c.02-.055.044-.108.064-.163a.087.087,0,0,0-.165-.057c-.089.233-.188.459-.293.681a19.868,19.868,0,0,1-4.127,3.559,10.9,10.9,0,0,1-8.79-.631A18.827,18.827,0,0,1,554.1,96.5a10.013,10.013,0,0,0,3.684.645c2.229.635,4.643.767,6.1-.857a1.977,1.977,0,0,0,1.312-1.463c.093-.073.188-.129.28-.208a.15.15,0,0,0-.125-.26c-5.68.96-10.965-1.879-12.421-7.655a.026.026,0,0,0-.05.01,10.214,10.214,0,0,0,8.732,8.308,29.061,29.061,0,0,1,3.133-.171c.26.123-1.028.607-1.707.848-.168.032-.338.062-.505.087a.07.07,0,0,0-.083-.049c-.344.068-.683.113-1.021.148a10.785,10.785,0,0,1-11.161-11.029c.087-.309.184-.617.3-.923.015-.039-.046-.06-.062-.021-.083.209-.148.422-.219.634a10.821,10.821,0,0,1,.245-1.71,9.6,9.6,0,0,1,.438-1.036c.022-.044-.05-.077-.078-.038-.043.062-.082.129-.124.193.092-.294.194-.588.313-.882.007-.018-.02-.027-.027-.009-.156.355-.283.711-.4,1.066q-.17.269-.326.549a10.953,10.953,0,0,1,.373-1.11c.007-.017-.02-.026-.027-.009a11.291,11.291,0,0,0-.556,1.5,11.774,11.774,0,0,0-1.225,6.666,8.629,8.629,0,0,1-.536-2.778c0-.152-.24-.171-.24-.016a8.831,8.831,0,0,0,.1,1.244,8.628,8.628,0,0,1-.258-1.015,17.2,17.2,0,0,1,1.472-10.45c.2-.4.417-.8.646-1.187.009-.016-.014-.032-.024-.016-.125.21-.235.43-.354.645a24.985,24.985,0,0,1,1.505-2.628,16.959,16.959,0,0,1,3.115-2.507c.024-.014.006-.054-.019-.039a17.16,17.16,0,0,0-2.724,1.994q.194-.281.393-.557a15.262,15.262,0,0,1,4.293-2.572c.031-.012.009-.057-.022-.046a15.3,15.3,0,0,0-4.094,2.377c.3-.41.612-.816.936-1.213.051-.062-.052-.156-.107-.1-.638.694-1.247,1.426-1.822,2.188a14.838,14.838,0,0,0-2.9,3.939,16.237,16.237,0,0,0,.483,17.706c2.477,3.548,6.647,6.207,11.078,6.069a10.2,10.2,0,0,0,2.027-.274,6.751,6.751,0,0,0,1.948-.579.12.12,0,0,0,.166.046c.15-.1.29-.2.437-.3a11.326,11.326,0,0,0,1.134-.488,17.451,17.451,0,0,1-3.689,2.072c-.026.011-.007.049.019.039a17.434,17.434,0,0,0,4.033-2.3A10.449,10.449,0,0,0,570.395,94.162Zm-7.878-23.84a9.527,9.527,0,0,1,2.846,1.372A17.037,17.037,0,0,0,562.516,70.322Zm2.521,24.619a2.567,2.567,0,0,1-.577.548.122.122,0,0,0-.068-.1C564.609,95.259,564.823,95.1,565.037,94.941Zm-1.667.958q.416-.1.836-.235a6.113,6.113,0,0,1-1.375.658,5.536,5.536,0,0,1-1.384.159.158.158,0,0,0-.005-.123A6.61,6.61,0,0,0,563.37,95.9Zm-2.64.86a8.547,8.547,0,0,0,2.994-.409c-1.286,1.221-3.275,1.249-5.269.772A12.46,12.46,0,0,0,560.731,96.759Zm-1.857-.635c.2.051.4.094.606.131a9.86,9.86,0,0,1-1.806-.327A10.285,10.285,0,0,0,558.873,96.124Zm-8.539-21.929q-.563.615-1.057,1.278a14.691,14.691,0,0,1,1.546-1.968C550.657,73.734,550.492,73.961,550.334,74.195Zm4.1,24.064a12.2,12.2,0,0,1-3.019-2.532A20.244,20.244,0,0,0,554.437,98.259Zm-1.365-5.384a10.92,10.92,0,0,0,1.322,1.18,10.591,10.591,0,0,1-1.735-1.537Q552.863,92.7,553.072,92.875Zm-2.811-9.184a10.711,10.711,0,0,0-.154,1.409c-.046.164-.083.328-.122.491A9.2,9.2,0,0,1,550.261,83.691Zm-.235,3.244c-.025-.245-.039-.491-.045-.739.034-.222.077-.442.125-.664a10.629,10.629,0,0,0,1.9,6.032c-.12-.118-.239-.235-.356-.354A10.425,10.425,0,0,1,550.025,86.935Zm-.464,6.615a12.356,12.356,0,0,0,4.994,5.235,12.366,12.366,0,0,1-2.768-1.946,14.24,14.24,0,0,1-3.773-5.827A15.559,15.559,0,0,0,549.561,93.55ZM549.51,75.5a20.105,20.105,0,0,0-2.668,7.114,14.713,14.713,0,0,1,.625-3.366A16.862,16.862,0,0,1,549.51,75.5Zm-1.1,17.71a16.193,16.193,0,0,1-1.5-12.306,14.76,14.76,0,0,0-.237,3.73,14.113,14.113,0,0,0,.912,5.353,14.243,14.243,0,0,0,4.888,7.682,12.217,12.217,0,0,0,5.838,2.578C554.115,99.771,550.446,96.818,548.412,93.208Zm10.644,6.218-.052-.019c.123.019.247.028.37.042C559.269,99.441,559.162,99.439,559.057,99.426Zm3.257.128a10.627,10.627,0,0,1-1.557.232c-.085-.009-.169-.016-.253-.029a9.628,9.628,0,0,0,1.944-.273Zm2.642-.288c.078-.058.155-.117.232-.176a14.619,14.619,0,0,0,2.312-1.619c-.411.408-.848.791-1.3,1.158A10.652,10.652,0,0,1,564.956,99.266Zm1.811-1a17.623,17.623,0,0,0,1.65-1.65,15.645,15.645,0,0,0,1.3-1.5A10.178,10.178,0,0,1,566.767,98.265Zm.673-18.614a6.569,6.569,0,0,0-5.47-6.456.026.026,0,0,0-.01.049,7.08,7.08,0,0,1,4.128,3.388,9.47,9.47,0,0,0-4.24-2.863c-.09-.034-.163.106-.077.154a4.884,4.884,0,0,1,1.539,1.336c.112.152.224.3.328.457a8.781,8.781,0,0,1,.566,1.107c-.672-.551-1.339-1.112-2.043-1.619-.181-.131-.35.11-.236.266l-.012.011.037.032h0c.043.034.081.072.123.108.13.12.267.232.4.349A8.113,8.113,0,0,1,564.678,80c.035.15.268.106.235-.045-.06-.273-.131-.537-.213-.794a8.881,8.881,0,0,1,1.257,1.822c-.058-.039-.117-.076-.174-.117-.091-.064-.222.072-.134.15q.233.2.454.42a.156.156,0,0,0,.058.03,9.339,9.339,0,0,1,.617,1.917.122.122,0,0,0,.234.016,7.724,7.724,0,0,0,.205-3.538A.229.229,0,0,0,567.44,79.652Zm-2.813-.9a.093.093,0,0,0-.088-.027,8.8,8.8,0,0,0-.872-1.718l.935.775c.205.517.417,1.048.681,1.579a.788.788,0,0,0,.3.309c.061.185.122.369.179.559A8.931,8.931,0,0,0,564.626,78.752Zm2.438,3.4a7.377,7.377,0,0,1-.159.768,9.222,9.222,0,0,0-.549-1.566.16.16,0,0,0,.007-.042,9.257,9.257,0,0,0-.324-1.486c.03,0,.06,0,.089,0A12.44,12.44,0,0,1,567,82.12.048.048,0,0,0,567.065,82.153Zm.021-.1a11.286,11.286,0,0,0-.84-2.229.814.814,0,0,0,.584-.33.876.876,0,0,0,.114.011c.007.06.022.114.029.174a.184.184,0,0,0,.129.158A7.09,7.09,0,0,1,567.085,82.054Z" transform="translate(755.623 1133.366)" fill="url(#linear-gradient)"/>
    <path id="Path_203173" data-name="Path 203173" d="M562.29,86.03a11.013,11.013,0,0,0,1.774-6.69,10.384,10.384,0,0,0-4.08-7.64,6.748,6.748,0,0,0-3.849-1.922c-.322-.091-.648-.172-.982-.236-.022,0-.028.032-.007.038.181.052.357.115.535.175a5.044,5.044,0,0,0-1.658.268c-.057.019-.024.12.033.1A5.063,5.063,0,0,1,556.1,69.9c4.337,1.62,7.6,5.479,7.407,10.341a10.217,10.217,0,0,1-.369,2.366c-.113.364-.238.724-.377,1.078a9.95,9.95,0,0,1-1.444,2.434c.013-.037.03-.072.043-.109a.058.058,0,0,0-.11-.038c-.06.156-.126.307-.2.456a13.3,13.3,0,0,1-2.764,2.384,7.3,7.3,0,0,1-5.887-.423,12.6,12.6,0,0,1-1.023-.789,6.706,6.706,0,0,0,2.467.432c1.493.426,3.109.513,4.084-.574a1.324,1.324,0,0,0,.879-.98c.062-.049.126-.086.188-.139a.1.1,0,0,0-.084-.174c-3.8.643-7.343-1.258-8.318-5.127a.017.017,0,0,0-.034.007,6.84,6.84,0,0,0,5.848,5.564,19.46,19.46,0,0,1,2.1-.115c.174.083-.688.407-1.143.568-.113.022-.226.042-.339.058a.047.047,0,0,0-.055-.033c-.23.046-.458.076-.684.1A7.223,7.223,0,0,1,548.81,79.8c.058-.207.123-.414.2-.618.01-.026-.031-.04-.041-.014-.056.14-.1.283-.147.425a7.247,7.247,0,0,1,.164-1.145,6.439,6.439,0,0,1,.293-.694c.015-.03-.034-.052-.052-.025-.029.042-.055.086-.083.129.061-.2.13-.394.21-.591,0-.012-.013-.018-.018-.006-.1.238-.19.476-.267.714q-.114.18-.219.368a7.334,7.334,0,0,1,.25-.743c0-.012-.013-.017-.018-.006a7.556,7.556,0,0,0-.372,1.008,7.885,7.885,0,0,0-.82,4.464,5.779,5.779,0,0,1-.359-1.86c0-.1-.16-.115-.16-.011a5.91,5.91,0,0,0,.064.833,5.764,5.764,0,0,1-.173-.68,11.521,11.521,0,0,1,.986-7c.136-.269.28-.535.433-.795.006-.011-.01-.022-.016-.011-.084.141-.158.288-.237.432a16.739,16.739,0,0,1,1.008-1.76,11.357,11.357,0,0,1,2.086-1.679c.016-.01,0-.036-.013-.026a11.491,11.491,0,0,0-1.824,1.336q.13-.188.263-.373a10.221,10.221,0,0,1,2.875-1.723c.021-.008.006-.038-.014-.031a10.244,10.244,0,0,0-2.742,1.592c.2-.275.41-.547.627-.813.034-.042-.035-.1-.072-.064-.427.464-.835.955-1.22,1.465a9.938,9.938,0,0,0-1.941,2.638,10.874,10.874,0,0,0,.324,11.857,9.061,9.061,0,0,0,7.419,4.064,6.832,6.832,0,0,0,1.358-.183,4.522,4.522,0,0,0,1.3-.388.08.08,0,0,0,.111.031c.1-.064.195-.136.292-.2a7.583,7.583,0,0,0,.759-.327,11.687,11.687,0,0,1-2.471,1.388c-.018.007,0,.033.012.026a11.675,11.675,0,0,0,2.7-1.541A7,7,0,0,0,562.29,86.03Zm-5.276-15.966a6.381,6.381,0,0,1,1.906.919A11.41,11.41,0,0,0,557.014,70.064ZM558.7,86.552a1.718,1.718,0,0,1-.387.367.081.081,0,0,0-.046-.066C558.416,86.764,558.559,86.659,558.7,86.552Zm-1.116.642q.279-.067.56-.158a4.1,4.1,0,0,1-.921.44,3.707,3.707,0,0,1-.927.107.106.106,0,0,0,0-.082A4.427,4.427,0,0,0,557.586,87.193Zm-1.768.576a5.724,5.724,0,0,0,2.005-.274,3.762,3.762,0,0,1-3.529.517A8.344,8.344,0,0,0,555.818,87.769Zm-1.244-.426c.135.034.27.063.406.087a6.6,6.6,0,0,1-1.209-.219A6.89,6.89,0,0,0,554.574,87.344Zm-5.719-14.686q-.377.412-.708.856a9.838,9.838,0,0,1,1.035-1.318C549.072,72.349,548.962,72.5,548.855,72.658ZM551.6,88.773a8.17,8.17,0,0,1-2.021-1.7A13.554,13.554,0,0,0,551.6,88.773Zm-.914-3.606a7.311,7.311,0,0,0,.885.79,7.1,7.1,0,0,1-1.162-1.029Q550.549,85.05,550.689,85.168Zm-1.883-6.151a7.168,7.168,0,0,0-.1.944c-.031.11-.056.219-.082.329A6.161,6.161,0,0,1,548.806,79.017Zm-.158,2.172c-.017-.164-.026-.329-.03-.495.023-.148.051-.3.084-.445a7.118,7.118,0,0,0,1.269,4.04c-.08-.079-.16-.158-.238-.237A6.982,6.982,0,0,1,548.649,81.19Zm-.311,4.43a8.275,8.275,0,0,0,3.345,3.506,8.281,8.281,0,0,1-1.853-1.3,9.537,9.537,0,0,1-2.527-3.9A10.421,10.421,0,0,0,548.338,85.62ZM548.3,73.531a13.465,13.465,0,0,0-1.787,4.764,9.85,9.85,0,0,1,.419-2.254A11.292,11.292,0,0,1,548.3,73.531Zm-.735,11.86a10.844,10.844,0,0,1-1.005-8.241,9.885,9.885,0,0,0-.159,2.5,9.452,9.452,0,0,0,.611,3.585,9.539,9.539,0,0,0,3.273,5.145A8.182,8.182,0,0,0,554.2,90.1,9.125,9.125,0,0,1,547.569,85.391Zm7.128,4.164-.035-.012c.083.012.165.019.248.028C554.839,89.565,554.768,89.563,554.7,89.555Zm2.182.085a7.119,7.119,0,0,1-1.043.156c-.057-.006-.113-.011-.17-.019a6.447,6.447,0,0,0,1.3-.183Zm1.769-.193.155-.118a9.791,9.791,0,0,0,1.548-1.084c-.275.273-.568.53-.87.776A7.13,7.13,0,0,1,558.648,89.448Zm1.213-.67a11.8,11.8,0,0,0,1.1-1.1,10.481,10.481,0,0,0,.872-1.007A6.816,6.816,0,0,1,559.861,88.778Zm.451-12.465a4.4,4.4,0,0,0-3.663-4.324c-.02,0-.024.027-.007.033a4.741,4.741,0,0,1,2.765,2.269,6.342,6.342,0,0,0-2.839-1.917c-.06-.023-.109.071-.051.1a3.271,3.271,0,0,1,1.031.895c.075.1.15.2.22.306a5.884,5.884,0,0,1,.379.741c-.45-.369-.9-.744-1.368-1.084-.121-.087-.234.074-.158.178l-.008.007.024.022h0c.029.023.054.049.083.072.087.08.179.156.268.234a5.434,5.434,0,0,1,1.477,2.7c.023.1.18.071.158-.03-.04-.183-.088-.36-.143-.532a5.946,5.946,0,0,1,.842,1.22c-.039-.026-.078-.051-.116-.078-.061-.043-.148.048-.09.1q.156.136.3.281a.1.1,0,0,0,.039.02,6.256,6.256,0,0,1,.414,1.284.082.082,0,0,0,.157.011,5.173,5.173,0,0,0,.137-2.369A.153.153,0,0,0,560.311,76.312Zm-1.884-.6a.062.062,0,0,0-.059-.018,5.888,5.888,0,0,0-.584-1.151l.626.519c.137.346.279.7.456,1.058a.528.528,0,0,0,.2.207c.041.124.082.247.12.375A5.983,5.983,0,0,0,558.427,75.71Zm1.633,2.277a4.92,4.92,0,0,1-.106.514,6.177,6.177,0,0,0-.367-1.048.107.107,0,0,0,0-.028,6.2,6.2,0,0,0-.217-1c.02,0,.04,0,.06,0a8.333,8.333,0,0,1,.583,1.536A.032.032,0,0,0,560.06,77.987Zm.014-.066a7.559,7.559,0,0,0-.562-1.493.545.545,0,0,0,.391-.221.586.586,0,0,0,.076.007c0,.04.015.076.019.117a.124.124,0,0,0,.086.106A4.749,4.749,0,0,1,560.074,77.921Z" transform="translate(728.406 1088.224)" fill="url(#linear-gradient)"/>
    <path id="Path_203174" data-name="Path 203174" d="M562.29,86.03a11.013,11.013,0,0,0,1.774-6.69,10.384,10.384,0,0,0-4.08-7.64,6.748,6.748,0,0,0-3.849-1.922c-.322-.091-.648-.172-.982-.236-.022,0-.028.032-.007.038.181.052.357.115.535.175a5.044,5.044,0,0,0-1.658.268c-.057.019-.024.12.033.1A5.063,5.063,0,0,1,556.1,69.9c4.337,1.62,7.6,5.479,7.407,10.341a10.217,10.217,0,0,1-.369,2.366c-.113.364-.238.724-.377,1.078a9.95,9.95,0,0,1-1.444,2.434c.013-.037.03-.072.043-.109a.058.058,0,0,0-.11-.038c-.06.156-.126.307-.2.456a13.3,13.3,0,0,1-2.764,2.384,7.3,7.3,0,0,1-5.887-.423,12.6,12.6,0,0,1-1.023-.789,6.706,6.706,0,0,0,2.467.432c1.493.426,3.109.513,4.084-.574a1.324,1.324,0,0,0,.879-.98c.062-.049.126-.086.188-.139a.1.1,0,0,0-.084-.174c-3.8.643-7.343-1.258-8.318-5.127a.017.017,0,0,0-.034.007,6.84,6.84,0,0,0,5.848,5.564,19.46,19.46,0,0,1,2.1-.115c.174.083-.688.407-1.143.568-.113.022-.226.042-.339.058a.047.047,0,0,0-.055-.033c-.23.046-.458.076-.684.1A7.223,7.223,0,0,1,548.81,79.8c.058-.207.123-.414.2-.618.01-.026-.031-.04-.041-.014-.056.14-.1.283-.147.425a7.247,7.247,0,0,1,.164-1.145,6.439,6.439,0,0,1,.293-.694c.015-.03-.034-.052-.052-.025-.029.042-.055.086-.083.129.061-.2.13-.394.21-.591,0-.012-.013-.018-.018-.006-.1.238-.19.476-.267.714q-.114.18-.219.368a7.334,7.334,0,0,1,.25-.743c0-.012-.013-.017-.018-.006a7.556,7.556,0,0,0-.372,1.008,7.885,7.885,0,0,0-.82,4.464,5.779,5.779,0,0,1-.359-1.86c0-.1-.16-.115-.16-.011a5.91,5.91,0,0,0,.064.833,5.764,5.764,0,0,1-.173-.68,11.521,11.521,0,0,1,.986-7c.136-.269.28-.535.433-.795.006-.011-.01-.022-.016-.011-.084.141-.158.288-.237.432a16.739,16.739,0,0,1,1.008-1.76,11.357,11.357,0,0,1,2.086-1.679c.016-.01,0-.036-.013-.026a11.491,11.491,0,0,0-1.824,1.336q.13-.188.263-.373a10.221,10.221,0,0,1,2.875-1.723c.021-.008.006-.038-.014-.031a10.244,10.244,0,0,0-2.742,1.592c.2-.275.41-.547.627-.813.034-.042-.035-.1-.072-.064-.427.464-.835.955-1.22,1.465a9.938,9.938,0,0,0-1.941,2.638,10.874,10.874,0,0,0,.324,11.857,9.061,9.061,0,0,0,7.419,4.064,6.832,6.832,0,0,0,1.358-.183,4.522,4.522,0,0,0,1.3-.388.08.08,0,0,0,.111.031c.1-.064.195-.136.292-.2a7.583,7.583,0,0,0,.759-.327,11.687,11.687,0,0,1-2.471,1.388c-.018.007,0,.033.012.026a11.675,11.675,0,0,0,2.7-1.541A7,7,0,0,0,562.29,86.03Zm-5.276-15.966a6.381,6.381,0,0,1,1.906.919A11.41,11.41,0,0,0,557.014,70.064ZM558.7,86.552a1.718,1.718,0,0,1-.387.367.081.081,0,0,0-.046-.066C558.416,86.764,558.559,86.659,558.7,86.552Zm-1.116.642q.279-.067.56-.158a4.1,4.1,0,0,1-.921.44,3.707,3.707,0,0,1-.927.107.106.106,0,0,0,0-.082A4.427,4.427,0,0,0,557.586,87.193Zm-1.768.576a5.724,5.724,0,0,0,2.005-.274,3.762,3.762,0,0,1-3.529.517A8.344,8.344,0,0,0,555.818,87.769Zm-1.244-.426c.135.034.27.063.406.087a6.6,6.6,0,0,1-1.209-.219A6.89,6.89,0,0,0,554.574,87.344Zm-5.719-14.686q-.377.412-.708.856a9.838,9.838,0,0,1,1.035-1.318C549.072,72.349,548.962,72.5,548.855,72.658ZM551.6,88.773a8.17,8.17,0,0,1-2.021-1.7A13.554,13.554,0,0,0,551.6,88.773Zm-.914-3.606a7.311,7.311,0,0,0,.885.79,7.1,7.1,0,0,1-1.162-1.029Q550.549,85.05,550.689,85.168Zm-1.883-6.151a7.168,7.168,0,0,0-.1.944c-.031.11-.056.219-.082.329A6.161,6.161,0,0,1,548.806,79.017Zm-.158,2.172c-.017-.164-.026-.329-.03-.495.023-.148.051-.3.084-.445a7.118,7.118,0,0,0,1.269,4.04c-.08-.079-.16-.158-.238-.237A6.982,6.982,0,0,1,548.649,81.19Zm-.311,4.43a8.275,8.275,0,0,0,3.345,3.506,8.281,8.281,0,0,1-1.853-1.3,9.537,9.537,0,0,1-2.527-3.9A10.421,10.421,0,0,0,548.338,85.62ZM548.3,73.531a13.465,13.465,0,0,0-1.787,4.764,9.85,9.85,0,0,1,.419-2.254A11.292,11.292,0,0,1,548.3,73.531Zm-.735,11.86a10.844,10.844,0,0,1-1.005-8.241,9.885,9.885,0,0,0-.159,2.5,9.452,9.452,0,0,0,.611,3.585,9.539,9.539,0,0,0,3.273,5.145A8.182,8.182,0,0,0,554.2,90.1,9.125,9.125,0,0,1,547.569,85.391Zm7.128,4.164-.035-.012c.083.012.165.019.248.028C554.839,89.565,554.768,89.563,554.7,89.555Zm2.182.085a7.119,7.119,0,0,1-1.043.156c-.057-.006-.113-.011-.17-.019a6.447,6.447,0,0,0,1.3-.183Zm1.769-.193.155-.118a9.791,9.791,0,0,0,1.548-1.084c-.275.273-.568.53-.87.776A7.13,7.13,0,0,1,558.648,89.448Zm1.213-.67a11.8,11.8,0,0,0,1.1-1.1,10.481,10.481,0,0,0,.872-1.007A6.816,6.816,0,0,1,559.861,88.778Zm.451-12.465a4.4,4.4,0,0,0-3.663-4.324c-.02,0-.024.027-.007.033a4.741,4.741,0,0,1,2.765,2.269,6.342,6.342,0,0,0-2.839-1.917c-.06-.023-.109.071-.051.1a3.271,3.271,0,0,1,1.031.895c.075.1.15.2.22.306a5.884,5.884,0,0,1,.379.741c-.45-.369-.9-.744-1.368-1.084-.121-.087-.234.074-.158.178l-.008.007.024.022h0c.029.023.054.049.083.072.087.08.179.156.268.234a5.434,5.434,0,0,1,1.477,2.7c.023.1.18.071.158-.03-.04-.183-.088-.36-.143-.532a5.946,5.946,0,0,1,.842,1.22c-.039-.026-.078-.051-.116-.078-.061-.043-.148.048-.09.1q.156.136.3.281a.1.1,0,0,0,.039.02,6.256,6.256,0,0,1,.414,1.284.082.082,0,0,0,.157.011,5.173,5.173,0,0,0,.137-2.369A.153.153,0,0,0,560.311,76.312Zm-1.884-.6a.062.062,0,0,0-.059-.018,5.888,5.888,0,0,0-.584-1.151l.626.519c.137.346.279.7.456,1.058a.528.528,0,0,0,.2.207c.041.124.082.247.12.375A5.983,5.983,0,0,0,558.427,75.71Zm1.633,2.277a4.92,4.92,0,0,1-.106.514,6.177,6.177,0,0,0-.367-1.048.107.107,0,0,0,0-.028,6.2,6.2,0,0,0-.217-1c.02,0,.04,0,.06,0a8.333,8.333,0,0,1,.583,1.536A.032.032,0,0,0,560.06,77.987Zm.014-.066a7.559,7.559,0,0,0-.562-1.493.545.545,0,0,0,.391-.221.586.586,0,0,0,.076.007c0,.04.015.076.019.117a.124.124,0,0,0,.086.106A4.749,4.749,0,0,1,560.074,77.921Z" transform="translate(718.406 1128.224)" fill="url(#linear-gradient)"/>
    <g id="Group_66974" data-name="Group 66974" transform="translate(20116.936 -3473.673)">
      <path id="Path_1" data-name="Path 1" d="M385.9,347.681a.3.3,0,0,0-.6.027,19.832,19.832,0,0,1-.782,6.365,22.907,22.907,0,0,0-.1-3.109c.467-7.223-2.135-14.2-8.927-15.892a17.006,17.006,0,0,0-4.211-2.1.574.574,0,0,0-.131-.016,29.417,29.417,0,0,0-3.263-2.368l-.036-.057a11.059,11.059,0,0,0,2.959.469c.016,0,.021.017.038.018a18.966,18.966,0,0,0,7.81-1.155c.219-.064.434-.131.648-.2a.857.857,0,0,0,1.156.576,15.908,15.908,0,0,0,8.631-8.649,17.255,17.255,0,0,0,1.609-8.73,18.086,18.086,0,0,1,.176,4.407,18.927,18.927,0,0,1-8.2,12.151c-.252.171,0,.573.251.4a19.522,19.522,0,0,0,7.143-8.625,19.273,19.273,0,0,1-7.367,9.385c-.179.128,0,.419.183.29a20.3,20.3,0,0,0,5.412-27.125c.624.781,1.24,1.592,1.831,2.469.232.344.78,0,.546-.344a29,29,0,0,0-5.718-6.2,25.316,25.316,0,0,0-5.183-4.454c-17.13-11.081-37.907-1.77-53.62,7.18-.072.041,0,.15.069.109,13.023-7.355,28.3-14.813,43.675-11.074a28.122,28.122,0,0,1,10.473,5.158c-.3-.162-.6-.3-.9-.457-5.783-3.515-12.967-4.942-19.753-4.7a53.892,53.892,0,0,0-34.693,14.86c-.8.7-1.583,1.414-2.326,2.163-1.577,1.084-3.137,2.172-4.681,3.248-.114.079,0,.26.114.181,1.162-.8,2.378-1.62,3.634-2.447a41.62,41.62,0,0,0-4.818,6.287,45.73,45.73,0,0,0-4.827,8.125,25.8,25.8,0,0,1,2.055-4.547c.041-.072-.072-.132-.114-.06a25.428,25.428,0,0,0-2.593,6.139,27.211,27.211,0,0,0-1.965,8.132c-.119.569-.236,1.136-.333,1.711a.129.129,0,0,0,.251.056c.009-.029.019-.057.028-.087A17.346,17.346,0,0,0,313,345.7a20.77,20.77,0,0,0,9.082,6.316,24.557,24.557,0,0,0,10.578,3.361c.287.025.336-.48.046-.509a25.565,25.565,0,0,1-7.149-1.756c4.9,1.229,10.107,1.221,14.08-.458a21.953,21.953,0,0,0,6.154-3.17,16.694,16.694,0,0,0,2.322,6.974,20.985,20.985,0,0,0,6.4,10.429,17.7,17.7,0,0,0,8.4,3.9c.968.688,1.958,1.35,3,1.951.291.168.518-.277.243-.455-.654-.426-1.292-.865-1.921-1.315a17.965,17.965,0,0,0,2.171.081,14.718,14.718,0,0,0,8.47-1.318,17.045,17.045,0,0,0,9.427-13.244A19.219,19.219,0,0,0,385.9,347.681Zm-68.463-.647c-8.287-9.206-5.707-22.272,2.4-30.637.173-.179-.109-.443-.283-.264-7.3,7.519-10.086,19.281-4.9,28.047a23.261,23.261,0,0,1-2.288-4.463A16.638,16.638,0,0,1,311.66,334a32.82,32.82,0,0,1,1.5-8.276,59.411,59.411,0,0,1,19.959-23.145,92.908,92.908,0,0,1,18.775-7.936c8.73-1.8,18.394-1.44,25.994,3.271a21.762,21.762,0,0,1,6.408,6.068c-.351-.35-.712-.691-1.1-1.014-8.7-7.307-20.311-6.182-30.8-4.748-.054.008-.052.091,0,.087,8.9-.766,19.161-1.834,27.041,3.285,7.287,4.732,10.391,13.341,5.9,20.516l0-.026a8.1,8.1,0,0,0-1.035-2.741,17.028,17.028,0,0,0,1.054-3.076.086.086,0,0,0-.168-.039,16.751,16.751,0,0,1-1.031,2.893,9.463,9.463,0,0,0-3.225-3.035l.151.022c.2.029.354-.279.135-.362a14.332,14.332,0,0,0-2.8-.732,10.952,10.952,0,0,0-4.354-.373,10.024,10.024,0,0,0-6.376,3.235,13.883,13.883,0,0,0-5.008,9.334c-.042.381.545.518.586.133a14.081,14.081,0,0,1,2.85-7.153,10.481,10.481,0,0,0-.549,1.381,6.389,6.389,0,0,0-1.255,2.364l-.014.009a.058.058,0,0,0-.012.09,6.667,6.667,0,0,0-.234,1.428,4.774,4.774,0,0,0,1.354,3.54,4.209,4.209,0,0,0,.371.387,29.008,29.008,0,0,0-3.18-1.448.3.3,0,1,0-.209.558,28.679,28.679,0,0,1,3.309,1.5.649.649,0,0,0-.659.408,30.863,30.863,0,0,0-3.45-1.074.064.064,0,0,0-.028.126A31.282,31.282,0,0,1,365,330.585a.543.543,0,0,0,.187.537c5.912,4.9,14.121,12.527,15.873,20.349a29.161,29.161,0,0,1,.321,3.472,11.421,11.421,0,0,1-.171,1.56,8.4,8.4,0,0,1-2.45,2.88c-.352.266.019.852.367.582a9.247,9.247,0,0,0,1.538-1.513,15.789,15.789,0,0,1-5.477,6.871,18.212,18.212,0,0,1-7.213,1.916c.3-.173.6-.362.891-.569.158-.112,0-.367-.161-.255a11.626,11.626,0,0,1-1.409.852,19.672,19.672,0,0,1-5.964-.825c-.132-.039-.178.169-.048.21a19.9,19.9,0,0,0,5.4.893,9.936,9.936,0,0,1-2.911.8c-.192-.029-.383-.065-.575-.1-5.255-1.871-8.815-6.015-11.313-10.96a14.971,14.971,0,0,1,.9-5.992c.136-.385-.534-.64-.679-.254a16.214,16.214,0,0,0-1.025,4.557q-.631-1.418-1.163-2.891a32.648,32.648,0,0,0-.8-6.23,22.424,22.424,0,0,0,2.813-3.873c.137-.24-.244-.444-.379-.2a22.025,22.025,0,0,1-2.538,3.62,33.044,33.044,0,0,0-1.361-4.31,20.1,20.1,0,0,0,.912-2.569c.037-.133-.172-.18-.209-.048a19.992,19.992,0,0,1-.824,2.333c-.343-.848-.716-1.683-1.128-2.5a8.982,8.982,0,0,0-.1-2.445c-.027-.145-.26-.1-.252.045a7.576,7.576,0,0,1-.058,1.391,11.939,11.939,0,0,0-4.045-5.8c-.036-.044-.067-.091-.1-.135a.132.132,0,0,0-.148-.035,7.249,7.249,0,0,0-3.729-1.3,7.326,7.326,0,0,0-.862.034c2.765-1.489,6.268-1.328,9.331-1.158.387.021.357-.58-.027-.6-3.421-.19-8.068-.155-10.95,2.045a5.7,5.7,0,0,0-2.962,2.2.642.642,0,0,0-.516.291c-3.432,5.012-.8,12.178,5.468,12.944a7.772,7.772,0,0,0,7.054-2.782c-2.331,7.6-11.687,9.573-19.052,7.473-.743-.212-1.461-.462-2.164-.727a17.738,17.738,0,0,1-8.2-13.851c-1.237-13.936,9.295-24.087,19.38-31.926.032-.024,0-.079-.034-.055-11.244,8.274-23.883,20.5-19.88,35.933a16.973,16.973,0,0,0,4.2,7.59q-.583-.391-1.125-.819C317.558,347.161,317.495,347.1,317.434,347.035Zm19.187-4.11q-4.379-1.212-3.642-5.159a3.742,3.742,0,0,1,.056-2.978c-.71,3.331,2.586,6.92,5.957,5.365.123-.056.064-.26-.065-.2a3.986,3.986,0,0,1-4.958-1.84,4.493,4.493,0,0,1,.2-4.647,6.136,6.136,0,0,1,.787-.513,6.876,6.876,0,0,1,7.723,2.251,11.73,11.73,0,0,1,2.291,5.626,6.666,6.666,0,0,1-7.362,3.048,6.884,6.884,0,0,1-2.7-1.318,7.234,7.234,0,0,0,1.668.577A.107.107,0,0,0,336.621,342.924Zm36.9,23.537a14.531,14.531,0,0,1-8.786,2,10.663,10.663,0,0,0,2.632-.91A18.842,18.842,0,0,0,373.517,366.461Zm-26.323-20.7q.14.917.3,1.833l-.146.139Q347.262,346.756,347.194,345.766Zm.377,2.264c.086.473.178.946.275,1.417-.145-.425-.291-.847-.423-1.278C347.474,348.124,347.521,348.076,347.571,348.03Zm.76-.427c0-.092-.006-.186-.011-.278.109-.109.213-.224.319-.336a36.674,36.674,0,0,1,.6,3.7C348.906,349.665,348.606,348.633,348.331,347.6Zm-.03-.8c-.02-.531-.04-1.061-.054-1.591.115.437.195.886.294,1.328C348.46,346.625,348.382,346.714,348.3,346.8Zm-.29-2.356q.023,1.072.06,2.163c-.331-1.312-.625-2.609-.891-3.874.061-.122.124-.241.183-.365C347.607,343.05,347.81,343.747,348.01,344.444Zm-.908-2.077c-.089-.429-.173-.853-.256-1.274.131.326.274.648.4.978C347.2,342.171,347.151,342.27,347.1,342.367Zm1.206,9.159c.066.269.138.537.208.8.024.179.051.359.077.538-.237-.763-.455-1.534-.647-2.314C348.061,350.882,348.187,351.2,348.308,351.526Zm.751,2.688c.05.159.1.319.147.477-.04-.109-.075-.219-.114-.327C349.083,354.313,349.069,354.265,349.059,354.214Zm31.29-10.542c-.027-.053-.052-.107-.08-.159a27.409,27.409,0,0,0-6.444-7.979c-.052-.055-.1-.109-.155-.164a17.777,17.777,0,0,1,9.168,14.655A20.977,20.977,0,0,0,380.349,343.672ZM369.162,332.3c-.076-.055-.152-.111-.229-.166q-.167-.209-.323-.425c.582.4,1.142.821,1.691,1.257Q369.74,332.625,369.162,332.3Zm-2.359-1.639c-.225-.152-.45-.3-.675-.452.2.107.4.2.6.312C366.752,330.571,366.773,330.62,366.8,330.666Zm-1.593-7.477c-.01.063-.008.128-.017.191l-.118.076C365.117,323.365,365.162,323.277,365.209,323.189Zm18.11,2.006a3.71,3.71,0,0,1-.256.653c-.251.246-.515.488-.788.724q-.464.314-.943.6a12.913,12.913,0,0,0,1.016-.827c.126-.113-.055-.336-.19-.23a11.975,11.975,0,0,1-2.934,1.707c-.066,0-.12.016-.188.016a.771.771,0,0,0-.437.133c-1.192.125-2.381.191-3.568.209a16.994,16.994,0,0,0,8.07-6.6,6.313,6.313,0,0,1,.336,3.062A.623.623,0,0,0,383.319,325.2Zm-9.66,2.979a52.333,52.333,0,0,1-6.916-.592,9.9,9.9,0,0,1,.169-5.109l9.3-5.812a.151.151,0,0,0-.161-.255l-1.864,1.2a.252.252,0,0,0-.279-.133,22.9,22.9,0,0,0-5.029,1.655,8.879,8.879,0,0,1,10.709-1.832,7.74,7.74,0,0,1,3.386,3.99A16.638,16.638,0,0,1,373.659,328.174Zm-.3-10.041L367,322.217a8.65,8.65,0,0,1,.992-1.986A17.662,17.662,0,0,1,373.363,318.133Zm-8.408,5.562.223-.139a10.841,10.841,0,0,0,.055,3,4.451,4.451,0,0,1-.306-1.665.151.151,0,0,0-.3-.026,7.262,7.262,0,0,0-.115,1.461A5.375,5.375,0,0,1,364.955,323.7Zm2.055,4.875c-.036-.111-.076-.221-.108-.334a31.229,31.229,0,0,0,4.077.474c-.2.022-.393.055-.593.071-.331.026-.308.547.023.515a17.173,17.173,0,0,0,2.975-.563,37.063,37.063,0,0,0,3.86-.3,12.784,12.784,0,0,1-2.981.3c-.461-.009-.461.657-.058.754C371.756,329.754,368.9,329.663,367.009,328.57Zm16.863,19.186a21.567,21.567,0,0,0-7.816-12.281C381.252,337.2,383.624,342.168,383.872,347.756Zm3.691-44.917a.068.068,0,0,0,0,.085,19.105,19.105,0,0,1,3.57,12.1,23.425,23.425,0,0,0-4.4-13.1C387.011,302.225,387.291,302.52,387.564,302.839ZM380.873,297c.172.14.349.277.518.42-.413-.3-.827-.608-1.258-.887C380.382,296.679,380.626,296.844,380.873,297ZM341.81,351.474a9.779,9.779,0,0,0,3.7-4.7q.088,1.176.223,2.322A21.583,21.583,0,0,1,341.81,351.474Z" transform="translate(-19742.535 4902.084)" fill="url(#linear-gradient)"/>
      <path id="Path_22" data-name="Path 22" d="M308.759,320.079c5.661-10.68,14.486-18.422,24.651-24.738a.522.522,0,0,0-.527-.9c-11.128,5.091-19.107,14.632-24.288,25.544-.052.109.106.2.164.1Z" transform="translate(-19742.521 4901.973)" fill="url(#linear-gradient)"/>
      <path id="Path_23" data-name="Path 23" d="M391.28,358.554c-1.072,3.443-2.9,6.337-4.509,9.523a1.17,1.17,0,0,0,2.019,1.18c1.906-3.173,2.474-7.036,2.707-10.674.009-.129-.181-.145-.217-.029Z" transform="translate(-19744.568 4900.292)" fill="url(#linear-gradient)"/>
    </g>
    <circle id="Ellipse_2007" data-name="Ellipse 2007" cx="10.5" cy="10.5" r="10.5" transform="translate(1206 1239.186)" fill="#434343"/>
    <circle id="Ellipse_2010" data-name="Ellipse 2010" cx="10.5" cy="10.5" r="10.5" transform="translate(107 1557.186)" fill="#434343"/>
    <circle id="Ellipse_2013" data-name="Ellipse 2013" cx="10.5" cy="10.5" r="10.5" transform="translate(893 1681.186)" fill="#434343"/>
    <circle id="Ellipse_2014" data-name="Ellipse 2014" cx="5.5" cy="5.5" r="5.5" transform="translate(929 1676.186)" fill="#434343"/>
    <circle id="Ellipse_2011" data-name="Ellipse 2011" cx="7" cy="7" r="7" transform="translate(38 1530.186)" fill="#434343"/>
    <circle id="Ellipse_2012" data-name="Ellipse 2012" cx="7" cy="7" r="7" transform="translate(52 1591.186)" fill="#434343"/>
    <ellipse id="Ellipse_2009" data-name="Ellipse 2009" cx="8.5" cy="9" rx="8.5" ry="9" transform="translate(1181 1275.186)" fill="#434343"/>
    <ellipse id="Ellipse_2008" data-name="Ellipse 2008" cx="8.5" cy="9" rx="8.5" ry="9" transform="translate(1259 1260.186)" fill="#434343"/>
  </g>
</svg>
